<svg width="78" height="21" viewBox="0 0 78 21" fill="none" xmlns="http://www.w3.org/2000/svg">
<path fill-rule="evenodd" clip-rule="evenodd" d="M39.4979 17.2204C40.449 17.2204 41.2201 16.4493 41.2201 15.4981C41.2201 14.5469 40.449 13.7759 39.4979 13.7759C38.5467 13.7759 37.7756 14.5469 37.7756 15.4981C37.7756 16.4493 38.5467 17.2204 39.4979 17.2204ZM39.4979 19.9982C41.9832 19.9982 43.9979 17.9834 43.9979 15.4981C43.9979 13.0128 41.9832 10.998 39.4979 10.998C37.0126 10.998 34.9978 13.0128 34.9978 15.4981C34.9978 17.9834 37.0126 19.9982 39.4979 19.9982Z" fill="white"/>
<path fill-rule="evenodd" clip-rule="evenodd" d="M67.9622 6.22232C68.9134 6.22232 69.6845 5.45124 69.6845 4.50007C69.6845 3.5489 68.9134 2.77782 67.9622 2.77782C67.0111 2.77782 66.24 3.5489 66.24 4.50007C66.24 5.45124 67.0111 6.22232 67.9622 6.22232ZM67.9622 9.00014C70.4476 9.00014 72.4623 6.98539 72.4623 4.50007C72.4623 2.01475 70.4476 0 67.9622 0C65.4769 0 63.4622 2.01475 63.4622 4.50007C63.4622 6.98539 65.4769 9.00014 67.9622 9.00014Z" fill="white"/>
<path fill-rule="evenodd" clip-rule="evenodd" d="M36.385 4.5918C37.1511 4.5918 37.7722 5.21287 37.7722 5.979V6.03449C37.7722 6.80061 38.3933 7.42169 39.1594 7.42169H46.1896C46.9557 7.42169 47.5768 8.04276 47.5768 8.80889C47.5768 9.57502 46.9557 10.1961 46.1896 10.1961H39.1594C36.861 10.1961 34.9978 8.33287 34.9978 6.03449V5.979C34.9978 5.21287 35.6189 4.5918 36.385 4.5918Z" fill="white"/>
<path fill-rule="evenodd" clip-rule="evenodd" d="M73.3781 10.2609L73.3781 1.23924C73.3781 0.554829 73.9937 2.86816e-07 74.7531 -5.88628e-08C75.5126 -4.04541e-07 76.1282 0.554828 76.1282 1.23924L76.1282 10.2609C76.1282 10.9454 75.5126 11.5002 74.7532 11.5002C73.9938 11.5002 73.3781 10.9454 73.3781 10.2609Z" fill="white"/>
<path fill-rule="evenodd" clip-rule="evenodd" d="M58.9859 19.9883C58.2197 19.9883 57.5987 19.3672 57.5986 18.6011L57.5986 14.0364C57.5986 13.2703 56.9775 12.6492 56.2114 12.6492L50.6406 12.6492C49.8744 12.6492 49.2534 12.0281 49.2534 11.262C49.2534 10.4959 49.8744 9.8748 50.6406 9.8748L56.2114 9.8748C58.5098 9.8748 60.373 11.738 60.373 14.0364L60.373 18.6011C60.3731 19.3672 59.752 19.9883 58.9859 19.9883Z" fill="white"/>
<path fill-rule="evenodd" clip-rule="evenodd" d="M55.3755 10.998C56.1349 10.998 56.7505 11.5976 56.7505 12.3372L56.7505 18.6591C56.7505 19.3987 56.1349 19.9982 55.3755 19.9982C54.6161 19.9982 54.0004 19.3987 54.0004 18.6591L54.0004 12.3372C54.0004 11.5976 54.6161 10.998 55.3755 10.998Z" fill="white"/>
<path fill-rule="evenodd" clip-rule="evenodd" d="M34.9978 1.38721C34.9978 0.621077 35.6189 5.72214e-06 36.385 5.72214e-06L39.8729 0C42.1713 0 44.0345 1.86321 44.0345 4.1616V5.21587C44.0345 5.982 43.4134 6.60307 42.6473 6.60307C41.8812 6.60307 41.2601 5.982 41.2601 5.21587V4.1616C41.2601 3.39547 40.639 2.7744 39.8729 2.7744L36.385 2.77441C35.6189 2.77441 34.9978 2.15334 34.9978 1.38721Z" fill="white"/>
<path fill-rule="evenodd" clip-rule="evenodd" d="M76.1282 18.6128C76.1282 19.3789 75.5071 20 74.741 20L71.3721 20C69.0737 20 67.2105 18.1368 67.2105 15.8384L67.2105 13.1195C67.2105 12.3534 67.8315 11.7323 68.5977 11.7323C69.3638 11.7323 69.9849 12.3534 69.9849 13.1195L69.9849 15.8384C69.9849 16.6045 70.6059 17.2256 71.3721 17.2256L74.741 17.2256C75.5071 17.2256 76.1282 17.8467 76.1282 18.6128Z" fill="white"/>
<path d="M60.5016 4.50007C60.5016 6.98539 58.4869 9.00014 56.0015 9.00014C53.5162 9.00014 51.5015 6.98539 51.5015 4.50007C51.5015 2.01475 53.5162 0 56.0015 0C58.4869 0 60.5016 2.01475 60.5016 4.50007Z" fill="white"/>
<path fill-rule="evenodd" clip-rule="evenodd" d="M12.2489 9.00014C14.4787 9.00014 16.3298 7.37833 16.6868 5.24993H21.0508C21.4078 7.37833 23.2588 9.00014 25.4886 9.00014C27.974 9.00014 29.9887 6.98539 29.9887 4.50007C29.9887 2.01475 27.974 0 25.4886 0C23.2589 0 21.4079 1.62166 21.0508 3.74991H16.6867C16.3296 1.62166 14.4786 0 12.2489 0C9.76359 0 7.74884 2.01475 7.74884 4.50007C7.74884 5.69432 8.21404 6.77991 8.97312 7.58552L6.35382 11.392C5.78853 11.1361 5.16094 10.9936 4.50007 10.9936C2.01475 10.9936 0 13.0084 0 15.4937C0 17.979 2.01475 19.9938 4.50007 19.9938C6.98539 19.9938 9.00014 17.979 9.00014 15.4937C9.00014 14.2089 8.46169 13.0498 7.59812 12.2298L10.1701 8.49223C10.7919 8.8167 11.499 9.00014 12.2489 9.00014ZM25.4886 6.75009C26.7313 6.75009 27.7386 5.74272 27.7386 4.50007C27.7386 3.25742 26.7313 2.25006 25.4886 2.25006C24.246 2.25006 23.2386 3.25742 23.2386 4.50007C23.2386 5.74272 24.246 6.75009 25.4886 6.75009ZM6.75009 15.4937C6.75009 16.7363 5.74272 17.7437 4.50007 17.7437C3.25742 17.7437 2.25006 16.7363 2.25006 15.4937C2.25006 14.251 3.25742 13.2437 4.50007 13.2437C5.74272 13.2437 6.75009 14.251 6.75009 15.4937Z" fill="white"/>
<path fill-rule="evenodd" clip-rule="evenodd" d="M12.2489 9.00014C14.4787 9.00014 16.3298 7.37833 16.6868 5.24993H21.0508C21.4078 7.37833 23.2588 9.00014 25.4886 9.00014C27.974 9.00014 29.9887 6.98539 29.9887 4.50007C29.9887 2.01475 27.974 0 25.4886 0C23.2589 0 21.4079 1.62166 21.0508 3.74991H16.6867C16.3296 1.62166 14.4786 0 12.2489 0C9.76359 0 7.74884 2.01475 7.74884 4.50007C7.74884 5.69432 8.21404 6.77991 8.97312 7.58552L6.35382 11.392C5.78853 11.1361 5.16094 10.9936 4.50007 10.9936C2.01475 10.9936 0 13.0084 0 15.4937C0 17.979 2.01475 19.9938 4.50007 19.9938C6.98539 19.9938 9.00014 17.979 9.00014 15.4937C9.00014 14.2089 8.46169 13.0498 7.59812 12.2298L10.1701 8.49223C10.7919 8.8167 11.499 9.00014 12.2489 9.00014ZM25.4886 6.75009C26.7313 6.75009 27.7386 5.74272 27.7386 4.50007C27.7386 3.25742 26.7313 2.25006 25.4886 2.25006C24.246 2.25006 23.2386 3.25742 23.2386 4.50007C23.2386 5.74272 24.246 6.75009 25.4886 6.75009ZM6.75009 15.4937C6.75009 16.7363 5.74272 17.7437 4.50007 17.7437C3.25742 17.7437 2.25006 16.7363 2.25006 15.4937C2.25006 14.251 3.25742 13.2437 4.50007 13.2437C5.74272 13.2437 6.75009 14.251 6.75009 15.4937Z" fill="url(#paint0_linear_2_3038)"/>
<defs>
<linearGradient id="paint0_linear_2_3038" x1="-0.624662" y1="26.8461" x2="29.2356" y2="27.7963" gradientUnits="userSpaceOnUse">
<stop stop-color="#FCAF45"/>
<stop offset="0.244792" stop-color="#E1306C"/>
<stop offset="0.510417" stop-color="#C13584"/>
<stop offset="0.760417" stop-color="#833AB4"/>
<stop offset="1" stop-color="#405DE6"/>
</linearGradient>
</defs>
</svg>
