<svg width="165" height="100" viewBox="0 0 165 100" fill="none" xmlns="http://www.w3.org/2000/svg">
<path d="M112.528 83.8689H54.1256C52.9542 83.8689 52 82.9148 52 81.7433V11.8346C52 10.6631 52.9542 9.70898 54.1256 9.70898H112.528C113.699 9.70898 114.653 10.6631 114.653 11.8346V81.7433C114.653 82.9148 113.709 83.8689 112.528 83.8689ZM56.2607 79.6177H110.412V13.9602H56.2607V79.6177Z" fill="#565ADF"/>
<path d="M67.8141 37.927C67.7764 37.927 67.7386 37.927 67.7008 37.927C67.1623 37.8986 66.6616 37.6341 66.3215 37.209L62.5615 32.4004C61.9191 31.5785 62.0608 30.3882 62.8827 29.7458C63.7046 29.1034 64.895 29.2451 65.5374 30.067L67.9747 33.1845L74.0587 27.0628C74.7956 26.3259 75.9954 26.3164 76.7322 27.0533C77.4691 27.7902 77.4785 28.9806 76.7416 29.7269L69.1556 37.3602C68.8061 37.7286 68.3243 37.927 67.8141 37.927Z" fill="#565ADF"/>
<path d="M67.8141 53.8358C67.7764 53.8358 67.7386 53.8358 67.7008 53.8358C67.1623 53.8074 66.6616 53.5429 66.3215 53.1178L62.5615 48.3092C61.9191 47.4873 62.0608 46.2969 62.8827 45.6545C63.7046 45.0121 64.895 45.1539 65.5374 45.9758L67.9747 49.0933L74.0587 42.9716C74.7956 42.2347 75.9954 42.2253 76.7322 42.9621C77.4691 43.699 77.4785 44.8894 76.7416 45.6357L69.1556 53.2689C68.8061 53.6374 68.3243 53.8358 67.8141 53.8358Z" fill="#565ADF"/>
<path d="M67.8141 69.7446C67.7764 69.7446 67.7386 69.7446 67.7008 69.7446C67.1623 69.7163 66.6616 69.4517 66.3215 69.0266L62.5615 64.2181C61.9191 63.3962 62.0608 62.2058 62.8827 61.5634C63.7046 60.921 64.895 61.0627 65.5374 61.8846L67.9747 65.0022L74.0587 58.8804C74.7956 58.1435 75.9954 58.1341 76.7322 58.8709C77.4691 59.6078 77.4785 60.7982 76.7416 61.5445L69.1556 69.1778C68.8061 69.5462 68.3243 69.7446 67.8141 69.7446Z" fill="#565ADF"/>
<path d="M101.909 36.0373H80.6624C79.6233 36.0373 78.773 35.187 78.773 34.1478C78.773 33.1087 79.6233 32.2584 80.6624 32.2584H101.909C102.948 32.2584 103.798 33.1087 103.798 34.1478C103.798 35.1965 102.948 36.0373 101.909 36.0373Z" fill="#565ADF"/>
<path d="M101.909 52.0882H80.6624C79.6233 52.0882 78.773 51.2379 78.773 50.1988C78.773 49.1596 79.6233 48.3093 80.6624 48.3093H101.909C102.948 48.3093 103.798 49.1596 103.798 50.1988C103.798 51.2379 102.948 52.0882 101.909 52.0882Z" fill="#565ADF"/>
<path d="M101.909 68.5838H80.6624C79.6233 68.5838 78.773 67.7335 78.773 66.6944C78.773 65.6552 79.6233 64.8049 80.6624 64.8049H101.909C102.948 64.8049 103.798 65.6552 103.798 66.6944C103.798 67.743 102.948 68.5838 101.909 68.5838Z" fill="#565ADF"/>
</svg>
