<svg width="165" height="100" viewBox="0 0 165 100" fill="none" xmlns="http://www.w3.org/2000/svg">
<path d="M64.2196 42.0573C52.1304 42.0573 43.0106 37.3132 43.0106 31.0287C43.0106 24.7441 52.1304 20 64.2196 20C76.3087 20 85.4285 24.7441 85.4285 31.0287C85.4285 37.3244 76.3087 42.0573 64.2196 42.0573ZM64.2196 25.0344C54.3406 25.0344 48.0338 28.5952 48.0338 31.0398C48.0338 33.4845 54.3406 37.0453 64.2196 37.0453C74.0985 37.0453 80.4054 33.4956 80.4054 31.0398C80.4054 28.5841 74.0985 25.0344 64.2196 25.0344Z" fill="#565ADF"/>
<path d="M64.4434 54.3803C58.7282 54.3803 54.5422 53.1859 54.2743 53.1078C47.2418 51.2883 43 47.6158 43 43.2959V32.3007C43 30.9165 44.1274 29.7891 45.5116 29.7891C46.8958 29.7891 48.0232 30.9165 48.0232 32.3007V43.2959C48.0232 44.7917 50.6241 46.9795 55.6026 48.2744C55.7589 48.319 64.1532 50.6743 72.7707 48.2855C78.006 46.8344 80.3948 44.68 80.3948 43.2959V32.3007C80.3948 30.9165 81.5222 29.7891 82.9064 29.7891C84.2905 29.7891 85.4179 30.9165 85.4179 32.3007V43.2959C85.4179 47.5488 81.299 51.1209 74.1102 53.119C70.7168 54.0678 67.3792 54.3803 64.4434 54.3803Z" fill="#565ADF"/>
<path d="M64.9676 67.094C59.71 67.094 55.2114 66.0224 54.9324 65.9443C47.4869 64.3257 43.0107 60.5304 43.0107 55.8198V44.8135C43.0107 43.4293 44.1381 42.3019 45.5223 42.3019C46.9065 42.3019 48.0339 43.4293 48.0339 44.8135V55.8198C48.0339 57.55 50.5232 59.8383 56.071 61.0551C56.2273 61.0886 65.4699 63.2876 71.8661 61.1109C77.5479 59.1797 80.4167 57.3937 80.4167 55.8198V44.8135C80.4167 43.4293 81.5441 42.3019 82.9282 42.3019C84.3124 42.3019 85.4398 43.4293 85.4398 44.8135V55.8198C85.4398 61.0662 79.6911 63.7453 73.4846 65.8661C70.7721 66.7926 67.7694 67.094 64.9676 67.094Z" fill="#565ADF"/>
<path d="M64.2197 80.5222C53.1129 80.5222 43.0107 74.4721 43.0107 67.8415V56.8463C43.0107 55.4621 44.1381 54.3347 45.5223 54.3347C46.9065 54.3347 48.0339 55.4621 48.0339 56.8463V67.8415C48.0339 70.5317 54.7091 75.4991 64.2197 75.4991C73.7302 75.4991 80.4055 70.5317 80.4055 67.8415V56.8463C80.4055 55.4621 81.5329 54.3347 82.9171 54.3347C84.3012 54.3347 85.4287 55.4621 85.4287 56.8463V67.8415C85.4287 74.4721 75.3265 80.5222 64.2197 80.5222Z" fill="#565ADF"/>
<path d="M101.785 53.0959C89.9301 53.0959 81 48.4411 81 42.2682C81 36.0953 89.9413 31.4404 101.785 31.4404C113.639 31.4404 122.57 36.0953 122.57 42.2682C122.57 48.4411 113.628 53.0959 101.785 53.0959ZM101.785 36.4636C92.1626 36.4636 86.0232 39.9017 86.0232 42.2682C86.0232 44.5788 92.3077 48.0728 101.785 48.0728C111.262 48.0728 117.546 44.5788 117.546 42.2682C117.546 39.9017 111.407 36.4636 101.785 36.4636Z" fill="#565ADF"/>
<path d="M102.929 66.081C97.783 66.081 93.3849 65.0317 93.1059 64.9647C85.8055 63.3797 81.4074 59.6514 81.4074 55.0189V44.2693C81.4074 42.8851 82.5349 41.7577 83.919 41.7577C85.3032 41.7577 86.4306 42.8851 86.4306 44.2693V55.0189C86.4306 56.6933 88.8417 58.9034 94.2333 60.0755C94.3896 60.109 103.409 62.2634 109.638 60.1313C115.163 58.2448 117.965 56.5258 117.965 55.0189V44.2693C117.965 42.8851 119.092 41.7577 120.477 41.7577C121.861 41.7577 122.988 42.8851 122.988 44.2693V55.0189C122.988 60.176 117.351 62.8104 111.267 64.8866C108.622 65.7796 105.664 66.081 102.929 66.081Z" fill="#565ADF"/>
<path d="M102.203 79.1962C91.3194 79.1962 81.4182 73.2577 81.4182 66.7387V55.9891C81.4182 54.605 82.5456 53.4775 83.9297 53.4775C85.3139 53.4775 86.4413 54.605 86.4413 55.9891V66.7387C86.4413 69.3508 92.938 74.173 102.203 74.173C111.468 74.173 117.965 69.3508 117.965 66.7387V55.9891C117.965 54.605 119.092 53.4775 120.476 53.4775C121.86 53.4775 122.988 54.605 122.988 55.9891V66.7387C122.988 73.2689 113.075 79.1962 102.203 79.1962Z" fill="#565ADF"/>
<path d="M101.785 53.0959C89.9301 53.0959 81 48.4411 81 42.2682C81 36.0953 89.9413 31.4404 101.785 31.4404C113.639 31.4404 122.57 36.0953 122.57 42.2682C122.57 48.4411 113.628 53.0959 101.785 53.0959ZM101.785 36.4636C92.1626 36.4636 86.0232 39.9017 86.0232 42.2682C86.0232 44.5788 92.3077 48.0728 101.785 48.0728C111.262 48.0728 117.546 44.5788 117.546 42.2682C117.546 39.9017 111.407 36.4636 101.785 36.4636Z" fill="#565ADF"/>
<path d="M102.929 66.081C97.783 66.081 93.3849 65.0317 93.1059 64.9647C85.8055 63.3797 81.4074 59.6514 81.4074 55.0189V44.2693C81.4074 42.8851 82.5349 41.7577 83.919 41.7577C85.3032 41.7577 86.4306 42.8851 86.4306 44.2693V55.0189C86.4306 56.6933 88.8417 58.9034 94.2333 60.0755C94.3896 60.109 103.409 62.2634 109.638 60.1313C115.163 58.2448 117.965 56.5258 117.965 55.0189V44.2693C117.965 42.8851 119.092 41.7577 120.477 41.7577C121.861 41.7577 122.988 42.8851 122.988 44.2693V55.0189C122.988 60.176 117.351 62.8104 111.267 64.8866C108.622 65.7796 105.664 66.081 102.929 66.081Z" fill="#565ADF"/>
<path d="M102.203 79.1962C91.3194 79.1962 81.4182 73.2577 81.4182 66.7387V55.9891C81.4182 54.605 82.5456 53.4775 83.9297 53.4775C85.3139 53.4775 86.4413 54.605 86.4413 55.9891V66.7387C86.4413 69.3508 92.938 74.173 102.203 74.173C111.468 74.173 117.965 69.3508 117.965 66.7387V55.9891C117.965 54.605 119.092 53.4775 120.476 53.4775C121.86 53.4775 122.988 54.605 122.988 55.9891V66.7387C122.988 73.2689 113.075 79.1962 102.203 79.1962Z" fill="#565ADF"/>
</svg>
