<svg width="100" height="28" viewBox="0 0 100 28" fill="none" xmlns="http://www.w3.org/2000/svg">
<g clip-path="url(#clip0)">
<path d="M24.132 15.0969C23.7349 16.4619 22.4899 17.4586 21.0089 17.4586C19.5278 17.4586 18.2828 16.4619 17.8857 15.0969H12.8522V8.27696C13.1527 8.45572 13.4961 8.56406 13.8717 8.56406C14.9665 8.56406 15.8573 7.66485 15.8573 6.5598C15.8573 5.45475 14.9665 4.55554 13.8717 4.55554C13.5015 4.55554 13.1527 4.65847 12.8522 4.84264V2.05835H0V28.0053H12.8522V27.9945H25.7043V15.1023H24.132V15.0969Z" fill="#8A8B8C"/>
<path d="M27.7652 0H14.9184V3.49391C16.1795 3.93268 17.0864 5.14065 17.0864 6.55988C17.0864 7.98452 16.1795 9.18708 14.9184 9.62585V12.8922H19.8178C19.4153 13.2443 19.1577 13.7589 19.1577 14.3386C19.1577 15.3949 20.0056 16.2453 21.0466 16.2453C22.0931 16.2453 22.9356 15.3894 22.9356 14.3386C22.9356 13.7589 22.678 13.2389 22.2755 12.8922H27.7652V0Z" fill="#9C9FA3"/>
<path d="M48.9933 17.3447H49.0041L49.0577 17.1118L48.9933 17.3447Z" fill="#8A8B8C"/>
<path d="M36.7371 7.36694H35.0306V22.881H43.4878V21.3317H36.7371V7.36694Z" fill="#8A8B8C"/>
<path d="M50.0398 7.36694L45.8219 22.881H47.5069L48.6177 18.8887H48.6231L49.0041 17.3449H48.9934L49.0577 17.112L49.0899 16.982L49.0577 17.112L51.3277 8.84576H52.4814L54.8104 17.3449H54.7996L55.1914 18.8887L56.3022 22.881H57.9872L53.7693 7.36694H50.0398Z" fill="#8A8B8C"/>
<path d="M64.9365 14.631L61.1211 7.36694H59.1892L64.094 16.359V22.881H65.8058V16.359L70.6891 7.36694H68.7572L64.9365 14.631Z" fill="#8A8B8C"/>
<path d="M79.506 21.3534H78.2611L74.7301 7.36694H72.9539L76.9732 22.881H80.7939L84.8133 7.36694H83.037L79.506 21.3534Z" fill="#8A8B8C"/>
<path d="M98.658 9.11653C97.7618 7.80022 96.1841 7.14478 93.9142 7.14478C91.6496 7.14478 90.072 7.80564 89.1865 9.12736C88.2957 10.4491 87.8557 12.475 87.8557 15.1997C87.8557 17.9298 88.2904 19.9233 89.1651 21.1962C90.0398 22.4692 91.6282 23.103 93.9303 23.103C96.2324 23.103 97.8208 22.4855 98.6955 21.245C99.5702 20.0045 100.005 18.0003 100.005 15.2376C99.9995 12.4696 99.5541 10.4328 98.658 9.11653ZM97.3486 20.1237C96.7637 21.0933 95.626 21.5808 93.9303 21.5808C92.2346 21.5808 91.0916 21.0825 90.5013 20.0912C89.911 19.0999 89.6105 17.464 89.6105 15.1943C89.6105 12.9246 89.911 11.267 90.512 10.227C91.113 9.18695 92.2453 8.66693 93.9088 8.66693C95.5724 8.66693 96.71 9.19237 97.3164 10.2378C97.9228 11.2833 98.2287 12.9517 98.2287 15.2376C98.2287 17.5236 97.9335 19.1541 97.3486 20.1237Z" fill="#8A8B8C"/>
</g>
<defs>
<clipPath id="clip0">
<rect width="100" height="28" fill="white"/>
</clipPath>
</defs>
</svg>
