<svg width="125" height="123" viewBox="0 0 125 123" fill="none" xmlns="http://www.w3.org/2000/svg">
<path d="M124.926 61.4778C124.926 95.4321 97.4092 122.955 63.463 122.955C29.5168 122.955 2 95.4321 2 61.4778C2 27.5235 29.5168 0 63.463 0C97.4092 0 124.926 27.5235 124.926 61.4778Z" fill="#EEEEEE"/>
<g filter="url(#filter0_d)">
<path d="M78.9669 90.449V85.7689H100.951V47H47.0493V85.7689H69.0331V90.449C55.9396 90.6011 46 91.3323 46 92.2099C46 93.1985 58.5338 94 74 94C89.4662 94 102 93.1985 102 92.2099C102 91.3323 92.0604 90.6011 78.9669 90.449Z" fill="#1E205C"/>
<path d="M97 51H51V82H97V51Z" fill="white"/>
</g>
<g filter="url(#filter1_d)">
<path d="M66.1913 71.9259C65.745 67.0294 66.0309 54.0908 66.1495 49.4664C66.1983 48.9154 66.2262 48.3573 66.2262 47.7993C66.2262 43.2865 64.6432 39.1503 62.0004 35.8999C58.5416 31.6382 53.2628 28.918 47.3494 28.918C41.0734 28.918 35.5226 31.9801 32.0917 36.6882C29.8254 39.806 28.4796 43.6422 28.4796 47.7923C28.4796 48.1411 28.4865 48.4828 28.5075 48.8246C28.6121 52.7446 28.9468 66.7783 28.4796 71.9189C28.3471 73.3697 27.6637 76.3271 22.7754 73.1325C22.7754 73.1325 28.3261 90.0677 47.3215 80.7561C47.3215 78.5172 47.3215 72.5257 47.3215 66.6737C47.3285 66.6737 47.3424 66.6737 47.3494 66.6737C47.3494 72.5187 47.3494 78.5172 47.3494 80.7561C66.3517 90.0677 71.8955 73.1325 71.8955 73.1325C67.0072 76.334 66.3238 73.3767 66.1913 71.9259Z" fill="#223757"/>
</g>
<g filter="url(#filter2_d)">
<path d="M29.5391 93.9888V77.5C29.5391 69.0672 37.3701 62.2246 47.0351 62.2246C56.7002 62.2246 64.5312 69.0602 64.5312 77.5V93.9888" fill="#565ADF"/>
</g>
<path d="M63.087 47.7992C63.087 56.49 56.037 63.5417 47.3482 63.5417C38.6594 63.5417 31.6094 56.49 31.6094 47.7992C31.6094 39.1084 38.6594 32.0566 47.3482 32.0566C56.0439 32.0566 63.087 39.1084 63.087 47.7992Z" fill="#FCE6D3"/>
<path d="M54.2537 50.7091C54.2537 51.4694 53.64 52.0903 52.873 52.0903C52.1128 52.0903 51.4922 51.4694 51.4922 50.7091C51.4922 49.9489 52.1059 49.3281 52.873 49.3281C53.6331 49.3281 54.2537 49.9489 54.2537 50.7091Z" fill="#223757"/>
<path d="M40.3184 50.7091C40.3184 51.4694 40.939 52.0903 41.6991 52.0903C42.4591 52.0903 43.0798 51.4694 43.0798 50.7091C43.0798 49.9489 42.4591 49.3281 41.6991 49.3281C40.939 49.3281 40.3184 49.9489 40.3184 50.7091Z" fill="#223757"/>
<path d="M47.5 31C38.3873 31 31 38.3873 31 47.5H64C64 38.3873 56.6127 31 47.5 31Z" fill="#223757"/>
<path d="M8.932 12.72C9.90267 12.7387 10.7893 12.8973 11.592 13.196C12.3947 13.4947 13.076 13.896 13.636 14.4C14.2147 14.904 14.6533 15.492 14.952 16.164C15.2507 16.836 15.3907 17.564 15.372 18.348C15.372 19.5427 15.064 20.5133 14.448 21.26C13.8507 21.988 13.1133 22.5667 12.236 22.996C13.468 23.4627 14.3547 24.1067 14.896 24.928C15.456 25.7307 15.736 26.748 15.736 27.98C15.7173 29.044 15.5027 29.9867 15.092 30.808C14.6813 31.6293 14.14 32.32 13.468 32.88C12.796 33.4213 12.012 33.832 11.116 34.112C10.22 34.392 9.28667 34.532 8.316 34.532C7.252 34.532 6.30933 34.4013 5.488 34.14C4.68533 33.8787 3.98533 33.5053 3.388 33.02C2.80933 32.516 2.30533 31.9093 1.876 31.2C1.46533 30.472 1.12 29.6507 0.84 28.736L4.256 27.392C4.33067 27.672 4.46133 28.008 4.648 28.4C4.83467 28.792 5.03067 29.1467 5.236 29.464C5.46 29.7627 5.712 30.0427 5.992 30.304C6.29067 30.5467 6.61733 30.752 6.972 30.92C7.34533 31.088 7.77467 31.172 8.26 31.172C8.876 31.172 9.408 31.088 9.856 30.92C10.3227 30.7333 10.7053 30.5 11.004 30.22C11.3213 29.9213 11.5547 29.5853 11.704 29.212C11.8533 28.8387 11.928 28.456 11.928 28.064C11.928 27.5787 11.872 27.1307 11.76 26.72C11.6667 26.3093 11.452 25.964 11.116 25.684C10.78 25.3853 10.2853 25.1613 9.632 25.012C8.97867 24.844 8.11067 24.76 7.028 24.76V21.96C7.94267 21.9413 8.69867 21.8573 9.296 21.708C9.89333 21.5587 10.36 21.3533 10.696 21.092C11.032 20.812 11.2653 20.4947 11.396 20.14C11.5267 19.7667 11.592 19.356 11.592 18.908C11.6107 17.9373 11.3587 17.2187 10.836 16.752C10.332 16.2667 9.62267 16.024 8.708 16.024C7.868 16.024 7.17733 16.2387 6.636 16.668C6.09467 17.0787 5.70267 17.62 5.46 18.292C5.32933 18.7027 5.22667 19.1413 5.152 19.608C4.55467 19.5147 3.948 19.412 3.332 19.3C2.73467 19.1693 2.128 19.0573 1.512 18.964C1.92267 16.8547 2.76267 15.2867 4.032 14.26C5.32 13.2333 6.95333 12.72 8.932 12.72Z" fill="#666666"/>
<defs>
<filter id="filter0_d" x="46" y="47" width="60" height="51" filterUnits="userSpaceOnUse" color-interpolation-filters="sRGB">
<feFlood flood-opacity="0" result="BackgroundImageFix"/>
<feColorMatrix in="SourceAlpha" type="matrix" values="0 0 0 0 0 0 0 0 0 0 0 0 0 0 0 0 0 0 127 0"/>
<feOffset dx="2" dy="2"/>
<feGaussianBlur stdDeviation="1"/>
<feColorMatrix type="matrix" values="0 0 0 0 0 0 0 0 0 0 0 0 0 0 0 0 0 0 0.2 0"/>
<feBlend mode="normal" in2="BackgroundImageFix" result="effect1_dropShadow"/>
<feBlend mode="normal" in="SourceGraphic" in2="effect1_dropShadow" result="shape"/>
</filter>
<filter id="filter1_d" x="22.7754" y="28.918" width="53.1201" height="58.6335" filterUnits="userSpaceOnUse" color-interpolation-filters="sRGB">
<feFlood flood-opacity="0" result="BackgroundImageFix"/>
<feColorMatrix in="SourceAlpha" type="matrix" values="0 0 0 0 0 0 0 0 0 0 0 0 0 0 0 0 0 0 127 0"/>
<feOffset dx="2" dy="2"/>
<feGaussianBlur stdDeviation="1"/>
<feColorMatrix type="matrix" values="0 0 0 0 0 0 0 0 0 0 0 0 0 0 0 0 0 0 0.25 0"/>
<feBlend mode="normal" in2="BackgroundImageFix" result="effect1_dropShadow"/>
<feBlend mode="normal" in="SourceGraphic" in2="effect1_dropShadow" result="shape"/>
</filter>
<filter id="filter2_d" x="29.5391" y="62.2246" width="38.9922" height="35.7642" filterUnits="userSpaceOnUse" color-interpolation-filters="sRGB">
<feFlood flood-opacity="0" result="BackgroundImageFix"/>
<feColorMatrix in="SourceAlpha" type="matrix" values="0 0 0 0 0 0 0 0 0 0 0 0 0 0 0 0 0 0 127 0"/>
<feOffset dx="2" dy="2"/>
<feGaussianBlur stdDeviation="1"/>
<feColorMatrix type="matrix" values="0 0 0 0 0 0 0 0 0 0 0 0 0 0 0 0 0 0 0.25 0"/>
<feBlend mode="normal" in2="BackgroundImageFix" result="effect1_dropShadow"/>
<feBlend mode="normal" in="SourceGraphic" in2="effect1_dropShadow" result="shape"/>
</filter>
</defs>
</svg>
