<svg width="142" height="124" viewBox="0 0 142 124" fill="none" xmlns="http://www.w3.org/2000/svg">
<path d="M123.874 61.952C123.874 96.1644 96.1412 123.904 61.9371 123.904C27.7329 123.904 0 96.1644 0 61.952C0 27.7396 27.7329 0 61.9371 0C96.1482 0.006975 123.874 27.7396 123.874 61.952Z" fill="#EEEEEE"/>
<g filter="url(#filter0_d)">
<path d="M98.0027 90.2358C98.0027 91.4634 96.9986 92.4609 95.7783 92.4609H29.5037C28.2764 92.4609 27.2793 91.4564 27.2793 90.2358V40.1273C27.2793 38.8997 28.2834 37.9023 29.5037 37.9023H95.7783C97.0056 37.9023 98.0027 38.9067 98.0027 40.1273V90.2358Z" fill="white"/>
</g>
<path d="M98.0027 40.1273C98.0027 38.8997 96.9986 37.9023 95.7783 37.9023H29.5037C28.2764 37.9023 27.2793 38.9067 27.2793 40.1273V52.6266H98.0097V40.1273H98.0027Z" fill="#565ADF"/>
<path d="M98.0029 40.1273C98.0029 38.8997 96.9988 37.9023 95.7785 37.9023H62.8086V52.6266H98.0029V40.1273Z" fill="#474AB1"/>
<path d="M45.1178 42.6161C45.1178 44.0739 43.9323 45.2596 42.4749 45.2596C41.0174 45.2596 39.832 44.0739 39.832 42.6161V33.2138C39.832 31.749 41.0174 30.5703 42.4749 30.5703C43.9323 30.5703 45.1178 31.756 45.1178 33.2138V42.6161Z" fill="white"/>
<path d="M85.4438 42.6161C85.4438 44.0739 84.2585 45.2596 82.8011 45.2596C81.3367 45.2596 80.1582 44.0739 80.1582 42.6161V33.2138C80.1582 31.749 81.3437 30.5703 82.8011 30.5703C84.2585 30.5703 85.4438 31.756 85.4438 33.2138V42.6161Z" fill="white"/>
<path d="M44.8457 81.7467L45.8429 77.6593C46.7774 78.2801 49.4621 78.9985 50.9893 78.9985C53.0464 78.9985 54.4201 78.1894 54.4201 75.8807C54.4201 73.8858 52.8929 73.1953 50.9264 73.007H48.179V69.1428H50.5499C52.5792 69.1428 54.1691 68.1454 54.1691 66.3947C54.1691 64.5254 52.7674 63.8698 50.9264 63.8698C49.6503 63.8698 47.7118 64.4626 46.4636 64.9927L45.557 61.003C47.0214 60.1591 50.0827 59.6289 52.3281 59.6289C56.2262 59.6289 59.155 61.5959 59.155 65.4322C59.155 68.1175 58.0324 69.8333 55.7869 70.7052C58.2834 71.326 59.8105 73.3558 59.8105 76.355C59.8105 80.8469 56.5679 83.3091 51.826 83.3091C49.3017 83.3021 45.9963 82.5558 44.8457 81.7467Z" fill="#223757"/>
<path d="M62.809 72.1074V71.1728C62.809 62.7191 67.1742 59.5664 71.665 59.5664C76.1907 59.5664 80.4305 62.8446 80.4305 71.0472V71.8912C80.4305 80.3449 76.0373 83.2465 71.5744 83.2465C66.8047 83.2395 62.809 80.0938 62.809 72.1074ZM75.4725 71.947V70.9775C75.4725 65.8299 73.9732 63.6468 71.6372 63.6468C69.1756 63.6468 67.8019 65.8649 67.8019 70.852V71.8494C67.8019 76.8434 69.0779 79.1801 71.6093 79.1801C74.036 79.187 75.4725 76.9132 75.4725 71.947Z" fill="#223757"/>
<path d="M42.4746 30.5703V45.2596C43.932 45.2596 45.1175 44.0739 45.1175 42.6161V33.2138C45.1175 31.756 43.939 30.5703 42.4746 30.5703Z" fill="#EDEDED"/>
<path d="M82.8008 30.5703V45.2596C84.2652 45.2596 85.4436 44.0739 85.4436 42.6161V33.2138C85.4436 31.756 84.2582 30.5703 82.8008 30.5703Z" fill="#EDEDED"/>
<rect width="26" height="5" rx="2.5" transform="matrix(-1 0 0 1 133 53)" fill="#565ADF"/>
<rect width="27" height="5" rx="2.5" transform="matrix(-1 0 0 1 142 62)" fill="#565ADF"/>
<rect width="20" height="5" rx="2.5" transform="matrix(-1 0 0 1 130 71)" fill="#565ADF"/>
<path d="M8.792 12.72C9.76267 12.72 10.6493 12.8693 11.452 13.168C12.2733 13.4667 12.9733 13.8867 13.552 14.428C14.1307 14.9507 14.5787 15.5853 14.896 16.332C15.232 17.0787 15.4 17.9 15.4 18.796C15.3813 19.524 15.2413 20.2333 14.98 20.924C14.7373 21.596 14.42 22.24 14.028 22.856C13.636 23.472 13.188 24.0693 12.684 24.648C12.1987 25.2267 11.6947 25.7867 11.172 26.328L6.832 30.696C7.20533 30.6027 7.56 30.5467 7.896 30.528C8.25067 30.4907 8.58667 30.472 8.904 30.472H15.624V34H1.036V31.76L8.064 24.844C9.128 23.78 9.968 22.7907 10.584 21.876C11.2 20.9613 11.508 19.9627 11.508 18.88C11.508 17.9093 11.2373 17.1813 10.696 16.696C10.1733 16.192 9.45467 15.94 8.54 15.94C7.756 15.94 7.09333 16.1733 6.552 16.64C6.01067 17.088 5.628 17.62 5.404 18.236C5.32933 18.4413 5.27333 18.656 5.236 18.88C5.21733 19.104 5.19867 19.356 5.18 19.636L1.512 19.02C1.82933 16.8733 2.64133 15.2867 3.948 14.26C5.25467 13.2333 6.86933 12.72 8.792 12.72Z" fill="#666666"/>
<defs>
<filter id="filter0_d" x="27.2793" y="37.9023" width="74.7234" height="58.5585" filterUnits="userSpaceOnUse" color-interpolation-filters="sRGB">
<feFlood flood-opacity="0" result="BackgroundImageFix"/>
<feColorMatrix in="SourceAlpha" type="matrix" values="0 0 0 0 0 0 0 0 0 0 0 0 0 0 0 0 0 0 127 0"/>
<feOffset dx="2" dy="2"/>
<feGaussianBlur stdDeviation="1"/>
<feColorMatrix type="matrix" values="0 0 0 0 0 0 0 0 0 0 0 0 0 0 0 0 0 0 0.2 0"/>
<feBlend mode="normal" in2="BackgroundImageFix" result="effect1_dropShadow"/>
<feBlend mode="normal" in="SourceGraphic" in2="effect1_dropShadow" result="shape"/>
</filter>
</defs>
</svg>
