<svg width="123" height="123" viewBox="0 0 123 123" fill="none" xmlns="http://www.w3.org/2000/svg">
<path d="M61.463 122.955C95.408 122.955 122.926 95.4309 122.926 61.4777C122.926 27.5244 95.408 0 61.463 0C27.5179 0 0 27.5244 0 61.4777C0 95.4309 27.5179 122.955 61.463 122.955Z" fill="#EEEEEE"/>
<g filter="url(#filter0_d)">
<path d="M81.8182 85.3876C81.9437 86.5315 81.1069 87.5708 79.9633 87.6894L35.2433 92.53C34.0997 92.6556 33.0606 91.8186 32.9421 90.6747L27.1961 37.567C27.0705 36.4231 27.9073 35.3838 29.051 35.2652L73.764 30.4246C74.9076 30.299 75.9466 31.136 76.0652 32.2799L81.8182 85.3876Z" fill="white"/>
</g>
<path d="M81.8185 85.3877L76.0725 32.2799C75.947 31.136 74.9079 30.299 73.7713 30.4246L50.9824 32.8938L57.6071 90.1168L79.9636 87.6965C81.1072 87.571 81.944 86.5316 81.8185 85.3877Z" fill="#E0E0E0"/>
<rect x="35" y="49.7285" width="23.1543" height="2" rx="1" transform="rotate(-6.11526 35 49.7285)" fill="#3E5475"/>
<rect x="36" y="55.7285" width="35" height="2" rx="1" transform="rotate(-6.11526 36 55.7285)" fill="#3E5475"/>
<rect x="37" y="61.7285" width="35" height="2" rx="1" transform="rotate(-6.11526 37 61.7285)" fill="#3E5475"/>
<rect x="38" y="67.7285" width="35" height="2" rx="1" transform="rotate(-6.11526 38 67.7285)" fill="#3E5475"/>
<rect x="39" y="73.7285" width="35" height="2" rx="1" transform="rotate(-6.11526 39 73.7285)" fill="#3E5475"/>
<path d="M101.518 53.6019C102.299 52.7579 102.243 51.4257 101.392 50.6445L100.967 50.2538C100.116 49.4726 98.7353 48.2033 97.8846 47.4221L97.4592 47.0315C96.6085 46.2503 95.2277 44.9808 94.377 44.1996L93.9516 43.8089C93.1009 43.0277 91.7759 43.0836 90.9949 43.9346L72.9479 63.5972C72.1669 64.4481 71.3162 65.3758 71.0512 65.6617C70.7862 65.9477 70.4863 66.5405 70.3817 66.98C70.2771 67.4194 69.9634 68.6959 69.6914 69.8119L67.5645 78.5446C67.2926 79.6606 67.962 80.2744 69.0498 79.9117L78.0385 76.8916C79.1263 76.5219 80.263 76.1451 80.5628 76.0405C80.8627 75.9429 81.3508 75.5872 81.6507 75.2594C81.9505 74.9316 82.8361 73.969 83.6102 73.125L101.518 53.6019Z" fill="#565ADF"/>
<path d="M11.424 13.056V30.892H15.036V34H3.5V30.892H7.588V19.496L7.7 17.676L4.284 20.784L2.072 18.264L8.12 13.056H11.424Z" fill="#666666"/>
<defs>
<filter id="filter0_d" x="27.1836" y="30.4121" width="58.647" height="66.1304" filterUnits="userSpaceOnUse" color-interpolation-filters="sRGB">
<feFlood flood-opacity="0" result="BackgroundImageFix"/>
<feColorMatrix in="SourceAlpha" type="matrix" values="0 0 0 0 0 0 0 0 0 0 0 0 0 0 0 0 0 0 127 0"/>
<feOffset dx="2" dy="2"/>
<feGaussianBlur stdDeviation="1"/>
<feColorMatrix type="matrix" values="0 0 0 0 0 0 0 0 0 0 0 0 0 0 0 0 0 0 0.2 0"/>
<feBlend mode="normal" in2="BackgroundImageFix" result="effect1_dropShadow"/>
<feBlend mode="normal" in="SourceGraphic" in2="effect1_dropShadow" result="shape"/>
</filter>
</defs>
</svg>
