<svg width="70" height="57" viewBox="0 0 70 57" fill="none" xmlns="http://www.w3.org/2000/svg">
<path d="M32.3699 42.5623V37.9819H53.9555V0.0390625H1.03033V37.9819H22.616V42.5623C9.75961 42.7111 0 43.4268 0 44.2856C0 45.2533 12.3068 46.0376 27.4929 46.0376C42.679 46.0376 54.9858 45.2533 54.9858 44.2856C54.9858 43.4268 45.2262 42.7111 32.3699 42.5623Z" fill="#223757"/>
<path d="M49.828 4.17175H5.15121V33.8641H49.828V4.17175Z" fill="white"/>
<path d="M54.9853 44.2915C54.9853 43.427 45.2257 42.7113 32.3693 42.5681V37.9877H53.955V0.0449829H27.4923V4.16734H49.8336V33.8597H27.4923V46.0378C42.6785 46.0435 54.9853 45.2591 54.9853 44.2915Z" fill="#1A2A42"/>
<path d="M25.6594 20.3338C25.6317 18.4655 26.5388 17.5017 28.3117 16.0162C29.4252 15.0511 30.0292 14.505 30.0118 13.1453C29.9885 11.5829 29.0866 11.0322 27.4211 11.0583C26.2433 11.0763 24.7183 11.7635 23.907 12.3647L22.8141 9.48469C24.0075 8.72519 25.9454 8.08057 27.8627 8.05324C31.0654 8.0056 33.9525 9.34844 34.0035 12.7792C34.0392 15.3128 33.0064 16.4299 31.156 17.8173C29.684 18.8645 29.0318 19.7943 29.0462 20.745L29.0744 22.7414L25.6943 22.7889L25.6594 20.3338ZM25.3994 25.2834L29.5235 25.2227L29.5826 29.1413L25.4585 29.202L25.3994 25.2834Z" fill="#565ADF"/>
<path d="M29.0462 20.7459C29.0314 19.7993 29.684 18.8655 31.156 17.8183C33.006 16.4349 34.0388 15.3179 34.0035 12.7802C33.9545 9.41564 31.3829 8.06091 28.2555 8.05367L28.2555 11.1012C29.4686 11.2351 30.0423 12.0291 30.0121 13.1422C30.0337 14.5022 29.4256 15.048 28.3121 16.0131C28.2901 16.0275 28.2718 16.0465 28.2539 16.0614L28.2539 22.7386L29.0788 22.7386L29.0462 20.7459Z" fill="#474AB1"/>
<g filter="url(#filter0_d)">
<rect x="38.2097" y="23.9377" width="4" height="20" rx="2" transform="rotate(-29.7399 38.2097 23.9377)" fill="#F5C499"/>
<rect x="38.916" y="37.269" width="4" height="16" rx="2" transform="rotate(-58.5073 38.916 37.269)" fill="#E0B48D"/>
<rect x="46.1474" y="29.768" width="4" height="14" rx="2" transform="rotate(-29.7399 46.1474 29.768)" fill="#F5C499"/>
<rect x="49.6206" y="27.7838" width="4" height="14" rx="2" transform="rotate(-29.7399 49.6206 27.7838)" fill="#F5C499"/>
<rect x="53.502" y="26.5156" width="4" height="13.1753" rx="2" transform="rotate(-29.7399 53.502 26.5156)" fill="#F5C499"/>
<path d="M45.1328 36.0558L59.0254 28.1188L62.5194 34.2345C64.1632 37.1117 63.1633 40.7768 60.286 42.4206L56.8129 44.4048C53.9357 46.0486 50.2706 45.0487 48.6268 42.1715L45.1328 36.0558Z" fill="#F5C499"/>
<rect x="54.0845" y="43.6606" width="9" height="6" transform="rotate(-29.7399 54.0845 43.6606)" fill="#F5C499"/>
</g>
<defs>
<filter id="filter0_d" x="34.2097" y="21.9534" width="35.286" height="34.9168" filterUnits="userSpaceOnUse" color-interpolation-filters="sRGB">
<feFlood flood-opacity="0" result="BackgroundImageFix"/>
<feColorMatrix in="SourceAlpha" type="matrix" values="0 0 0 0 0 0 0 0 0 0 0 0 0 0 0 0 0 0 127 0"/>
<feOffset dy="4"/>
<feGaussianBlur stdDeviation="2"/>
<feColorMatrix type="matrix" values="0 0 0 0 0 0 0 0 0 0 0 0 0 0 0 0 0 0 0.2 0"/>
<feBlend mode="normal" in2="BackgroundImageFix" result="effect1_dropShadow"/>
<feBlend mode="normal" in="SourceGraphic" in2="effect1_dropShadow" result="shape"/>
</filter>
</defs>
</svg>
