<?xml version="1.0" encoding="utf-8"?>
<!-- Generator: Adobe Illustrator 23.0.0, SVG Export Plug-In . SVG Version: 6.00 Build 0)  -->
<svg version="1.1" id="레이어_1" xmlns="http://www.w3.org/2000/svg" xmlns:xlink="http://www.w3.org/1999/xlink" x="0px"
	 y="0px" viewBox="0 0 135 35" style="enable-background:new 0 0 135 35;" xml:space="preserve">
<style type="text/css">
	.st0{fill:#FFFFFF;}
</style>
<rect x="37.5" y="16.9" class="st0" width="2.7" height="2.9"/>
<path class="st0" d="M66.9,13.9c-0.5,0-0.9,0.2-1.2,0.7c-0.3,0.5-0.4,1.2-0.4,2.2s0.1,1.7,0.4,2.2c0.3,0.5,0.7,0.7,1.2,0.7
	c0.5,0,0.9-0.2,1.2-0.7c0.3-0.5,0.4-1.2,0.4-2.2s-0.1-1.7-0.4-2.2C67.7,14.1,67.3,13.9,66.9,13.9z"/>
<path class="st0" d="M81.5,22.8c1.7,0,2.6-0.3,2.6-1c0-0.3-0.2-0.6-0.7-0.7c-0.4-0.1-1.1-0.2-1.9-0.2c-0.9,0-1.5,0.1-2,0.2
	c-0.4,0.1-0.6,0.4-0.6,0.7C78.9,22.5,79.8,22.8,81.5,22.8z"/>
<path class="st0" d="M80.2,17.4h2.7v-1.1c-0.2,0-0.4,0-0.6,0.1c-0.2,0-0.4,0-0.7,0c-0.5,0-0.9,0-1.4-0.1V17.4z"/>
<path class="st0" d="M81.5,12.9c-0.9,0-1.6,0.1-2,0.3c-0.5,0.2-0.7,0.4-0.7,0.8c0,0.4,0.2,0.6,0.7,0.8c0.5,0.2,1.2,0.3,2,0.3
	c0.9,0,1.6-0.1,2-0.3c0.5-0.2,0.7-0.4,0.7-0.8c0-0.4-0.2-0.6-0.7-0.8C83.1,13,82.4,12.9,81.5,12.9z"/>
<path class="st0" d="M92,20.1c0.4,0,0.8-0.1,1.1-0.4c0.3-0.3,0.4-0.7,0.4-1.2c0-0.5-0.1-0.9-0.4-1.1s-0.6-0.4-1.1-0.4
	c-0.4,0-0.8,0.1-1.1,0.4c-0.3,0.3-0.4,0.7-0.4,1.2c0,0.5,0.1,0.9,0.4,1.2C91.2,19.9,91.6,20.1,92,20.1z"/>
<path class="st0" d="M117.5,0h-100C7.8,0,0,7.8,0,17.5S7.8,35,17.5,35h100c9.7,0,17.5-7.8,17.5-17.5S127.2,0,117.5,0z M49.8,16.8
	c0.6-0.3,1-0.7,1.4-1.1s0.7-0.8,0.9-1.3c0.2-0.5,0.3-0.9,0.3-1.4v-0.9h2V13c0,0.5,0.1,0.9,0.3,1.4c0.2,0.5,0.5,0.9,0.9,1.3
	s0.9,0.8,1.4,1s1.2,0.5,1.9,0.6l-0.8,1.5c-1.1-0.2-2.1-0.6-2.9-1.2c-0.8-0.6-1.4-1.3-1.8-2.1c-0.4,0.8-1,1.5-1.8,2.1
	c-0.8,0.6-1.8,1-2.9,1.2l-0.8-1.5C48.6,17.3,49.3,17.1,49.8,16.8z M29.2,21.4c-0.7-0.3-1.3-0.8-1.8-1.4c-0.5-0.6-0.8-1.3-1.1-2.1
	c-0.3,0.8-0.7,1.6-1.1,2.2c-0.5,0.6-1.1,1.1-1.8,1.5l-1.1-1.5c0.5-0.3,1-0.6,1.4-1c0.4-0.4,0.7-0.9,1-1.4c0.3-0.5,0.5-1.1,0.6-1.7
	c0.1-0.6,0.2-1.2,0.2-1.8v-1.9h1.9v1.9c0,0.6,0.1,1.2,0.2,1.8c0.1,0.6,0.3,1.1,0.5,1.7c0.3,0.5,0.6,1,1,1.4c0.4,0.4,0.9,0.7,1.4,1
	L29.2,21.4z M33.2,24.2h-1.8v-7.4h-2.5v-1.5h2.5v-4h1.8V24.2z M42,21.2h-6.4v-8.9h1.8v3.1h2.7v-3.1H42V21.2z M45.7,24.2h-1.8V11.3
	h1.8V24.2z M59.3,22.6H47.6v-1.5h11.7V22.6z M70,18.7c-0.2,0.6-0.4,1.1-0.7,1.5c-0.3,0.4-0.7,0.7-1.1,0.9c-0.4,0.2-0.9,0.3-1.3,0.3
	c-0.5,0-0.9-0.1-1.4-0.3c-0.4-0.2-0.8-0.5-1.1-0.9c-0.3-0.4-0.5-0.9-0.7-1.5c-0.2-0.6-0.3-1.2-0.3-1.9c0-0.7,0.1-1.3,0.3-1.9
	c0.2-0.6,0.4-1,0.7-1.4c0.3-0.4,0.7-0.7,1.1-0.9c0.4-0.2,0.9-0.3,1.4-0.3c0.5,0,0.9,0.1,1.3,0.3c0.4,0.2,0.8,0.5,1.1,0.9
	c0.3,0.4,0.5,0.9,0.7,1.4c0.2,0.6,0.3,1.2,0.3,1.9C70.2,17.5,70.2,18.1,70,18.7z M73.8,24.2h-1.8V11.3h1.8V24.2z M85.7,22.9
	c-0.2,0.3-0.5,0.5-0.9,0.7c-0.4,0.2-0.8,0.4-1.4,0.5c-0.6,0.1-1.2,0.2-1.9,0.2s-1.3-0.1-1.9-0.2c-0.6-0.1-1-0.3-1.4-0.5
	c-0.4-0.2-0.7-0.4-0.9-0.7c-0.2-0.3-0.3-0.6-0.3-1c0-0.4,0.1-0.7,0.3-1s0.5-0.5,0.9-0.7c0.4-0.2,0.8-0.4,1.4-0.5
	c0.6-0.1,1.2-0.2,1.9-0.2s1.3,0.1,1.9,0.2s1,0.3,1.4,0.5c0.4,0.2,0.7,0.4,0.9,0.7c0.2,0.3,0.3,0.6,0.3,1
	C86,22.2,85.9,22.6,85.7,22.9z M87.4,18.9H75.7v-1.5h2.6v-1.6c-0.5-0.2-0.8-0.5-1.1-0.8c-0.3-0.3-0.4-0.7-0.4-1.1
	c0-0.4,0.1-0.7,0.3-1c0.2-0.3,0.5-0.6,0.9-0.8c0.4-0.2,0.9-0.4,1.5-0.5c0.6-0.1,1.2-0.2,1.9-0.2c0.7,0,1.4,0.1,1.9,0.2
	c0.6,0.1,1.1,0.3,1.5,0.5c0.4,0.2,0.7,0.5,0.9,0.8c0.2,0.3,0.3,0.7,0.3,1c0,0.4-0.1,0.8-0.4,1.1c-0.3,0.3-0.6,0.6-1.1,0.8v1.5h2.6
	V18.9z M95,19.7c-0.2,0.4-0.4,0.7-0.7,1c-0.3,0.3-0.6,0.5-1,0.6c-0.4,0.1-0.8,0.2-1.3,0.2c-0.5,0-0.9-0.1-1.3-0.2
	c-0.4-0.1-0.8-0.4-1.1-0.6c-0.3-0.3-0.5-0.6-0.7-1c-0.2-0.4-0.2-0.8-0.2-1.3c0-0.4,0.1-0.9,0.2-1.2c0.2-0.4,0.4-0.7,0.7-1
	c0.3-0.3,0.6-0.5,1.1-0.6c0.4-0.1,0.8-0.2,1.3-0.2c0.5,0,0.9,0.1,1.3,0.2c0.4,0.1,0.7,0.4,1,0.6c0.3,0.3,0.5,0.6,0.7,1
	c0.2,0.4,0.3,0.8,0.3,1.2C95.3,18.9,95.2,19.4,95,19.7z M95.7,14.7h-7.5v-1.5h2.9v-1.7h1.8v1.7h2.8V14.7z M100.3,17.9h-1.8v6.3h-1.8
	V11.3h1.8v5h1.8V17.9z M107.5,15.5c-0.2,0.9-0.5,1.7-1,2.5c-0.4,0.8-1,1.5-1.8,2.2c-0.8,0.7-1.7,1.3-2.9,1.8l-1-1.5
	c0.8-0.4,1.5-0.8,2.1-1.3c0.6-0.5,1.1-0.9,1.5-1.5c0.4-0.5,0.7-1.1,0.9-1.7c0.2-0.6,0.4-1.3,0.4-2h-4.3v-1.5h6.2
	C107.8,13.6,107.7,14.6,107.5,15.5z M111.6,24.2h-1.9V11.3h1.9V24.2z"/>
</svg>
