<svg width="98" height="28" viewBox="0 0 98 28" fill="none" xmlns="http://www.w3.org/2000/svg">
<g clip-path="url(#clip0)">
<path d="M23.6494 15.0971C23.2602 16.4622 22.0401 17.4589 20.5887 17.4589C19.1372 17.4589 17.9171 16.4622 17.528 15.0971H12.5951V8.27721C12.8896 8.45596 13.2262 8.5643 13.5943 8.5643C14.6671 8.5643 15.5401 7.66509 15.5401 6.56005C15.5401 5.455 14.6671 4.55579 13.5943 4.55579C13.2314 4.55579 12.8896 4.65871 12.5951 4.84288V2.05859H0V28.0056H12.5951V27.9948H25.1902V15.1025H23.6494V15.0971Z" fill="#58697E"/>
<path d="M27.209 0H14.6191V3.49391C15.855 3.93268 16.7437 5.14065 16.7437 6.55988C16.7437 7.98452 15.855 9.18708 14.6191 9.62585V12.8922H19.4205C19.0261 13.2443 18.7737 13.7589 18.7737 14.3386C18.7737 15.3949 19.6046 16.2453 20.6248 16.2453C21.6503 16.2453 22.476 15.3894 22.476 14.3386C22.476 13.7589 22.2235 13.2389 21.8291 12.8922H27.209V0V0Z" fill="#6D7F96"/>
<path d="M48.0137 17.3452H48.0242L48.0768 17.1123L48.0137 17.3452Z" fill="#58697E"/>
<path d="M36.0024 7.36719H34.3301V22.8812H42.6181V21.332H36.0024V7.36719Z" fill="#58697E"/>
<path d="M49.0398 7.36719L44.9062 22.8812H46.5576L47.6461 18.889H47.6514L48.0248 17.3451H48.0143L48.0774 17.1122L48.1089 16.9822L48.0774 17.1122L50.3019 8.846H51.4326L53.7149 17.3451H53.7044L54.0883 18.889L55.1769 22.8812H56.8282L52.6947 7.36719H49.0398Z" fill="#58697E"/>
<path d="M63.6382 14.6313L59.8991 7.36719H58.0059L62.8125 16.3593V22.8812H64.4901V16.3593L69.2757 7.36719H67.3825L63.6382 14.6313Z" fill="#58697E"/>
<path d="M77.9153 21.3536H76.6952L73.2348 7.36719H71.4941L75.4331 22.8812H79.1774L83.1164 7.36719H81.3757L77.9153 21.3536Z" fill="#58697E"/>
<path d="M96.6839 9.11726C95.8056 7.80095 94.2595 7.14551 92.035 7.14551C89.8157 7.14551 88.2696 7.80637 87.4019 9.1281C86.5289 10.4498 86.0977 12.4757 86.0977 15.2005C86.0977 17.9306 86.5236 19.924 87.3808 21.197C88.238 22.4699 89.7947 23.1037 92.0507 23.1037C94.3068 23.1037 95.8635 22.4862 96.7207 21.2457C97.5779 20.0052 98.0038 18.001 98.0038 15.2384C97.9986 12.4703 97.5621 10.4336 96.6839 9.11726ZM95.4007 20.1244C94.8275 21.094 93.7126 21.5816 92.0507 21.5816C90.3889 21.5816 89.2688 21.0832 88.6903 20.0919C88.1118 19.1006 87.8173 17.4647 87.8173 15.195C87.8173 12.9253 88.1118 11.2678 88.7008 10.2277C89.2898 9.18768 90.3995 8.66766 92.0297 8.66766C93.66 8.66766 94.7749 9.1931 95.3691 10.2386C95.9634 11.284 96.2631 12.9524 96.2631 15.2384C96.2631 17.5243 95.9739 19.1548 95.4007 20.1244Z" fill="#58697E"/>
</g>
<defs>
<clipPath id="clip0">
<rect width="98" height="28" fill="white"/>
</clipPath>
</defs>
</svg>
