<svg width="609" height="161" viewBox="0 0 609 161" fill="none" xmlns="http://www.w3.org/2000/svg">
<path fill-rule="evenodd" clip-rule="evenodd" d="M316 137.778C323.609 137.778 329.778 131.609 329.778 124C329.778 116.391 323.609 110.222 316 110.222C308.391 110.222 302.222 116.391 302.222 124C302.222 131.609 308.391 137.778 316 137.778ZM316 160C335.882 160 352 143.882 352 124C352 104.118 335.882 88 316 88C296.118 88 280 104.118 280 124C280 143.882 296.118 160 316 160Z" fill="white"/>
<path fill-rule="evenodd" clip-rule="evenodd" d="M543.695 49.7778C551.304 49.7778 557.473 43.6093 557.473 36C557.473 28.3907 551.304 22.2222 543.695 22.2222C536.086 22.2222 529.917 28.3907 529.917 36C529.917 43.6093 536.086 49.7778 543.695 49.7778ZM543.695 72C563.577 72 579.695 55.8822 579.695 36C579.695 16.1177 563.577 0 543.695 0C523.813 0 507.695 16.1177 507.695 36C507.695 55.8822 523.813 72 543.695 72Z" fill="white"/>
<path fill-rule="evenodd" clip-rule="evenodd" d="M291.097 36.7363C297.226 36.7363 302.195 41.7048 302.195 47.8338V48.2777C302.195 54.4066 307.163 59.3751 313.292 59.3751H369.533C375.662 59.3751 380.63 64.3436 380.63 70.4725C380.63 76.6014 375.662 81.5699 369.533 81.5699H313.292C294.905 81.5699 280 66.6645 280 48.2777V47.8338C280 41.7048 284.968 36.7363 291.097 36.7363Z" fill="white"/>
<path fill-rule="evenodd" clip-rule="evenodd" d="M587 82.0862L587 9.9138C587 4.43856 591.925 2.29449e-06 598 -4.70895e-07C604.075 -3.23628e-06 609 4.43855 609 9.91379L609 82.0862C609 87.5614 604.075 92 598 92C591.925 92 587 87.5614 587 82.0862Z" fill="white"/>
<path fill-rule="evenodd" clip-rule="evenodd" d="M471.859 159.907C465.73 159.907 460.761 154.938 460.761 148.809L460.761 112.292C460.761 106.163 455.792 101.195 449.663 101.195L405.097 101.195C398.969 101.195 394 96.2265 394 90.0976C394 83.9686 398.969 79.0001 405.097 79.0001L449.663 79.0001C468.05 79.0001 482.956 93.9054 482.956 112.292L482.956 148.809C482.956 154.938 477.988 159.907 471.859 159.907Z" fill="white"/>
<path fill-rule="evenodd" clip-rule="evenodd" d="M443 88C449.075 88 454 92.7963 454 98.7127L454 149.287C454 155.204 449.075 160 443 160C436.925 160 432 155.204 432 149.287L432 98.7127C432 92.7962 436.925 88 443 88Z" fill="white"/>
<path fill-rule="evenodd" clip-rule="evenodd" d="M280 11.0975C280 4.96853 284.968 4.57764e-05 291.097 4.57764e-05L319 0C337.387 0 352.292 14.9055 352.292 33.2923V41.7263C352.292 47.8553 347.324 52.8238 341.195 52.8238C335.066 52.8238 330.097 47.8553 330.097 41.7263V33.2923C330.097 27.1633 325.129 22.1949 319 22.1949L291.097 22.1949C284.968 22.1949 280 17.2264 280 11.0975Z" fill="white"/>
<path fill-rule="evenodd" clip-rule="evenodd" d="M609 148.903C609 155.032 604.032 160 597.903 160L570.952 160C552.565 160 537.66 145.095 537.66 126.708L537.66 104.957C537.66 98.8278 542.628 93.8593 548.757 93.8593C554.886 93.8593 559.854 98.8278 559.854 104.957L559.854 126.708C559.854 132.837 564.823 137.805 570.952 137.805L597.903 137.805C604.032 137.805 609 142.774 609 148.903Z" fill="white"/>
<path d="M484 36C484 55.8823 467.882 72 448 72C428.118 72 412 55.8823 412 36C412 16.1177 428.118 0 448 0C467.882 0 484 16.1177 484 36Z" fill="white"/>
<path fill-rule="evenodd" clip-rule="evenodd" d="M97.9 73C115.7 73 130.5 60 133.4 43H168.3C171.2 60 186 73 203.8 73C223.7 73 239.8 56.9 239.8 37C239.8 17.1 223.7 1 203.8 1C186 1 171.2 14 168.3 31H133.4C130.5 14 115.7 1 97.9 1C78 1 61.9 17.1 61.9 37C61.9 46.6 65.6 55.3 71.7 61.7L50.8 92.1C46.3 90 41.2 88.9 36 88.9C16.1 88.9 0 105 0 124.9C0 144.8 16.1 160.9 36 160.9C55.9 160.9 72 144.8 72 124.9C72 114.6 67.7 105.4 60.8 98.8L81.4 68.9C86.2 71.5 91.9 73 97.9 73ZM203.8 51C211.5 51 217.8 44.7 217.8 37C217.8 29.3 211.5 23 203.8 23C196.1 23 189.8 29.3 189.8 37C189.8 44.7 196.1 51 203.8 51ZM49.9 125C49.9 132.7 43.6 139 35.9 139C28.2 139 21.9 132.7 21.9 125C21.9 117.3 28.2 111 35.9 111C43.6 111 49.9 117.2 49.9 125Z" fill="url(#paint0_linear)"/>
<defs>
<linearGradient id="paint0_linear" x1="-0.6856" y1="77.14" x2="238.196" y2="84.742" gradientUnits="userSpaceOnUse">
<stop stop-color="#FCAF45"/>
<stop offset="0.2448" stop-color="#E1306C"/>
<stop offset="0.5104" stop-color="#C13584"/>
<stop offset="0.7604" stop-color="#833AB4"/>
<stop offset="1" stop-color="#405DE6"/>
</linearGradient>
</defs>
</svg>
