<svg width="115" height="30" viewBox="0 0 115 30" fill="none" xmlns="http://www.w3.org/2000/svg">
<path fill-rule="evenodd" clip-rule="evenodd" d="M59.2472 25.8314C60.674 25.8314 61.8306 24.6748 61.8306 23.248C61.8306 21.8212 60.674 20.6646 59.2472 20.6646C57.8204 20.6646 56.6638 21.8212 56.6638 23.248C56.6638 24.6748 57.8204 25.8314 59.2472 25.8314ZM59.2472 29.9982C62.9753 29.9982 65.9974 26.9761 65.9974 23.248C65.9974 19.52 62.9753 16.4978 59.2472 16.4978C55.5192 16.4978 52.497 19.52 52.497 23.248C52.497 26.9761 55.5192 29.9982 59.2472 29.9982Z" fill="#555555"/>
<path fill-rule="evenodd" clip-rule="evenodd" d="M101.944 9.33363C103.371 9.33363 104.527 8.177 104.527 6.75022C104.527 5.32344 103.371 4.1668 101.944 4.1668C100.517 4.1668 99.3605 5.32344 99.3605 6.75022C99.3605 8.177 100.517 9.33363 101.944 9.33363ZM101.944 13.5004C105.672 13.5004 108.694 10.4783 108.694 6.75022C108.694 3.02218 105.672 0 101.944 0C98.2159 0 95.1937 3.02218 95.1937 6.75022C95.1937 10.4783 98.2159 13.5004 101.944 13.5004Z" fill="#555555"/>
<path fill-rule="evenodd" clip-rule="evenodd" d="M54.5778 6.88672C55.7271 6.88672 56.6587 7.81834 56.6587 8.96755V9.05079C56.6587 10.2 57.5903 11.1316 58.7395 11.1316H69.285C70.4342 11.1316 71.3658 12.0632 71.3658 13.2125C71.3658 14.3617 70.4342 15.2933 69.285 15.2933H58.7395C55.2919 15.2933 52.497 12.4984 52.497 9.05079V8.96755C52.497 7.81834 53.4286 6.88672 54.5778 6.88672Z" fill="#555555"/>
<path fill-rule="evenodd" clip-rule="evenodd" d="M110.069 15.3917L110.069 1.8589C110.069 0.832257 110.992 4.3023e-07 112.131 -8.82956e-08C113.271 -6.06821e-07 114.194 0.832255 114.194 1.8589L114.194 15.3917C114.194 16.4183 113.271 17.2506 112.131 17.2506C110.992 17.2506 110.069 16.4183 110.069 15.3917Z" fill="#555555"/>
<path fill-rule="evenodd" clip-rule="evenodd" d="M88.4787 29.9817C87.3295 29.9817 86.3979 29.0501 86.3978 27.9009L86.3978 21.0537C86.3978 19.9045 85.4662 18.9729 84.3169 18.9729L75.9605 18.9729C74.8113 18.9729 73.8797 18.0413 73.8797 16.8921C73.8797 15.7428 74.8113 14.8112 75.9605 14.8112L84.3169 14.8112C87.7646 14.8112 90.5594 17.606 90.5594 21.0537L90.5595 27.9008C90.5595 29.0501 89.6279 29.9817 88.4787 29.9817Z" fill="#555555"/>
<path fill-rule="evenodd" clip-rule="evenodd" d="M83.0632 16.4978C84.2023 16.4978 85.1257 17.3971 85.1257 18.5065L85.1257 27.9895C85.1257 29.0989 84.2023 29.9982 83.0632 29.9982C81.924 29.9982 81.0006 29.0989 81.0006 27.9895L81.0006 18.5065C81.0006 17.3971 81.924 16.4978 83.0632 16.4978Z" fill="#555555"/>
<path fill-rule="evenodd" clip-rule="evenodd" d="M52.497 2.08084C52.497 0.93163 53.4286 8.58334e-06 54.5778 8.58334e-06L59.8097 0C63.2574 0 66.0522 2.79486 66.0522 6.2425V7.82394C66.0522 8.97315 65.1206 9.90477 63.9714 9.90477C62.8222 9.90477 61.8906 8.97315 61.8906 7.82394V6.2425C61.8906 5.09329 60.959 4.16167 59.8097 4.16167L54.5778 4.16168C53.4286 4.16168 52.497 3.23006 52.497 2.08084Z" fill="#555555"/>
<path fill-rule="evenodd" clip-rule="evenodd" d="M114.194 27.9197C114.194 29.0689 113.262 30.0005 112.113 30.0005L107.06 30.0005C103.612 30.0005 100.817 27.2056 100.817 23.758L100.817 19.6795C100.817 18.5303 101.749 17.5987 102.898 17.5987C104.047 17.5987 104.979 18.5303 104.979 19.6795L104.979 23.758C104.979 24.9072 105.91 25.8388 107.06 25.8388L112.113 25.8388C113.262 25.8388 114.194 26.7704 114.194 27.9197Z" fill="#555555"/>
<path d="M90.7538 6.75022C90.7538 10.4783 87.7316 13.5004 84.0036 13.5004C80.2755 13.5004 77.2534 10.4783 77.2534 6.75022C77.2534 3.02218 80.2755 0 84.0036 0C87.7316 0 90.7538 3.02218 90.7538 6.75022Z" fill="#555555"/>
<path fill-rule="evenodd" clip-rule="evenodd" d="M18.3727 13.5004C21.7174 13.5004 24.494 11.0677 25.0296 7.87518H31.576C32.1116 11.0677 34.8881 13.5004 38.2329 13.5004C41.9609 13.5004 44.9831 10.4783 44.9831 6.75022C44.9831 3.02218 41.9609 0 38.2329 0C34.8882 0 32.1116 2.43261 31.576 5.62511H25.0296C24.4939 2.43261 21.7174 0 18.3727 0C14.6446 0 11.6225 3.02218 11.6225 6.75022C11.6225 8.5418 12.3204 10.1704 13.4593 11.3788L9.53043 17.0883C8.6826 16.7046 7.74135 16.491 6.75022 16.491C3.02218 16.491 0 19.5132 0 23.2412C0 26.9693 3.02218 29.9914 6.75022 29.9914C10.4783 29.9914 13.5004 26.9693 13.5004 23.2412C13.5004 21.3138 12.6926 19.575 11.397 18.345L15.2548 12.7388C16.1874 13.2253 17.2479 13.5004 18.3727 13.5004ZM38.2329 9.56283C39.7863 9.56283 41.0455 8.30358 41.0455 6.75022C41.0455 5.19685 39.7863 3.9376 38.2329 3.9376C36.6795 3.9376 35.4203 5.19685 35.4203 6.75022C35.4203 8.30358 36.6795 9.56283 38.2329 9.56283ZM9.56283 23.2412C9.56283 24.7946 8.30358 26.0538 6.75022 26.0538C5.19685 26.0538 3.9376 24.7946 3.9376 23.2412C3.9376 21.6879 5.19685 20.4286 6.75022 20.4286C8.30358 20.4286 9.56283 21.6879 9.56283 23.2412Z" fill="#C4C4C4"/>
<path fill-rule="evenodd" clip-rule="evenodd" d="M18.3727 13.5004C21.7174 13.5004 24.494 11.0677 25.0296 7.87518H31.576C32.1116 11.0677 34.8881 13.5004 38.2329 13.5004C41.9609 13.5004 44.9831 10.4783 44.9831 6.75022C44.9831 3.02218 41.9609 0 38.2329 0C34.8882 0 32.1116 2.43261 31.576 5.62511H25.0296C24.4939 2.43261 21.7174 0 18.3727 0C14.6446 0 11.6225 3.02218 11.6225 6.75022C11.6225 8.5418 12.3204 10.1704 13.4593 11.3788L9.53043 17.0883C8.6826 16.7046 7.74135 16.491 6.75022 16.491C3.02218 16.491 0 19.5132 0 23.2412C0 26.9693 3.02218 29.9914 6.75022 29.9914C10.4783 29.9914 13.5004 26.9693 13.5004 23.2412C13.5004 21.3138 12.6926 19.575 11.397 18.345L15.2548 12.7388C16.1874 13.2253 17.2479 13.5004 18.3727 13.5004ZM38.2329 9.56283C39.7863 9.56283 41.0455 8.30358 41.0455 6.75022C41.0455 5.19685 39.7863 3.9376 38.2329 3.9376C36.6795 3.9376 35.4203 5.19685 35.4203 6.75022C35.4203 8.30358 36.6795 9.56283 38.2329 9.56283ZM9.56283 23.2412C9.56283 24.7946 8.30358 26.0538 6.75022 26.0538C5.19685 26.0538 3.9376 24.7946 3.9376 23.2412C3.9376 21.6879 5.19685 20.4286 6.75022 20.4286C8.30358 20.4286 9.56283 21.6879 9.56283 23.2412Z" fill="url(#paint0_linear)"/>
<defs>
<linearGradient id="paint0_linear" x1="-0.936995" y1="40.27" x2="43.8535" y2="41.6953" gradientUnits="userSpaceOnUse">
<stop stop-color="#FCAF45"/>
<stop offset="0.244792" stop-color="#E1306C"/>
<stop offset="0.510417" stop-color="#C13584"/>
<stop offset="0.760417" stop-color="#833AB4"/>
<stop offset="1" stop-color="#405DE6"/>
</linearGradient>
</defs>
</svg>
