<svg width="50" height="50" viewBox="0 0 50 50" fill="none" xmlns="http://www.w3.org/2000/svg">
<circle cx="25" cy="25" r="25" fill="#F4F4F4"/>
<mask id="mask0" mask-type="alpha" maskUnits="userSpaceOnUse" x="0" y="0" width="50" height="50">
<circle cx="25" cy="25" r="25" fill="#624D4D"/>
</mask>
<g mask="url(#mask0)">
<path d="M12 50.3891V38.6087C12 32.584 17.5949 27.6953 24.5 27.6953C31.4051 27.6953 37 32.579 37 38.6087V50.3891" fill="#DBDBE7"/>
<path d="M35.9676 20.2472C35.9676 26.4563 30.9307 31.4944 24.723 31.4944C18.5154 31.4944 13.4785 26.4563 13.4785 20.2472C13.4785 14.0381 18.5154 9 24.723 9C30.9357 9 35.9676 14.0381 35.9676 20.2472Z" fill="#FCE6D3"/>
<path d="M30.6565 22.4691C30.6565 23.0123 30.2181 23.4559 29.6701 23.4559C29.127 23.4559 28.6836 23.0123 28.6836 22.4691C28.6836 21.9259 29.122 21.4824 29.6701 21.4824C30.2131 21.4824 30.6565 21.9259 30.6565 22.4691Z" fill="#323232"/>
<path d="M18.7012 22.4691C18.7012 23.0123 19.1446 23.4559 19.6876 23.4559C20.2306 23.4559 20.6741 23.0123 20.6741 22.4691C20.6741 21.9259 20.2306 21.4824 19.6876 21.4824C19.1446 21.4824 18.7012 21.9259 18.7012 22.4691Z" fill="#323232"/>
<path d="M24.723 9C18.5154 9 13.4785 14.0381 13.4785 20.2472H35.9676C35.9676 14.0381 30.9357 9 24.723 9Z" fill="#5F5045"/>
</g>
</svg>
