<svg width="268" height="173" viewBox="0 0 268 173" fill="none" xmlns="http://www.w3.org/2000/svg">
<rect y="141" width="268" height="3" fill="#565ADF"/>
<rect y="29" width="268" height="1" fill="#D3D4E1"/>
<rect y="53" width="268" height="1" fill="#D3D4E1"/>
<rect y="73" width="268" height="1" fill="#D3D4E1"/>
<rect y="97" width="268" height="1" fill="#D3D4E1"/>
<rect y="121" width="268" height="1" fill="#D3D4E1"/>
<rect y="127" width="268" height="1" fill="#F3F3F3"/>
<rect y="103" width="268" height="1" fill="#F3F3F3"/>
<rect y="79" width="268" height="1" fill="#F3F3F3"/>
<rect y="58" width="268" height="1" fill="#F3F3F3"/>
<rect y="35" width="268" height="1" fill="#F3F3F3"/>
<rect y="132" width="268" height="1" fill="#F3F3F3"/>
<rect y="109" width="268" height="1" fill="#F3F3F3"/>
<rect y="85" width="268" height="1" fill="#F3F3F3"/>
<rect y="63" width="268" height="1" fill="#F3F3F3"/>
<rect y="41" width="268" height="1" fill="#F3F3F3"/>
<rect y="137" width="268" height="1" fill="#F3F3F3"/>
<rect y="115" width="268" height="1" fill="#F3F3F3"/>
<rect y="91" width="268" height="1" fill="#F3F3F3"/>
<rect y="68" width="268" height="1" fill="#F3F3F3"/>
<rect y="47" width="268" height="1" fill="#F3F3F3"/>
<rect x="174" y="92" width="64" height="49" fill="#565ADF"/>
<rect x="30" y="21" width="64" height="120" fill="#8F909E"/>
<path d="M9.69698 163.45C9.01565 163.226 8.43698 162.909 7.96098 162.498C7.49432 162.078 7.12565 161.593 6.85498 161.042C6.57498 161.686 6.18298 162.246 5.67898 162.722C5.18432 163.198 4.56832 163.562 3.83098 163.814L2.86498 162.358C3.40632 162.181 3.86832 161.947 4.25098 161.658C4.63365 161.359 4.94632 161.028 5.18898 160.664C5.43165 160.291 5.60898 159.894 5.72098 159.474C5.83298 159.045 5.88898 158.611 5.88898 158.172V157.01H7.76498V158.326C7.76498 158.718 7.82098 159.101 7.93298 159.474C8.04498 159.847 8.21765 160.197 8.45098 160.524C8.68432 160.851 8.98298 161.145 9.34698 161.406C9.72032 161.658 10.159 161.863 10.663 162.022L9.69698 163.45ZM8.99698 167.776C9.81832 167.776 10.4437 167.692 10.873 167.524C11.3023 167.347 11.517 167.076 11.517 166.712C11.517 166.357 11.3023 166.096 10.873 165.928C10.4437 165.751 9.81832 165.662 8.99698 165.662C8.16632 165.662 7.53632 165.751 7.10698 165.928C6.67765 166.096 6.46298 166.357 6.46298 166.712C6.46298 167.076 6.67765 167.347 7.10698 167.524C7.53632 167.692 8.16632 167.776 8.99698 167.776ZM8.99698 164.234C9.66898 164.234 10.271 164.29 10.803 164.402C11.3443 164.514 11.8017 164.677 12.175 164.892C12.5577 165.107 12.847 165.368 13.043 165.676C13.2483 165.975 13.351 166.32 13.351 166.712C13.351 167.104 13.2483 167.454 13.043 167.762C12.847 168.07 12.5577 168.331 12.175 168.546C11.8017 168.761 11.3443 168.924 10.803 169.036C10.271 169.148 9.66898 169.204 8.99698 169.204C8.32498 169.204 7.71832 169.148 7.17698 169.036C6.63565 168.924 6.17365 168.761 5.79098 168.546C5.41765 168.331 5.12832 168.07 4.92298 167.762C4.72698 167.454 4.62898 167.104 4.62898 166.712C4.62898 166.32 4.72698 165.975 4.92298 165.676C5.12832 165.368 5.41765 165.107 5.79098 164.892C6.17365 164.677 6.63565 164.514 7.17698 164.402C7.71832 164.29 8.32498 164.234 8.99698 164.234ZM14.919 159.306V160.832H13.211V163.94H11.363V156.324H13.211V159.306H14.919ZM21.7359 167.818C23.4719 167.818 24.3399 167.501 24.3399 166.866C24.3399 166.539 24.1206 166.301 23.6819 166.152C23.2526 166.003 22.6039 165.928 21.7359 165.928C20.8679 165.928 20.2146 166.003 19.7759 166.152C19.3466 166.301 19.1319 166.539 19.1319 166.866C19.1319 167.501 19.9999 167.818 21.7359 167.818ZM21.7359 164.528C22.4359 164.528 23.0612 164.579 23.6119 164.682C24.1626 164.785 24.6292 164.939 25.0119 165.144C25.4039 165.34 25.7026 165.583 25.9079 165.872C26.1132 166.161 26.2159 166.493 26.2159 166.866C26.2159 167.239 26.1132 167.575 25.9079 167.874C25.7026 168.163 25.4039 168.406 25.0119 168.602C24.6292 168.807 24.1626 168.961 23.6119 169.064C23.0612 169.167 22.4359 169.218 21.7359 169.218C21.0359 169.218 20.4106 169.167 19.8599 169.064C19.3092 168.961 18.8426 168.807 18.4599 168.602C18.0772 168.406 17.7832 168.163 17.5779 167.874C17.3726 167.575 17.2699 167.239 17.2699 166.866C17.2699 166.493 17.3726 166.161 17.5779 165.872C17.7832 165.583 18.0772 165.34 18.4599 165.144C18.8426 164.939 19.3092 164.785 19.8599 164.682C20.4106 164.579 21.0359 164.528 21.7359 164.528ZM20.4059 162.428H23.0939V161.364C22.8886 161.383 22.6739 161.401 22.4499 161.42C22.2352 161.429 22.0066 161.434 21.7639 161.434C21.2786 161.434 20.8259 161.406 20.4059 161.35V162.428ZM21.7639 157.906C20.8866 157.906 20.2052 157.995 19.7199 158.172C19.2439 158.349 19.0059 158.62 19.0059 158.984C19.0059 159.339 19.2439 159.605 19.7199 159.782C20.2052 159.959 20.8866 160.048 21.7639 160.048C22.6506 160.048 23.3319 159.959 23.8079 159.782C24.2932 159.605 24.5359 159.339 24.5359 158.984C24.5359 158.62 24.2932 158.349 23.8079 158.172C23.3319 157.995 22.6506 157.906 21.7639 157.906ZM27.5879 162.428V163.884H15.9399V162.428H18.5579V160.874C18.0912 160.659 17.7319 160.398 17.4799 160.09C17.2279 159.773 17.1019 159.404 17.1019 158.984C17.1019 158.601 17.2092 158.256 17.4239 157.948C17.6479 157.64 17.9606 157.379 18.3619 157.164C18.7726 156.949 19.2626 156.786 19.8319 156.674C20.4106 156.562 21.0546 156.506 21.7639 156.506C22.4732 156.506 23.1172 156.562 23.6959 156.674C24.2746 156.786 24.7646 156.949 25.1659 157.164C25.5766 157.379 25.8892 157.64 26.1039 157.948C26.3279 158.256 26.4399 158.601 26.4399 158.984C26.4399 159.404 26.3092 159.773 26.0479 160.09C25.7866 160.407 25.4179 160.673 24.9419 160.888V162.428H27.5879ZM32.1368 167.51H39.4868V168.98H30.2888V164.612H32.1368V167.51ZM40.4948 162.022V163.492H28.8188V162.022H36.9948C37.1348 161.303 37.2235 160.664 37.2608 160.104C37.2981 159.535 37.3168 158.998 37.3168 158.494H30.2608V157.024H39.1368V158.144C39.1368 158.695 39.1228 159.283 39.0948 159.908C39.0761 160.524 38.9921 161.229 38.8428 162.022H40.4948ZM53.3737 166.278V167.79H41.6977V166.278H46.5977V164.36H43.0417V159.992H50.2377V158.606H43.0277V157.136H52.0577V161.434H44.8757V162.876H52.3517V164.36H48.4457V166.278H53.3737ZM59.3086 159.782C59.3086 160.277 59.3739 160.781 59.5046 161.294C59.6353 161.807 59.8266 162.297 60.0786 162.764C60.3399 163.231 60.6666 163.66 61.0586 164.052C61.4506 164.444 61.9126 164.761 62.4446 165.004L61.4226 166.46C60.7039 166.133 60.0926 165.667 59.5886 165.06C59.0939 164.444 58.7019 163.753 58.4126 162.988C58.1233 163.837 57.7219 164.593 57.2086 165.256C56.6953 165.919 56.0699 166.427 55.3326 166.782L54.2966 165.312C54.8286 165.069 55.2906 164.747 55.6826 164.346C56.0746 163.935 56.4013 163.483 56.6626 162.988C56.9333 162.484 57.1339 161.957 57.2646 161.406C57.3953 160.855 57.4606 160.314 57.4606 159.782V159.068H54.7866V157.542H61.8706V159.068H59.3086V159.782ZM66.5466 162.75H64.6706V169.204H62.8226V156.31H64.6706V161.224H66.5466V162.75ZM82.3034 166.264V167.762H70.6274V166.264H75.5414V163.324H71.9434V157.29H73.7914V161.854H81.0714V163.324H77.3894V166.264H82.3034ZM89.3023 167.818C90.1703 167.818 90.819 167.743 91.2483 167.594C91.687 167.435 91.9063 167.188 91.9063 166.852C91.9063 166.199 91.0383 165.872 89.3023 165.872C87.5663 165.872 86.6983 166.199 86.6983 166.852C86.6983 167.188 86.913 167.435 87.3423 167.594C87.781 167.743 88.4343 167.818 89.3023 167.818ZM89.3023 164.472C90.0023 164.472 90.6276 164.523 91.1783 164.626C91.729 164.729 92.1956 164.883 92.5783 165.088C92.9703 165.293 93.269 165.545 93.4743 165.844C93.6796 166.133 93.7823 166.469 93.7823 166.852C93.7823 167.235 93.6796 167.571 93.4743 167.86C93.269 168.149 92.9703 168.397 92.5783 168.602C92.1956 168.807 91.729 168.961 91.1783 169.064C90.6276 169.167 90.0023 169.218 89.3023 169.218C88.6023 169.218 87.977 169.167 87.4263 169.064C86.8756 168.961 86.409 168.807 86.0263 168.602C85.6436 168.397 85.3496 168.149 85.1443 167.86C84.939 167.571 84.8363 167.235 84.8363 166.852C84.8363 166.469 84.939 166.133 85.1443 165.844C85.3496 165.545 85.6436 165.293 86.0263 165.088C86.409 164.883 86.8756 164.729 87.4263 164.626C87.977 164.523 88.6023 164.472 89.3023 164.472ZM95.1823 162.372V163.842H83.5203V162.372H88.4203V161.308H84.9343V156.856H93.7823V158.326H86.7683V159.838H93.8523V161.308H90.2683V162.372H95.1823ZM107.067 156.296V169.232H105.219V156.296H107.067ZM98.8492 157.332V160.454H101.537V157.332H103.371V166.222H97.0152V157.332H98.8492ZM98.8492 164.752H101.537V161.896H98.8492V164.752ZM115.06 167.818C116.796 167.818 117.664 167.501 117.664 166.866C117.664 166.539 117.445 166.301 117.006 166.152C116.577 166.003 115.928 165.928 115.06 165.928C114.192 165.928 113.539 166.003 113.1 166.152C112.671 166.301 112.456 166.539 112.456 166.866C112.456 167.501 113.324 167.818 115.06 167.818ZM115.06 164.528C115.76 164.528 116.385 164.579 116.936 164.682C117.487 164.785 117.953 164.939 118.336 165.144C118.728 165.34 119.027 165.583 119.232 165.872C119.437 166.161 119.54 166.493 119.54 166.866C119.54 167.239 119.437 167.575 119.232 167.874C119.027 168.163 118.728 168.406 118.336 168.602C117.953 168.807 117.487 168.961 116.936 169.064C116.385 169.167 115.76 169.218 115.06 169.218C114.36 169.218 113.735 169.167 113.184 169.064C112.633 168.961 112.167 168.807 111.784 168.602C111.401 168.406 111.107 168.163 110.902 167.874C110.697 167.575 110.594 167.239 110.594 166.866C110.594 166.493 110.697 166.161 110.902 165.872C111.107 165.583 111.401 165.34 111.784 165.144C112.167 164.939 112.633 164.785 113.184 164.682C113.735 164.579 114.36 164.528 115.06 164.528ZM113.73 162.428H116.418V161.364C116.213 161.383 115.998 161.401 115.774 161.42C115.559 161.429 115.331 161.434 115.088 161.434C114.603 161.434 114.15 161.406 113.73 161.35V162.428ZM115.088 157.906C114.211 157.906 113.529 157.995 113.044 158.172C112.568 158.349 112.33 158.62 112.33 158.984C112.33 159.339 112.568 159.605 113.044 159.782C113.529 159.959 114.211 160.048 115.088 160.048C115.975 160.048 116.656 159.959 117.132 159.782C117.617 159.605 117.86 159.339 117.86 158.984C117.86 158.62 117.617 158.349 117.132 158.172C116.656 157.995 115.975 157.906 115.088 157.906ZM120.912 162.428V163.884H109.264V162.428H111.882V160.874C111.415 160.659 111.056 160.398 110.804 160.09C110.552 159.773 110.426 159.404 110.426 158.984C110.426 158.601 110.533 158.256 110.748 157.948C110.972 157.64 111.285 157.379 111.686 157.164C112.097 156.949 112.587 156.786 113.156 156.674C113.735 156.562 114.379 156.506 115.088 156.506C115.797 156.506 116.441 156.562 117.02 156.674C117.599 156.786 118.089 156.949 118.49 157.164C118.901 157.379 119.213 157.64 119.428 157.948C119.652 158.256 119.764 158.601 119.764 158.984C119.764 159.404 119.633 159.773 119.372 160.09C119.111 160.407 118.742 160.673 118.266 160.888V162.428H120.912Z" fill="#929292"/>
<path d="M195.862 161.21C196.011 160.631 196.104 160.118 196.142 159.67C196.179 159.213 196.198 158.769 196.198 158.34H189.114V156.884H198.046V157.948C198.046 158.461 198.027 158.998 197.99 159.558C197.962 160.118 197.859 160.729 197.682 161.392L195.862 161.21ZM193.538 167.818C194.415 167.818 195.092 167.734 195.568 167.566C196.044 167.389 196.282 167.127 196.282 166.782C196.282 166.427 196.044 166.166 195.568 165.998C195.092 165.821 194.415 165.732 193.538 165.732C192.66 165.732 191.984 165.821 191.508 165.998C191.041 166.166 190.808 166.427 190.808 166.782C190.808 167.127 191.041 167.389 191.508 167.566C191.984 167.734 192.66 167.818 193.538 167.818ZM193.538 164.346C194.238 164.346 194.868 164.402 195.428 164.514C195.988 164.626 196.468 164.789 196.87 165.004C197.271 165.209 197.579 165.466 197.794 165.774C198.008 166.073 198.116 166.409 198.116 166.782C198.116 167.155 198.008 167.491 197.794 167.79C197.579 168.089 197.271 168.341 196.87 168.546C196.468 168.761 195.988 168.924 195.428 169.036C194.868 169.148 194.238 169.204 193.538 169.204C192.847 169.204 192.217 169.148 191.648 169.036C191.088 168.924 190.607 168.761 190.206 168.546C189.814 168.341 189.51 168.089 189.296 167.79C189.081 167.491 188.974 167.155 188.974 166.782C188.974 166.409 189.081 166.073 189.296 165.774C189.51 165.466 189.814 165.209 190.206 165.004C190.607 164.789 191.088 164.626 191.648 164.514C192.217 164.402 192.847 164.346 193.538 164.346ZM199.418 162.078V163.534H187.812V162.078H192.11V159.824H193.958V162.078H199.418ZM206.473 158.214C205.623 158.214 204.947 158.335 204.443 158.578C203.948 158.821 203.701 159.171 203.701 159.628C203.701 160.095 203.948 160.449 204.443 160.692C204.947 160.925 205.623 161.042 206.473 161.042C207.322 161.042 207.994 160.925 208.489 160.692C208.983 160.449 209.231 160.095 209.231 159.628C209.231 159.171 208.983 158.821 208.489 158.578C207.994 158.335 207.322 158.214 206.473 158.214ZM206.473 162.512C205.782 162.512 205.152 162.447 204.583 162.316C204.013 162.176 203.523 161.98 203.113 161.728C202.702 161.476 202.38 161.173 202.147 160.818C201.923 160.463 201.811 160.067 201.811 159.628C201.811 159.189 201.923 158.793 202.147 158.438C202.38 158.083 202.702 157.78 203.113 157.528C203.523 157.276 204.013 157.085 204.583 156.954C205.152 156.814 205.782 156.744 206.473 156.744C207.154 156.744 207.779 156.814 208.349 156.954C208.927 157.085 209.422 157.276 209.833 157.528C210.243 157.78 210.561 158.083 210.785 158.438C211.018 158.793 211.135 159.189 211.135 159.628C211.135 160.067 211.018 160.463 210.785 160.818C210.561 161.173 210.243 161.476 209.833 161.728C209.422 161.98 208.927 162.176 208.349 162.316C207.779 162.447 207.154 162.512 206.473 162.512ZM212.339 164.976H209.637V169.19H207.761V164.976H205.171V169.19H203.309V164.976H200.663V163.478H212.339V164.976ZM224.251 165.578H222.389V156.324H224.251V165.578ZM215.529 160.412C215.529 160.935 215.693 161.345 216.019 161.644C216.355 161.933 216.761 162.078 217.237 162.078C217.723 162.078 218.124 161.933 218.441 161.644C218.768 161.345 218.931 160.935 218.931 160.412C218.931 159.88 218.768 159.469 218.441 159.18C218.124 158.881 217.723 158.732 217.237 158.732C216.761 158.732 216.355 158.881 216.019 159.18C215.693 159.469 215.529 159.88 215.529 160.412ZM220.737 160.412C220.737 160.879 220.649 161.313 220.471 161.714C220.294 162.115 220.047 162.461 219.729 162.75C219.412 163.039 219.039 163.268 218.609 163.436C218.189 163.595 217.732 163.674 217.237 163.674C216.743 163.674 216.281 163.595 215.851 163.436C215.422 163.268 215.049 163.039 214.731 162.75C214.423 162.461 214.176 162.115 213.989 161.714C213.812 161.313 213.723 160.879 213.723 160.412C213.723 159.936 213.812 159.497 213.989 159.096C214.176 158.695 214.423 158.349 214.731 158.06C215.049 157.771 215.422 157.547 215.851 157.388C216.281 157.22 216.743 157.136 217.237 157.136C217.732 157.136 218.189 157.22 218.609 157.388C219.039 157.547 219.412 157.771 219.729 158.06C220.047 158.349 220.294 158.695 220.471 159.096C220.649 159.497 220.737 159.936 220.737 160.412ZM224.573 167.51V168.98H215.669V164.668H217.517V167.51H224.573Z" fill="#929292"/>
<path d="M179.754 75.528V84.446H181.56V86H175.792V84.446H177.836V78.748L177.892 77.838L176.184 79.392L175.078 78.132L178.102 75.528H179.754ZM186.05 74.03H187.422L183.95 87.848H182.578L186.05 74.03ZM192.276 75.36C192.761 75.3693 193.204 75.4487 193.606 75.598C194.007 75.7473 194.348 75.948 194.628 76.2C194.917 76.452 195.136 76.746 195.286 77.082C195.435 77.418 195.505 77.782 195.496 78.174C195.496 78.7713 195.342 79.2567 195.034 79.63C194.735 79.994 194.366 80.2833 193.928 80.498C194.544 80.7313 194.987 81.0533 195.258 81.464C195.538 81.8653 195.678 82.374 195.678 82.99C195.668 83.522 195.561 83.9933 195.356 84.404C195.15 84.8147 194.88 85.16 194.544 85.44C194.208 85.7107 193.816 85.916 193.368 86.056C192.92 86.196 192.453 86.266 191.968 86.266C191.436 86.266 190.964 86.2007 190.554 86.07C190.152 85.9393 189.802 85.7527 189.504 85.51C189.214 85.258 188.962 84.9547 188.748 84.6C188.542 84.236 188.37 83.8253 188.23 83.368L189.938 82.696C189.975 82.836 190.04 83.004 190.134 83.2C190.227 83.396 190.325 83.5733 190.428 83.732C190.54 83.8813 190.666 84.0213 190.806 84.152C190.955 84.2733 191.118 84.376 191.296 84.46C191.482 84.544 191.697 84.586 191.94 84.586C192.248 84.586 192.514 84.544 192.738 84.46C192.971 84.3667 193.162 84.25 193.312 84.11C193.47 83.9607 193.587 83.7927 193.662 83.606C193.736 83.4193 193.774 83.228 193.774 83.032C193.774 82.7893 193.746 82.5653 193.69 82.36C193.643 82.1547 193.536 81.982 193.368 81.842C193.2 81.6927 192.952 81.5807 192.626 81.506C192.299 81.422 191.865 81.38 191.324 81.38V79.98C191.781 79.9707 192.159 79.9287 192.458 79.854C192.756 79.7793 192.99 79.6767 193.158 79.546C193.326 79.406 193.442 79.2473 193.508 79.07C193.573 78.8833 193.606 78.678 193.606 78.454C193.615 77.9687 193.489 77.6093 193.228 77.376C192.976 77.1333 192.621 77.012 192.164 77.012C191.744 77.012 191.398 77.1193 191.128 77.334C190.857 77.5393 190.661 77.81 190.54 78.146C190.474 78.3513 190.423 78.5707 190.386 78.804C190.087 78.7573 189.784 78.706 189.476 78.65C189.177 78.5847 188.874 78.5287 188.566 78.482C188.771 77.4273 189.191 76.6433 189.826 76.13C190.47 75.6167 191.286 75.36 192.276 75.36ZM200.895 75.164C201.399 75.164 201.866 75.2433 202.295 75.402C202.734 75.5607 203.112 75.78 203.429 76.06C203.747 76.34 203.994 76.676 204.171 77.068C204.358 77.46 204.451 77.8847 204.451 78.342C204.451 78.8087 204.358 79.238 204.171 79.63C203.994 80.0127 203.747 80.344 203.429 80.624C203.112 80.904 202.734 81.1233 202.295 81.282C201.866 81.4407 201.399 81.52 200.895 81.52C200.391 81.52 199.92 81.4407 199.481 81.282C199.052 81.1233 198.679 80.904 198.361 80.624C198.053 80.344 197.806 80.0127 197.619 79.63C197.442 79.238 197.353 78.8087 197.353 78.342C197.353 77.8847 197.442 77.46 197.619 77.068C197.806 76.676 198.053 76.34 198.361 76.06C198.679 75.78 199.052 75.5607 199.481 75.402C199.92 75.2433 200.391 75.164 200.895 75.164ZM200.895 76.746C200.391 76.746 199.971 76.886 199.635 77.166C199.309 77.446 199.145 77.838 199.145 78.342C199.145 78.846 199.309 79.238 199.635 79.518C199.971 79.798 200.391 79.938 200.895 79.938C201.399 79.938 201.815 79.798 202.141 79.518C202.477 79.238 202.645 78.846 202.645 78.342C202.645 77.838 202.477 77.446 202.141 77.166C201.815 76.886 201.399 76.746 200.895 76.746ZM207.503 74.296V87.232H205.655V74.296H207.503ZM196.807 83.116C197.377 83.116 197.993 83.116 198.655 83.116C199.318 83.1067 200.004 83.088 200.713 83.06C201.423 83.032 202.137 82.99 202.855 82.934C203.574 82.878 204.274 82.7987 204.955 82.696L205.067 84.026C204.377 84.166 203.672 84.278 202.953 84.362C202.244 84.4367 201.544 84.4927 200.853 84.53C200.163 84.5673 199.495 84.5907 198.851 84.6C198.207 84.6093 197.605 84.614 197.045 84.614L196.807 83.116ZM223.484 74.296V87.232H221.636V74.296H223.484ZM215.266 75.332V78.454H217.954V75.332H219.788V84.222H213.432V75.332H215.266ZM215.266 82.752H217.954V79.896H215.266V82.752ZM231.477 85.818C233.213 85.818 234.081 85.5007 234.081 84.866C234.081 84.5393 233.862 84.3013 233.423 84.152C232.994 84.0027 232.345 83.928 231.477 83.928C230.609 83.928 229.956 84.0027 229.517 84.152C229.088 84.3013 228.873 84.5393 228.873 84.866C228.873 85.5007 229.741 85.818 231.477 85.818ZM231.477 82.528C232.177 82.528 232.802 82.5793 233.353 82.682C233.904 82.7847 234.37 82.9387 234.753 83.144C235.145 83.34 235.444 83.5827 235.649 83.872C235.854 84.1613 235.957 84.4927 235.957 84.866C235.957 85.2393 235.854 85.5753 235.649 85.874C235.444 86.1633 235.145 86.406 234.753 86.602C234.37 86.8073 233.904 86.9613 233.353 87.064C232.802 87.1667 232.177 87.218 231.477 87.218C230.777 87.218 230.152 87.1667 229.601 87.064C229.05 86.9613 228.584 86.8073 228.201 86.602C227.818 86.406 227.524 86.1633 227.319 85.874C227.114 85.5753 227.011 85.2393 227.011 84.866C227.011 84.4927 227.114 84.1613 227.319 83.872C227.524 83.5827 227.818 83.34 228.201 83.144C228.584 82.9387 229.05 82.7847 229.601 82.682C230.152 82.5793 230.777 82.528 231.477 82.528ZM230.147 80.428H232.835V79.364C232.63 79.3827 232.415 79.4013 232.191 79.42C231.976 79.4293 231.748 79.434 231.505 79.434C231.02 79.434 230.567 79.406 230.147 79.35V80.428ZM231.505 75.906C230.628 75.906 229.946 75.9947 229.461 76.172C228.985 76.3493 228.747 76.62 228.747 76.984C228.747 77.3387 228.985 77.6047 229.461 77.782C229.946 77.9593 230.628 78.048 231.505 78.048C232.392 78.048 233.073 77.9593 233.549 77.782C234.034 77.6047 234.277 77.3387 234.277 76.984C234.277 76.62 234.034 76.3493 233.549 76.172C233.073 75.9947 232.392 75.906 231.505 75.906ZM237.329 80.428V81.884H225.681V80.428H228.299V78.874C227.832 78.6593 227.473 78.398 227.221 78.09C226.969 77.7727 226.843 77.404 226.843 76.984C226.843 76.6013 226.95 76.256 227.165 75.948C227.389 75.64 227.702 75.3787 228.103 75.164C228.514 74.9493 229.004 74.786 229.573 74.674C230.152 74.562 230.796 74.506 231.505 74.506C232.214 74.506 232.858 74.562 233.437 74.674C234.016 74.786 234.506 74.9493 234.907 75.164C235.318 75.3787 235.63 75.64 235.845 75.948C236.069 76.256 236.181 76.6013 236.181 76.984C236.181 77.404 236.05 77.7727 235.789 78.09C235.528 78.4073 235.159 78.6733 234.683 78.888V80.428H237.329Z" fill="#565ADF"/>
<path d="M31.0275 9.56C31.5595 9.43867 32.0495 9.378 32.4975 9.378C33.0482 9.378 33.5288 9.45733 33.9395 9.616C34.3502 9.77467 34.6955 9.99867 34.9755 10.288C35.2555 10.568 35.4655 10.8947 35.6055 11.268C35.7548 11.6413 35.8295 12.0567 35.8295 12.514C35.8295 13.0647 35.7315 13.5593 35.5355 13.998C35.3395 14.4367 35.0735 14.8193 34.7375 15.146C34.4108 15.4633 34.0188 15.706 33.5615 15.874C33.1042 16.042 32.6188 16.126 32.1055 16.126C31.7975 16.126 31.5035 16.0933 31.2235 16.028C30.9435 15.972 30.6822 15.8927 30.4395 15.79C30.1968 15.6873 29.9682 15.5707 29.7535 15.44C29.5482 15.3093 29.3662 15.1693 29.2075 15.02L29.8935 14.082C30.0242 14.194 30.1502 14.2873 30.2715 14.362C30.4022 14.4367 30.5515 14.5207 30.7195 14.614C30.8968 14.7073 31.0975 14.7913 31.3215 14.866C31.5548 14.9407 31.8348 14.978 32.1615 14.978C32.5162 14.978 32.8428 14.922 33.1415 14.81C33.4402 14.6887 33.6968 14.5347 33.9115 14.348C34.1262 14.152 34.2942 13.9 34.4155 13.592C34.5368 13.284 34.5975 12.948 34.5975 12.584C34.5975 12.2573 34.5415 11.9633 34.4295 11.702C34.3175 11.4313 34.1635 11.2073 33.9675 11.03C33.7808 10.8527 33.5428 10.7127 33.2535 10.61C32.9642 10.5073 32.6328 10.456 32.2595 10.456C31.9888 10.456 31.7135 10.4887 31.4335 10.554C31.1628 10.61 30.8782 10.6893 30.5795 10.792L29.7535 10.554L30.5935 5.696H35.5075V6.872H31.4895L31.0275 9.56ZM44.0574 14.964V16H38.5134V14.964H40.7954V7.936C40.7954 7.83333 40.7954 7.71667 40.7954 7.586C40.7954 7.446 40.8 7.32467 40.8094 7.222L38.9474 8.888L38.2614 8.062L41.0194 5.682H42.0414V14.964H44.0574ZM47.0772 8.692C47.0772 9.028 47.1239 9.32667 47.2172 9.588C47.3105 9.84933 47.4459 10.0733 47.6232 10.26C47.8099 10.4373 48.0339 10.5727 48.2952 10.666C48.5565 10.75 48.8412 10.792 49.1492 10.792C49.5039 10.792 49.8165 10.736 50.0872 10.624C50.3579 10.512 50.5865 10.3627 50.7732 10.176C50.9692 9.98933 51.1139 9.77 51.2072 9.518C51.3099 9.25667 51.3612 8.99533 51.3612 8.734C51.3612 8.398 51.3052 8.09933 51.1932 7.838C51.0905 7.56733 50.9459 7.34333 50.7592 7.166C50.5725 6.97933 50.3485 6.83933 50.0872 6.746C49.8259 6.64333 49.5459 6.592 49.2472 6.592C48.9205 6.592 48.6219 6.64333 48.3512 6.746C48.0899 6.84867 47.8612 6.99333 47.6652 7.18C47.4785 7.35733 47.3339 7.57667 47.2312 7.838C47.1285 8.09933 47.0772 8.384 47.0772 8.692ZM50.1432 11.926C50.4325 11.534 50.6192 11.2727 50.7032 11.142C50.4325 11.3567 50.1292 11.52 49.7932 11.632C49.4572 11.744 49.1025 11.8 48.7292 11.8C48.3279 11.8 47.9452 11.7347 47.5812 11.604C47.2265 11.4733 46.9139 11.282 46.6432 11.03C46.3819 10.7687 46.1719 10.4513 46.0132 10.078C45.8545 9.70467 45.7752 9.27533 45.7752 8.79C45.7752 8.33267 45.8592 7.90333 46.0272 7.502C46.2045 7.10067 46.4472 6.75067 46.7552 6.452C47.0632 6.15333 47.4272 5.92 47.8472 5.752C48.2765 5.57467 48.7479 5.486 49.2612 5.486C49.7652 5.486 50.2225 5.57 50.6332 5.738C51.0439 5.906 51.3939 6.13933 51.6832 6.438C51.9819 6.73667 52.2105 7.096 52.3692 7.516C52.5279 7.92667 52.6072 8.384 52.6072 8.888C52.6072 9.18667 52.5792 9.476 52.5232 9.756C52.4672 10.0267 52.3832 10.2927 52.2712 10.554C52.1685 10.8153 52.0425 11.072 51.8932 11.324C51.7439 11.576 51.5712 11.842 51.3752 12.122L48.5612 16H46.9512L50.1432 11.926ZM59.281 6.522H55.753V10.498H59.281V6.522ZM60.401 11.408H54.633V5.598H60.401V11.408ZM57.195 15.818H64.419V16.756H56.047V12.808H57.195V15.818ZM65.721 8.3V9.266H63.859V13.662H62.711V4.464H63.859V8.3H65.721ZM76.122 11.898V4.478H77.27V14.04H76.122V12.752H73.574V11.898H76.122ZM71.012 5.836C70.4146 5.836 69.9293 5.95733 69.556 6.2C69.192 6.44267 69.01 6.76467 69.01 7.166C69.01 7.57667 69.192 7.90333 69.556 8.146C69.9293 8.38867 70.4146 8.51 71.012 8.51C71.6093 8.51 72.09 8.38867 72.454 8.146C72.8273 7.90333 73.014 7.57667 73.014 7.166C73.014 6.76467 72.8273 6.44267 72.454 6.2C72.09 5.95733 71.6093 5.836 71.012 5.836ZM71.012 9.364C70.5546 9.364 70.1346 9.31267 69.752 9.21C69.3786 9.10733 69.052 8.96267 68.772 8.776C68.5013 8.58 68.2913 8.34667 68.142 8.076C67.9926 7.80533 67.918 7.502 67.918 7.166C67.918 6.83933 67.9926 6.54067 68.142 6.27C68.2913 5.99933 68.5013 5.77067 68.772 5.584C69.052 5.388 69.3786 5.23867 69.752 5.136C70.1346 5.03333 70.5546 4.982 71.012 4.982C71.4693 4.982 71.8846 5.03333 72.258 5.136C72.6406 5.23867 72.9673 5.388 73.238 5.584C73.518 5.77067 73.7326 5.99933 73.882 6.27C74.0313 6.54067 74.106 6.83933 74.106 7.166C74.106 7.502 74.0313 7.80533 73.882 8.076C73.7326 8.34667 73.518 8.58 73.238 8.776C72.9673 8.96267 72.6406 9.10733 72.258 9.21C71.8846 9.31267 71.4693 9.364 71.012 9.364ZM70.564 11.17C69.9386 11.198 69.332 11.2167 68.744 11.226C68.156 11.2353 67.6006 11.24 67.078 11.24L66.924 10.288C67.5026 10.288 68.1233 10.288 68.786 10.288C69.458 10.2787 70.144 10.26 70.844 10.232C71.544 10.204 72.2486 10.1667 72.958 10.12C73.6673 10.0733 74.3533 10.008 75.016 9.924L75.114 10.75C74.554 10.834 73.9893 10.9087 73.42 10.974C72.8506 11.03 72.2813 11.0767 71.712 11.114V13.592H70.564V11.17ZM77.592 15.818V16.756H68.716V13.102H69.864V15.818H77.592ZM82.5049 11.31H79.6629V10.358H82.5049V7.306H83.5269V10.358H86.3689V11.31H83.5269V14.376H82.5049V11.31ZM90.5505 16.182C90.1118 16.182 89.7105 16.098 89.3465 15.93C88.9918 15.762 88.6838 15.5147 88.4225 15.188C88.1705 14.8613 87.9698 14.46 87.8205 13.984C87.6805 13.508 87.6105 12.9573 87.6105 12.332C87.6105 11.6787 87.6992 11.1 87.8765 10.596C88.0632 10.0827 88.3105 9.64867 88.6185 9.294C88.9265 8.93933 89.2812 8.66867 89.6825 8.482C90.0838 8.29533 90.5038 8.202 90.9425 8.202C91.1758 8.202 91.4092 8.23933 91.6425 8.314C91.8852 8.37933 92.1092 8.496 92.3145 8.664C92.5198 8.82267 92.7065 9.028 92.8745 9.28C93.0425 9.532 93.1825 9.84 93.2945 10.204H93.3365L93.6585 8.398H94.9185C94.8158 8.902 94.7085 9.42933 94.5965 9.98C94.4845 10.5307 94.3818 11.072 94.2885 11.604C94.1952 12.1267 94.1158 12.626 94.0505 13.102C93.9945 13.578 93.9665 13.9887 93.9665 14.334C93.9665 14.5953 94.0365 14.7913 94.1765 14.922C94.3258 15.0527 94.5078 15.118 94.7225 15.118C94.8905 15.118 95.0632 15.0853 95.2405 15.02L95.4365 15.986C95.3245 16.0327 95.1892 16.0747 95.0305 16.112C94.8718 16.1587 94.6805 16.182 94.4565 16.182C93.9992 16.182 93.6305 16.0607 93.3505 15.818C93.0798 15.566 92.9492 15.174 92.9585 14.642H92.9025C92.3238 15.6687 91.5398 16.182 90.5505 16.182ZM90.8025 15.118C91.0545 15.118 91.2972 15.0573 91.5305 14.936C91.7732 14.8053 91.9878 14.6327 92.1745 14.418C92.3705 14.2033 92.5292 13.956 92.6505 13.676C92.7812 13.3867 92.8605 13.0787 92.8885 12.752L93.0005 11.31C92.8978 10.8993 92.7718 10.5633 92.6225 10.302C92.4732 10.0313 92.3145 9.82133 92.1465 9.672C91.9785 9.52267 91.8012 9.42 91.6145 9.364C91.4372 9.308 91.2598 9.28 91.0825 9.28C90.8118 9.28 90.5458 9.34533 90.2845 9.476C90.0325 9.60667 89.8038 9.798 89.5985 10.05C89.4025 10.302 89.2438 10.6193 89.1225 11.002C89.0012 11.3753 88.9405 11.814 88.9405 12.318C88.9405 13.214 89.1038 13.9047 89.4305 14.39C89.7572 14.8753 90.2145 15.118 90.8025 15.118Z" fill="#929292"/>
<path d="M121.524 87.68H124.78L126.584 93.818C126.745 94.434 126.906 95.0573 127.068 95.688C127.244 96.304 127.412 96.9273 127.574 97.558H127.684C127.845 96.9273 128.006 96.304 128.168 95.688C128.344 95.0573 128.512 94.434 128.674 93.818L130.478 87.68H133.58L129.466 100H125.726L121.524 87.68ZM139.15 100.308C138.314 100.308 137.478 100.147 136.642 99.824C135.806 99.5013 135.08 99.0833 134.464 98.57L135.938 96.546C136.495 96.9713 137.038 97.3013 137.566 97.536C138.108 97.7707 138.666 97.888 139.238 97.888C139.854 97.888 140.301 97.7707 140.58 97.536C140.873 97.2867 141.02 96.9713 141.02 96.59C141.02 96.3553 140.946 96.1573 140.8 95.996C140.653 95.82 140.455 95.6587 140.206 95.512C139.971 95.3653 139.7 95.2333 139.392 95.116C139.084 94.9987 138.768 94.874 138.446 94.742C138.05 94.5953 137.654 94.4267 137.258 94.236C136.862 94.0307 136.502 93.7887 136.18 93.51C135.857 93.2167 135.593 92.8793 135.388 92.498C135.182 92.1167 135.08 91.6693 135.08 91.156C135.08 90.5987 135.19 90.0927 135.41 89.638C135.63 89.1687 135.938 88.7653 136.334 88.428C136.73 88.0907 137.206 87.834 137.764 87.658C138.336 87.4673 138.966 87.372 139.656 87.372C140.565 87.372 141.364 87.5333 142.054 87.856C142.743 88.164 143.344 88.5087 143.858 88.89L142.406 90.848C141.966 90.54 141.526 90.2907 141.086 90.1C140.66 89.8947 140.213 89.792 139.744 89.792C139.186 89.792 138.776 89.902 138.512 90.122C138.248 90.342 138.116 90.628 138.116 90.98C138.116 91.2 138.182 91.3907 138.314 91.552C138.46 91.7133 138.651 91.86 138.886 91.992C139.12 92.124 139.384 92.2487 139.678 92.366C139.986 92.4687 140.301 92.5787 140.624 92.696C141.034 92.8573 141.438 93.0333 141.834 93.224C142.244 93.4147 142.611 93.6493 142.934 93.928C143.271 94.2067 143.542 94.5513 143.748 94.962C143.953 95.358 144.056 95.842 144.056 96.414C144.056 96.9567 143.946 97.4627 143.726 97.932C143.52 98.4013 143.212 98.812 142.802 99.164C142.391 99.516 141.878 99.7947 141.262 100C140.66 100.205 139.956 100.308 139.15 100.308Z" fill="#929292"/>
</svg>
