<svg width="234" height="174" viewBox="0 0 234 174" fill="none" xmlns="http://www.w3.org/2000/svg">
<path d="M107.819 1.20496H4.3035C2.09436 1.20496 0.303497 2.99582 0.303497 5.20496V112.533C0.303497 114.742 2.09436 116.533 4.3035 116.533H107.819C110.028 116.533 111.819 114.742 111.819 112.533V5.20496C111.819 2.99582 110.028 1.20496 107.819 1.20496Z" fill="#3F3D56"/>
<path d="M76.5304 47.7938C82.6516 59.0916 78.4479 73.2095 67.1437 79.3272C55.8395 85.4449 41.7134 81.2437 35.5922 69.9459C29.471 58.6482 33.6746 44.5302 44.9789 38.4126C48.3801 36.5712 52.1886 35.6069 56.0577 35.6069C56.2419 35.6069 56.4261 35.6093 56.6104 35.6142L56.3631 25.6781C56.2613 25.6781 56.1595 25.6732 56.0577 25.6732C37.7207 25.6781 22.8601 40.5398 22.8649 58.8662C22.8698 77.1927 37.7401 92.0447 56.077 92.0399C74.414 92.035 89.2746 77.1733 89.2698 58.8469C89.2673 52.8334 87.631 46.9337 84.5352 41.7803L76.5304 47.7938Z" fill="#6C63FF"/>
<path opacity="0.3" d="M76.5304 47.7935L84.5377 41.78C78.591 31.8778 67.9219 25.7795 56.3656 25.6777L56.6128 35.6138C64.9571 35.8101 72.5571 40.4571 76.5304 47.7935Z" fill="#6C63FF"/>
<path d="M230 0.235352H126.485C124.276 0.235352 122.485 2.02621 122.485 4.23535V42.754C122.485 44.9632 124.276 46.754 126.485 46.754H230C232.209 46.754 234 44.9632 234 42.754V4.23535C234 2.02621 232.209 0.235352 230 0.235352Z" fill="#3F3D56"/>
<path d="M167.534 36.0939H154.928C154.068 31.1247 154.068 26.0415 154.928 21.0723H167.534C166.114 25.9785 166.114 31.1876 167.534 36.0939Z" fill="#FF6584"/>
<path d="M202.766 36.0939H190.16C189.299 31.1247 189.299 26.0415 190.16 21.0723H202.766C201.345 25.9785 201.345 31.1876 202.766 36.0939Z" fill="#FF6584"/>
<path d="M149.637 25.9176H137.031C136.17 20.9484 136.17 15.8653 137.031 10.896H149.637C148.216 15.8023 148.216 21.0114 149.637 25.9176Z" fill="#6C63FF"/>
<path d="M172.182 25.9176H184.788C185.648 20.9484 185.648 15.8653 184.788 10.896H172.182C173.6 15.8023 173.6 21.0114 172.182 25.9176Z" fill="#6C63FF"/>
<path d="M206.848 25.9176H219.454C220.315 20.9484 220.315 15.8653 219.454 10.896H206.848C208.266 15.8023 208.266 21.0114 206.848 25.9176Z" fill="#6C63FF"/>
<path d="M145.03 115.805H132.424C131.563 110.836 131.563 105.753 132.424 100.784H145.03C143.609 105.69 143.609 110.899 145.03 115.805Z" fill="#6C63FF"/>
<path d="M184.911 39.74L186.645 40.6074C186.645 40.6074 196.034 64.1405 192.856 69.7712C189.677 75.4019 179.709 85.9413 179.709 85.9413L177.83 80.5989L185.51 63.9564L184.911 39.74Z" fill="#575A89"/>
<path opacity="0.1" d="M184.911 39.74L186.645 40.6074C186.645 40.6074 196.034 64.1405 192.856 69.7712C189.677 75.4019 179.709 85.9413 179.709 85.9413L177.83 80.5989L185.51 63.9564L184.911 39.74Z" fill="black"/>
<path d="M183.035 157.408C183.035 157.408 185.49 163.038 184.191 163.472C182.892 163.906 181.301 163.906 179.713 163.906C178.126 163.906 176.247 163.329 175.958 162.75C175.67 162.171 177.115 158.418 177.115 158.418L183.035 157.408Z" fill="#F2F2F2"/>
<path d="M149.952 160.294C149.952 160.294 151.539 165.348 150.819 165.636C150.099 165.924 147.787 167.223 146.485 166.792C145.183 166.36 143.161 165.348 142.73 164.914C142.298 164.48 142.73 162.171 142.73 162.171L144.752 159.283L149.952 160.294Z" fill="#F2F2F2"/>
<path d="M178.412 85.2174L180.482 85.9394C180.482 85.9394 181.011 90.8481 180.434 92.5804C179.857 94.3127 178.555 106.873 179.278 109.473C180 112.072 179.566 116.259 179.566 116.259C179.566 116.259 183.901 130.408 183.033 133.439C182.165 136.47 182.31 140.802 183.178 142.968C184.046 145.134 184.766 145.999 184.335 147.732C183.903 149.464 183.035 150.331 183.901 151.775C184.766 153.219 186.502 153.653 185.634 154.952C184.766 156.25 183.901 157.261 184.189 158.128C184.478 158.996 176.533 160.583 175.811 159.284C175.811 159.284 178.121 157.263 175.811 156.107C173.501 154.952 174.223 150.622 174.223 150.622C174.223 150.622 170.177 134.018 170.322 132.72C170.468 131.421 163.966 111.207 163.966 111.207C163.966 111.207 154.431 140.083 153.855 141.381C153.278 142.68 154.577 145.856 153.855 146.724C153.132 147.591 154.143 149.755 153.132 150.622C152.121 151.49 154.865 154.666 153.132 155.819C151.399 156.972 150.531 160.582 150.676 161.305C150.822 162.027 143.452 161.159 143.452 160.149C143.452 159.138 143.598 158.271 142.875 156.539C142.153 154.806 141.719 153.651 142.298 153.074C142.878 152.497 143.309 151.775 142.732 149.752C142.155 147.729 143.6 141.522 143.166 140.369C142.732 139.215 142.878 131.416 142.878 131.416C142.878 131.416 144.322 120.009 143.888 118.134C143.454 116.259 143.888 115.825 144.034 115.103C144.179 114.381 145.045 106.584 145.622 105.429C146.199 104.273 146.921 84.4929 150.245 83.4826C153.568 82.4723 178.412 85.2174 178.412 85.2174Z" fill="#2F2E41"/>
<path d="M179.566 162.605C179.566 162.605 184.766 161.737 185.054 162.605C185.343 163.472 186.211 170.256 184.187 170.402C182.162 170.547 178.698 170.978 178.119 169.68C177.539 168.381 174.795 167.514 174.795 167.514C174.795 167.514 170.749 166.358 170.749 165.059C170.749 163.761 170.895 161.737 171.617 161.595C172.339 161.452 175.229 159.862 175.229 159.286C175.229 158.709 179.566 162.605 179.566 162.605Z" fill="#2F2E41"/>
<path d="M147.065 164.914C147.065 164.914 150.82 163.758 151.688 164.48C152.555 165.202 153.709 173.142 151.688 172.999C149.666 172.856 144.32 173.721 144.032 172.565C143.743 171.409 139.843 171.121 139.843 171.121C139.843 171.121 135.654 169.1 135.942 166.934C136.231 164.768 136.665 164.046 138.398 163.903C140.131 163.76 141.431 161.737 141.576 161.594C141.721 161.451 142.994 160.395 143.152 161.573C143.309 162.75 145.186 165.347 147.065 164.914Z" fill="#2F2E41"/>
<path d="M158.909 25.0113C163.775 25.0113 167.721 21.0683 167.721 16.2043C167.721 11.3403 163.775 7.39722 158.909 7.39722C154.042 7.39722 150.096 11.3403 150.096 16.2043C150.096 21.0683 154.042 25.0113 158.909 25.0113Z" fill="#FFB9B9"/>
<path d="M166.564 18.2274C166.564 18.2274 167.141 27.9018 169.309 28.7668C171.476 29.6318 158.329 29.6342 158.329 29.6342C158.329 29.6342 158.184 23.5698 156.307 22.1258C154.431 20.6818 166.564 18.2274 166.564 18.2274Z" fill="#FFB9B9"/>
<path d="M170.032 26.6011C170.032 26.6011 161.075 23.2793 157.896 28.4788C157.896 28.4788 147.785 33.2421 147.062 36.1301C146.34 39.0182 153.13 60.6736 153.13 60.6736C153.13 60.6736 153.13 78.576 151.685 80.4537C150.241 82.3314 147.496 84.3521 149.375 84.7858C151.254 85.2195 180.723 88.3958 180.578 86.5181C180.432 84.6404 178.556 83.0534 180.578 81.8977C182.599 80.742 180.866 79.4434 182.165 75.6904C183.465 71.9374 186.643 40.8959 186.643 40.8959C186.643 40.8959 184.476 36.9975 184.042 36.5638C183.608 36.1301 170.032 26.6011 170.032 26.6011Z" fill="#575A89"/>
<path d="M144.175 89.837C144.175 89.837 138.541 102.542 143.452 104.275C148.364 106.007 148.075 90.8474 148.075 90.8474L144.175 89.837Z" fill="#FFB9B9"/>
<path d="M163.137 17.8421C162.626 16.8196 161.862 15.6397 160.72 15.7003C160.144 15.7318 159.644 16.0904 159.13 16.3544C158.616 16.6185 157.957 16.7809 157.484 16.4465C156.796 15.9547 157.009 14.7893 156.393 14.2102C155.722 13.5779 154.369 13.9316 153.935 13.1151C153.702 12.679 153.891 12.1411 153.79 11.6565C153.087 11.6687 152.359 11.6783 151.707 11.4143C151.055 11.1502 150.49 10.5372 150.51 9.83456C150.548 9.34999 150.781 8.90419 151.154 8.59164C152.042 7.78483 153.327 7.62977 154.422 7.14036C155.295 6.75028 156.054 6.14457 156.91 5.72299C158.386 4.99856 160.088 4.85803 161.727 4.9816C164.211 5.17058 166.725 5.99677 168.527 7.71699C170.328 9.43722 171.283 12.1532 170.505 14.5203C170.064 15.8626 169.13 16.9892 168.609 18.3C168.289 19.1989 168.068 20.1268 167.95 21.0742L167.584 23.3177C167.639 22.9688 166.873 22.0942 166.621 21.8858C166.073 21.4303 165.276 21.5854 164.767 21.1638C164.015 20.5435 163.579 18.7313 163.137 17.8421Z" fill="#2F2E41"/>
<path opacity="0.1" d="M150.385 35.1197L148.075 36.5637C148.075 36.5637 144.32 59.2319 144.751 62.4082C145.183 65.5846 143.018 83.487 143.74 84.931C144.463 86.375 144.751 86.6634 144.751 87.5308C144.751 88.3981 142.729 91.5745 144.029 92.1511C145.328 92.7278 150.097 93.7381 150.097 92.1511C150.097 90.5642 149.229 88.3981 150.819 87.3878C152.409 86.3775 153.563 79.8794 153.563 79.8794C153.563 79.8794 154.286 73.2384 155.008 71.9397C155.731 70.6411 156.741 65.8753 156.741 63.8547C156.741 61.834 158.475 53.6036 157.464 49.4169C156.453 45.2303 156.164 33.964 150.385 35.1197Z" fill="black"/>
<path d="M149.374 34.6854L147.064 36.1294C147.064 36.1294 143.308 58.7976 143.74 61.9739C144.171 65.1503 142.007 83.0527 142.729 84.4967C143.451 85.9407 143.74 86.2291 143.74 87.0964C143.74 87.9638 141.718 91.1402 143.017 91.7168C144.317 92.2934 149.085 93.3038 149.085 91.7168C149.085 90.1298 148.218 87.9638 149.808 86.9535C151.398 85.9432 152.552 79.4451 152.552 79.4451C152.552 79.4451 153.274 72.8041 153.997 71.5054C154.719 70.2068 155.73 65.441 155.73 63.4204C155.73 61.3997 157.464 53.1693 156.453 48.9826C155.442 44.7959 155.153 33.5297 149.374 34.6854Z" fill="#575A89"/>
</svg>
