<svg width="80" height="80" viewBox="0 0 80 80" fill="none" xmlns="http://www.w3.org/2000/svg">
<path fill-rule="evenodd" clip-rule="evenodd" d="M40 10.0787C23.4749 10.0787 10.0787 23.4749 10.0787 40C10.0787 56.5251 23.4749 69.9213 40 69.9213C56.5251 69.9213 69.9213 56.5251 69.9213 40C69.9213 36.1358 69.1913 32.4543 67.8663 29.0771L75.2756 22.3622C78.1102 27.0866 80 34.8558 80 40C80 62.0914 62.0914 80 40 80C17.9086 80 0 62.0914 0 40C0 17.9086 17.9086 0 40 0C50.2415 0 59.0683 3.74787 66.1417 10.0787L58.8976 17.3228C53.6007 12.5819 47.6666 10.0787 40 10.0787Z" fill="white"/>
<path fill-rule="evenodd" clip-rule="evenodd" d="M77.8881 12.9365C78.6751 13.7215 78.671 14.9977 77.879 15.7776L42.5922 50.5241C40.6309 52.4555 37.4773 52.4382 35.5372 50.4856L20.5559 35.4077C19.7772 34.6241 19.7814 33.3575 20.5652 32.579L24.4701 28.7005C25.2555 27.9204 26.5253 27.9267 27.3029 28.7146L37.6661 39.2143C38.4434 40.0019 39.7126 40.0085 40.4981 39.2291L71.0461 8.92205C71.8273 8.14698 73.088 8.14867 73.8671 8.92582L77.8881 12.9365Z" fill="white"/>
<rect x="39.6579" y="12.9913" width="2.73504" height="5.47009" rx="1.36752" fill="white"/>
<rect x="67.0086" y="39.658" width="2.73504" height="5.47009" rx="1.36752" transform="rotate(90 67.0086 39.658)" fill="white"/>
<rect x="39.6579" y="62.2222" width="2.73504" height="5.47009" rx="1.36752" fill="white"/>
<rect x="17.778" y="39.658" width="2.73504" height="5.47009" rx="1.36752" transform="rotate(90 17.778 39.658)" fill="white"/>
</svg>
