<svg width="80" height="80" viewBox="0 0 80 80" fill="none" xmlns="http://www.w3.org/2000/svg">
<g clip-path="url(#clip0)">
<path d="M63.4375 61.25C58.2672 61.25 54.0625 57.0453 54.0625 51.875C54.0625 46.7047 58.2672 42.3438 63.4375 42.3438C68.6078 42.3438 72.8125 46.7047 72.8125 51.875C72.8125 57.0453 68.6078 61.25 63.4375 61.25Z" fill="white"/>
<path d="M63.4375 61.25C59.8688 61.25 56.5922 62.4187 53.9 64.3531L50.4578 72.1281L56.4063 80H80V77.6562C80 68.5953 72.4985 61.25 63.4375 61.25Z" fill="white"/>
<path d="M11.875 19.7984L4.61563 23.5938L5.99375 15.2703L0 9.57812L8.30937 8.40625L11.875 0L15.5281 8.40625L23.5938 9.57812L17.7563 15.2703L19.1344 23.5938L11.875 19.7984Z" fill="white"/>
<path d="M45.8594 15.25L47.2656 23.5938L40 19.7969L32.7344 23.5938L34.1406 15.25L28.2812 9.57812L36.4375 8.40625L40 0L43.6562 8.40625L51.7188 9.57812L45.8594 15.25Z" fill="white"/>
<path d="M68.125 19.7984L60.8656 23.5938L62.2437 15.2703L56.4062 9.57812L64.5594 8.40625L68.125 0L71.7781 8.40625L80 9.57812L74.0063 15.2703L75.3844 23.5938L68.125 19.7984Z" fill="white"/>
<path d="M16.5625 61.25C11.3922 61.25 7.1875 57.0453 7.1875 51.875C7.1875 46.7047 11.3922 42.3438 16.5625 42.3438C21.7328 42.3438 25.9375 46.7047 25.9375 51.875C25.9375 57.0453 21.7328 61.25 16.5625 61.25Z" fill="white"/>
<path d="M16.5625 61.25C7.50156 61.25 0 68.5953 0 77.6562V80H23.5938L29.4078 72.9688L26.1 64.3531C23.4078 62.4187 20.1313 61.25 16.5625 61.25Z" fill="white"/>
<path d="M40 37.6562C34.8438 37.6562 30.625 41.875 30.625 47.0312C30.625 52.1875 34.8438 56.5625 40 56.5625C45.1562 56.5625 49.375 52.1875 49.375 47.0312C49.375 41.875 45.1562 37.6562 40 37.6562Z" fill="white"/>
<path d="M56.4062 72.9688V80H23.5938V72.9688C23.5938 69.7812 24.5312 66.875 26.0781 64.3437C28.9844 59.7031 34.1406 56.5625 40 56.5625C45.8594 56.5625 51.0156 59.7031 53.9219 64.3437C55.4688 66.875 56.4062 69.7812 56.4062 72.9688Z" fill="white"/>
<path d="M30.0046 58.4C28.0284 59.8049 26.3438 61.6092 25.0651 63.6893C23.4057 66.4557 22.4 69.6319 22.4 73.1155V80.8H57.6V73.1155C57.6 69.6319 56.5943 66.4557 54.9349 63.6893C53.6562 61.6092 51.9716 59.8049 49.9954 58.4" stroke="#565ADF" stroke-width="2"/>
</g>
<defs>
<clipPath id="clip0">
<rect width="80" height="80" fill="white"/>
</clipPath>
</defs>
</svg>
