<svg width="50" height="50" viewBox="0 0 50 50" fill="none" xmlns="http://www.w3.org/2000/svg">
<circle cx="25" cy="25" r="25" fill="#F4F4F4"/>
<g opacity="0.9">
<path d="M10.1715 34.1461C10.1792 34.1461 10.1896 34.1448 10.2025 34.1435C10.2154 34.1422 10.227 34.1396 10.2399 34.137C10.2529 34.1344 10.2645 34.1306 10.2748 34.1267C10.2864 34.1228 10.2955 34.1176 10.302 34.1125C10.3213 34.1112 10.3446 34.1125 10.3717 34.1151C10.3989 34.1176 10.4208 34.1215 10.4363 34.1241C10.4544 34.128 10.4699 34.1331 10.4841 34.1422C10.4983 34.1512 10.5035 34.1642 10.5022 34.1835C10.4996 34.2029 10.4893 34.2158 10.4699 34.2236C10.4505 34.2313 10.4273 34.2339 10.3989 34.2313C10.3846 34.23 10.3666 34.2288 10.3446 34.2275C10.3226 34.2262 10.3007 34.2262 10.2774 34.2249C10.2542 34.2249 10.2309 34.2236 10.2076 34.2236C10.1844 34.2236 10.165 34.2223 10.1482 34.2223C10.112 34.2223 10.0707 34.2223 10.0242 34.2223C9.97767 34.2223 9.92858 34.2223 9.8769 34.2236C9.82522 34.2236 9.77354 34.2249 9.72186 34.2262C9.67018 34.2275 9.62109 34.2288 9.57458 34.23C9.52807 34.2313 9.48672 34.2326 9.45054 34.2339C9.41437 34.2352 9.38595 34.2378 9.36657 34.2404C9.33814 34.243 9.31101 34.2481 9.28517 34.2559C9.25933 34.2636 9.24125 34.2714 9.22962 34.2766C9.2167 34.2727 9.20249 34.2675 9.18699 34.2611C9.17148 34.2546 9.15598 34.2468 9.13918 34.2391C9.12239 34.2313 9.10817 34.2236 9.09525 34.2145C9.08233 34.2055 9.072 34.199 9.06683 34.1913C9.05391 34.1771 9.05133 34.1642 9.05908 34.1564C9.06683 34.1487 9.07846 34.1435 9.09009 34.1461C9.09655 34.1474 9.10688 34.1487 9.12109 34.1499C9.13401 34.1512 9.14952 34.1525 9.16373 34.1538C9.17923 34.1551 9.19345 34.1564 9.20766 34.1577C9.22187 34.159 9.2322 34.159 9.23866 34.159C9.40274 34.1616 9.56036 34.1616 9.71152 34.1603C9.86398 34.1603 10.0164 34.1551 10.1715 34.1461ZM9.41179 34.5014C9.40274 34.4871 9.39112 34.4755 9.37561 34.4678C9.36011 34.46 9.34461 34.4536 9.32781 34.4471C9.30585 34.4406 9.29292 34.429 9.29292 34.4135C9.29163 34.398 9.30455 34.3902 9.33039 34.389C9.35365 34.3877 9.38466 34.389 9.42341 34.3928C9.46217 34.3967 9.50093 34.3993 9.54228 34.4032C9.61334 34.4058 9.68568 34.4045 9.75803 34.4019C9.83168 34.398 9.89628 34.3954 9.95442 34.3928C9.98671 34.3902 10.0216 34.389 10.0578 34.3864C10.0939 34.3851 10.1198 34.3838 10.1353 34.3825C10.1534 34.3812 10.165 34.3838 10.1715 34.3902C10.1779 34.3967 10.1805 34.4032 10.1792 34.4109C10.1779 34.4187 10.1766 34.429 10.1728 34.4432C10.1702 34.4561 10.1676 34.4703 10.165 34.482C10.1598 34.522 10.1521 34.5672 10.1417 34.6176C10.1327 34.6693 10.1224 34.721 10.112 34.7727C10.1534 34.7714 10.1741 34.7856 10.1728 34.8166C10.1715 34.8269 10.1663 34.836 10.1585 34.8424C10.1495 34.8502 10.1353 34.8528 10.1133 34.8528C10.019 34.8528 9.9247 34.8541 9.83168 34.8566C9.73866 34.8592 9.64305 34.8618 9.54615 34.867C9.54486 34.8773 9.53969 34.8877 9.52936 34.898C9.51902 34.9083 9.50739 34.9148 9.49576 34.9161C9.48414 34.9174 9.4738 34.9122 9.46476 34.9006C9.45701 34.8889 9.45184 34.8747 9.44926 34.8566L9.41179 34.5014ZM9.40145 33.7301C9.40145 33.6887 9.4105 33.6512 9.42858 33.6164C9.44667 33.5815 9.47251 33.5531 9.5061 33.5285C9.53969 33.504 9.57845 33.4846 9.62367 33.4717C9.66889 33.4587 9.71798 33.451 9.77225 33.451C9.82651 33.451 9.87561 33.4574 9.92212 33.4717C9.96734 33.4846 10.0074 33.504 10.041 33.5285C10.0746 33.5531 10.1004 33.5828 10.1185 33.6164C10.1366 33.65 10.1469 33.6874 10.1469 33.7301C10.1469 33.7701 10.1379 33.8076 10.1185 33.8425C10.1004 33.8773 10.0746 33.9058 10.041 33.9303C10.0074 33.9549 9.96863 33.9729 9.92212 33.9872C9.8769 34.0001 9.82651 34.0078 9.77225 34.0078C9.71798 34.0078 9.66889 34.0014 9.62367 33.9872C9.57845 33.9742 9.53969 33.9549 9.5061 33.9303C9.47251 33.9058 9.44667 33.8773 9.42858 33.8425C9.4105 33.8076 9.40145 33.7701 9.40145 33.7301ZM9.52031 33.7313C9.52031 33.7624 9.52677 33.7908 9.53969 33.8166C9.55261 33.8425 9.5707 33.8631 9.59266 33.8812C9.61463 33.8993 9.64176 33.9122 9.67276 33.9213C9.70377 33.9303 9.73736 33.9342 9.77483 33.9342C9.8123 33.9342 9.84589 33.9303 9.8769 33.9213C9.9079 33.9122 9.93504 33.8993 9.95829 33.8812C9.98155 33.8631 9.99963 33.8425 10.0126 33.8166C10.0255 33.7908 10.0319 33.7624 10.0319 33.7313C10.0319 33.7003 10.0255 33.6719 10.0126 33.6461C9.99963 33.6202 9.98155 33.5996 9.95829 33.5815C9.93504 33.5634 9.9079 33.5505 9.8769 33.5414C9.84589 33.5324 9.8123 33.5285 9.77483 33.5285C9.73736 33.5285 9.70377 33.5337 9.67276 33.5414C9.64176 33.5505 9.61463 33.5634 9.59266 33.5815C9.5707 33.5996 9.55261 33.6215 9.53969 33.6461C9.52677 33.6706 9.52031 33.7003 9.52031 33.7313ZM9.54098 34.4742C9.53969 34.4871 9.53969 34.4949 9.53969 34.5001C9.53969 34.5052 9.53969 34.5091 9.53969 34.513L9.54874 34.7985C9.57328 34.7985 9.60558 34.7985 9.64563 34.7972C9.68568 34.7972 9.72832 34.7959 9.77225 34.7933C9.81617 34.792 9.86139 34.7895 9.90661 34.7869C9.95183 34.7843 9.99188 34.7817 10.0281 34.7765L10.0371 34.4626C10.0009 34.4613 9.96087 34.4613 9.91565 34.4613C9.87173 34.4613 9.82651 34.4626 9.78129 34.4626C9.73607 34.4626 9.69215 34.4639 9.6508 34.4665C9.60946 34.4691 9.5707 34.4716 9.54098 34.4742Z" fill="#373737"/>
<path d="M11.4052 33.8683C11.4052 33.9174 11.3962 33.9613 11.3768 34.0014C11.3574 34.0414 11.3316 34.075 11.2993 34.1034C11.267 34.1318 11.2282 34.1538 11.1856 34.1693C11.1416 34.1848 11.0964 34.1926 11.0473 34.1926C10.9982 34.1926 10.953 34.1848 10.9091 34.1693C10.8652 34.1538 10.8277 34.1318 10.7954 34.1021C10.7631 34.0724 10.7373 34.0388 10.7179 34.0001C10.6985 33.9613 10.6895 33.9161 10.6895 33.8683C10.6895 33.8205 10.6985 33.7753 10.7179 33.7365C10.7373 33.6977 10.7631 33.6629 10.7954 33.6344C10.8277 33.606 10.8665 33.5841 10.9091 33.5686C10.953 33.553 10.9982 33.5453 11.0473 33.5453C11.0951 33.5453 11.1416 33.553 11.1856 33.5686C11.2295 33.5841 11.267 33.606 11.2993 33.6344C11.3316 33.6629 11.3574 33.6965 11.3768 33.7365C11.3949 33.7766 11.4052 33.8205 11.4052 33.8683ZM11.2863 33.8709C11.2863 33.836 11.2799 33.8037 11.2683 33.774C11.2553 33.7443 11.2385 33.7197 11.2179 33.699C11.1959 33.6784 11.1714 33.6616 11.1416 33.6512C11.1119 33.6396 11.0809 33.6344 11.0473 33.6344C11.0137 33.6344 10.9814 33.6396 10.953 33.6512C10.9233 33.6629 10.8987 33.6784 10.8768 33.699C10.8548 33.7197 10.838 33.7456 10.8264 33.774C10.8135 33.8037 10.8083 33.836 10.8083 33.8709C10.8083 33.9058 10.8148 33.9381 10.8264 33.9665C10.8393 33.9949 10.8561 34.0194 10.8768 34.0414C10.8987 34.0621 10.9233 34.0789 10.953 34.0905C10.9827 34.1021 11.0137 34.1086 11.0473 34.1086C11.0809 34.1086 11.1132 34.1021 11.1416 34.0905C11.1714 34.0789 11.1959 34.0621 11.2179 34.0414C11.2398 34.0207 11.2566 33.9949 11.2683 33.9665C11.2799 33.9355 11.2863 33.9045 11.2863 33.8709ZM11.5331 34.3812C11.5538 34.3799 11.5732 34.3773 11.5925 34.3722C11.6119 34.367 11.6248 34.3618 11.63 34.3579C11.6455 34.3566 11.6636 34.3566 11.683 34.3579C11.7024 34.3592 11.7179 34.3605 11.7308 34.3631C11.7515 34.367 11.7618 34.3734 11.7618 34.3825C11.7618 34.3915 11.7618 34.4019 11.7605 34.4109C11.7579 34.4303 11.7553 34.4484 11.7515 34.4665C11.7476 34.4846 11.745 34.5026 11.7437 34.5207C11.7411 34.5582 11.7398 34.5944 11.7398 34.6318C11.7398 34.668 11.7385 34.7055 11.7359 34.7429C11.7359 34.7559 11.7347 34.774 11.7321 34.7972C11.7295 34.8205 11.7256 34.8437 11.7204 34.867C11.7153 34.8902 11.7088 34.9109 11.6998 34.9277C11.6907 34.9445 11.6791 34.9535 11.6662 34.9535C11.652 34.9535 11.6416 34.938 11.6352 34.907C11.6287 34.876 11.6261 34.8231 11.6261 34.7494V34.4432C11.6068 34.4432 11.5796 34.4432 11.546 34.4445C11.5111 34.4445 11.475 34.4458 11.4375 34.4484C11.3987 34.4497 11.3626 34.4523 11.3264 34.4535C11.2902 34.4548 11.2618 34.4574 11.2398 34.46C11.1933 34.4639 11.1507 34.4781 11.1119 34.5026C11.0964 34.4988 11.0796 34.4936 11.0628 34.4871C11.046 34.4807 11.0292 34.4729 11.015 34.4652C11.0008 34.4574 10.9866 34.4497 10.9737 34.4419C10.9608 34.4342 10.953 34.429 10.9478 34.4238C10.9401 34.4174 10.9362 34.4096 10.9362 34.4019C10.9362 34.3864 10.9504 34.3812 10.9789 34.3864C11.006 34.3902 11.0318 34.3928 11.0577 34.3941C11.0835 34.3954 11.1093 34.3954 11.1339 34.3954C11.1558 34.3954 11.183 34.3954 11.2166 34.3941C11.2502 34.3928 11.2863 34.3928 11.3251 34.3915C11.3639 34.3902 11.4013 34.389 11.4388 34.3877C11.475 34.3851 11.506 34.3838 11.5331 34.3812ZM11.7553 33.5091V33.8257C11.7644 33.8244 11.7734 33.8244 11.7812 33.8244C11.7889 33.8244 11.7954 33.8244 11.7993 33.8244C11.8238 33.8218 11.8458 33.8166 11.8664 33.8089C11.8871 33.8011 11.9 33.7921 11.9078 33.7817C11.9233 33.7817 11.944 33.783 11.9672 33.7843C11.9918 33.7856 12.0137 33.7882 12.0318 33.7908C12.0641 33.7959 12.0809 33.8127 12.0809 33.8399C12.0809 33.8696 12.0615 33.8838 12.0215 33.8838C11.9814 33.8851 11.9362 33.8864 11.8884 33.8864C11.8406 33.8864 11.7954 33.8877 11.754 33.889V34.0259C11.754 34.044 11.754 34.0685 11.7527 34.0983C11.7527 34.1293 11.7502 34.159 11.745 34.1874C11.7411 34.2171 11.7334 34.2417 11.7243 34.2636C11.7153 34.2856 11.7011 34.2959 11.683 34.2959C11.6571 34.2959 11.6442 34.2481 11.6442 34.1525V33.5427C11.6442 33.522 11.6339 33.504 11.6132 33.4872C11.5925 33.4704 11.5615 33.4536 11.5189 33.4381C11.5099 33.4342 11.5021 33.429 11.4956 33.4251C11.4892 33.4213 11.4866 33.4161 11.4866 33.4109C11.4866 33.4058 11.4905 33.3993 11.4995 33.3928C11.5086 33.3864 11.5202 33.3825 11.537 33.3825C11.5447 33.3825 11.5589 33.3838 11.5809 33.3864C11.6029 33.389 11.6248 33.3915 11.6494 33.3954C11.6739 33.3993 11.6959 33.4032 11.7179 33.4083C11.7398 33.4122 11.7527 33.4174 11.7605 33.42L11.7553 33.5091Z" fill="#373737"/>
<path d="M12.1858 34.0479C12.1858 34.0014 12.1935 33.9587 12.2103 33.9174C12.2271 33.876 12.2504 33.8412 12.2801 33.8114C12.3111 33.7804 12.3473 33.7572 12.3886 33.7391C12.43 33.721 12.4778 33.7133 12.5294 33.7133C12.5747 33.7133 12.616 33.7197 12.6548 33.7339C12.6935 33.7481 12.7271 33.7662 12.7568 33.7908C12.7865 33.8153 12.8098 33.845 12.8292 33.8773C12.8486 33.9096 12.8615 33.9458 12.8679 33.9846C12.8964 33.9859 12.9261 33.9859 12.9571 33.9859C12.9881 33.9859 13.0204 33.9846 13.0527 33.9833V33.6487C13.0527 33.6331 13.0488 33.6189 13.0424 33.6073C13.0346 33.5957 13.0256 33.5853 13.0139 33.5763C13.0023 33.5673 12.9881 33.5608 12.9739 33.5543C12.9584 33.5479 12.9429 33.5427 12.9274 33.5363C12.9067 33.5285 12.8964 33.5195 12.8964 33.5091C12.8964 33.5027 12.9002 33.4962 12.908 33.4884C12.9157 33.482 12.9274 33.4781 12.9429 33.4781C12.9506 33.4781 12.9648 33.4794 12.9868 33.482C13.0088 33.4846 13.0307 33.4884 13.0566 33.491C13.0811 33.4949 13.1044 33.4988 13.1263 33.5027C13.1483 33.5065 13.1612 33.5117 13.169 33.5143L13.1625 33.6034V34.3877C13.1625 34.4019 13.1625 34.4225 13.1625 34.4471C13.1625 34.4716 13.1625 34.4988 13.1612 34.5285C13.1599 34.5582 13.1586 34.5879 13.1548 34.6176C13.1522 34.6473 13.1483 34.6745 13.1418 34.699C13.1367 34.7236 13.1289 34.7429 13.1212 34.7585C13.1134 34.774 13.1031 34.7817 13.0902 34.7817C13.0656 34.7817 13.0527 34.7119 13.0527 34.5724V34.0479C13.0436 34.0492 13.0359 34.0505 13.0281 34.0517C13.0204 34.053 13.0139 34.0543 13.0088 34.0556C12.9958 34.0595 12.9855 34.0621 12.9765 34.0647C12.9674 34.0673 12.9571 34.0737 12.9442 34.0828C12.9325 34.0802 12.9222 34.0776 12.9106 34.0737C12.8989 34.0698 12.8873 34.066 12.8757 34.0621C12.8731 34.1073 12.8641 34.1486 12.846 34.1874C12.8279 34.2262 12.8046 34.2585 12.7736 34.2869C12.7426 34.3153 12.7077 34.3373 12.6664 34.3541C12.625 34.3709 12.5798 34.3786 12.5307 34.3786C12.4791 34.3786 12.4312 34.3696 12.3899 34.3528C12.3486 34.336 12.3111 34.3127 12.2814 34.283C12.2504 34.2533 12.2271 34.2184 12.2116 34.1771C12.1948 34.137 12.1858 34.0944 12.1858 34.0479ZM12.3098 34.0414C12.3098 34.0802 12.315 34.1138 12.3266 34.1448C12.3382 34.1758 12.3537 34.2016 12.3744 34.2236C12.3951 34.2455 12.4183 34.2623 12.4455 34.274C12.4726 34.2856 12.5023 34.2921 12.5333 34.2921C12.5643 34.2921 12.594 34.2856 12.6225 34.274C12.6496 34.2623 12.6741 34.2455 12.6948 34.2236C12.7155 34.2016 12.731 34.1758 12.7426 34.1448C12.7542 34.1138 12.7594 34.0802 12.7594 34.0414C12.7594 34.0039 12.7542 33.9704 12.7426 33.9393C12.731 33.9083 12.7155 33.8825 12.6948 33.8592C12.6741 33.8373 12.6509 33.8205 12.6225 33.8089C12.5953 33.7972 12.5656 33.7908 12.5333 33.7908C12.501 33.7908 12.4726 33.7972 12.4455 33.8089C12.4183 33.8205 12.3951 33.8373 12.3744 33.8592C12.3537 33.8812 12.3382 33.9083 12.3266 33.9393C12.315 33.9704 12.3098 34.0039 12.3098 34.0414ZM13.4454 33.5091V34.4923C13.4454 34.5065 13.4454 34.5272 13.4454 34.5517C13.4454 34.5763 13.4454 34.6034 13.4442 34.6331C13.4429 34.6628 13.4403 34.6926 13.4377 34.7223C13.4338 34.752 13.4299 34.7791 13.4248 34.8037C13.4196 34.8282 13.4131 34.8476 13.4041 34.8631C13.3951 34.8786 13.3847 34.8864 13.3731 34.8864C13.3485 34.8864 13.3356 34.8166 13.3356 34.6771V33.5427C13.3356 33.522 13.3253 33.504 13.3046 33.4872C13.2839 33.4704 13.2529 33.4536 13.2103 33.4381C13.2013 33.4342 13.1935 33.429 13.1871 33.4251C13.1806 33.4213 13.178 33.4161 13.178 33.4109C13.178 33.4058 13.1819 33.3993 13.1909 33.3928C13.2 33.3864 13.2116 33.3825 13.2284 33.3825C13.2361 33.3825 13.2504 33.3838 13.2723 33.3864C13.2943 33.389 13.3162 33.3915 13.3408 33.3954C13.3653 33.3993 13.3873 33.4032 13.4093 33.4083C13.4312 33.4122 13.4442 33.4174 13.4519 33.42L13.4454 33.5091Z" fill="#373737"/>
<path d="M14.6378 33.7688V34.283C14.6378 34.2959 14.6378 34.314 14.6365 34.3373C14.6365 34.3592 14.6339 34.3825 14.6301 34.4045C14.6262 34.4264 14.6197 34.4471 14.6107 34.4626C14.6016 34.4781 14.5887 34.4871 14.5732 34.4871C14.5538 34.4871 14.5422 34.4652 14.5396 34.4212L14.3536 34.4329C14.3484 34.4548 14.342 34.4742 14.3329 34.4897C14.3239 34.5052 14.3109 34.513 14.2954 34.513C14.2722 34.513 14.2606 34.4768 14.2606 34.4045V33.8218C14.2606 33.8024 14.2554 33.7882 14.2438 33.7766C14.2321 33.7662 14.2076 33.7533 14.1688 33.7391C14.1495 33.73 14.1404 33.7223 14.1404 33.7133C14.1404 33.7081 14.1443 33.7016 14.152 33.6952C14.1598 33.6887 14.1714 33.6861 14.1869 33.6861C14.1934 33.6861 14.205 33.6861 14.2218 33.6874C14.2386 33.6887 14.2567 33.69 14.2748 33.6926C14.2929 33.6952 14.311 33.6965 14.329 33.699C14.3471 33.7016 14.3588 33.7042 14.3665 33.7081L14.36 33.7921V33.9548L14.5358 33.9445V33.7972C14.5358 33.7778 14.5293 33.7611 14.5177 33.7468C14.5047 33.7326 14.4802 33.7171 14.4414 33.7029C14.4324 33.6977 14.4246 33.6939 14.4195 33.6913C14.4143 33.6874 14.4104 33.6835 14.4104 33.6784C14.4104 33.6732 14.4143 33.6667 14.4221 33.6616C14.4298 33.6564 14.4414 33.6525 14.4569 33.6525C14.4634 33.6525 14.4763 33.6538 14.4931 33.6551C14.5099 33.6564 14.5293 33.659 14.5487 33.6629C14.5681 33.6667 14.5874 33.6693 14.6042 33.6745C14.6223 33.6784 14.6339 33.6822 14.6404 33.6848L14.6378 33.7688ZM14.3613 34.3334C14.3613 34.3424 14.3613 34.3528 14.36 34.3644L14.537 34.3554V34.0156L14.3613 34.0246V34.3101C14.3613 34.3166 14.3613 34.3244 14.3613 34.3334ZM15.1068 33.6797V34.2572C15.1068 34.2701 15.1068 34.2882 15.1055 34.3114C15.1055 34.3334 15.1029 34.3567 15.099 34.3786C15.0952 34.4006 15.0887 34.4212 15.0797 34.4367C15.0706 34.4523 15.0577 34.4613 15.0422 34.4613C15.0228 34.4613 15.0112 34.4393 15.0086 34.3967L14.8226 34.407C14.8187 34.429 14.8109 34.4471 14.8019 34.4626C14.7929 34.4781 14.7799 34.4858 14.7644 34.4858C14.7412 34.4858 14.7295 34.4497 14.7295 34.3773V33.7339C14.7295 33.7145 14.7244 33.699 14.7153 33.6887C14.7063 33.6771 14.6817 33.6642 14.643 33.6499C14.6236 33.6409 14.6146 33.6331 14.6146 33.6241C14.6146 33.6189 14.6184 33.6125 14.6262 33.606C14.6339 33.5996 14.6456 33.597 14.6611 33.597C14.6675 33.597 14.6792 33.597 14.696 33.5983C14.7128 33.5996 14.7295 33.6008 14.7476 33.6034C14.7657 33.606 14.7825 33.6086 14.8006 33.6112C14.8174 33.6138 14.8303 33.6176 14.8381 33.6202L14.8316 33.7042V33.9109L15.0073 33.9019V33.7094C15.0073 33.69 15.0009 33.6732 14.9866 33.6577C14.9737 33.6422 14.9466 33.628 14.9091 33.6125C14.9001 33.6073 14.8923 33.6034 14.8872 33.6009C14.882 33.597 14.8781 33.5931 14.8781 33.5879C14.8781 33.5828 14.882 33.5763 14.8898 33.5711C14.8975 33.566 14.9091 33.5621 14.9246 33.5621C14.9311 33.5621 14.944 33.5634 14.9621 33.566C14.9802 33.5685 14.9996 33.5711 15.0189 33.575C15.0383 33.5789 15.0577 33.5815 15.0758 33.5853C15.0939 33.5892 15.1068 33.5931 15.1133 33.597L15.1068 33.6797ZM14.8316 34.3063C14.8316 34.3153 14.8316 34.3269 14.8303 34.3386L15.0073 34.3321V33.9716L14.8316 33.9807V34.2817C14.8316 34.2882 14.8316 34.2959 14.8316 34.3063ZM15.3626 33.5091V34.0117C15.3691 34.0117 15.3755 34.0117 15.3807 34.0104C15.3859 34.0104 15.391 34.0091 15.3936 34.0091C15.4182 34.0065 15.4401 34.0014 15.4582 33.9936C15.4763 33.9859 15.4892 33.9768 15.497 33.9665C15.5125 33.9665 15.5332 33.9678 15.5564 33.9691C15.5797 33.9704 15.6029 33.9729 15.621 33.9755C15.6533 33.9807 15.6701 33.9975 15.6701 34.0246C15.6701 34.0543 15.6507 34.0685 15.6107 34.0685C15.5719 34.0698 15.5306 34.0711 15.4866 34.0711C15.4427 34.0711 15.4001 34.0724 15.36 34.0737V34.4923C15.36 34.5065 15.36 34.5272 15.36 34.5517C15.36 34.5763 15.36 34.6034 15.3587 34.6331C15.3574 34.6628 15.3549 34.6926 15.3523 34.7223C15.3484 34.752 15.3445 34.7791 15.3394 34.8037C15.3342 34.8282 15.3277 34.8476 15.3187 34.8631C15.3096 34.8786 15.2993 34.8864 15.2877 34.8864C15.2631 34.8864 15.2502 34.8166 15.2502 34.6771V33.5427C15.2502 33.522 15.2399 33.504 15.2192 33.4872C15.1985 33.4704 15.1675 33.4536 15.1249 33.4381C15.1158 33.4342 15.1081 33.429 15.1016 33.4251C15.0952 33.4213 15.0926 33.4161 15.0926 33.4109C15.0926 33.4058 15.0965 33.3993 15.1055 33.3928C15.1146 33.3864 15.1262 33.3825 15.143 33.3825C15.1507 33.3825 15.1649 33.3838 15.1869 33.3864C15.2089 33.389 15.2308 33.3915 15.2554 33.3954C15.2799 33.3993 15.3019 33.4032 15.3239 33.4083C15.3458 33.4122 15.3587 33.4174 15.3665 33.42L15.3626 33.5091Z" fill="#373737"/>
<path d="M16.3679 33.6215C16.3859 33.6202 16.4014 33.6164 16.4157 33.6112C16.4286 33.606 16.4389 33.6008 16.4441 33.5983C16.4544 33.5983 16.4673 33.5983 16.4816 33.5996C16.4971 33.6008 16.5126 33.6021 16.5281 33.6047C16.541 33.6073 16.55 33.6112 16.5552 33.6164C16.5591 33.6215 16.5617 33.6293 16.5617 33.6383C16.5617 33.6435 16.5591 33.6512 16.5552 33.659C16.55 33.6667 16.5449 33.6758 16.5384 33.6861C16.5332 33.6926 16.5268 33.7029 16.5216 33.7145C16.4983 33.7623 16.4712 33.8114 16.4415 33.8618C16.4118 33.9122 16.3769 33.9639 16.3356 34.0169C16.3511 34.0337 16.3692 34.0505 16.3898 34.0685C16.4105 34.0866 16.4337 34.106 16.4622 34.128C16.4725 34.137 16.4828 34.1435 16.4932 34.1486C16.5035 34.1525 16.5139 34.1564 16.5229 34.159C16.5319 34.1616 16.541 34.1654 16.5487 34.1732C16.5565 34.1809 16.5655 34.1913 16.5759 34.2042C16.5914 34.2262 16.6056 34.2481 16.6172 34.2701C16.6288 34.2921 16.6379 34.3088 16.6456 34.3205C16.6495 34.3282 16.6547 34.3386 16.6611 34.3528C16.6663 34.3657 16.6702 34.3786 16.6702 34.3877C16.6702 34.4096 16.6586 34.42 16.6353 34.42C16.6263 34.42 16.6159 34.4148 16.6043 34.4032C16.5927 34.3915 16.5772 34.3773 16.5578 34.3579L16.2903 34.0737C16.2361 34.1383 16.1715 34.2016 16.0978 34.2649C16.0229 34.3282 15.935 34.3928 15.8304 34.4574C15.8239 34.4613 15.8162 34.4639 15.8097 34.4613C15.802 34.46 15.7968 34.4561 15.7916 34.451C15.7865 34.4458 15.7839 34.4406 15.7839 34.4329C15.7839 34.4264 15.7878 34.42 15.7955 34.4122C15.9221 34.3127 16.0371 34.2029 16.1405 34.0828C16.2438 33.9626 16.3265 33.8282 16.3885 33.6822C16.3692 33.6822 16.3485 33.6822 16.3265 33.6835C16.3046 33.6835 16.2813 33.6848 16.2568 33.6861C16.2322 33.6874 16.2089 33.6887 16.1857 33.69C16.1624 33.6913 16.1405 33.6939 16.1211 33.6965C16.0991 33.699 16.0772 33.7029 16.0578 33.7081C16.0384 33.7132 16.019 33.7223 16.0009 33.7339C15.988 33.73 15.9725 33.7262 15.957 33.7197C15.9415 33.7132 15.926 33.7068 15.9118 33.7003C15.8976 33.6939 15.8847 33.6874 15.873 33.6797C15.8614 33.6732 15.8537 33.6667 15.8498 33.6629C15.8433 33.6564 15.8394 33.6487 15.8394 33.6409C15.8394 33.6254 15.8524 33.6202 15.8782 33.6254C15.904 33.6306 15.9286 33.6319 15.9531 33.6331C15.9777 33.6344 15.9996 33.6344 16.0229 33.6344C16.0436 33.6344 16.0668 33.6344 16.0953 33.6331C16.1237 33.6331 16.1534 33.6319 16.1844 33.6293C16.2154 33.6267 16.2477 33.6267 16.2813 33.6254C16.3149 33.6241 16.3407 33.6241 16.3679 33.6215ZM16.9815 33.5091V34.4923C16.9815 34.5065 16.9815 34.5272 16.9815 34.5517C16.9815 34.5763 16.9815 34.6034 16.9802 34.6331C16.979 34.6628 16.9764 34.6926 16.9738 34.7223C16.9699 34.752 16.966 34.7791 16.9609 34.8037C16.9557 34.8282 16.9492 34.8476 16.9402 34.8631C16.9312 34.8786 16.9208 34.8864 16.9092 34.8864C16.8846 34.8864 16.8717 34.8166 16.8717 34.6771V33.5427C16.8717 33.522 16.8614 33.504 16.8407 33.4872C16.82 33.4704 16.789 33.4536 16.7464 33.4381C16.7374 33.4342 16.7296 33.429 16.7231 33.4251C16.7167 33.4213 16.7141 33.4161 16.7141 33.4109C16.7141 33.4058 16.718 33.3993 16.727 33.3928C16.7361 33.3864 16.7477 33.3825 16.7645 33.3825C16.7722 33.3825 16.7865 33.3838 16.8084 33.3864C16.8304 33.389 16.8523 33.3915 16.8769 33.3954C16.9014 33.3993 16.9234 33.4032 16.9454 33.4083C16.9673 33.4122 16.9803 33.4174 16.988 33.42L16.9815 33.5091Z" fill="#373737"/>
<path d="M17.457 33.7882C17.457 33.7611 17.4143 33.7365 17.3291 33.7158C17.3071 33.7107 17.2955 33.7016 17.2955 33.69C17.2955 33.6809 17.2994 33.6732 17.3071 33.6642C17.3149 33.6564 17.3265 33.6512 17.342 33.6512C17.3627 33.6499 17.3833 33.6499 17.4066 33.6512C17.4285 33.6525 17.4505 33.6538 17.4712 33.6564C17.4919 33.659 17.5099 33.6616 17.5267 33.6654C17.5435 33.6693 17.5565 33.6719 17.5655 33.6758C17.5849 33.6745 17.6055 33.6732 17.6288 33.6732C17.6521 33.6732 17.6753 33.6719 17.6999 33.6706C17.7244 33.6693 17.7477 33.668 17.7696 33.668C17.7916 33.668 17.8136 33.6667 17.8316 33.6654C17.8549 33.6642 17.8769 33.6603 17.8962 33.6551C17.9156 33.6487 17.9311 33.6396 17.944 33.6267C17.966 33.6267 17.9906 33.628 18.0151 33.6293C18.0396 33.6306 18.0629 33.6344 18.0862 33.6383C18.1198 33.6435 18.1365 33.6603 18.1365 33.6861C18.1365 33.7158 18.1159 33.73 18.0758 33.73C17.9983 33.7313 17.9143 33.7326 17.8239 33.7339C17.7335 33.7352 17.6495 33.7365 17.572 33.7391V34.3218C17.572 34.3347 17.5771 34.345 17.5862 34.3528C17.5952 34.3592 17.6172 34.3618 17.6508 34.3592C17.6921 34.3579 17.7412 34.3541 17.7968 34.3476C17.8523 34.3411 17.9104 34.3321 17.9712 34.3231C18.0319 34.314 18.0939 34.3024 18.1572 34.2895C18.2205 34.2765 18.2812 34.2636 18.3381 34.2494V33.5427C18.3381 33.522 18.3278 33.504 18.3071 33.4872C18.2864 33.4704 18.2554 33.4536 18.2128 33.4381C18.2037 33.4342 18.196 33.429 18.1895 33.4251C18.1831 33.4213 18.1805 33.4161 18.1805 33.4109C18.1805 33.4058 18.1843 33.3993 18.1934 33.3928C18.2024 33.3864 18.2141 33.3825 18.2309 33.3825C18.2386 33.3825 18.2528 33.3838 18.2748 33.3864C18.2967 33.389 18.3187 33.3915 18.3433 33.3954C18.3678 33.3993 18.3898 33.4032 18.4117 33.4083C18.4337 33.4122 18.4466 33.4174 18.4544 33.42L18.4479 33.5117V34.0052C18.4569 34.0039 18.466 34.0039 18.4737 34.0039C18.4815 34.0039 18.488 34.0039 18.4918 34.0039C18.5164 34.0014 18.5383 33.9962 18.559 33.9884C18.5797 33.9807 18.5926 33.9716 18.6004 33.9613C18.6159 33.9613 18.6365 33.9626 18.6598 33.9639C18.683 33.9652 18.7063 33.9678 18.7244 33.9704C18.7567 33.9755 18.7735 33.9923 18.7735 34.0194C18.7735 34.0492 18.7541 34.0634 18.7141 34.0634C18.674 34.0647 18.6288 34.066 18.581 34.066C18.5332 34.066 18.488 34.0673 18.4466 34.0685V34.4962C18.4466 34.5104 18.4466 34.5311 18.4466 34.5556C18.4466 34.5802 18.4466 34.6073 18.4453 34.637C18.444 34.6667 18.4415 34.6964 18.4389 34.7262C18.435 34.7559 18.4311 34.783 18.4259 34.8075C18.4208 34.8321 18.4143 34.8515 18.4053 34.867C18.3962 34.8825 18.3859 34.8902 18.3743 34.8902C18.3497 34.8902 18.3368 34.8205 18.3368 34.6809V34.3179C18.2877 34.3321 18.2309 34.3489 18.1675 34.3657C18.1042 34.3825 18.0384 34.398 17.9712 34.4135C17.904 34.429 17.8368 34.4419 17.7709 34.4535C17.705 34.4652 17.6456 34.4716 17.5926 34.4755C17.5384 34.4794 17.5022 34.4665 17.4841 34.4367C17.466 34.407 17.4557 34.3696 17.4557 34.3218V33.7882H17.457Z" fill="#373737"/>
<path d="M19.0511 34.6952C19.0511 34.7249 19.0472 34.7533 19.0381 34.7805C19.0291 34.8076 19.0175 34.8334 19.0033 34.858C18.989 34.8812 18.971 34.9032 18.9516 34.9226C18.9322 34.942 18.9115 34.9575 18.8921 34.9704C18.8753 34.9807 18.8637 34.9807 18.8573 34.9704C18.8495 34.9601 18.8521 34.9497 18.8663 34.9394C18.8779 34.9303 18.8896 34.9187 18.9012 34.9058C18.9128 34.8929 18.9244 34.8787 18.9348 34.8619C18.9451 34.8451 18.9542 34.8283 18.9606 34.8089C18.9684 34.7908 18.9722 34.7714 18.9735 34.7508C18.9348 34.7546 18.9064 34.7495 18.887 34.7327C18.8676 34.7159 18.8573 34.6926 18.8573 34.6616C18.8573 34.6332 18.8663 34.6112 18.8857 34.5944C18.9051 34.5776 18.927 34.5699 18.9529 34.5699C18.9865 34.5699 19.0123 34.5815 19.0304 34.6048C19.0485 34.628 19.0511 34.659 19.0511 34.6952Z" fill="#373737"/>
<path d="M20.8778 34.1461C20.8855 34.1461 20.8958 34.1448 20.9088 34.1435C20.9217 34.1422 20.9333 34.1396 20.9462 34.137C20.9591 34.1344 20.9708 34.1306 20.9811 34.1267C20.9927 34.1228 21.0018 34.1176 21.0082 34.1125C21.0276 34.1112 21.0509 34.1125 21.078 34.1151C21.1051 34.1176 21.1271 34.1215 21.1426 34.1241C21.1607 34.128 21.1762 34.1331 21.1904 34.1422C21.2046 34.1512 21.2098 34.1642 21.2085 34.1835C21.2059 34.2029 21.1956 34.2158 21.1762 34.2236C21.1568 34.2313 21.1336 34.2339 21.1051 34.2313C21.0909 34.23 21.0728 34.2288 21.0509 34.2275C21.0289 34.2262 21.0069 34.2262 20.9837 34.2249C20.9604 34.2249 20.9372 34.2236 20.9139 34.2236C20.8907 34.2236 20.8713 34.2223 20.8545 34.2223C20.8183 34.2223 20.777 34.2223 20.7305 34.2223C20.684 34.2223 20.6349 34.2223 20.5832 34.2236C20.5315 34.2236 20.4798 34.2249 20.4281 34.2262C20.3765 34.2275 20.3274 34.2288 20.2809 34.23C20.2343 34.2313 20.193 34.2326 20.1568 34.2339C20.1207 34.2352 20.0922 34.2378 20.0729 34.2404C20.0444 34.243 20.0173 34.2481 19.9915 34.2559C19.9656 34.2636 19.9475 34.2714 19.9359 34.2766C19.923 34.2727 19.9088 34.2675 19.8933 34.2611C19.8778 34.2546 19.8623 34.2468 19.8455 34.2391C19.8287 34.2313 19.8145 34.2236 19.8015 34.2145C19.7886 34.2055 19.7783 34.199 19.7731 34.1913C19.7602 34.1771 19.7576 34.1642 19.7654 34.1564C19.7731 34.1487 19.7847 34.1435 19.7964 34.1461C19.8028 34.1474 19.8132 34.1487 19.8274 34.1499C19.8403 34.1512 19.8558 34.1525 19.87 34.1538C19.8855 34.1551 19.8997 34.1564 19.9139 34.1577C19.9282 34.159 19.9385 34.159 19.9449 34.159C20.109 34.1616 20.2666 34.1616 20.4178 34.1603C20.5703 34.1603 20.724 34.1551 20.8778 34.1461ZM20.1194 34.5014C20.1103 34.4871 20.0987 34.4755 20.0832 34.4678C20.0677 34.46 20.0522 34.4536 20.0354 34.4471C20.0134 34.4406 20.0005 34.429 20.0005 34.4135C19.9992 34.398 20.0121 34.3902 20.038 34.389C20.0612 34.3877 20.0922 34.389 20.131 34.3928C20.1698 34.3967 20.2085 34.3993 20.2499 34.4032C20.3209 34.4058 20.3933 34.4045 20.4656 34.4019C20.5393 34.398 20.6038 34.3954 20.662 34.3928C20.6943 34.3902 20.7292 34.389 20.7653 34.3864C20.8015 34.3851 20.8274 34.3838 20.8429 34.3825C20.861 34.3812 20.8726 34.3838 20.879 34.3902C20.8855 34.3967 20.8881 34.4032 20.8868 34.4109C20.8855 34.4187 20.8842 34.429 20.8803 34.4432C20.8777 34.4561 20.8752 34.4703 20.8726 34.482C20.8674 34.522 20.8597 34.5672 20.8493 34.6176C20.8403 34.6693 20.8299 34.721 20.8196 34.7727C20.861 34.7714 20.8816 34.7856 20.8803 34.8166C20.879 34.8269 20.8739 34.836 20.8661 34.8424C20.8571 34.8502 20.8429 34.8528 20.8209 34.8528C20.7266 34.8528 20.6323 34.8541 20.5392 34.8566C20.4462 34.8592 20.3506 34.8618 20.2537 34.867C20.2524 34.8773 20.2473 34.8877 20.2369 34.898C20.2266 34.9083 20.215 34.9148 20.2033 34.9161C20.1917 34.9174 20.1814 34.9122 20.1723 34.9006C20.1646 34.8889 20.1594 34.8747 20.1568 34.8566L20.1194 34.5014ZM20.109 33.7301C20.109 33.6887 20.1181 33.6512 20.1362 33.6164C20.1542 33.5815 20.1801 33.5531 20.2137 33.5285C20.2473 33.504 20.286 33.4846 20.3312 33.4717C20.3765 33.4587 20.4256 33.451 20.4798 33.451C20.5341 33.451 20.5832 33.4574 20.6297 33.4717C20.6749 33.4846 20.715 33.504 20.7486 33.5285C20.7821 33.5531 20.808 33.5828 20.8261 33.6164C20.8442 33.65 20.8545 33.6874 20.8545 33.7301C20.8545 33.7701 20.8455 33.8076 20.8261 33.8425C20.808 33.8773 20.7821 33.9058 20.7486 33.9303C20.715 33.9549 20.6762 33.9729 20.6297 33.9872C20.5845 34.0001 20.5341 34.0078 20.4798 34.0078C20.4256 34.0078 20.3765 34.0014 20.3312 33.9872C20.286 33.9742 20.2473 33.9549 20.2137 33.9303C20.1801 33.9058 20.1542 33.8773 20.1362 33.8425C20.1181 33.8076 20.109 33.7701 20.109 33.7301ZM20.2266 33.7313C20.2266 33.7624 20.2331 33.7908 20.246 33.8166C20.2589 33.8425 20.277 33.8631 20.2989 33.8812C20.3209 33.8993 20.348 33.9122 20.379 33.9213C20.4101 33.9303 20.4437 33.9342 20.4811 33.9342C20.5186 33.9342 20.5522 33.9303 20.5832 33.9213C20.6142 33.9122 20.6413 33.8993 20.6646 33.8812C20.6878 33.8631 20.7059 33.8425 20.7188 33.8166C20.7318 33.7908 20.7382 33.7624 20.7382 33.7313C20.7382 33.7003 20.7318 33.6719 20.7188 33.6461C20.7059 33.6202 20.6878 33.5996 20.6646 33.5815C20.6413 33.5634 20.6142 33.5505 20.5832 33.5414C20.5522 33.5324 20.5186 33.5285 20.4811 33.5285C20.4437 33.5285 20.4101 33.5337 20.379 33.5414C20.348 33.5505 20.3209 33.5634 20.2989 33.5815C20.277 33.5996 20.2589 33.6215 20.246 33.6461C20.2331 33.6706 20.2266 33.7003 20.2266 33.7313ZM20.2473 34.4742C20.246 34.4871 20.246 34.4949 20.246 34.5001C20.246 34.5052 20.246 34.5091 20.246 34.513L20.255 34.7985C20.2796 34.7985 20.3119 34.7985 20.3519 34.7972C20.392 34.7972 20.4346 34.7959 20.4785 34.7933C20.5225 34.792 20.5677 34.7895 20.6129 34.7869C20.6581 34.7843 20.6982 34.7817 20.7343 34.7765L20.7434 34.4626C20.7072 34.4613 20.6672 34.4613 20.6219 34.4613C20.578 34.4613 20.5328 34.4626 20.4876 34.4626C20.4424 34.4626 20.3984 34.4639 20.3571 34.4665C20.3157 34.4691 20.2783 34.4716 20.2473 34.4742Z" fill="#373737"/>
<path d="M22.112 33.8683C22.112 33.9174 22.1029 33.9613 22.0835 34.0014C22.0642 34.0414 22.0383 34.075 22.006 34.1034C21.9737 34.1318 21.935 34.1538 21.8923 34.1693C21.8484 34.1848 21.8032 34.1926 21.7541 34.1926C21.705 34.1926 21.6598 34.1848 21.6158 34.1693C21.5719 34.1538 21.5345 34.1318 21.5022 34.1021C21.4699 34.0724 21.444 34.0388 21.4246 34.0001C21.4053 33.9613 21.3962 33.9161 21.3962 33.8683C21.3962 33.8205 21.4053 33.7753 21.4246 33.7365C21.444 33.6977 21.4699 33.6629 21.5022 33.6344C21.5345 33.606 21.5732 33.5841 21.6158 33.5686C21.6598 33.553 21.705 33.5453 21.7541 33.5453C21.8019 33.5453 21.8484 33.553 21.8923 33.5686C21.9363 33.5841 21.9737 33.606 22.006 33.6344C22.0383 33.6629 22.0642 33.6965 22.0835 33.7365C22.1029 33.7766 22.112 33.8205 22.112 33.8683ZM21.9944 33.8709C21.9944 33.836 21.9879 33.8037 21.9763 33.774C21.9634 33.7443 21.9466 33.7197 21.9259 33.699C21.904 33.6784 21.8794 33.6616 21.8497 33.6512C21.82 33.6396 21.789 33.6344 21.7554 33.6344C21.7218 33.6344 21.6895 33.6396 21.6611 33.6512C21.6314 33.6629 21.6068 33.6784 21.5848 33.699C21.5629 33.7197 21.5461 33.7456 21.5345 33.774C21.5215 33.8037 21.5164 33.836 21.5164 33.8709C21.5164 33.9058 21.5228 33.9381 21.5345 33.9665C21.5474 33.9949 21.5642 34.0194 21.5848 34.0414C21.6068 34.0621 21.6314 34.0789 21.6611 34.0905C21.6908 34.1021 21.7218 34.1086 21.7554 34.1086C21.789 34.1086 21.8213 34.1021 21.8497 34.0905C21.8794 34.0789 21.904 34.0621 21.9259 34.0414C21.9479 34.0207 21.9647 33.9949 21.9763 33.9665C21.9879 33.9355 21.9944 33.9045 21.9944 33.8709ZM22.2412 34.3812C22.2618 34.3799 22.2812 34.3773 22.3006 34.3722C22.32 34.367 22.3329 34.3618 22.3381 34.3579C22.3536 34.3566 22.3716 34.3566 22.391 34.3579C22.4104 34.3592 22.4259 34.3605 22.4388 34.3631C22.4595 34.367 22.4698 34.3734 22.4698 34.3825C22.4698 34.3915 22.4698 34.4019 22.4685 34.4109C22.466 34.4303 22.4634 34.4484 22.4595 34.4665C22.4556 34.4846 22.453 34.5026 22.4518 34.5207C22.4492 34.5582 22.4479 34.5944 22.4479 34.6318C22.4479 34.668 22.4466 34.7055 22.444 34.7429C22.444 34.7559 22.4427 34.774 22.4401 34.7972C22.4375 34.8205 22.4337 34.8437 22.4285 34.867C22.4233 34.8902 22.4169 34.9109 22.4078 34.9277C22.3988 34.9445 22.3872 34.9535 22.3742 34.9535C22.36 34.9535 22.3497 34.938 22.3432 34.907C22.3368 34.876 22.3342 34.8231 22.3342 34.7494V34.4432C22.3148 34.4432 22.2877 34.4432 22.2541 34.4445C22.2192 34.4445 22.183 34.4458 22.1456 34.4484C22.1068 34.4497 22.0706 34.4523 22.0344 34.4535C21.9983 34.4548 21.9698 34.4574 21.9479 34.46C21.9014 34.4639 21.8587 34.4781 21.82 34.5026C21.8045 34.4988 21.7877 34.4936 21.7709 34.4871C21.7541 34.4807 21.7373 34.4729 21.7231 34.4652C21.7089 34.4574 21.6947 34.4497 21.6817 34.4419C21.6688 34.4342 21.6611 34.429 21.6559 34.4238C21.6481 34.4174 21.6443 34.4096 21.6443 34.4019C21.6443 34.3864 21.6585 34.3812 21.6869 34.3864C21.714 34.3902 21.7399 34.3928 21.7657 34.3941C21.7916 34.3954 21.8174 34.3954 21.8419 34.3954C21.8639 34.3954 21.891 34.3954 21.9246 34.3941C21.9582 34.3928 21.9944 34.3928 22.0331 34.3915C22.0719 34.3902 22.1094 34.389 22.1468 34.3877C22.1817 34.3851 22.214 34.3838 22.2412 34.3812ZM22.4621 33.5091V33.8257C22.4711 33.8244 22.4802 33.8244 22.4879 33.8244C22.4957 33.8244 22.5021 33.8244 22.506 33.8244C22.5306 33.8218 22.5525 33.8166 22.5732 33.8089C22.5939 33.8011 22.6068 33.7921 22.6145 33.7817C22.63 33.7817 22.6507 33.783 22.674 33.7843C22.6985 33.7856 22.7205 33.7882 22.7386 33.7908C22.7709 33.7959 22.7877 33.8127 22.7877 33.8399C22.7877 33.8696 22.7683 33.8838 22.7282 33.8838C22.6882 33.8851 22.643 33.8864 22.5952 33.8864C22.5474 33.8864 22.5021 33.8877 22.4608 33.889V34.0259C22.4608 34.044 22.4608 34.0685 22.4595 34.0983C22.4595 34.1293 22.4569 34.159 22.4518 34.1874C22.4479 34.2171 22.4401 34.2417 22.4311 34.2636C22.422 34.2856 22.4078 34.2959 22.3897 34.2959C22.3639 34.2959 22.351 34.2481 22.351 34.1525V33.5427C22.351 33.522 22.3406 33.504 22.32 33.4872C22.2993 33.4704 22.2683 33.4536 22.2257 33.4381C22.2166 33.4342 22.2089 33.429 22.2024 33.4251C22.1959 33.4213 22.1934 33.4161 22.1934 33.4109C22.1934 33.4058 22.1972 33.3993 22.2063 33.3928C22.2153 33.3864 22.2269 33.3825 22.2437 33.3825C22.2515 33.3825 22.2657 33.3838 22.2877 33.3864C22.3096 33.389 22.3316 33.3915 22.3561 33.3954C22.3807 33.3993 22.4027 33.4032 22.4246 33.4083C22.4466 33.4122 22.4595 33.4174 22.4673 33.42L22.4621 33.5091Z" fill="#373737"/>
<path d="M24.095 33.8398C24.095 33.8889 24.086 33.9315 24.0666 33.9703C24.0472 34.009 24.0214 34.0426 23.9891 34.0698C23.9568 34.0969 23.918 34.1189 23.8754 34.1331C23.8315 34.1473 23.7863 34.155 23.7372 34.155C23.6881 34.155 23.6429 34.1473 23.5989 34.1331C23.555 34.1189 23.5175 34.0969 23.4852 34.0698C23.4529 34.0426 23.4271 34.009 23.4077 33.9703C23.3883 33.9315 23.3793 33.8876 23.3793 33.8398C23.3793 33.7907 23.3883 33.7481 23.4077 33.7093C23.4271 33.6705 23.4529 33.637 23.4852 33.6098C23.5175 33.5827 23.5563 33.562 23.5989 33.5478C23.6416 33.5336 23.6881 33.5258 23.7372 33.5258C23.7863 33.5258 23.8315 33.5336 23.8754 33.5478C23.9193 33.562 23.9568 33.5827 23.9891 33.6098C24.0214 33.637 24.0472 33.6693 24.0666 33.7093C24.086 33.7481 24.095 33.792 24.095 33.8398ZM23.9762 33.8411C23.9762 33.8062 23.9697 33.7752 23.9581 33.7468C23.9452 33.7183 23.9284 33.6951 23.9077 33.6744C23.8857 33.655 23.8612 33.6395 23.8315 33.6292C23.8018 33.6189 23.7707 33.6137 23.7372 33.6137C23.7036 33.6137 23.6713 33.6189 23.6428 33.6292C23.6131 33.6395 23.5886 33.655 23.5666 33.6744C23.5447 33.6938 23.5279 33.7171 23.5162 33.7468C23.5033 33.7752 23.4981 33.8075 23.4981 33.8424C23.4981 33.8773 23.5046 33.9083 23.5162 33.9367C23.5292 33.9651 23.546 33.9884 23.5666 34.009C23.5886 34.0284 23.6131 34.0439 23.6428 34.0543C23.6726 34.0646 23.7036 34.0698 23.7372 34.0698C23.7707 34.0698 23.8031 34.0646 23.8315 34.0543C23.8612 34.0439 23.8857 34.0284 23.9077 34.0078C23.9297 33.9871 23.9465 33.9638 23.9581 33.9354C23.971 33.907 23.9762 33.876 23.9762 33.8411ZM23.7927 34.8953C23.7669 34.8927 23.7372 34.885 23.7049 34.8695C23.6726 34.854 23.6454 34.8385 23.6235 34.8217C23.617 34.8165 23.6118 34.8088 23.608 34.801C23.6041 34.7933 23.6028 34.7868 23.6028 34.7803C23.6028 34.7635 23.6183 34.7571 23.648 34.7623C23.6764 34.7674 23.7062 34.7726 23.7372 34.7752C23.7682 34.7778 23.8018 34.7791 23.8366 34.7791C23.8676 34.7791 23.9012 34.7791 23.9361 34.7778C23.971 34.7778 24.0059 34.7765 24.0395 34.7739C24.0744 34.7726 24.1067 34.77 24.139 34.7687C24.17 34.7674 24.1997 34.7648 24.2268 34.7623C24.2397 34.7196 24.2488 34.6783 24.2552 34.6369C24.2617 34.5956 24.2682 34.5581 24.272 34.522C24.2695 34.5116 24.2591 34.5013 24.241 34.4909C24.2229 34.4806 24.2061 34.4716 24.1881 34.4651C24.1648 34.4548 24.1558 34.4444 24.1609 34.4328C24.1661 34.4212 24.1803 34.416 24.2036 34.4173C24.2191 34.4173 24.2384 34.4199 24.2591 34.4238C24.2811 34.4276 24.3018 34.4328 24.3211 34.4393C24.3418 34.4444 24.3599 34.4509 24.3767 34.4574C24.3935 34.4638 24.4051 34.469 24.4116 34.4729C24.3961 34.5181 24.3793 34.5659 24.3625 34.615C24.3457 34.6641 24.3263 34.7119 24.303 34.7558C24.3457 34.7493 24.3806 34.7377 24.4064 34.7222C24.4258 34.7235 24.4477 34.7261 24.4736 34.73C24.4994 34.7338 24.5214 34.7377 24.5408 34.7403C24.5782 34.7493 24.5963 34.7674 24.5963 34.7933C24.5963 34.8281 24.5782 34.8462 24.5408 34.8462C24.5317 34.8462 24.5149 34.8449 24.4891 34.8424C24.4632 34.8398 24.4387 34.8385 24.4154 34.8359C24.3961 34.8333 24.3715 34.832 24.3405 34.832C24.3095 34.832 24.2785 34.832 24.2436 34.832C24.1945 34.832 24.1377 34.8346 24.0757 34.8385C24.0136 34.8424 23.9555 34.8475 23.9025 34.854C23.8832 34.8566 23.8638 34.8604 23.8457 34.8669C23.8289 34.8734 23.8108 34.8824 23.7927 34.8953ZM23.8147 34.4276C23.7901 34.4238 23.763 34.416 23.7346 34.4031C23.7062 34.3902 23.6803 34.376 23.6596 34.3605C23.6416 34.3462 23.6325 34.3333 23.6325 34.3217C23.6325 34.3075 23.6467 34.301 23.6764 34.3049C23.6984 34.3088 23.7268 34.3101 23.7591 34.3114C23.7914 34.3127 23.825 34.3127 23.8586 34.3127C23.9284 34.3127 23.9968 34.3114 24.0627 34.3088C24.1286 34.3062 24.1881 34.3023 24.2384 34.2984C24.2733 34.2946 24.3018 34.2907 24.3224 34.2868C24.3444 34.2829 24.3625 34.2739 24.3793 34.261C24.3974 34.2623 24.418 34.2649 24.4426 34.2687C24.4671 34.2726 24.4891 34.2765 24.5072 34.2816C24.5433 34.2907 24.5614 34.3075 24.5614 34.3307C24.5614 34.3656 24.5433 34.3837 24.5072 34.3837C24.4981 34.3837 24.4813 34.3824 24.4568 34.3798C24.4322 34.3773 24.409 34.376 24.387 34.3734C24.3689 34.3708 24.3457 34.3695 24.316 34.3695C24.2862 34.3695 24.2552 34.3695 24.2229 34.3695C24.1751 34.3695 24.126 34.3721 24.0744 34.376C24.0227 34.3798 23.9723 34.385 23.9219 34.3902C23.9025 34.3928 23.8844 34.3966 23.8651 34.4018C23.8496 34.407 23.8315 34.416 23.8147 34.4276ZM23.9413 34.7429C23.931 34.7506 23.9206 34.7532 23.9103 34.7506C23.8999 34.748 23.8935 34.7403 23.8909 34.73C23.8857 34.6886 23.8793 34.6486 23.8715 34.6098C23.8638 34.571 23.8534 34.5349 23.8392 34.4987C23.8328 34.4819 23.8354 34.4716 23.8483 34.4677C23.8612 34.4638 23.8728 34.4677 23.8857 34.4793C23.8948 34.4871 23.9051 34.4974 23.9167 34.509C23.9284 34.5207 23.94 34.5336 23.9516 34.5478C23.9633 34.562 23.9736 34.5762 23.9839 34.593C23.9943 34.6085 24.002 34.624 24.0098 34.6382C24.0046 34.6576 23.9943 34.6783 23.98 34.7002C23.9633 34.7209 23.9516 34.7364 23.9413 34.7429ZM24.4904 33.509V33.8359C24.4994 33.8346 24.5085 33.8346 24.5162 33.8346C24.524 33.8346 24.5304 33.8346 24.5343 33.8346C24.5589 33.832 24.5808 33.8269 24.6015 33.8191C24.6222 33.8114 24.6351 33.8023 24.6428 33.792C24.6583 33.792 24.679 33.7933 24.7023 33.7946C24.7268 33.7959 24.7488 33.7985 24.7669 33.801C24.7992 33.8062 24.816 33.823 24.816 33.8501C24.816 33.8798 24.7966 33.8941 24.7565 33.8941C24.7165 33.8953 24.6713 33.8966 24.6235 33.8966C24.5757 33.8966 24.5304 33.8979 24.4891 33.8992V33.9535C24.4891 33.9716 24.4891 33.9948 24.4878 34.0245C24.4878 34.0543 24.4852 34.0827 24.48 34.1098C24.4762 34.1369 24.4684 34.1615 24.4594 34.1822C24.4503 34.2028 24.4361 34.2132 24.418 34.2132C24.3922 34.2132 24.3793 34.1654 24.3793 34.0698V33.5439C24.3793 33.5233 24.3689 33.5052 24.3483 33.4884C24.3276 33.4716 24.2966 33.4548 24.2539 33.4393C24.2449 33.4354 24.2372 33.4302 24.2307 33.4264C24.2242 33.4225 24.2216 33.4173 24.2216 33.4122C24.2216 33.407 24.2255 33.4005 24.2346 33.3941C24.2436 33.3876 24.2552 33.3837 24.272 33.3837C24.2798 33.3837 24.294 33.385 24.316 33.3876C24.3379 33.3902 24.3599 33.3928 24.3844 33.3966C24.409 33.4005 24.4309 33.4044 24.4529 33.4096C24.4749 33.4134 24.4878 33.4186 24.4956 33.4212L24.4904 33.509Z" fill="#373737"/>
<path d="M24.9222 34.0479C24.9222 34.0014 24.9299 33.9587 24.9467 33.9174C24.9635 33.8773 24.9868 33.8412 25.0165 33.8114C25.0475 33.7804 25.0837 33.7572 25.125 33.7391C25.1664 33.721 25.2142 33.7133 25.2658 33.7133C25.3111 33.7133 25.3524 33.7197 25.3912 33.7339C25.4299 33.7468 25.4635 33.7662 25.4919 33.7908C25.5216 33.8153 25.5462 33.845 25.5643 33.8773C25.5837 33.9109 25.5966 33.9458 25.603 33.9846C25.6315 33.9859 25.6612 33.9859 25.6922 33.9859C25.7232 33.9859 25.7555 33.9846 25.7878 33.9833V33.6487C25.7878 33.6331 25.7839 33.6189 25.7775 33.6073C25.7697 33.5957 25.7607 33.5853 25.749 33.5763C25.7374 33.5673 25.7232 33.5608 25.709 33.5543C25.6935 33.5479 25.678 33.5427 25.6625 33.5363C25.6418 33.5285 25.6315 33.5195 25.6315 33.5091C25.6315 33.5027 25.6353 33.4962 25.6431 33.4884C25.6508 33.482 25.6625 33.4781 25.678 33.4781C25.6857 33.4781 25.6999 33.4794 25.7219 33.482C25.7439 33.4846 25.7658 33.4884 25.7917 33.491C25.8162 33.4949 25.8395 33.4988 25.8614 33.5027C25.8834 33.5065 25.8976 33.5117 25.9041 33.5143L25.8976 33.6034V34.3877C25.8976 34.4019 25.8976 34.4225 25.8976 34.4471C25.8976 34.4716 25.8976 34.4988 25.8963 34.5285C25.895 34.5582 25.8937 34.5879 25.8899 34.6176C25.8873 34.6473 25.8834 34.6745 25.8769 34.699C25.8718 34.7236 25.864 34.7429 25.8563 34.7585C25.8485 34.774 25.8382 34.7817 25.8253 34.7817C25.8007 34.7817 25.7878 34.7119 25.7878 34.5724V34.0479C25.7788 34.0492 25.771 34.0505 25.7633 34.0517C25.7555 34.053 25.749 34.0543 25.7439 34.0556C25.731 34.0595 25.7206 34.0621 25.7116 34.0647C25.7025 34.0673 25.6922 34.0737 25.6793 34.0828C25.6676 34.0802 25.6573 34.0776 25.6457 34.0737C25.6341 34.0698 25.6224 34.066 25.6095 34.0621C25.6069 34.1073 25.5979 34.1486 25.5798 34.1874C25.5617 34.2262 25.5384 34.2585 25.5074 34.2869C25.4764 34.3153 25.4416 34.3373 25.4002 34.3541C25.3589 34.3709 25.3136 34.3786 25.2645 34.3786C25.2129 34.3786 25.1651 34.3696 25.1237 34.3528C25.0824 34.336 25.0449 34.3127 25.0152 34.283C24.9842 34.2533 24.9609 34.2184 24.9454 34.1771C24.9299 34.137 24.9222 34.0944 24.9222 34.0479ZM25.0449 34.0414C25.0449 34.0802 25.0501 34.1138 25.0617 34.1448C25.0733 34.1758 25.0888 34.2016 25.1095 34.2236C25.1302 34.2455 25.1534 34.2623 25.1806 34.274C25.2077 34.2856 25.2374 34.2921 25.2684 34.2921C25.2994 34.2921 25.3291 34.2856 25.3576 34.274C25.3847 34.2623 25.4093 34.2455 25.4299 34.2236C25.4506 34.2016 25.4661 34.1758 25.4777 34.1448C25.4894 34.1138 25.4945 34.0802 25.4945 34.0414C25.4945 34.0039 25.4894 33.9704 25.4777 33.9393C25.4661 33.9083 25.4506 33.8825 25.4299 33.8592C25.4093 33.8373 25.386 33.8205 25.3576 33.8089C25.3304 33.7972 25.3007 33.7908 25.2684 33.7908C25.2361 33.7908 25.2077 33.7972 25.1806 33.8089C25.1534 33.8205 25.1302 33.8373 25.1095 33.8592C25.0888 33.8812 25.0733 33.9083 25.0617 33.9393C25.0501 33.9704 25.0449 34.0039 25.0449 34.0414ZM26.1806 33.5091V34.4923C26.1806 34.5065 26.1806 34.5272 26.1806 34.5517C26.1806 34.5763 26.1806 34.6034 26.1793 34.6331C26.178 34.6628 26.1754 34.6926 26.1728 34.7223C26.1689 34.752 26.165 34.7791 26.1599 34.8037C26.1547 34.8282 26.1483 34.8476 26.1392 34.8631C26.1302 34.8786 26.1198 34.8864 26.1082 34.8864C26.0837 34.8864 26.0707 34.8166 26.0707 34.6771V33.5427C26.0707 33.522 26.0604 33.504 26.0397 33.4872C26.0191 33.4704 25.9881 33.4536 25.9454 33.4381C25.9364 33.4342 25.9286 33.429 25.9222 33.4251C25.9157 33.4213 25.9131 33.4161 25.9131 33.4109C25.9131 33.4058 25.917 33.3993 25.926 33.3928C25.9351 33.3864 25.9467 33.3825 25.9635 33.3825C25.9713 33.3825 25.9855 33.3838 26.0074 33.3864C26.0294 33.389 26.0514 33.3915 26.0759 33.3954C26.1005 33.3993 26.1224 33.4032 26.1444 33.4083C26.1663 33.4122 26.1793 33.4174 26.187 33.42L26.1806 33.5091Z" fill="#373737"/>
<path d="M27.6918 33.7119V34.239C27.6918 34.2532 27.6918 34.2739 27.6906 34.2984C27.6906 34.323 27.688 34.3475 27.6828 34.3721C27.6776 34.3966 27.6712 34.4173 27.6621 34.4354C27.6531 34.4535 27.6389 34.4625 27.6208 34.4625C27.5988 34.4625 27.5859 34.4367 27.582 34.3863L27.166 34.3979C27.1608 34.4225 27.1544 34.4444 27.1453 34.4625C27.1363 34.4806 27.1221 34.4909 27.104 34.4909C27.0782 34.4909 27.0652 34.4509 27.0652 34.3721V33.7985C27.0652 33.7778 27.0549 33.761 27.0342 33.7481C27.0136 33.7351 26.9826 33.7209 26.9399 33.7054C26.9309 33.7016 26.9231 33.6964 26.9167 33.6925C26.9102 33.6886 26.9076 33.6835 26.9076 33.6783C26.9076 33.6731 26.9115 33.6667 26.9205 33.6602C26.9296 33.6538 26.9412 33.6499 26.958 33.6499C26.9658 33.6499 26.98 33.6499 27.0006 33.6512C27.0213 33.6525 27.0433 33.6537 27.0678 33.6576C27.0911 33.6602 27.1143 33.6628 27.135 33.6667C27.157 33.6693 27.1712 33.6731 27.1802 33.6757L27.1738 33.7674V33.9367L27.5807 33.9276V33.7429C27.5807 33.7222 27.5704 33.7041 27.5497 33.6873C27.5291 33.6705 27.4981 33.6537 27.4554 33.6382C27.4464 33.6331 27.4386 33.6292 27.4322 33.6253C27.4257 33.6214 27.4231 33.6163 27.4231 33.6111C27.4231 33.6059 27.427 33.5995 27.436 33.593C27.4451 33.5866 27.4567 33.5827 27.4735 33.5827C27.4813 33.5827 27.4955 33.584 27.5174 33.5866C27.5394 33.5892 27.5614 33.5917 27.5859 33.5956C27.6105 33.5995 27.6324 33.6034 27.6544 33.6085C27.6763 33.6137 27.6906 33.6176 27.697 33.6202L27.6918 33.7119ZM27.1751 34.2907C27.1751 34.2997 27.1751 34.3101 27.1738 34.3217L27.5833 34.3127V34.0013L27.1764 34.0103V34.2674C27.1751 34.2739 27.1751 34.2816 27.1751 34.2907ZM28.0743 33.509V34.0129C28.0833 34.0116 28.0911 34.0116 28.1001 34.0116C28.1079 34.0116 28.1143 34.0116 28.1182 34.0116C28.1427 34.009 28.1647 34.0039 28.1854 33.9961C28.2048 33.9884 28.219 33.9793 28.2267 33.969C28.2422 33.969 28.2629 33.9703 28.2862 33.9716C28.3094 33.9729 28.3327 33.9755 28.3507 33.978C28.383 33.9832 28.3998 34 28.3998 34.0271C28.3998 34.0568 28.3805 34.0711 28.3404 34.0711C28.3004 34.0723 28.2551 34.0736 28.2073 34.0736C28.1595 34.0736 28.1143 34.0749 28.073 34.0762V34.4935C28.073 34.5077 28.073 34.5284 28.073 34.553C28.073 34.5775 28.073 34.6046 28.0717 34.6344C28.0704 34.6641 28.0678 34.6938 28.0652 34.7235C28.0613 34.7532 28.0575 34.7803 28.0523 34.8049C28.0471 34.8294 28.0407 34.8488 28.0316 34.8643C28.0226 34.8798 28.0123 34.8876 28.0006 34.8876C27.9761 34.8876 27.9632 34.8178 27.9632 34.6783V33.5439C27.9632 33.5233 27.9528 33.5052 27.9322 33.4884C27.9115 33.4716 27.8805 33.4548 27.8378 33.4393C27.8288 33.4354 27.821 33.4302 27.8146 33.4264C27.8081 33.4225 27.8055 33.4173 27.8055 33.4122C27.8055 33.407 27.8094 33.4005 27.8185 33.3941C27.8275 33.3876 27.8391 33.3837 27.8559 33.3837C27.8637 33.3837 27.8779 33.385 27.8999 33.3876C27.9218 33.3902 27.9438 33.3928 27.9683 33.3966C27.9929 33.4005 28.0148 33.4044 28.0368 33.4096C28.0588 33.4134 28.073 33.4186 28.0794 33.4212L28.0743 33.509Z" fill="#373737"/>
<path d="M28.7101 34.6383C28.6946 34.637 28.6778 34.6345 28.6597 34.6293C28.6416 34.6241 28.6235 34.6177 28.6054 34.6112C28.5873 34.6047 28.5705 34.5957 28.5537 34.5879C28.537 34.5789 28.5227 34.5711 28.5111 34.5621C28.5034 34.5569 28.4969 34.5505 28.493 34.5427C28.4891 34.535 28.4879 34.5285 28.4879 34.5233C28.4879 34.5066 28.5059 34.5014 28.5421 34.5066C28.5744 34.5117 28.6093 34.5169 28.6468 34.5195C28.6842 34.5221 28.723 34.5233 28.763 34.5233C28.8315 34.5233 28.8987 34.5233 28.9633 34.5221C29.0279 34.5208 29.0912 34.5208 29.1519 34.5195V34.2572H28.9284C28.8393 34.2572 28.7953 34.2133 28.7953 34.1241V33.9768C28.7798 33.9497 28.7488 33.9303 28.7023 33.92C28.6804 33.9161 28.67 33.9071 28.67 33.8942C28.67 33.8864 28.6739 33.8799 28.6829 33.8735C28.692 33.8683 28.7049 33.8644 28.723 33.8644C28.754 33.8644 28.7811 33.8657 28.8044 33.867C28.8289 33.8683 28.8496 33.8722 28.8677 33.8761C28.8729 33.8774 28.878 33.8787 28.8832 33.8825C28.8884 33.8864 28.8948 33.8877 28.9013 33.8903C28.9375 33.889 28.9801 33.8877 29.0292 33.8864C29.0783 33.8851 29.1274 33.8838 29.1791 33.8838C29.2307 33.8838 29.2798 33.8825 29.3276 33.8812C29.3767 33.8799 29.4181 33.8787 29.4542 33.8774C29.4607 33.8774 29.4672 33.8735 29.4723 33.867V33.6267C29.4504 33.6267 29.4181 33.6267 29.3741 33.628C29.3302 33.628 29.2837 33.6293 29.2359 33.6306C29.1881 33.6319 29.1403 33.6332 29.0964 33.6345C29.0524 33.6358 29.0189 33.6384 28.9982 33.6409C28.9723 33.6435 28.9478 33.6474 28.9258 33.6551C28.9039 33.6629 28.8832 33.6719 28.8625 33.6849C28.847 33.681 28.8302 33.6745 28.8134 33.6668C28.7966 33.659 28.7811 33.6513 28.7656 33.6435C28.7501 33.6358 28.7372 33.628 28.7256 33.6203C28.714 33.6125 28.7049 33.6061 28.6997 33.6009C28.6933 33.5944 28.6894 33.5867 28.6894 33.5776C28.6894 33.5621 28.7036 33.557 28.7333 33.5621C28.763 33.566 28.7915 33.5686 28.8173 33.5699C28.8431 33.5712 28.8703 33.5712 28.8974 33.5712C28.9194 33.5712 28.953 33.5712 28.9956 33.5712C29.0382 33.5712 29.0835 33.5712 29.1325 33.5699C29.1816 33.5686 29.2282 33.5673 29.276 33.5673C29.3225 33.5673 29.3625 33.5647 29.3935 33.5634C29.4155 33.5621 29.4336 33.5595 29.4491 33.5531C29.4646 33.5479 29.4749 33.5427 29.4801 33.5402C29.4943 33.5402 29.5124 33.5415 29.5318 33.5427C29.5511 33.544 29.5679 33.5466 29.5796 33.5492C29.5989 33.5531 29.6093 33.5608 29.6106 33.5699C29.6119 33.5789 29.6106 33.588 29.6093 33.5983C29.6067 33.6138 29.6041 33.6293 29.6002 33.6422C29.5964 33.6551 29.5925 33.6732 29.5873 33.6952C29.5834 33.7249 29.5809 33.7533 29.577 33.7805C29.5731 33.8076 29.5692 33.836 29.5667 33.8657C29.5886 33.8696 29.6015 33.8735 29.608 33.8787C29.6144 33.8838 29.617 33.8916 29.617 33.9006C29.617 33.9277 29.5989 33.9407 29.5615 33.9407L28.9129 33.9536V34.1461C28.9129 34.1758 28.9284 34.19 28.9581 34.19L29.3703 34.1887C29.4026 34.1887 29.4297 34.1836 29.4517 34.1745C29.4736 34.1655 29.4891 34.1551 29.4995 34.1461C29.5292 34.1487 29.5537 34.1513 29.5744 34.1526C29.5951 34.1551 29.6157 34.1577 29.6338 34.1629C29.6635 34.1693 29.6778 34.1861 29.6778 34.212C29.6778 34.2404 29.6571 34.2546 29.617 34.2546L29.2656 34.2559V34.5143C29.3121 34.513 29.3561 34.5117 29.4 34.5104C29.4439 34.5091 29.4865 34.5066 29.5292 34.504C29.5718 34.5014 29.6067 34.4975 29.6325 34.491C29.6584 34.4846 29.6816 34.4755 29.7023 34.4626C29.7243 34.4639 29.7501 34.4665 29.7785 34.4691C29.807 34.473 29.8341 34.4768 29.8599 34.482C29.9026 34.491 29.9245 34.5091 29.9245 34.535C29.9245 34.5699 29.9026 34.5879 29.8599 34.5879C29.8483 34.5879 29.8302 34.5867 29.8057 34.5854C29.7798 34.5841 29.7501 34.5815 29.7139 34.5776C29.6997 34.5763 29.6739 34.575 29.639 34.575C29.6041 34.575 29.5615 34.5737 29.5124 34.5737C29.4026 34.5763 29.2915 34.5789 29.1816 34.5828C29.0718 34.5867 28.9594 34.5905 28.847 34.5957C28.8251 34.5983 28.8018 34.6022 28.7785 34.6086C28.7553 34.6151 28.7307 34.6254 28.7101 34.6383Z" fill="#373737"/>
<path d="M30.1143 34.4638C30.1065 34.4702 30.0975 34.4741 30.0885 34.4741C30.0794 34.4741 30.0717 34.4728 30.0665 34.4702C30.0613 34.4664 30.0574 34.4612 30.0574 34.4534C30.0574 34.4457 30.0613 34.4366 30.0717 34.4263C30.1182 34.3824 30.1634 34.332 30.2086 34.2751C30.2538 34.2183 30.2952 34.1589 30.3326 34.0981C30.3701 34.0374 30.4037 33.9754 30.4321 33.9134C30.4605 33.8514 30.4825 33.7919 30.4954 33.7364C30.4967 33.7312 30.498 33.7261 30.4993 33.7196C30.5006 33.7131 30.5006 33.708 30.5006 33.7067C30.5006 33.6976 30.4915 33.6847 30.4748 33.6692C30.458 33.6537 30.4308 33.6395 30.3947 33.6292C30.3753 33.6227 30.3662 33.6124 30.3662 33.6007C30.3662 33.5943 30.3701 33.5878 30.3779 33.5827C30.3856 33.5775 30.3959 33.5749 30.4102 33.5749C30.4244 33.5749 30.4437 33.5775 30.4683 33.5827C30.4941 33.5878 30.5187 33.5943 30.5445 33.6007C30.5704 33.6072 30.5936 33.6162 30.6143 33.624C30.635 33.6317 30.6492 33.6382 30.6556 33.6447C30.6556 33.6498 30.6543 33.6576 30.6518 33.6679C30.6492 33.6783 30.6466 33.6886 30.644 33.7002C30.6233 33.7829 30.5884 33.8682 30.5381 33.9586C30.5484 33.9689 30.5613 33.9819 30.5755 33.9974C30.591 34.0129 30.6065 34.0297 30.6233 34.0452C30.6401 34.062 30.6543 34.0762 30.6685 34.0904C30.6828 34.1033 30.6931 34.1137 30.7021 34.1214C30.7112 34.1279 30.7202 34.1343 30.7306 34.1421C30.7409 34.1485 30.7499 34.1537 30.759 34.1576C30.7719 34.1627 30.7809 34.1666 30.7874 34.1705C30.7939 34.1744 30.8003 34.1808 30.8055 34.1886C30.8313 34.2261 30.852 34.2584 30.8662 34.2868C30.8804 34.3152 30.8908 34.3475 30.8946 34.3837C30.8985 34.4056 30.8882 34.4186 30.8636 34.4211C30.8468 34.4224 30.821 34.4018 30.7874 34.3604L30.5019 34.0219C30.4489 34.1085 30.3882 34.1912 30.321 34.2687C30.2551 34.3436 30.1854 34.4095 30.1143 34.4638ZM31.2719 33.4922V34.4754C31.2719 34.4896 31.2719 34.5103 31.2719 34.5348C31.2719 34.5594 31.2719 34.5865 31.2706 34.6162C31.2693 34.6459 31.2667 34.6757 31.2641 34.7054C31.2616 34.7351 31.2564 34.7622 31.2512 34.7868C31.2461 34.8113 31.2396 34.8307 31.2306 34.8462C31.2215 34.8617 31.2112 34.8694 31.1995 34.8694C31.175 34.8694 31.1621 34.7997 31.1621 34.6602V34.0064C31.1543 34.0064 31.1427 34.0064 31.1285 34.0077C31.1143 34.009 31.0988 34.0103 31.0833 34.0116C31.0678 34.0129 31.0536 34.0142 31.0406 34.0155C31.0277 34.0168 31.0174 34.0167 31.0109 34.0167C30.998 34.0193 30.9877 34.0219 30.9786 34.0258C30.9696 34.0297 30.9592 34.0361 30.9463 34.0452C30.9399 34.0452 30.9295 34.0426 30.9153 34.0387C30.9011 34.0335 30.8882 34.0297 30.874 34.0232C30.8598 34.018 30.8468 34.0116 30.8339 34.0051C30.821 33.9987 30.812 33.9922 30.8055 33.987C30.7939 33.978 30.79 33.9689 30.7926 33.9586C30.7952 33.9496 30.8042 33.9444 30.821 33.9444C30.8417 33.9457 30.8649 33.9457 30.8933 33.9457C30.9218 33.9457 30.9502 33.9457 30.9799 33.9444C31.0109 33.9444 31.0406 33.9431 31.0716 33.9418C31.1026 33.9405 31.1324 33.9392 31.1608 33.9379V33.5258C31.1608 33.5051 31.1505 33.487 31.1298 33.4702C31.1091 33.4535 31.0781 33.4367 31.0355 33.4212C31.0264 33.4173 31.0187 33.4121 31.0122 33.4082C31.0057 33.4044 31.0032 33.3992 31.0032 33.394C31.0032 33.3889 31.007 33.3824 31.0161 33.3759C31.0251 33.3695 31.0368 33.3656 31.0536 33.3656C31.0613 33.3656 31.0755 33.3669 31.0975 33.3695C31.1194 33.3721 31.1414 33.3746 31.166 33.3785C31.1905 33.3824 31.2125 33.3863 31.2344 33.3914C31.2564 33.3953 31.2693 33.4005 31.2771 33.4031L31.2719 33.4922Z" fill="#373737"/>
<path d="M31.7472 33.7882C31.7472 33.7611 31.7046 33.7365 31.6193 33.7158C31.5973 33.7107 31.5857 33.7016 31.5857 33.69C31.5857 33.6809 31.5896 33.6732 31.5973 33.6642C31.6051 33.6564 31.6167 33.6512 31.6322 33.6512C31.6529 33.6499 31.6736 33.6499 31.6968 33.6512C31.7201 33.6525 31.7408 33.6538 31.7614 33.6564C31.7821 33.659 31.8002 33.6616 31.817 33.6654C31.8338 33.6693 31.8467 33.6719 31.8557 33.6758C31.8751 33.6745 31.8958 33.6732 31.919 33.6732C31.9423 33.6732 31.9655 33.6719 31.9901 33.6706C32.0146 33.6693 32.0379 33.668 32.0599 33.668C32.0818 33.668 32.1025 33.6667 32.1219 33.6654C32.1451 33.6642 32.1671 33.6603 32.1865 33.6551C32.2059 33.6487 32.2214 33.6396 32.2343 33.6267C32.2562 33.6267 32.2808 33.628 32.3053 33.6293C32.3299 33.6306 32.3544 33.6344 32.3764 33.6383C32.41 33.6435 32.4268 33.6603 32.4268 33.6861C32.4268 33.7158 32.4061 33.73 32.3661 33.73C32.2885 33.7313 32.2046 33.7326 32.1141 33.7339C32.0237 33.7352 31.9397 33.7365 31.8622 33.7391V34.3218C31.8622 34.3347 31.8674 34.345 31.8764 34.3528C31.8854 34.3592 31.9074 34.3618 31.941 34.3592C31.9823 34.3579 32.0314 34.3541 32.087 34.3476C32.1425 34.3411 32.2007 34.3321 32.2614 34.3231C32.3221 34.314 32.3842 34.3024 32.4475 34.2895C32.5108 34.2765 32.5715 34.2636 32.6283 34.2494V33.5427C32.6283 33.522 32.618 33.504 32.5973 33.4872C32.5767 33.4704 32.5456 33.4536 32.503 33.4381C32.494 33.4342 32.4862 33.429 32.4798 33.4251C32.4733 33.4213 32.4707 33.4161 32.4707 33.4109C32.4707 33.4058 32.4746 33.3993 32.4836 33.3928C32.4927 33.3864 32.5043 33.3825 32.5211 33.3825C32.5289 33.3825 32.5431 33.3838 32.565 33.3864C32.587 33.389 32.609 33.3915 32.6335 33.3954C32.658 33.3993 32.68 33.4032 32.702 33.4083C32.7239 33.4122 32.7381 33.4174 32.7446 33.42L32.7382 33.5117V34.0052C32.7472 34.0039 32.7549 34.0039 32.764 34.0039C32.7717 34.0039 32.7782 34.0039 32.7821 34.0039C32.8066 34.0014 32.8286 33.9962 32.8493 33.9884C32.8699 33.9807 32.8828 33.9716 32.8906 33.9613C32.9061 33.9613 32.9268 33.9626 32.95 33.9639C32.9733 33.9652 32.9965 33.9678 33.0146 33.9704C33.0469 33.9755 33.0637 33.9923 33.0637 34.0194C33.0637 34.0492 33.0443 34.0634 33.0043 34.0634C32.9642 34.0647 32.919 34.066 32.8712 34.066C32.8234 34.066 32.7782 34.0673 32.7369 34.0685V34.4962C32.7369 34.5104 32.7369 34.5311 32.7369 34.5556C32.7369 34.5802 32.7369 34.6073 32.7356 34.637C32.7343 34.6667 32.7317 34.6964 32.7291 34.7262C32.7252 34.7559 32.7213 34.783 32.7162 34.8075C32.711 34.8321 32.7046 34.8515 32.6955 34.867C32.6865 34.8825 32.6761 34.8902 32.6645 34.8902C32.64 34.8902 32.627 34.8205 32.627 34.6809V34.3179C32.5779 34.3321 32.5211 34.3489 32.4565 34.3657C32.3919 34.3825 32.3273 34.398 32.2601 34.4135C32.1929 34.429 32.1258 34.4419 32.0599 34.4535C31.994 34.4652 31.9345 34.4716 31.8816 34.4755C31.8273 34.4794 31.7911 34.4665 31.773 34.4367C31.755 34.407 31.7446 34.3696 31.7446 34.3218V33.7882H31.7472Z" fill="#373737"/>
<path d="M33.1156 34.7442C33.1156 34.7183 33.1246 34.6964 33.1414 34.6796C33.1595 34.6628 33.1789 34.6537 33.2034 34.6537C33.2293 34.6537 33.2512 34.6628 33.268 34.6796C33.2861 34.6977 33.2939 34.7183 33.2939 34.7442C33.2939 34.7674 33.2848 34.7881 33.268 34.8062C33.2512 34.8243 33.2293 34.832 33.2034 34.832C33.1802 34.832 33.1595 34.823 33.1414 34.8062C33.1233 34.7881 33.1156 34.7674 33.1156 34.7442Z" fill="#373737"/>
<path d="M35.3766 34.0258C35.3857 34.0258 35.3973 34.0245 35.4128 34.0232C35.427 34.0206 35.4425 34.018 35.4567 34.0155C35.4709 34.0129 35.4851 34.0077 35.4981 34.0038C35.511 33.9987 35.5213 33.9935 35.5304 33.987C35.5523 33.9857 35.5795 33.987 35.6118 33.9896C35.6441 33.9935 35.6686 33.9961 35.6867 34C35.7074 34.0038 35.7267 34.0103 35.7435 34.0206C35.7603 34.031 35.7668 34.0465 35.7642 34.0697C35.7616 34.093 35.7487 34.1072 35.7267 34.1162C35.7048 34.1253 35.6764 34.1279 35.6441 34.1253C35.6273 34.124 35.6053 34.1227 35.5808 34.1214C35.5562 34.1201 35.5291 34.1188 35.5019 34.1188C35.4748 34.1188 35.4477 34.1175 35.4206 34.1162C35.3934 34.1162 35.3702 34.1149 35.3508 34.1149C35.3081 34.1149 35.2603 34.1149 35.2048 34.1149C35.1505 34.1149 35.0924 34.1149 35.033 34.1162C34.9722 34.1175 34.9128 34.1175 34.8521 34.1188C34.7914 34.1201 34.7332 34.1214 34.6802 34.1227C34.626 34.124 34.5782 34.1253 34.5355 34.1279C34.4929 34.1304 34.4606 34.1317 34.4361 34.1343C34.4025 34.1369 34.3715 34.1434 34.3405 34.1537C34.3095 34.164 34.2888 34.1718 34.2746 34.1783C34.2604 34.1744 34.2436 34.1679 34.2255 34.1602C34.2074 34.1524 34.188 34.1434 34.1699 34.1343C34.1518 34.1253 34.1337 34.1149 34.1182 34.1059C34.1027 34.0956 34.0911 34.0865 34.0847 34.0788C34.0691 34.062 34.0653 34.0478 34.0756 34.0374C34.0859 34.0271 34.0976 34.0232 34.1118 34.0258C34.1195 34.0271 34.1312 34.0284 34.148 34.031C34.1635 34.0336 34.1803 34.0348 34.1983 34.0361C34.2164 34.0374 34.2332 34.0387 34.25 34.04C34.2668 34.0413 34.2784 34.0426 34.2862 34.0426C34.3857 34.0452 34.4813 34.0465 34.573 34.0465C34.6647 34.0465 34.7578 34.0452 34.8508 34.0439V33.8398C34.8094 33.8423 34.772 33.8449 34.7384 33.8462C34.7035 33.8488 34.6686 33.8514 34.6312 33.8553C34.5976 33.8578 34.5691 33.863 34.5446 33.8721C34.52 33.8811 34.502 33.8889 34.4877 33.8966C34.4735 33.8927 34.4567 33.8876 34.4374 33.8798C34.418 33.8721 34.3999 33.8643 34.3805 33.8566C34.3624 33.8475 34.3443 33.8385 34.3288 33.8294C34.3133 33.8204 34.3017 33.8126 34.2952 33.8062C34.2784 33.7894 34.2746 33.7752 34.2849 33.7648C34.2952 33.7545 34.3082 33.7506 34.3224 33.7532C34.3301 33.7545 34.343 33.7558 34.3598 33.7571C34.3766 33.7584 34.3947 33.7597 34.4128 33.7622C34.4309 33.7648 34.4477 33.7661 34.4645 33.7674C34.4813 33.7687 34.4929 33.77 34.5007 33.77C34.5666 33.7713 34.626 33.7726 34.6802 33.7726C34.7345 33.7726 34.7823 33.7713 34.8275 33.77C34.8728 33.7687 34.9141 33.7674 34.9529 33.7661C34.9916 33.7648 35.0291 33.7622 35.0653 33.7597C35.0704 33.739 35.0756 33.7157 35.0808 33.6925C35.0859 33.6692 35.0911 33.646 35.0963 33.6227C35.1014 33.5995 35.1053 33.5801 35.1092 33.5607C35.1131 33.5413 35.1143 33.5258 35.1156 33.5116C35.1066 33.4819 35.0769 33.4599 35.0291 33.4444C35.0149 33.4392 35.0045 33.4328 34.9994 33.4263C34.9942 33.4199 34.9929 33.4134 34.9955 33.4069C34.9981 33.4005 35.0032 33.3953 35.0123 33.3902C35.0213 33.385 35.0317 33.3837 35.0446 33.3837C35.064 33.3837 35.0872 33.3863 35.1131 33.3902C35.1389 33.3953 35.1634 33.4005 35.188 33.4057C35.2112 33.4121 35.2332 33.4186 35.2526 33.4263C35.272 33.4341 35.2849 33.4405 35.2914 33.4457C35.272 33.4961 35.25 33.5491 35.2255 33.6046C35.2009 33.6602 35.1777 33.7106 35.157 33.7519C35.1789 33.7493 35.2048 33.7454 35.2345 33.7416C35.2629 33.7364 35.2849 33.7274 35.3004 33.7131C35.3198 33.7119 35.3443 33.7119 35.3753 33.7157C35.4063 33.7196 35.4296 33.7222 35.4503 33.7274C35.4696 33.7325 35.489 33.739 35.5058 33.748C35.5226 33.7571 35.5304 33.77 35.5278 33.7881C35.5252 33.81 35.5136 33.8255 35.4916 33.8333C35.4709 33.841 35.4425 33.8423 35.4089 33.8398C35.3895 33.8385 35.3663 33.8372 35.3404 33.8372C35.3146 33.8372 35.2888 33.8359 35.2616 33.8359C35.2345 33.8359 35.2074 33.8359 35.1815 33.8359C35.1544 33.8359 35.1324 33.8359 35.1118 33.8359H34.9826V34.0426C35.0485 34.04 35.1143 34.0374 35.1802 34.0361C35.2461 34.0348 35.3094 34.0297 35.3766 34.0258ZM35.135 33.248C35.1544 33.2455 35.1802 33.2416 35.21 33.2364C35.241 33.2312 35.2642 33.2222 35.2836 33.2106C35.303 33.2093 35.3288 33.2106 35.3598 33.2144C35.3908 33.2183 35.4154 33.2222 35.4348 33.2248C35.4567 33.2287 35.4748 33.2364 35.489 33.2467C35.5032 33.2571 35.5084 33.2713 35.5058 33.2907C35.5019 33.3126 35.4903 33.3281 35.4696 33.3346C35.4503 33.3423 35.4218 33.3436 35.387 33.3411C35.343 33.3372 35.2952 33.3346 35.2448 33.332C35.1932 33.3294 35.1466 33.3294 35.1066 33.3294C34.9994 33.3307 34.9076 33.3333 34.8314 33.3359C34.7552 33.3398 34.6958 33.3436 34.6531 33.3488C34.6182 33.3527 34.5859 33.3591 34.5549 33.3682C34.5239 33.3772 34.502 33.385 34.489 33.3914C34.4748 33.3876 34.458 33.3824 34.4399 33.3759C34.4219 33.3695 34.4025 33.3617 34.3844 33.3527C34.3663 33.3436 34.3482 33.3346 34.3327 33.3256C34.3172 33.3165 34.3056 33.3088 34.2991 33.301C34.2836 33.2842 34.2797 33.27 34.2901 33.2597C34.3004 33.2493 34.312 33.2455 34.3262 33.248C34.334 33.2493 34.3469 33.2506 34.3624 33.2532C34.3779 33.2558 34.3973 33.2571 34.4154 33.2584C34.4348 33.2597 34.4529 33.261 34.4697 33.2622C34.4865 33.2635 34.4994 33.2648 34.5071 33.2648C34.6169 33.2674 34.7255 33.2674 34.8353 33.2648C34.9451 33.2622 35.0446 33.2545 35.135 33.248ZM34.6596 34.8501C34.697 34.8514 34.7371 34.8527 34.781 34.8527C34.825 34.8527 34.8689 34.8514 34.9128 34.8501C34.9567 34.8488 34.9994 34.8475 35.042 34.8449C35.0833 34.8423 35.1208 34.841 35.1544 34.8384C35.1751 34.8359 35.1983 34.8307 35.2242 34.8242C35.25 34.8165 35.2707 34.8061 35.2849 34.7919C35.303 34.7894 35.3288 34.7894 35.3611 34.7906C35.3934 34.7932 35.4193 34.7945 35.4373 34.7971C35.4567 34.7997 35.4761 34.8049 35.4942 34.8139C35.5123 34.8229 35.5213 34.8372 35.5213 34.8565C35.5213 34.9018 35.4877 34.9224 35.4206 34.9198C35.3857 34.9186 35.3366 34.9185 35.2733 34.9185C35.2087 34.9185 35.1402 34.9198 35.0665 34.9211C34.9929 34.9224 34.918 34.9237 34.843 34.925C34.7681 34.9263 34.7035 34.9276 34.6492 34.9276C34.5937 34.9315 34.5511 34.9211 34.5213 34.8953C34.4916 34.8695 34.4761 34.8294 34.4761 34.7738V34.6847C34.4671 34.6627 34.4516 34.6459 34.4309 34.6356C34.4102 34.6253 34.3883 34.6175 34.365 34.6111C34.334 34.6033 34.3198 34.5904 34.3224 34.5749C34.325 34.5594 34.3405 34.549 34.3715 34.5465C34.3857 34.5452 34.4038 34.5452 34.427 34.5465C34.449 34.5478 34.4722 34.549 34.4968 34.5516C34.5213 34.5542 34.5459 34.5555 34.5691 34.5568C34.5924 34.5581 34.6131 34.5594 34.6312 34.5594C34.6764 34.5594 34.7281 34.5594 34.7862 34.5568C34.8456 34.5555 34.9025 34.5542 34.958 34.5529C35.0136 34.5516 35.0666 34.5503 35.1131 34.5478C35.1609 34.5452 35.1957 34.5439 35.2203 34.5426C35.2216 34.5297 35.2229 34.5142 35.2242 34.4961C35.2255 34.478 35.2268 34.4599 35.2268 34.4431C35.2268 34.425 35.228 34.4082 35.228 34.3901C35.228 34.372 35.2293 34.3578 35.2293 34.3449C35.1932 34.3436 35.1544 34.3436 35.1092 34.3436C35.064 34.3436 35.02 34.3462 34.9735 34.3475C34.927 34.3501 34.8818 34.3527 34.8379 34.3553C34.7939 34.3591 34.7539 34.3617 34.7177 34.3643C34.6803 34.3669 34.6467 34.372 34.6169 34.3798C34.5872 34.3876 34.5653 34.3966 34.5511 34.4069C34.5381 34.4031 34.5226 34.3979 34.5045 34.3901C34.4865 34.3824 34.4697 34.3746 34.4516 34.3669C34.4335 34.3591 34.4193 34.3488 34.4038 34.3397C34.3896 34.3307 34.3779 34.323 34.3715 34.3165C34.3624 34.3087 34.3573 34.301 34.356 34.2932C34.3547 34.2855 34.356 34.2803 34.3585 34.2751C34.3611 34.27 34.3676 34.2674 34.3741 34.2648C34.3818 34.2622 34.3896 34.2609 34.3973 34.2622C34.4051 34.2635 34.4167 34.2648 34.4296 34.2661C34.4438 34.2674 34.458 34.2687 34.4735 34.27C34.489 34.2713 34.5032 34.2726 34.5175 34.2739C34.5317 34.2752 34.542 34.2764 34.5498 34.2764C34.5989 34.279 34.6531 34.2803 34.7125 34.279C34.7733 34.2777 34.8314 34.2764 34.8895 34.2751C34.9477 34.2726 34.9994 34.2713 35.0472 34.2687C35.095 34.2661 35.1311 34.2648 35.1583 34.2635C35.197 34.2609 35.2345 34.2584 35.2733 34.2571C35.312 34.2545 35.3379 34.2532 35.3521 34.2506C35.3753 34.248 35.3908 34.2506 35.3986 34.2571C35.4063 34.2635 35.4089 34.2713 35.4089 34.2803C35.4089 34.2894 35.4063 34.301 35.4025 34.3139C35.3973 34.3268 35.3921 34.341 35.3857 34.3553C35.3831 34.3669 35.3792 34.3811 35.3753 34.3966C35.3702 34.4121 35.3663 34.4289 35.3598 34.4457C35.3547 34.4625 35.3495 34.478 35.343 34.4948C35.3366 34.5103 35.3327 34.5245 35.3275 34.5361C35.3379 34.5348 35.3495 34.5335 35.3611 34.5335C35.3727 34.5335 35.3831 34.5348 35.3921 34.5387C35.4012 34.5426 35.4076 34.5465 35.4141 34.5542C35.4205 34.5607 35.4218 34.5697 35.4206 34.5813C35.4193 34.5994 35.4102 34.6124 35.3934 34.6188C35.3766 34.6253 35.356 34.6279 35.3314 34.6253C35.1815 34.624 35.0472 34.624 34.9257 34.6266C34.8043 34.6291 34.7009 34.633 34.6131 34.6395C34.6118 34.6459 34.6105 34.6537 34.6105 34.664C34.6105 34.6744 34.6105 34.6795 34.6105 34.6808V34.8061C34.6182 34.8359 34.6324 34.8501 34.6596 34.8501ZM34.6996 33.7235C34.6854 33.7351 34.6699 33.7403 34.6557 33.7364C34.6402 33.7325 34.6312 33.7222 34.6286 33.7041C34.6247 33.6602 34.6182 33.6201 34.6105 33.5814C34.6027 33.5426 34.5872 33.5026 34.5627 33.4586C34.5498 33.4354 34.5498 33.4199 34.564 33.4121C34.5782 33.4044 34.5963 33.4082 34.6182 33.4225C34.6492 33.4431 34.6802 33.469 34.7113 33.5C34.7436 33.531 34.7655 33.5607 34.781 33.5891C34.7784 33.5994 34.7733 33.6111 34.7668 33.6253C34.7604 33.6382 34.7526 33.6511 34.7448 33.6653C34.7371 33.6783 34.7281 33.6899 34.7203 33.7015C34.7125 33.7131 34.7048 33.7183 34.6996 33.7235Z" fill="#373737"/>
<path d="M37.3389 33.3075V34.1809C37.3389 34.2016 37.3389 34.23 37.3376 34.2662C37.3376 34.3023 37.3337 34.3372 37.3286 34.3708C37.3234 34.4057 37.3157 34.4354 37.304 34.46C37.2924 34.4845 37.2769 34.4974 37.2549 34.4974C37.2239 34.4974 37.2097 34.4419 37.2097 34.3295V34.0401C37.1722 34.0556 37.1296 34.0724 37.0792 34.0892C37.0288 34.106 36.9759 34.1228 36.919 34.1396C36.8622 34.1564 36.8053 34.1731 36.7472 34.1887C36.689 34.2042 36.6322 34.2171 36.5766 34.2287C36.5224 34.2403 36.4707 34.2494 36.4255 34.2558C36.379 34.2623 36.3402 34.2662 36.3079 34.2662C36.2433 34.2662 36.1994 34.2494 36.1774 34.2158C36.1555 34.1822 36.1438 34.137 36.1438 34.0801V33.8734C36.1296 33.8514 36.1102 33.8334 36.0857 33.8204C36.0612 33.8075 36.0379 33.7985 36.0159 33.7933C36.0017 33.7894 35.9914 33.7843 35.9836 33.7778C35.9772 33.7713 35.9733 33.7649 35.9733 33.7584C35.9733 33.752 35.9772 33.7455 35.9849 33.7403C35.9927 33.7352 36.0043 33.7313 36.0185 33.73C36.0301 33.7287 36.0495 33.7287 36.0754 33.73C36.1012 33.7313 36.1283 33.7326 36.158 33.7352C36.1878 33.7378 36.2188 33.739 36.2498 33.7403C36.2821 33.7416 36.3092 33.7429 36.3325 33.7429C36.348 33.7429 36.3738 33.7429 36.41 33.7416C36.4462 33.7416 36.4823 33.7403 36.5224 33.739C36.5624 33.7378 36.5973 33.7365 36.6309 33.7339C36.6645 33.7313 36.6852 33.73 36.6942 33.7287C36.7033 33.7274 36.711 33.7223 36.7162 33.7145V33.4251C36.6942 33.4251 36.6658 33.4251 36.6335 33.4264C36.5999 33.4264 36.5663 33.429 36.5288 33.4303C36.4927 33.4329 36.4578 33.4341 36.4229 33.4367C36.388 33.4393 36.3596 33.4419 36.3376 33.4445C36.3105 33.4484 36.2847 33.4535 36.2562 33.46C36.2291 33.4664 36.2046 33.4768 36.1826 33.4897C36.149 33.4807 36.118 33.4664 36.087 33.4496C36.056 33.4316 36.034 33.4173 36.0224 33.407C36.0121 33.3967 36.0069 33.3863 36.0069 33.3773C36.0069 33.3592 36.0224 33.3527 36.0521 33.3592C36.0831 33.3644 36.1115 33.367 36.1387 33.3683C36.1658 33.3683 36.1929 33.3695 36.2201 33.3695C36.2394 33.3695 36.2653 33.3695 36.295 33.3683C36.326 33.367 36.3583 33.367 36.3945 33.3657C36.4307 33.3644 36.4668 33.3631 36.5043 33.3605C36.5418 33.3579 36.5766 33.3566 36.6102 33.3553C36.6348 33.354 36.6567 33.3502 36.6761 33.3437C36.6942 33.3372 36.7084 33.3308 36.7175 33.3243C36.7356 33.323 36.7575 33.323 36.7808 33.3243C36.804 33.3256 36.8234 33.3282 36.8376 33.3308C36.8622 33.3334 36.8777 33.3398 36.8828 33.3489C36.888 33.3579 36.888 33.367 36.8854 33.376C36.8816 33.3954 36.8764 33.4161 36.8712 33.4354C36.866 33.4548 36.8609 33.4755 36.857 33.4974C36.8505 33.5323 36.8441 33.5659 36.8376 33.6021C36.8312 33.6383 36.826 33.6719 36.8182 33.708C36.8428 33.7132 36.8596 33.7197 36.8673 33.7287C36.8751 33.7378 36.879 33.7468 36.879 33.7571C36.879 33.7894 36.8544 33.8062 36.8053 33.8088C36.7743 33.8101 36.7368 33.8114 36.6903 33.8127C36.6438 33.814 36.596 33.8153 36.5469 33.8179C36.4978 33.8204 36.4487 33.8217 36.4022 33.8243C36.3557 33.8269 36.3157 33.8295 36.2821 33.8321C36.2808 33.8463 36.2808 33.8566 36.2808 33.8605C36.2808 33.8644 36.2808 33.8682 36.2808 33.8695V34.0995C36.2808 34.115 36.286 34.1266 36.2963 34.1344C36.3066 34.1421 36.3247 34.1447 36.3518 34.1434C36.3984 34.1421 36.4539 34.137 36.5211 34.1279C36.5883 34.1189 36.6593 34.1073 36.7356 34.0918C36.8118 34.0763 36.8906 34.0582 36.972 34.0388C37.0534 34.0194 37.1309 33.9949 37.2045 33.969V33.345C37.2045 33.3217 37.1929 33.2998 37.1684 33.2791C37.1438 33.2597 37.1076 33.2403 37.0586 33.2223C37.0482 33.2171 37.0392 33.2119 37.0314 33.2068C37.0237 33.2016 37.0211 33.1964 37.0211 33.19C37.0211 33.1835 37.0263 33.1758 37.0353 33.168C37.0456 33.1602 37.0598 33.1564 37.0805 33.1564C37.0896 33.1564 37.1064 33.1577 37.1322 33.1602C37.158 33.1628 37.1839 33.1667 37.2123 33.1706C37.2407 33.1757 37.2679 33.1796 37.2924 33.1848C37.3169 33.19 37.3337 33.1951 37.3415 33.199L37.3389 33.3075ZM36.503 34.5452C36.503 34.522 36.4914 34.5026 36.4668 34.4871C36.4436 34.4716 36.4074 34.4561 36.3583 34.438C36.3338 34.429 36.3208 34.4186 36.3208 34.4057C36.3208 34.3992 36.326 34.3915 36.3363 34.3837C36.3467 34.376 36.3609 34.3721 36.3803 34.3721C36.3893 34.3721 36.4074 34.3734 36.4319 34.3747C36.4565 34.3773 36.4836 34.3786 36.512 34.3812C36.5405 34.3837 36.5676 34.3876 36.5921 34.3915C36.6167 34.3954 36.6335 34.3992 36.6412 34.4031L36.6335 34.5104V34.7416C36.6335 34.7791 36.6503 34.7972 36.6852 34.7972L37.0973 34.7946C37.1219 34.7946 37.1464 34.7907 37.171 34.7817C37.1942 34.7726 37.2136 34.7623 37.2265 34.7507C37.2653 34.7507 37.3014 34.7519 37.3389 34.7558C37.3764 34.7597 37.4022 34.7636 37.4216 34.7687C37.4345 34.7739 37.4461 34.7804 37.4539 34.7894C37.4616 34.7985 37.4668 34.8088 37.4668 34.8204C37.4668 34.8566 37.4436 34.8734 37.3958 34.8734L36.6503 34.876C36.5456 34.876 36.4965 34.8191 36.5043 34.708V34.5452H36.503Z" fill="#373737"/>
<path d="M37.9785 34.2881C37.9604 34.2868 37.9397 34.283 37.9191 34.2778C37.8984 34.2713 37.8764 34.2649 37.8558 34.2558C37.8351 34.2468 37.8144 34.2378 37.795 34.2287C37.7757 34.2197 37.7589 34.208 37.7447 34.1977C37.7356 34.1912 37.7279 34.1835 37.724 34.1744C37.7188 34.1654 37.7175 34.1577 37.7175 34.1512C37.7175 34.1318 37.7382 34.1254 37.7808 34.1318C37.8196 34.1383 37.8596 34.1434 37.9036 34.1473C37.9475 34.1512 37.9927 34.1525 38.0405 34.1525C38.2098 34.1525 38.3674 34.1512 38.5147 34.1473C38.662 34.1434 38.8028 34.1396 38.9359 34.1318C38.9862 34.1292 39.0263 34.1241 39.0573 34.1176C39.087 34.1099 39.1141 34.0995 39.1387 34.0853C39.1645 34.0866 39.1955 34.0892 39.2291 34.0931C39.2627 34.0969 39.295 34.1021 39.3247 34.1086C39.3751 34.1189 39.3997 34.1396 39.3997 34.1706C39.3997 34.2119 39.3751 34.2326 39.3247 34.2326C39.3118 34.2326 39.2899 34.2313 39.2601 34.23C39.2304 34.2274 39.1942 34.2248 39.1516 34.221C39.1348 34.2197 39.1051 34.2184 39.0651 34.2184C39.0237 34.2184 38.9746 34.2171 38.9165 34.2171H38.901V34.5801C38.901 34.6034 38.901 34.637 38.8997 34.6783C38.8984 34.7197 38.8958 34.761 38.8893 34.7998C38.8829 34.8398 38.8751 34.8734 38.8622 34.9031C38.8506 34.9315 38.8338 34.947 38.8105 34.947C38.7795 34.947 38.7653 34.8721 38.7653 34.7235V34.2197C38.6955 34.2223 38.6258 34.2248 38.5573 34.2261C38.4888 34.2287 38.4191 34.23 38.3493 34.2326V34.5556C38.3493 34.5788 38.3493 34.6124 38.348 34.6538C38.3467 34.6951 38.3441 34.7365 38.3377 34.7752C38.3312 34.814 38.3222 34.8489 38.3105 34.8786C38.2989 34.9083 38.2821 34.9225 38.2589 34.9225C38.2279 34.9225 38.2136 34.8476 38.2136 34.699V34.239C38.1994 34.2403 38.1852 34.2416 38.1736 34.2416C38.1607 34.2429 38.1478 34.2429 38.1348 34.2429C38.109 34.2455 38.0819 34.2507 38.0547 34.2584C38.0276 34.2623 38.0031 34.2739 37.9785 34.2881ZM39.0315 33.4574C39.0263 33.5104 39.0198 33.5672 39.0134 33.6279C39.0069 33.6887 38.9992 33.7546 38.9914 33.8243C39.034 33.8308 39.0547 33.8476 39.0547 33.876C39.0547 33.907 39.0302 33.9225 38.9811 33.9251C38.9268 33.9238 38.8661 33.9238 38.8002 33.9238C38.733 33.9251 38.6658 33.9251 38.5961 33.9264C38.5263 33.9277 38.4591 33.9277 38.3919 33.929C38.3248 33.9303 38.2653 33.9316 38.2124 33.9328C38.2111 33.9445 38.2033 33.96 38.1904 33.9781C38.1775 33.9962 38.1633 34.0052 38.1491 34.0052C38.131 34.0052 38.1167 33.9974 38.1051 33.9807C38.0948 33.9639 38.0883 33.9445 38.0857 33.9225L38.0444 33.4445C38.0354 33.4264 38.0211 33.4109 38.0018 33.3993C37.9824 33.3876 37.963 33.3786 37.9436 33.3721C37.9307 33.3683 37.9204 33.3631 37.9139 33.3553C37.9075 33.3476 37.9036 33.3398 37.9036 33.3321C37.9036 33.3243 37.9075 33.3166 37.9139 33.3114C37.9204 33.305 37.9307 33.3024 37.9462 33.3024C37.9604 33.3024 37.9785 33.3024 37.9992 33.3037C38.0198 33.305 38.0431 33.3062 38.0664 33.3075C38.0896 33.3101 38.1142 33.3114 38.1374 33.314C38.1607 33.3166 38.1839 33.3192 38.2072 33.3218C38.2459 33.323 38.2886 33.3243 38.3377 33.3243C38.3868 33.3243 38.4359 33.3243 38.4863 33.3218C38.5366 33.3192 38.5844 33.3192 38.6322 33.3166C38.6788 33.314 38.7201 33.3127 38.7563 33.3101C38.7808 33.3075 38.8054 33.3037 38.8299 33.2985C38.8532 33.2933 38.87 33.2869 38.879 33.2804C38.8971 33.2791 38.9204 33.2791 38.9488 33.2791C38.9759 33.2804 38.9979 33.2817 39.0121 33.2843C39.0366 33.2869 39.0521 33.2933 39.0573 33.3024C39.0625 33.3114 39.0625 33.3205 39.0599 33.3295C39.056 33.3489 39.0508 33.3696 39.0457 33.3915C39.0379 33.4148 39.034 33.4367 39.0315 33.4574ZM38.8441 33.8385C38.8532 33.8372 38.8596 33.836 38.8622 33.8334C38.8648 33.8308 38.8674 33.8282 38.87 33.8243L38.8738 33.3941C38.8299 33.3941 38.7769 33.3941 38.7136 33.3954C38.6503 33.3967 38.587 33.3967 38.5211 33.398C38.4552 33.3993 38.3945 33.4006 38.3377 33.4019C38.2808 33.4044 38.2369 33.4057 38.2046 33.407C38.2033 33.4212 38.202 33.4316 38.202 33.438C38.202 33.4445 38.202 33.4484 38.202 33.4522L38.2124 33.8566C38.2408 33.8566 38.2821 33.8566 38.3364 33.8553C38.3893 33.854 38.4475 33.854 38.5082 33.8527C38.5689 33.8527 38.6297 33.8502 38.6891 33.8476C38.7511 33.845 38.8028 33.8424 38.8441 33.8385Z" fill="#373737"/>
<path d="M40.4772 33.4832C40.4462 33.5388 40.4152 33.5905 40.3816 33.6383C40.348 33.6861 40.3144 33.7326 40.2795 33.7765C40.2963 33.7907 40.3183 33.8075 40.3441 33.8269C40.3699 33.8463 40.3906 33.8605 40.4048 33.8695C40.4139 33.8747 40.4242 33.8799 40.4371 33.885C40.4487 33.8902 40.4604 33.8941 40.4707 33.8967C40.4927 33.9005 40.5108 33.9096 40.5237 33.9225C40.5456 33.9471 40.5663 33.9729 40.5831 33.9974C40.5999 34.022 40.6141 34.0427 40.6245 34.0595C40.6309 34.0711 40.6361 34.0827 40.6387 34.0918C40.6412 34.1008 40.6451 34.1111 40.6477 34.1189C40.6542 34.1408 40.6438 34.1564 40.6154 34.1628C40.6012 34.1641 40.5728 34.146 40.5327 34.1073L40.2317 33.8321C40.1451 33.9316 40.0534 34.0181 39.9578 34.0918C39.8622 34.1654 39.7627 34.2326 39.6594 34.292C39.6451 34.2998 39.6322 34.3036 39.6219 34.3023C39.6116 34.3011 39.6038 34.2972 39.5999 34.2907C39.596 34.2843 39.596 34.2752 39.5986 34.2649C39.6025 34.2545 39.6103 34.2455 39.6232 34.2377C39.7575 34.146 39.8867 34.0362 40.0095 33.9057C40.1322 33.7752 40.2356 33.6254 40.3208 33.4548C40.2989 33.4561 40.273 33.4574 40.2459 33.4574C40.2188 33.4587 40.1904 33.4587 40.1619 33.46C40.1335 33.4613 40.1051 33.4626 40.0767 33.4639C40.0482 33.4651 40.0237 33.4677 40.0017 33.4703C39.9746 33.4729 39.95 33.4781 39.9268 33.4845C39.9035 33.491 39.8816 33.5013 39.8609 33.5142C39.8454 33.5104 39.8273 33.5052 39.8092 33.4974C39.7911 33.4897 39.7731 33.4819 39.755 33.4742C39.7382 33.4664 39.7227 33.4574 39.7097 33.4496C39.6968 33.4406 39.6878 33.4341 39.6826 33.429C39.6749 33.4212 39.671 33.4122 39.671 33.4031C39.671 33.385 39.6865 33.3786 39.7162 33.385C39.7472 33.3902 39.7756 33.3928 39.8028 33.3941C39.8299 33.3941 39.857 33.3954 39.8842 33.3954C39.9074 33.3954 39.9371 33.3954 39.9707 33.3941C40.0043 33.3928 40.0405 33.3915 40.078 33.3902C40.1154 33.3876 40.1529 33.3863 40.1916 33.385C40.2304 33.3838 40.2653 33.3812 40.2963 33.3786C40.317 33.3773 40.3363 33.3734 40.3519 33.367C40.3674 33.3605 40.379 33.3553 40.3854 33.3515C40.3971 33.3515 40.4126 33.3528 40.432 33.354C40.4513 33.3553 40.4694 33.3579 40.4888 33.3605C40.5121 33.3644 40.525 33.3747 40.525 33.3902C40.525 33.4044 40.5224 33.4161 40.5185 33.4251C40.5133 33.4341 40.5095 33.4419 40.5043 33.4496C40.5004 33.4561 40.4953 33.4626 40.4901 33.4677C40.4836 33.4703 40.4798 33.4768 40.4772 33.4832ZM40.9785 34.4884C40.9772 34.5052 40.9759 34.5259 40.9759 34.5478C40.9759 34.5698 40.9746 34.593 40.9746 34.6176C40.9733 34.6408 40.9733 34.6654 40.972 34.6874C40.9707 34.7093 40.9707 34.7326 40.9694 34.7519C40.9694 34.7662 40.9681 34.7881 40.9642 34.8153C40.9604 34.8424 40.9565 34.8708 40.95 34.8979C40.9436 34.9251 40.9358 34.9483 40.9255 34.969C40.9152 34.9897 40.9022 35 40.8854 35C40.8686 35 40.8557 34.9819 40.8493 34.9457C40.8415 34.9096 40.8389 34.8476 40.8389 34.761V34.4005C40.817 34.4005 40.7808 34.4005 40.7304 34.4018C40.6813 34.4018 40.6283 34.4044 40.5715 34.4057C40.5159 34.4083 40.4617 34.4096 40.4113 34.4122C40.3609 34.4147 40.3221 34.416 40.2976 34.4186C40.2433 34.4238 40.1929 34.4406 40.1464 34.4677C40.1283 34.4638 40.109 34.4574 40.0896 34.4496C40.0702 34.4419 40.0508 34.4328 40.0327 34.4238C40.0146 34.4147 39.9991 34.4057 39.9836 34.3967C39.9694 34.3876 39.9591 34.3812 39.9539 34.376C39.9449 34.3682 39.9397 34.3592 39.9397 34.3501C39.9397 34.3321 39.9565 34.3256 39.9888 34.3321C40.0211 34.3372 40.0521 34.3398 40.0818 34.3411C40.1128 34.3424 40.1413 34.3424 40.171 34.3424C40.1955 34.3424 40.233 34.3424 40.2821 34.3411C40.3312 34.3411 40.3829 34.3398 40.4384 34.3385C40.494 34.3372 40.5482 34.3359 40.6025 34.3334C40.6555 34.3308 40.6981 34.3295 40.7304 34.3282C40.7537 34.3269 40.7782 34.323 40.8002 34.3166C40.8221 34.3101 40.8376 34.3036 40.8454 34.2985C40.8635 34.2972 40.8841 34.2972 40.9074 34.2985C40.9294 34.2998 40.9487 34.3023 40.963 34.3049C40.9862 34.3088 40.9991 34.3166 40.9991 34.3282C40.9991 34.3398 40.9991 34.3501 40.9978 34.3605C40.9953 34.3824 40.9914 34.4044 40.9875 34.4264C40.9836 34.4458 40.9797 34.4664 40.9785 34.4884ZM40.9849 33.3075V33.916C40.9849 33.9367 40.9849 33.9651 40.9836 34.0013C40.9836 34.0375 40.9797 34.0724 40.9746 34.106C40.9694 34.1408 40.9617 34.1706 40.95 34.1951C40.9384 34.2197 40.9229 34.2326 40.9009 34.2326C40.8699 34.2326 40.8557 34.177 40.8557 34.0646V33.345C40.8557 33.3217 40.8441 33.2998 40.8195 33.2791C40.795 33.2597 40.7588 33.2403 40.7097 33.2223C40.6994 33.2171 40.6903 33.2119 40.6826 33.2068C40.6748 33.2016 40.6723 33.1964 40.6723 33.19C40.6723 33.1835 40.6774 33.1758 40.6865 33.168C40.6968 33.1602 40.711 33.1564 40.7317 33.1564C40.7407 33.1564 40.7575 33.1577 40.7834 33.1602C40.8092 33.1628 40.835 33.1667 40.8635 33.1706C40.8919 33.1757 40.919 33.1796 40.9436 33.1848C40.9681 33.19 40.9849 33.1951 40.9927 33.199L40.9849 33.3075Z" fill="#373737"/>
<path d="M10.2803 27.7025L10.6007 28.4751C10.5852 28.488 10.5671 28.4983 10.5491 28.5087C10.5297 28.5177 10.5129 28.5293 10.4974 28.541C10.3682 28.3278 10.2416 28.1702 10.1162 28.0694C10.0245 27.997 9.9302 27.9454 9.83072 27.9144C9.73124 27.8834 9.62917 27.8678 9.52194 27.8678H9.06975C9.02324 27.8678 8.97414 27.8704 8.92634 27.8743C8.87724 27.8795 8.83978 27.8859 8.81136 27.895C8.73642 27.9299 8.69766 28.0087 8.69766 28.1301V29.1895H9.39016C9.5439 29.1895 9.64855 29.1572 9.7054 29.09C9.77775 29.0087 9.81392 28.8588 9.81392 28.643H9.95087V29.957H9.81392C9.81392 29.7115 9.77775 29.5487 9.7054 29.4673C9.64597 29.3988 9.54002 29.3639 9.39016 29.3639H8.69766V30.5267C8.69766 30.6559 8.72092 30.736 8.76872 30.767C8.81911 30.8084 8.95089 30.8277 9.16406 30.8277V30.9828H8.00129V30.8316C8.17054 30.8316 8.28036 30.8109 8.33074 30.7709C8.37467 30.7334 8.39664 30.6533 8.39664 30.5306V28.1288C8.39664 28.041 8.37726 27.9777 8.33979 27.9402C8.28294 27.8833 8.17054 27.8549 8 27.8549V27.6999H10.2803V27.7025Z" fill="#373737"/>
<path d="M14.2312 30.9854H13.0581V30.8252C13.199 30.8252 13.3023 30.8161 13.3669 30.7967C13.4315 30.7774 13.4716 30.7502 13.4871 30.7115C13.4897 30.7089 13.4922 30.6985 13.4922 30.683C13.4922 30.6675 13.4897 30.6507 13.4832 30.6339C13.4767 30.6171 13.4703 30.5991 13.4638 30.5797C13.4509 30.5551 13.4393 30.528 13.4289 30.5022C13.4173 30.475 13.4057 30.4479 13.394 30.4195C13.3592 30.3161 13.323 30.2141 13.2855 30.1133C13.2481 30.0125 13.2119 29.913 13.177 29.8123H11.8863C11.8489 29.9259 11.8101 30.0383 11.7713 30.152C11.7326 30.2657 11.6938 30.3794 11.6563 30.4957C11.6408 30.5267 11.6305 30.5564 11.6253 30.5823C11.6202 30.6094 11.6189 30.6339 11.6189 30.6546C11.6189 30.6921 11.6266 30.7192 11.6421 30.7347C11.6706 30.7941 11.7985 30.8239 12.0284 30.8239V30.9841H11.0155V30.8239C11.0969 30.8239 11.1641 30.8135 11.2158 30.7929C11.2675 30.7722 11.3153 30.736 11.3592 30.6817C11.3812 30.6533 11.4018 30.6171 11.4199 30.5732C11.4393 30.5293 11.4587 30.4802 11.4806 30.4272C11.5 30.3743 11.5336 30.2786 11.5814 30.1404C11.6305 30.0022 11.6861 29.842 11.7481 29.6598C11.8114 29.4776 11.8786 29.2864 11.9509 29.0849C12.0233 28.8833 12.0905 28.6921 12.1538 28.5099C12.2171 28.3278 12.2726 28.1676 12.3204 28.0293C12.3695 27.8911 12.4031 27.7955 12.4212 27.7425C12.4625 27.7206 12.5026 27.6999 12.5439 27.6792C12.5853 27.6585 12.6253 27.6379 12.6667 27.6159C12.8553 28.1056 13.04 28.59 13.2222 29.0694C13.4044 29.5487 13.5891 30.0319 13.7778 30.5228C13.8191 30.6301 13.8669 30.7063 13.9238 30.7541C13.9896 30.8006 14.0917 30.8252 14.23 30.8252V30.9854H14.2312ZM13.115 29.6236C13.0142 29.3562 12.9134 29.09 12.8114 28.8226C12.7093 28.5552 12.6085 28.289 12.5078 28.0216C12.4134 28.289 12.3204 28.5552 12.2274 28.8226C12.1344 29.09 12.0414 29.3562 11.947 29.6236H13.115Z" fill="#373737"/>
<path d="M17.3254 30.1701L16.9998 30.9892H14.6872V30.8342C14.8474 30.8342 14.9637 30.8109 15.036 30.7631C15.089 30.7256 15.1161 30.6597 15.1161 30.5654V28.121C15.1161 28.0177 15.0916 27.9466 15.0412 27.9091C14.9818 27.8678 14.8642 27.8484 14.6885 27.8484V27.6973H15.8797V27.8484C15.673 27.8484 15.5438 27.8691 15.4934 27.9091C15.443 27.9505 15.4185 28.0203 15.4185 28.121V30.5706C15.4185 30.6649 15.4391 30.7308 15.4792 30.7683C15.5257 30.8057 15.6045 30.8251 15.7143 30.8251H16.2376C16.4507 30.8251 16.6303 30.767 16.775 30.6507C16.9262 30.5435 17.0696 30.3639 17.2078 30.1094L17.3254 30.1701Z" fill="#373737"/>
<path d="M20.4999 30.1701L20.1743 30.9892H17.8617V30.8342C18.0219 30.8342 18.1381 30.8109 18.2105 30.7631C18.2635 30.7256 18.2906 30.6597 18.2906 30.5654V28.121C18.2906 28.0177 18.266 27.9466 18.2157 27.9091C18.1562 27.8678 18.0387 27.8484 17.863 27.8484V27.6973H19.0541V27.8484C18.8474 27.8484 18.7182 27.8691 18.6679 27.9091C18.6175 27.9505 18.5929 28.0203 18.5929 28.121V30.5706C18.5929 30.6649 18.6136 30.7308 18.6536 30.7683C18.7002 30.8057 18.779 30.8251 18.8888 30.8251H19.412C19.6252 30.8251 19.8048 30.767 19.9495 30.6507C20.1006 30.5435 20.2441 30.3639 20.3823 30.1094L20.4999 30.1701Z" fill="#373737"/>
<path d="M22.2286 30.9853H21.1175V30.8341C21.2712 30.8341 21.3784 30.8135 21.4379 30.7734C21.4908 30.7359 21.518 30.6726 21.518 30.5848V28.1313C21.518 28.0306 21.4908 27.9582 21.4379 27.9143C21.3746 27.8704 21.2686 27.8484 21.1175 27.8484V27.7024H22.2286V27.8484C22.1717 27.8484 22.1226 27.8523 22.08 27.86C22.0373 27.8678 22.0012 27.8768 21.9689 27.8859C21.9094 27.9078 21.8694 27.9388 21.8513 27.9776C21.8319 28.0163 21.8229 28.068 21.8229 28.13V30.5835C21.8229 30.6778 21.8461 30.7411 21.8939 30.7721C21.9572 30.8135 22.0683 30.8328 22.2286 30.8328V30.9853Z" fill="#373737"/>
<path d="M26.0061 27.8485C25.9247 27.8485 25.8575 27.8536 25.8059 27.8627C25.7542 27.8717 25.7141 27.8859 25.6857 27.9027C25.6573 27.9195 25.6392 27.9402 25.6289 27.9621C25.6198 27.9841 25.6146 28.0087 25.6146 28.0371C25.6121 28.0397 25.6095 28.0578 25.6095 28.0888V30.9996H25.4777C25.1289 30.5254 24.7852 30.0564 24.4467 29.5913C24.1082 29.1262 23.7671 28.6572 23.4248 28.1831V30.5525C23.4248 30.6598 23.4493 30.7334 23.4997 30.7735C23.5527 30.8148 23.656 30.8342 23.8111 30.8342V30.9854H22.846V30.8342C22.9907 30.8342 23.094 30.8122 23.1573 30.7683C23.2103 30.7218 23.2374 30.6494 23.2374 30.5513V28.0978C23.2374 28.019 23.2103 27.9609 23.1547 27.9208C23.0992 27.882 22.9971 27.8614 22.846 27.8614V27.7012H23.4441C23.7775 28.1469 24.1069 28.5875 24.4351 29.0229C24.7632 29.4582 25.094 29.8975 25.426 30.3445V28.0978C25.426 28.0035 25.3976 27.9389 25.3408 27.904C25.2774 27.8665 25.1793 27.8472 25.0436 27.8472V27.7012H26.0048V27.8485H26.0061Z" fill="#373737"/>
<path d="M30.1973 30.9853H29.0759V30.8342C29.2542 30.8342 29.3744 30.8096 29.4338 30.7592C29.4842 30.7127 29.5087 30.643 29.5087 30.5525V28.0048C29.3111 28.5138 29.1173 29.0151 28.9273 29.5099C28.7374 30.0047 28.5462 30.506 28.355 31.015H28.209C28.0204 30.5163 27.8369 30.0202 27.6586 29.5293C27.479 29.0383 27.2956 28.5409 27.107 28.0383V30.5538C27.107 30.6572 27.1341 30.7308 27.1871 30.7747C27.2504 30.8161 27.3576 30.8355 27.5113 30.8355V30.9866H26.5462V30.8355C26.7 30.8355 26.8008 30.8174 26.8499 30.7812C26.899 30.745 26.9222 30.6882 26.9222 30.6094V28.1133C26.9222 28.0228 26.8977 27.9582 26.8473 27.9208C26.7969 27.8794 26.6987 27.8601 26.5501 27.8601V27.705H27.3318C27.501 28.1701 27.6716 28.6288 27.8434 29.081C28.0139 29.5332 28.1845 29.9931 28.355 30.4608C28.5243 29.9931 28.6948 29.5332 28.8666 29.081C29.0372 28.6288 29.2077 28.1701 29.3782 27.705H30.1973V27.8601C30.0152 27.8601 29.9041 27.8807 29.8627 27.9208C29.8278 27.9647 29.811 28.0241 29.811 28.1004V30.5538C29.811 30.6507 29.8317 30.7205 29.8718 30.7605C29.9312 30.8109 30.0397 30.8355 30.1973 30.8355V30.9853Z" fill="#373737"/>
<path d="M33.9129 27.8574C33.7462 27.8574 33.6338 27.8781 33.5731 27.9182C33.5266 27.953 33.502 28.015 33.502 28.1068V29.9582C33.502 30.2631 33.4232 30.5124 33.2669 30.7075C33.0653 30.9465 32.7411 31.0654 32.2915 31.0654C31.9555 31.0654 31.6817 30.9685 31.4724 30.7734C31.2488 30.5602 31.1377 30.2721 31.1377 29.9117V28.1119C31.1377 28.0176 31.1093 27.953 31.0525 27.9194C30.993 27.8781 30.8755 27.8587 30.6998 27.8587V27.7037H31.8767V27.8587C31.6972 27.8587 31.5783 27.8794 31.5189 27.9194C31.4711 27.9543 31.4478 28.0189 31.4478 28.1119V29.9388C31.4478 30.2334 31.5344 30.4633 31.7062 30.6261C31.8754 30.7863 32.108 30.8664 32.4039 30.8664C32.6261 30.8664 32.8134 30.8057 32.9646 30.683C33.1907 30.5137 33.3031 30.267 33.3031 29.944V28.1068C33.3031 28.0189 33.2759 27.9556 33.223 27.9182C33.1635 27.8768 33.0498 27.8574 32.8832 27.8574V27.7024H33.9103V27.8574H33.9129Z" fill="#373737"/>
<path d="M36.8098 30.1417C36.8098 30.4311 36.7129 30.6546 36.5178 30.8148C36.333 30.9815 36.0811 31.0642 35.7645 31.0642C35.6573 31.0642 35.541 31.0512 35.4157 31.0267C35.2904 31.0022 35.1728 30.966 35.063 30.9182C35.01 30.9337 34.9571 30.9518 34.9054 30.9699C34.8537 30.9892 34.8059 31.0112 34.762 31.0357C34.7051 30.8846 34.6483 30.7373 34.5901 30.5926C34.532 30.4479 34.4752 30.3006 34.4183 30.1495C34.4403 30.1365 34.461 30.1249 34.479 30.1146C34.4984 30.1042 34.5178 30.0939 34.5398 30.0836C34.6935 30.3316 34.8434 30.5086 34.9868 30.6159C35.0333 30.6533 35.0901 30.6882 35.1535 30.7192C35.218 30.7502 35.2839 30.7786 35.3537 30.8019C35.4235 30.8252 35.4919 30.8432 35.5604 30.8562C35.6289 30.8691 35.6922 30.8755 35.749 30.8755C35.8679 30.8755 35.9751 30.86 36.0695 30.829C36.1638 30.798 36.2426 30.7541 36.3046 30.6973C36.4364 30.5745 36.5023 30.413 36.5023 30.2128C36.5023 30.1378 36.4855 30.0629 36.4506 29.9893C36.4157 29.9156 36.3705 29.8549 36.3136 29.8084C36.1883 29.7076 35.9416 29.5952 35.5746 29.4686C35.2826 29.3652 35.0514 29.2438 34.8821 29.1055C34.656 28.9324 34.5436 28.7231 34.5436 28.4751C34.5436 28.2205 34.6341 28.0164 34.8162 27.8627C34.9919 27.7089 35.2206 27.6314 35.5036 27.6314C35.6379 27.6314 35.771 27.6508 35.8989 27.6883C35.9338 27.7012 35.9674 27.7128 35.9997 27.7257C36.0333 27.7386 36.063 27.7503 36.0914 27.7632L36.3744 27.6689C36.4312 27.8136 36.4881 27.9557 36.5436 28.0978C36.6005 28.2386 36.6573 28.382 36.7129 28.5267C36.678 28.5422 36.6431 28.5603 36.6095 28.5784C36.4777 28.3523 36.3266 28.1727 36.1573 28.041C35.9532 27.8898 35.7335 27.8149 35.4984 27.8149C35.417 27.8149 35.3408 27.8265 35.2723 27.8498C35.2025 27.873 35.1405 27.904 35.0837 27.9415C35.0049 27.9945 34.9441 28.0629 34.9002 28.1443C34.8563 28.2257 34.8343 28.3213 34.8343 28.4311C34.8343 28.6107 34.9274 28.7593 35.1121 28.8782C35.2064 28.935 35.2969 28.9828 35.3847 29.0216C35.4726 29.0603 35.585 29.103 35.7232 29.1469C35.9144 29.2102 36.0759 29.2735 36.2077 29.3394C36.3395 29.4053 36.4441 29.4699 36.5229 29.5319C36.7154 29.6856 36.8098 29.8872 36.8098 30.1417Z" fill="#373737"/>
<path d="M38.6095 30.9853H37.4984V30.8341C37.6521 30.8341 37.7594 30.8135 37.8188 30.7734C37.8718 30.7359 37.8989 30.6726 37.8989 30.5848V28.1313C37.8989 28.0306 37.8718 27.9582 37.8188 27.9143C37.7555 27.8704 37.6495 27.8484 37.4984 27.8484V27.7024H38.6095V27.8484C38.5526 27.8484 38.5035 27.8523 38.4609 27.86C38.4183 27.8678 38.3821 27.8768 38.3498 27.8859C38.2903 27.9078 38.2516 27.9388 38.2322 27.9776C38.2128 28.0163 38.2038 28.068 38.2038 28.13V30.5835C38.2038 30.6778 38.227 30.7411 38.2748 30.7721C38.3381 30.8135 38.4493 30.8328 38.6095 30.8328V30.9853Z" fill="#373737"/>
<path d="M41.8403 30.015C41.8623 30.0241 41.8856 30.0357 41.9088 30.0473C41.9321 30.0602 41.9553 30.0706 41.9773 30.0809C41.8584 30.3987 41.6931 30.6339 41.4825 30.7876C41.259 30.9672 40.9993 31.0563 40.7008 31.0563C40.4838 31.0563 40.2874 31.0137 40.1117 30.9297C39.936 30.8445 39.7822 30.7204 39.6505 30.5576C39.4089 30.2347 39.2874 29.8341 39.2874 29.3561C39.2874 28.869 39.4076 28.4634 39.6505 28.1365C39.905 27.8006 40.2318 27.6326 40.6298 27.6326C40.8804 27.6326 41.0962 27.6791 41.2757 27.7735C41.3197 27.7541 41.3649 27.736 41.4127 27.7192C41.4592 27.7024 41.5057 27.6856 41.5497 27.6701C41.6091 27.8148 41.6685 27.9569 41.7267 28.099C41.7848 28.2399 41.8442 28.3833 41.9037 28.528C41.8817 28.537 41.861 28.5473 41.8429 28.559C41.8235 28.5706 41.8042 28.5796 41.7822 28.59C41.653 28.3794 41.5122 28.2101 41.3584 28.0809C41.1918 27.9466 41.0161 27.8678 40.8313 27.8458C40.8003 27.8393 40.768 27.8368 40.737 27.8368C40.706 27.8368 40.6724 27.8368 40.6375 27.8368C40.4269 27.8458 40.2383 27.9337 40.0716 28.1003C40.0148 28.1572 39.9631 28.2179 39.9166 28.2838C39.7215 28.5628 39.6246 28.9117 39.6246 29.329C39.6246 29.7372 39.728 30.0783 39.936 30.3509C39.9644 30.3858 39.9928 30.4181 40.0225 30.4504C40.0523 30.4814 40.082 30.5098 40.1091 30.5357C40.206 30.6326 40.3119 30.7036 40.4269 30.7476C40.5419 30.7915 40.6647 30.8135 40.7964 30.8135C41.0006 30.8135 41.1956 30.7398 41.3804 30.5925C41.5768 30.4297 41.7305 30.2372 41.8403 30.015Z" fill="#373737"/>
<path d="M25.1045 21.093C24.9973 21.093 24.9107 21.0064 24.9107 20.8992V16.5427C24.9107 16.4354 24.9973 16.3489 25.1045 16.3489C25.2118 16.3489 25.2983 16.4354 25.2983 16.5427V20.8992C25.2983 21.0064 25.2118 21.093 25.1045 21.093Z" fill="#373737"/>
<path d="M23.9817 20.1951C23.8744 20.1951 23.7879 20.1085 23.7879 20.0013V16.0931C23.7879 15.9859 23.8744 15.8993 23.9817 15.8993C24.0889 15.8993 24.1754 15.9859 24.1754 16.0931V20.0013C24.1754 20.1085 24.0889 20.1951 23.9817 20.1951Z" fill="#373737"/>
<path d="M22.8589 19.2958C22.7517 19.2958 22.6651 19.2092 22.6651 19.102V15.1938C22.6651 15.0866 22.7517 15 22.8589 15C22.9662 15 23.0527 15.0866 23.0527 15.1938V19.102C23.0527 19.2092 22.9662 19.2958 22.8589 19.2958Z" fill="#373737"/>
<path d="M21.7378 23.7905C21.6306 23.7905 21.544 23.704 21.544 23.5968V15.1938C21.544 15.0866 21.6306 15 21.7378 15C21.845 15 21.9316 15.0866 21.9316 15.1938V23.5968C21.9316 23.704 21.845 23.7905 21.7378 23.7905Z" fill="#373737"/>
<path d="M20.6149 23.341C20.5077 23.341 20.4211 23.2545 20.4211 23.1472V16.0931C20.4211 15.9859 20.5077 15.8993 20.6149 15.8993C20.7222 15.8993 20.8087 15.9859 20.8087 16.0931V23.1472C20.8087 23.2545 20.7222 23.341 20.6149 23.341Z" fill="#373737"/>
<path d="M19.4933 22.4404C19.3861 22.4404 19.2995 22.3538 19.2995 22.2466V16.9934C19.2995 16.8862 19.3861 16.7996 19.4933 16.7996C19.6005 16.7996 19.6871 16.8862 19.6871 16.9934V22.2466C19.6871 22.3538 19.6005 22.4404 19.4933 22.4404Z" fill="#373737"/>
<path d="M18.3708 21.3319C18.2635 21.3319 18.177 21.2454 18.177 21.1382V18.7919C18.177 18.6847 18.2635 18.5981 18.3708 18.5981C18.478 18.5981 18.5645 18.6847 18.5645 18.7919V21.1382C18.5645 21.2454 18.478 21.3319 18.3708 21.3319Z" fill="#373737"/>
<path d="M25.169 21.093C25.0618 21.093 24.9753 21.0064 24.9753 20.8992V16.5427C24.9753 16.4354 25.0618 16.3489 25.169 16.3489C25.2763 16.3489 25.3628 16.4354 25.3628 16.5427V20.8992C25.3628 21.0064 25.2763 21.093 25.169 21.093Z" fill="#373737"/>
<path d="M26.2919 20.1951C26.1847 20.1951 26.0981 20.1085 26.0981 20.0013V16.0931C26.0981 15.9859 26.1847 15.8993 26.2919 15.8993C26.3992 15.8993 26.4857 15.9859 26.4857 16.0931V20.0013C26.4857 20.1085 26.3979 20.1951 26.2919 20.1951Z" fill="#373737"/>
<path d="M27.413 19.2958C27.3058 19.2958 27.2193 19.2092 27.2193 19.102V15.1938C27.2193 15.0866 27.3058 15 27.413 15C27.5203 15 27.6068 15.0866 27.6068 15.1938V19.102C27.6068 19.2092 27.5203 19.2958 27.413 19.2958Z" fill="#373737"/>
<path d="M28.5361 23.7905C28.4289 23.7905 28.3423 23.704 28.3423 23.5968V15.1938C28.3423 15.0866 28.4289 15 28.5361 15C28.6433 15 28.7299 15.0866 28.7299 15.1938V23.5968C28.7299 23.704 28.6433 23.7905 28.5361 23.7905Z" fill="#373737"/>
<path d="M29.6587 23.341C29.5514 23.341 29.4649 23.2545 29.4649 23.1472V16.0931C29.4649 15.9859 29.5514 15.8993 29.6587 15.8993C29.7659 15.8993 29.8524 15.9859 29.8524 16.0931V23.1472C29.8524 23.2545 29.7659 23.341 29.6587 23.341Z" fill="#373737"/>
<path d="M30.7815 22.4404C30.6743 22.4404 30.5877 22.3538 30.5877 22.2466V16.9934C30.5877 16.8862 30.6743 16.7996 30.7815 16.7996C30.8888 16.7996 30.9753 16.8862 30.9753 16.9934V22.2466C30.9753 22.3538 30.8875 22.4404 30.7815 22.4404Z" fill="#373737"/>
<path d="M31.9017 21.3319C31.7945 21.3319 31.7079 21.2454 31.7079 21.1382V18.7919C31.7079 18.6847 31.7945 18.5981 31.9017 18.5981C32.0089 18.5981 32.0955 18.6847 32.0955 18.7919V21.1382C32.0955 21.2454 32.0089 21.3319 31.9017 21.3319Z" fill="#373737"/>
</g>
</svg>
