<svg width="96" height="39" viewBox="0 0 96 39" fill="none" xmlns="http://www.w3.org/2000/svg">
<rect y="9" width="85" height="30" rx="15" fill="#565ADF"/>
<path d="M19.088 22.824H21.056C21.984 22.824 22.688 22.6427 23.168 22.28C23.6587 21.9067 23.904 21.336 23.904 20.568C23.904 19.7893 23.6587 19.2453 23.168 18.936C22.688 18.6267 21.984 18.472 21.056 18.472H19.088V22.824ZM24.048 29L21.2 24.024H19.088V29H17.6V17.272H21.28C21.8773 17.272 22.4267 17.3307 22.928 17.448C23.4293 17.5547 23.8613 17.7413 24.224 18.008C24.5867 18.264 24.8693 18.6053 25.072 19.032C25.2747 19.448 25.376 19.96 25.376 20.568C25.376 21.4853 25.1307 22.216 24.64 22.76C24.16 23.304 23.52 23.672 22.72 23.864L25.728 29H24.048ZM31.1323 29.208C30.5563 29.208 30.0123 29.1067 29.5003 28.904C28.9989 28.7013 28.5616 28.408 28.1883 28.024C27.8149 27.6293 27.5163 27.1493 27.2923 26.584C27.0789 26.0187 26.9723 25.3787 26.9723 24.664C26.9723 23.96 27.0789 23.3253 27.2923 22.76C27.5163 22.1947 27.8096 21.7147 28.1723 21.32C28.5349 20.9253 28.9509 20.6213 29.4203 20.408C29.9003 20.1947 30.3909 20.088 30.8923 20.088C31.4469 20.088 31.9376 20.184 32.3643 20.376C32.7909 20.568 33.1483 20.8453 33.4363 21.208C33.7349 21.56 33.9589 21.9867 34.1083 22.488C34.2683 22.9893 34.3483 23.5493 34.3483 24.168C34.3483 24.328 34.3429 24.4827 34.3323 24.632C34.3216 24.7707 34.3056 24.8933 34.2843 25H28.4283C28.4816 25.9387 28.7643 26.68 29.2763 27.224C29.7989 27.768 30.4763 28.04 31.3083 28.04C31.7349 28.04 32.1243 27.9813 32.4763 27.864C32.8283 27.736 33.1643 27.5653 33.4843 27.352L34.0123 28.312C33.6283 28.5573 33.2016 28.7707 32.7323 28.952C32.2629 29.1227 31.7296 29.208 31.1323 29.208ZM33.0683 23.96C33.0683 23.0747 32.8763 22.4027 32.4923 21.944C32.1189 21.4853 31.5909 21.256 30.9083 21.256C30.5989 21.256 30.3003 21.32 30.0123 21.448C29.7349 21.5653 29.4843 21.7413 29.2603 21.976C29.0363 22.2 28.8496 22.4827 28.7003 22.824C28.5509 23.1547 28.4549 23.5333 28.4123 23.96H33.0683ZM35.2236 20.312H36.7436L38.3756 25.256C38.5143 25.6827 38.6476 26.1147 38.7756 26.552C38.9143 26.9893 39.053 27.4107 39.1916 27.816H39.2556C39.3836 27.4107 39.517 26.9893 39.6556 26.552C39.7943 26.1147 39.9276 25.6827 40.0556 25.256L41.7036 20.312H43.1436L40.0556 29H38.3596L35.2236 20.312ZM44.8314 20.312H46.2874V29H44.8314V20.312ZM45.5674 18.52C45.2794 18.52 45.0394 18.4347 44.8474 18.264C44.6554 18.0827 44.5594 17.8533 44.5594 17.576C44.5594 17.2773 44.6554 17.048 44.8474 16.888C45.0394 16.7173 45.2794 16.632 45.5674 16.632C45.8554 16.632 46.0954 16.7173 46.2874 16.888C46.4794 17.048 46.5754 17.2773 46.5754 17.576C46.5754 17.8533 46.4794 18.0827 46.2874 18.264C46.0954 18.4347 45.8554 18.52 45.5674 18.52ZM52.7416 29.208C52.1656 29.208 51.6216 29.1067 51.1096 28.904C50.6083 28.7013 50.171 28.408 49.7976 28.024C49.4243 27.6293 49.1256 27.1493 48.9016 26.584C48.6883 26.0187 48.5816 25.3787 48.5816 24.664C48.5816 23.96 48.6883 23.3253 48.9016 22.76C49.1256 22.1947 49.419 21.7147 49.7816 21.32C50.1443 20.9253 50.5603 20.6213 51.0296 20.408C51.5096 20.1947 52.0003 20.088 52.5016 20.088C53.0563 20.088 53.547 20.184 53.9736 20.376C54.4003 20.568 54.7576 20.8453 55.0456 21.208C55.3443 21.56 55.5683 21.9867 55.7176 22.488C55.8776 22.9893 55.9576 23.5493 55.9576 24.168C55.9576 24.328 55.9523 24.4827 55.9416 24.632C55.931 24.7707 55.915 24.8933 55.8936 25H50.0376C50.091 25.9387 50.3736 26.68 50.8856 27.224C51.4083 27.768 52.0856 28.04 52.9176 28.04C53.3443 28.04 53.7336 27.9813 54.0856 27.864C54.4376 27.736 54.7736 27.5653 55.0936 27.352L55.6216 28.312C55.2376 28.5573 54.811 28.7707 54.3416 28.952C53.8723 29.1227 53.339 29.208 52.7416 29.208ZM54.6776 23.96C54.6776 23.0747 54.4856 22.4027 54.1016 21.944C53.7283 21.4853 53.2003 21.256 52.5176 21.256C52.2083 21.256 51.9096 21.32 51.6216 21.448C51.3443 21.5653 51.0936 21.7413 50.8696 21.976C50.6456 22.2 50.459 22.4827 50.3096 22.824C50.1603 23.1547 50.0643 23.5333 50.0216 23.96H54.6776ZM57.057 20.312H58.545L59.841 25.336C59.9263 25.752 60.0117 26.1627 60.097 26.568C60.1823 26.9627 60.2677 27.3627 60.353 27.768H60.433C60.529 27.3627 60.6197 26.9573 60.705 26.552C60.801 26.1467 60.9077 25.7413 61.025 25.336L62.369 20.312H63.793L65.153 25.336C65.2597 25.752 65.361 26.1627 65.457 26.568C65.553 26.9627 65.6543 27.3627 65.761 27.768H65.825C65.921 27.3627 66.0117 26.9627 66.097 26.568C66.1823 26.1627 66.273 25.752 66.369 25.336L67.649 20.312H69.025L66.689 29H64.929L63.665 24.312C63.5477 23.9067 63.4463 23.5013 63.361 23.096C63.2757 22.6907 63.1797 22.264 63.073 21.816H62.993C62.897 22.264 62.801 22.696 62.705 23.112C62.6197 23.5173 62.5183 23.928 62.401 24.344L61.185 29H59.473L57.057 20.312Z" fill="white"/>
<g filter="url(#filter0_d)">
<path d="M90.1781 1.61061L88.8898 0.335646C88.4512 -0.0965004 87.7349 -0.0991734 87.2964 0.330289L85.6621 1.9354L87.7512 4.00219L90.1781 1.61061Z" fill="#60CDCD"/>
<path d="M90.1769 1.60892L87.75 4.00052L89.8718 6.09954L91.5061 4.49708C91.9473 4.06493 91.9473 3.359 91.5088 2.92685L90.1769 1.60892Z" fill="#35A4A4"/>
<path d="M86.502 5.23126L88.6102 7.3088L86.8969 8.99443L86.9132 9.00784L89.8713 6.1036L87.7494 4.00462L86.502 5.23126Z" fill="#1A2A42"/>
<path d="M87.7503 4.00284L85.6611 1.93604L84.4082 3.16537L86.5028 5.22948L87.7503 4.00284Z" fill="#223757"/>
<path d="M82.7038 4.84169L84.4088 3.16677L84.3979 3.15604L71.2422 16.1205L73.3476 18.1953L84.7956 6.91385L82.7038 4.84169Z" fill="white"/>
<path d="M84.795 6.91467L86.5027 5.23169L84.4082 3.16757L82.7031 4.8425L84.795 6.91467Z" fill="white"/>
<path d="M86.5035 5.23038L84.7957 6.91334L73.3477 18.1948L75.4559 20.2724L86.8984 8.99356L88.6117 7.30792L86.5035 5.23038Z" fill="#E0E0E0"/>
<path d="M71.3019 20.215L73.3474 18.1965L73.342 18.1911L71.2283 16.1082L70.6155 18.7951L70.4766 19.4017L71.2937 20.2069L71.3019 20.215Z" fill="#223757"/>
<path d="M71.3005 20.2145L72.1121 21.0144L70.0176 21.4788L72.725 20.8775L75.4542 20.2736L73.346 18.196L71.3005 20.2145Z" fill="#223757"/>
<path d="M72.1121 21.0126L71.3004 20.2127L70.0176 21.4769L72.1121 21.0126Z" fill="#35A4A4"/>
<path d="M71.3019 20.2139L71.2938 20.2059L70.4767 19.4006L70 21.4808L70.0191 21.4782L71.3019 20.2139Z" fill="#60CDCD"/>
</g>
<defs>
<filter id="filter0_d" x="66" y="0.00985718" width="29.8373" height="29.471" filterUnits="userSpaceOnUse" color-interpolation-filters="sRGB">
<feFlood flood-opacity="0" result="BackgroundImageFix"/>
<feColorMatrix in="SourceAlpha" type="matrix" values="0 0 0 0 0 0 0 0 0 0 0 0 0 0 0 0 0 0 127 0"/>
<feOffset dy="4"/>
<feGaussianBlur stdDeviation="2"/>
<feColorMatrix type="matrix" values="0 0 0 0 0 0 0 0 0 0 0 0 0 0 0 0 0 0 0.15 0"/>
<feBlend mode="normal" in2="BackgroundImageFix" result="effect1_dropShadow"/>
<feBlend mode="normal" in="SourceGraphic" in2="effect1_dropShadow" result="shape"/>
</filter>
</defs>
</svg>
