<svg width="50" height="50" viewBox="0 0 50 50" fill="none" xmlns="http://www.w3.org/2000/svg">
<circle cx="25" cy="25" r="25" fill="#F4F4F4"/>
<path fill-rule="evenodd" clip-rule="evenodd" d="M33.6216 24.0963H34.7779V19H33.6216V24.0963ZM11.4691 19.2115C11.2257 19.1424 10.9092 19.1058 10.5238 19.0691C10.3128 19.0325 10.1384 19.0325 9.89088 19.0325C9.67991 19 9.39996 19 9.12001 19H6V24.0963H9.12001C9.39996 24.0963 9.67991 24.0963 9.89088 24.0638C10.1384 24.0638 10.3128 24.0638 10.5238 24.0272C10.9092 24.0272 11.2257 23.958 11.4691 23.9214C12.2765 23.7099 12.9054 23.4293 13.3274 23.0429C13.4653 22.9005 13.6073 22.7257 13.7128 22.5874C13.8548 22.3067 13.9238 21.9569 13.9238 21.4973C13.8913 20.936 13.7128 20.4439 13.3274 20.09C12.9054 19.667 12.309 19.3864 11.4691 19.2115ZM10.6618 23.6042C10.6252 23.6408 10.5563 23.6408 10.5238 23.6408C10.3493 23.6733 10.1384 23.7099 9.89088 23.7465C9.46893 23.7832 8.94555 23.7832 8.34913 23.7832H7.15631V19.3173H8.34913C8.94555 19.3173 9.47299 19.3173 9.89088 19.3539C10.1384 19.3905 10.3453 19.423 10.5238 19.4596C10.5603 19.4596 10.6293 19.4962 10.6618 19.4962C11.5381 19.7403 12.1345 20.1266 12.451 20.7245C12.593 20.9726 12.662 21.2533 12.662 21.6031C12.6255 22.5833 11.9601 23.2544 10.6618 23.6042ZM25.211 21.599H28.3675V21.3184H25.211V19.3173H28.8219V19H24.0547V24.0963H28.8909V23.7791H25.211V21.599ZM43.2981 19V23.2178L39.8616 20.8994L37.1636 19.0732L37.0946 19H36.2872V24.0963H36.9891V19.9151L37.1636 20.0209L39.8616 21.8471L43.1926 24.0963H44V19H43.2981ZM19.4619 19H18.6545L14.9746 24.0963H15.6765L16.8328 22.4816H20.7927L21.5635 23.5717L21.949 24.0963H23.1742L21.5635 21.8837L19.4619 19ZM17.0073 22.1969L18.7965 19.7036L18.833 19.7403L20.6222 22.201H17.0073V22.1969ZM31.2035 23.2544C31.236 23.7832 31.0615 24.1329 30.7491 24.377C30.5381 24.5193 30.1892 24.6251 29.6983 24.7308H29.5603L30.1202 24.8732H30.2582C30.8546 24.804 31.3455 24.6617 31.6944 24.4502C32.0109 24.2753 32.2219 24.0638 32.3274 23.7832C32.3639 23.6408 32.3963 23.3968 32.3963 23.0104V19H31.2035V23.2544Z" fill="black" fill-opacity="0.9"/>
<path fill-rule="evenodd" clip-rule="evenodd" d="M13.8188 27.8545C13.9243 27.8179 13.9932 27.7487 14.0297 27.6796C14.0987 27.6104 14.0987 27.4681 14.0987 27.3257C14.0987 27.1142 14.0622 26.9393 13.9243 26.8336C13.8188 26.7278 13.6443 26.6912 13.3968 26.6912H12.204C12.204 26.7278 12.1675 26.7604 12.1675 26.797C12.1675 26.8336 12.1675 26.8336 12.204 26.8661C12.204 26.9027 12.2405 26.9027 12.273 26.9027H12.4839C12.5205 26.9393 12.5529 26.9719 12.5529 27.0085V28.8022C12.5529 28.8713 12.5164 28.9079 12.4474 28.9445C12.4474 28.9445 12.3785 28.9811 12.273 28.9811C12.2364 28.9445 12.204 28.9811 12.204 28.9811C12.1675 29.0177 12.1675 29.0503 12.1675 29.0503C12.1675 29.0869 12.204 29.1194 12.204 29.156C12.2405 29.156 12.273 29.1926 12.3095 29.156H13.5023C13.7457 29.156 13.9243 29.1194 14.0622 28.9811C14.2042 28.8754 14.2367 28.7005 14.2367 28.4524C14.2367 28.31 14.2001 28.1717 14.0987 28.066C14.0297 27.9602 13.9243 27.8911 13.8188 27.8545ZM12.8004 26.9068H13.4333C13.5753 26.9068 13.6443 26.9434 13.7133 26.9759C13.8188 27.0451 13.8553 27.1508 13.8553 27.3257C13.8553 27.4681 13.8188 27.5738 13.7498 27.643C13.6808 27.7487 13.5753 27.7813 13.4333 27.7813H12.8004V26.9068ZM13.8512 28.8754C13.7823 28.9445 13.6768 28.9811 13.4982 28.9811H12.7963V27.9602H13.3238C13.5672 27.9968 13.7457 28.0294 13.8512 28.0985C13.9567 28.1677 13.9892 28.2734 13.9892 28.4524C13.9932 28.6273 13.9567 28.7696 13.8512 28.8754ZM16.6913 28.5215C16.6913 28.4849 16.6913 28.4524 16.6548 28.4524C16.6183 28.4158 16.5858 28.4158 16.5493 28.4158C16.5128 28.4158 16.4803 28.4158 16.4438 28.4524C16.4073 28.4524 16.4073 28.489 16.4073 28.5215V28.5907C16.4073 28.6964 16.4438 28.7656 16.4438 28.8347C16.4438 28.9039 16.4073 28.9405 16.3748 28.9405H15.324V27.9562H15.7784C15.8149 27.9562 15.8149 27.9928 15.8149 28.0253C15.8149 28.0619 15.8514 28.0945 15.8514 28.1311C15.8149 28.1677 15.8149 28.2002 15.8514 28.2368C15.8514 28.2734 15.8514 28.2734 15.8514 28.306C15.8514 28.306 15.8514 28.3426 15.888 28.3426C15.9245 28.3792 15.9569 28.3792 15.9934 28.3792C16.03 28.3792 16.0624 28.3792 16.0624 28.3426C16.0989 28.306 16.0989 28.2734 16.0989 28.2368V27.5006C16.1354 27.464 16.0989 27.464 16.0624 27.4315C16.0624 27.4315 16.0259 27.3949 15.9934 27.3949C15.9245 27.3949 15.888 27.3949 15.888 27.4315C15.8514 27.4315 15.819 27.4681 15.819 27.4681V27.5372C15.819 27.6064 15.8555 27.643 15.8555 27.6796C15.819 27.7487 15.819 27.7853 15.7865 27.7853H15.3321V26.9068H16.3505C16.387 26.9068 16.387 26.9434 16.4195 27.0126C16.4195 27.0817 16.4195 27.1549 16.3829 27.2607C16.3829 27.2973 16.3829 27.3298 16.3829 27.3298C16.3829 27.3664 16.3829 27.3989 16.3829 27.3989C16.3829 27.4356 16.4195 27.4681 16.4519 27.4681C16.4519 27.5047 16.4884 27.5047 16.5574 27.5047C16.5939 27.5047 16.6264 27.4681 16.6264 27.4681C16.6629 27.4315 16.6953 27.3989 16.6953 27.3623C16.6588 27.2932 16.6588 27.1874 16.6588 27.1142C16.6588 27.0085 16.6588 26.9027 16.6953 26.797V26.6912C16.6588 26.6912 16.5899 26.6546 16.4519 26.6912H15.5755C15.2266 26.6912 14.9791 26.6912 14.8412 26.6546C14.8047 26.6546 14.7722 26.6546 14.7722 26.6912C14.7357 26.7278 14.7357 26.7604 14.7357 26.7604V26.8661C14.7722 26.8661 14.8047 26.9027 14.8412 26.9027C14.9102 26.9027 14.9832 26.9027 14.9832 26.9027C15.0522 26.9393 15.0522 26.9719 15.0522 27.0085V28.8022C15.0522 28.8713 15.0522 28.9079 15.0156 28.9445H14.8412C14.8047 28.9445 14.7722 28.9445 14.7722 28.9811C14.7357 28.9811 14.7357 29.0177 14.7357 29.0503C14.7357 29.0869 14.7357 29.1194 14.7722 29.156C14.8087 29.156 14.8412 29.1926 14.8777 29.1926C15.0522 29.156 15.2997 29.156 15.6486 29.156H16.6304C16.6669 29.156 16.6994 29.1194 16.7359 29.0503C16.7359 29.0137 16.7359 28.9445 16.6994 28.8388V28.5215H16.6913ZM11.7131 28.9445C11.6076 28.9811 11.5386 28.9445 11.5021 28.9445C11.4656 28.9079 11.4331 28.8754 11.4331 28.8022L10.6988 26.8336C10.6988 26.7644 10.6622 26.7278 10.6622 26.6912C10.6257 26.6912 10.5568 26.6546 10.5243 26.6546C10.4878 26.6546 10.4878 26.6546 10.4878 26.6546H9.75343C9.71691 26.6912 9.71691 26.7238 9.71691 26.7604C9.71691 26.797 9.75343 26.797 9.75343 26.8295C9.78994 26.8661 9.8224 26.8661 9.85891 26.8661H10.2443C10.2809 26.8661 10.3133 26.9353 10.2809 26.9719L9.89543 28.0619L9.65199 28.8347C9.61548 28.9039 9.58302 28.9039 9.54651 28.9405H9.36393C9.32742 28.9405 9.29496 28.9771 9.29496 28.9771C9.29496 29.0137 9.25844 29.0462 9.25844 29.0462C9.25844 29.0828 9.29496 29.1153 9.29496 29.152C9.33147 29.152 9.33147 29.1886 9.36393 29.1886C9.50593 29.152 9.60737 29.152 9.74937 29.152H9.88731C9.9928 29.152 10.0618 29.1886 10.1348 29.1886C10.1713 29.1886 10.2038 29.152 10.2403 29.152V29.0462C10.2403 29.0096 10.2403 29.0096 10.2038 28.9771C10.1673 28.9405 10.1348 28.9405 10.0983 28.9405H9.96034C9.92383 28.9039 9.89137 28.8713 9.92383 28.7981L10.0983 28.2694H10.9381L11.1126 28.8306C11.1451 28.8672 11.1126 28.8998 11.0436 28.9364C11.0071 28.9364 10.9381 28.973 10.8692 28.9364C10.8367 28.9364 10.8002 28.973 10.7637 28.973C10.7637 29.0096 10.7272 29.0421 10.7272 29.0421C10.7272 29.0787 10.7637 29.1113 10.7961 29.1479C10.7961 29.1479 10.8326 29.1845 10.9016 29.1845C11.0071 29.1479 11.1451 29.1479 11.3236 29.1479C11.4291 29.1479 11.567 29.1479 11.709 29.1845C11.7455 29.1845 11.778 29.1479 11.8145 29.1479V29.0421C11.8145 29.0055 11.8145 29.0055 11.778 28.973C11.7861 28.9445 11.7496 28.9445 11.7131 28.9445ZM10.1389 28.1026L10.5243 27.0492L10.8732 28.1026H10.1389ZM8.80403 28.1351C8.76752 28.0985 8.73506 28.0985 8.66609 28.066C8.62957 28.066 8.59712 28.1026 8.5606 28.1026C8.52409 28.1392 8.52409 28.1717 8.52409 28.2083V28.7696C8.48757 28.912 8.45511 28.9445 8.34962 28.9445H8.06968C7.78973 28.9811 7.61527 28.9445 7.54224 28.9445C7.43675 28.9445 7.36778 28.9079 7.36778 28.8388V26.9434C7.36778 26.9434 7.40429 26.9068 7.50978 26.9068H7.78973C7.82624 26.9068 7.82624 26.9068 7.8587 26.8702C7.89522 26.8336 7.89522 26.8011 7.89522 26.8011C7.89522 26.7644 7.89522 26.7319 7.8587 26.6953C7.78973 26.6953 7.75321 26.6587 7.64772 26.6953H6.77136C6.77136 26.7319 6.73485 26.7644 6.73485 26.8011C6.73485 26.8377 6.73485 26.8377 6.77136 26.8702C6.77136 26.9068 6.77136 26.9068 6.80788 26.9068H7.05131C7.08783 26.9068 7.12028 26.9434 7.12028 26.9434V28.8388C7.12028 28.9079 7.08377 28.9445 7.05131 28.9445H6.84034C6.80382 28.9445 6.77136 28.9445 6.77136 28.9811C6.73485 29.0177 6.73485 29.0177 6.73485 29.0503C6.73485 29.0869 6.73485 29.1194 6.77136 29.156C6.80788 29.156 6.84034 29.1926 6.87685 29.156H8.5606C8.66609 29.1926 8.7026 29.1926 8.73506 29.156C8.77158 29.1194 8.80403 29.0869 8.80403 29.0503C8.76752 28.9811 8.76752 28.8388 8.80403 28.7005C8.80403 28.5256 8.80403 28.3832 8.84055 28.2083C8.84055 28.1717 8.84055 28.1351 8.80403 28.1351ZM37.1641 26.6262C36.8151 26.6262 36.5676 26.7319 36.4297 26.9434C36.2552 27.1549 36.1498 27.4722 36.1498 27.9277C36.1498 28.3832 36.2552 28.7005 36.4297 28.912C36.5717 29.1235 36.8151 29.2292 37.1641 29.2292C37.517 29.2292 37.797 29.1235 37.9349 28.912C38.1094 28.7005 38.2149 28.3832 38.2149 27.9277C38.2149 27.4722 38.1094 27.1549 37.9349 26.9434C37.797 26.7319 37.513 26.6262 37.1641 26.6262ZM37.7605 28.733C37.6185 28.9445 37.444 29.0137 37.1641 29.0137C36.9206 29.0137 36.7097 28.9445 36.6042 28.733C36.4622 28.5581 36.4297 28.3141 36.4297 27.9277C36.4297 27.5738 36.4662 27.2932 36.6042 27.1183C36.7097 26.9068 36.9206 26.8377 37.1641 26.8377C37.444 26.8377 37.6185 26.9068 37.7605 27.1183C37.9025 27.2932 37.9349 27.5738 37.9349 27.9277C37.9349 28.3141 37.8984 28.5581 37.7605 28.733ZM35.4479 28.3466H35.3058C35.2693 28.3832 35.2369 28.4158 35.2004 28.489C35.1638 28.6639 35.0584 28.8062 34.9204 28.912C34.7784 28.9811 34.6405 29.0177 34.4985 29.0177C34.2185 29.0177 34.0075 28.912 33.8655 28.7005C33.76 28.5256 33.6911 28.2449 33.6911 27.8911C33.6911 27.5738 33.76 27.3298 33.8655 27.1549C34.0075 26.9434 34.2185 26.8377 34.5309 26.8377C34.6729 26.8377 34.8109 26.8743 34.9164 26.9434C35.0218 27.0126 35.0908 27.1549 35.1273 27.2932C35.1273 27.3298 35.1638 27.3623 35.1638 27.3989V27.5372L35.2004 27.6064C35.2004 27.643 35.2369 27.6755 35.2693 27.7121H35.3748C35.4113 27.6755 35.4438 27.6755 35.4438 27.643C35.4803 27.6064 35.4803 27.5738 35.4438 27.5372C35.4438 27.4315 35.4073 27.3257 35.3748 27.2566V26.8702C35.3748 26.8336 35.4113 26.7644 35.4113 26.6953C35.4479 26.6587 35.4113 26.6262 35.4113 26.5896C35.3748 26.5529 35.3424 26.5529 35.3058 26.5529H35.1638C35.1273 26.5896 35.1273 26.5896 35.1273 26.6221V26.7278C35.1273 26.7644 35.1273 26.797 35.1273 26.797C35.0218 26.7604 34.9529 26.7278 34.8109 26.6912C34.7054 26.6546 34.5999 26.6546 34.4944 26.6546C34.1414 26.6546 33.898 26.7604 33.7235 26.9719C33.5126 27.1834 33.4436 27.5006 33.4436 27.9196C33.4436 28.3426 33.5126 28.6557 33.687 28.8672C33.8615 29.0787 34.1414 29.1845 34.4944 29.1845C34.7378 29.1845 34.9164 29.1479 35.0543 29.0787C35.2653 28.973 35.4032 28.7981 35.5087 28.55C35.5412 28.5134 35.5412 28.4442 35.5087 28.4117C35.5168 28.3832 35.4803 28.3466 35.4479 28.3466ZM39.8621 26.6953H38.7748C38.7383 26.6587 38.7058 26.6953 38.6693 26.6953C38.6693 26.7319 38.6693 26.7644 38.6328 26.8011C38.6328 26.8377 38.6693 26.8702 38.6693 26.8702C38.7017 26.9068 38.7017 26.9068 38.7383 26.9068H38.9492C38.9817 26.9068 38.9817 26.9434 38.9817 26.9759V28.8754C38.9817 28.9445 38.9817 28.9445 38.9492 28.9445C38.9127 28.9811 38.8438 28.9811 38.7383 28.9445C38.7017 28.9445 38.7017 28.9445 38.6693 28.9811C38.6693 29.0177 38.6693 29.0177 38.6693 29.0503V29.156C38.7017 29.156 38.7383 29.1926 38.7748 29.156H39.7891C39.8256 29.156 39.8581 29.156 39.8581 29.156C40.138 29.156 40.3125 29.0869 40.4545 28.9079C40.6289 28.733 40.7344 28.3792 40.7344 27.887C40.7344 27.5006 40.6654 27.1834 40.5234 27.0085C40.3896 26.8011 40.1786 26.6953 39.8621 26.6953ZM40.2841 28.733C40.2151 28.8388 40.0406 28.9445 39.8621 28.9445H39.2657V26.9068H39.8621C40.0731 26.9068 40.211 26.9759 40.3165 27.1183C40.422 27.2607 40.491 27.5413 40.491 27.8911C40.495 28.2775 40.4261 28.5581 40.2841 28.733ZM32.5713 28.9811C32.5023 28.9445 32.5023 28.9445 32.5023 28.912C32.4658 28.7371 32.4333 28.6313 32.3968 28.489C32.2913 28.2775 32.1858 28.1717 32.0114 28.066C32.1534 28.0294 32.2589 27.9602 32.3278 27.8911C32.3968 27.7853 32.4698 27.6104 32.4698 27.3989C32.4698 27.1874 32.4333 27.0126 32.3278 26.9068C32.2224 26.7644 32.0114 26.6953 31.6949 26.6953H31.135C30.993 26.6953 30.8551 26.6953 30.7131 26.6587C30.6765 26.6587 30.6441 26.6953 30.6441 26.6953C30.6076 26.7319 30.6076 26.7644 30.6076 26.8011C30.6076 26.8377 30.6076 26.8377 30.6076 26.8702C30.6441 26.9068 30.6765 26.9068 30.7131 26.9068H30.8551C30.8916 26.9068 30.924 26.9434 30.924 26.9759V28.9079C30.924 28.9079 30.8875 28.9445 30.8186 28.9445H30.6765C30.64 28.9445 30.6076 28.9445 30.5711 28.9811C30.5711 28.9811 30.5711 29.0177 30.5711 29.0503C30.5711 29.0869 30.5711 29.1194 30.6076 29.156C30.6076 29.156 30.6441 29.1926 30.6765 29.1926C30.8186 29.156 30.92 29.156 31.0255 29.156C31.131 29.156 31.2689 29.156 31.4109 29.1926C31.4474 29.1926 31.4799 29.1926 31.5164 29.156C31.5529 29.1194 31.5529 29.0869 31.5529 29.0503C31.5529 29.0137 31.5529 29.0137 31.5164 28.9811C31.4839 28.9445 31.4474 28.9445 31.4109 28.9445H31.2364C31.204 28.9445 31.1675 28.9445 31.1675 28.9079V28.1351H31.7274C31.9383 28.2043 32.0438 28.3466 32.1128 28.5215C32.1818 28.6639 32.2183 28.8388 32.2183 29.0828C32.2183 29.1194 32.2183 29.1194 32.2548 29.152C32.2548 29.152 32.2913 29.1886 32.3238 29.1886C32.3603 29.152 32.4293 29.152 32.4982 29.152H32.7457C32.7782 29.1886 32.8147 29.152 32.8512 29.152V29.0462C32.8512 29.0096 32.8512 28.9771 32.8512 28.9771C32.8147 28.9405 32.7823 28.9405 32.7457 28.9405C32.6768 28.9445 32.6078 28.9811 32.5713 28.9811ZM31.7314 27.9277H31.1715V26.9068H31.7314C31.9059 26.9068 32.0479 26.9434 32.1169 27.0126C32.1534 27.0817 32.1858 27.2241 32.1858 27.3989C32.1858 27.5738 32.1493 27.7162 32.0438 27.8219C31.9749 27.8911 31.8694 27.9277 31.7314 27.9277ZM43.1566 28.4524C43.1566 28.4158 43.1201 28.4158 43.0511 28.4158C43.0146 28.4158 42.9821 28.4158 42.9456 28.4524C42.9456 28.4524 42.9091 28.489 42.9091 28.5215L42.9456 28.5907V28.8347C42.9456 28.9039 42.9456 28.9405 42.9091 28.9405H41.8258V27.9562H42.3167C42.3533 27.9562 42.3533 27.9928 42.3533 28.0253V28.2368C42.3533 28.2734 42.3533 28.2734 42.3533 28.306C42.3533 28.306 42.3898 28.3426 42.4222 28.3426C42.4222 28.3792 42.4587 28.3792 42.4912 28.3792C42.5277 28.3792 42.5602 28.3792 42.5967 28.3426C42.6332 28.306 42.6332 28.2734 42.6332 28.2368C42.5967 28.1311 42.5967 27.9928 42.5967 27.8504C42.5967 27.7447 42.6332 27.6389 42.6332 27.5006C42.6332 27.464 42.6332 27.464 42.5967 27.4315C42.5602 27.4315 42.5277 27.3949 42.4912 27.3949C42.4547 27.3949 42.4222 27.3949 42.3857 27.4315C42.3492 27.4315 42.3492 27.4681 42.3492 27.4681V27.6796C42.3492 27.7487 42.3492 27.7853 42.3127 27.7853H41.8258V26.9068H42.8442C42.8807 26.9068 42.9132 26.9434 42.9132 27.0126V27.2607C42.9132 27.2973 42.9132 27.3298 42.9132 27.3298C42.9132 27.3664 42.9132 27.3989 42.9132 27.3989C42.9132 27.4356 42.9132 27.4681 42.9497 27.4681C42.9862 27.5047 43.0186 27.5047 43.0552 27.5047C43.0917 27.5047 43.1241 27.4681 43.1606 27.4681C43.1972 27.4315 43.1972 27.3989 43.1972 27.3623V27.1142C43.1972 27.0085 43.1972 26.9027 43.2337 26.797C43.2337 26.7604 43.2337 26.7278 43.1972 26.6912C43.1606 26.6912 43.0917 26.6546 42.9862 26.6912H42.0733C41.7244 26.6912 41.4769 26.6912 41.3714 26.6546C41.3349 26.6546 41.3024 26.6546 41.2659 26.6912C41.2659 26.7278 41.2294 26.7604 41.2294 26.7604C41.2294 26.797 41.2294 26.8295 41.2659 26.8661C41.2659 26.8661 41.2984 26.9027 41.3349 26.9027H41.5093C41.5459 26.9393 41.5783 26.9719 41.5783 27.0085V28.8022C41.5783 28.8713 41.5418 28.9079 41.5093 28.9445H41.3349C41.2984 28.9445 41.2984 28.9445 41.2659 28.9811C41.2659 28.9811 41.2294 29.0177 41.2294 29.0503C41.2294 29.0869 41.2659 29.1194 41.2984 29.156C41.2984 29.156 41.3349 29.1926 41.4039 29.1926C41.5418 29.156 41.7893 29.156 42.1382 29.156H43.1201C43.189 29.156 43.2256 29.1194 43.2256 29.0503V28.8388C43.2256 28.7696 43.2256 28.7005 43.189 28.6639C43.189 28.6273 43.189 28.5581 43.2256 28.5215C43.2296 28.489 43.1931 28.4524 43.1566 28.4524ZM24.964 29.8231C24.895 29.7865 24.7895 29.7539 24.684 29.7539C24.2621 29.7539 23.9132 29.7173 23.7022 29.6482C23.4912 29.5424 23.3167 29.4001 23.2113 29.1926C23.4547 28.7005 23.6657 28.4198 23.8077 28.2775C23.9821 28.1351 24.2296 28.1026 24.5785 28.1026C24.684 28.1026 24.7895 28.066 24.8585 28.0334C24.9275 27.9968 24.964 27.9643 24.964 27.8911C24.964 27.8545 24.9275 27.8219 24.8585 27.7853C24.7895 27.7487 24.684 27.7162 24.542 27.7162C24.0511 27.7162 23.6657 27.7853 23.4222 27.9643C23.1747 28.1026 22.9678 28.3873 22.7568 28.7737C22.1604 28.0701 21.775 27.6145 21.637 27.403C21.6046 27.3664 21.6046 27.3339 21.5681 27.2973C21.4261 27.0492 21.3571 26.7685 21.3571 26.5245C21.3571 26.313 21.4261 26.1381 21.5316 26.0689C21.5681 26.0689 21.5681 26.0689 21.5681 26.0323C21.6736 25.9632 21.848 25.9266 22.0955 25.9266H22.7609C22.8664 25.9632 22.9354 25.9266 23.0043 25.89C23.0408 25.8534 23.0733 25.8208 23.0733 25.7842C23.0733 25.7151 23.0368 25.6785 23.0043 25.6419C22.9719 25.6053 22.8664 25.5727 22.7934 25.5727H22.0915C21.8805 25.5727 21.7385 25.6093 21.564 25.6093C21.3896 25.6459 21.211 25.7151 21.0731 25.7842C20.7931 25.9266 20.6511 26.1381 20.6511 26.4187C20.6511 26.6628 20.6877 26.8417 20.7201 27.0166C20.7891 27.159 20.8946 27.3339 21.1055 27.5779C20.7566 27.7203 20.5091 27.8952 20.2982 28.1067C20.0547 28.3548 19.9452 28.6679 19.9452 28.9852C19.9452 29.4082 20.0872 29.7214 20.3671 29.9329C20.6471 30.1078 21.0001 30.2135 21.5234 30.2135H21.56C21.8764 30.2135 22.1564 30.1769 22.3673 30.1078C22.6108 30.002 22.8218 29.8597 22.9638 29.6848C23.1382 29.8597 23.3492 29.9654 23.5926 30.0386C23.8361 30.0752 24.189 30.1078 24.68 30.1078C24.7855 30.1078 24.8909 30.1078 24.9599 30.0712C25.0289 30.0346 25.0654 30.002 25.0654 29.9288C25.0695 29.8922 25.037 29.8597 24.964 29.8231ZM22.0915 29.7539C21.986 29.8231 21.8115 29.8597 21.6005 29.8597H21.564C21.2476 29.8597 21.0366 29.7905 20.8986 29.6848C20.6877 29.5424 20.6187 29.3309 20.6187 28.9811C20.6187 28.733 20.6877 28.489 20.8297 28.3141C20.9676 28.1026 21.1461 27.9968 21.3571 27.9277L21.5681 28.1717L22.5134 29.2984C22.4079 29.5058 22.2659 29.6848 22.0915 29.7539ZM19.3569 28.1351C19.3204 28.0985 19.2879 28.0985 19.2149 28.066C19.1784 28.066 19.1459 28.1026 19.1094 28.1026C19.0729 28.1392 19.0729 28.1717 19.0729 28.2083V28.7696C19.0364 28.912 19.0039 28.9445 18.8984 28.9445H18.6185C18.3385 28.9811 18.1641 28.9445 18.091 28.9445C17.9855 28.9445 17.9166 28.9079 17.9166 28.8388V26.9434C17.9166 26.9434 17.9531 26.9068 18.0586 26.9068H18.3385C18.375 26.9068 18.375 26.9068 18.4075 26.8702C18.444 26.8336 18.444 26.8011 18.444 26.8011C18.444 26.7644 18.444 26.7319 18.4075 26.6953C18.3385 26.6953 18.302 26.6587 18.1965 26.6953H17.3202C17.3202 26.7319 17.2877 26.7644 17.2877 26.8011C17.2877 26.8377 17.2877 26.8377 17.2877 26.8702C17.3202 26.9068 17.3202 26.9068 17.3567 26.9068H17.6001C17.6366 26.9068 17.6691 26.9434 17.6691 26.9434V28.8388C17.6691 28.9079 17.6326 28.9445 17.6001 28.9445H17.3891C17.3526 28.9445 17.3202 28.9445 17.3202 28.9811C17.2877 29.0177 17.2877 29.0177 17.2877 29.0503C17.2877 29.0869 17.2877 29.1194 17.3202 29.156C17.3567 29.156 17.3891 29.1926 17.4256 29.156H19.1094C19.2149 29.1926 19.2514 29.1926 19.2839 29.156C19.3204 29.1194 19.3528 29.0869 19.3528 29.0503C19.3163 28.9811 19.3163 28.8388 19.3528 28.7005C19.3528 28.5256 19.3528 28.3832 19.3853 28.2083C19.3893 28.1717 19.3893 28.1351 19.3569 28.1351ZM26.7532 27.8545C26.8587 27.8179 26.9277 27.7487 26.9642 27.6796C27.0007 27.6104 27.0332 27.4681 27.0332 27.3257C27.0332 27.1142 26.9966 26.9393 26.8587 26.8336C26.7532 26.7278 26.5787 26.6912 26.2988 26.6912H25.1425C25.1425 26.7278 25.106 26.7604 25.106 26.797C25.106 26.8336 25.106 26.8336 25.1425 26.8661C25.1425 26.9027 25.179 26.9027 25.2115 26.9027H25.4224C25.459 26.9393 25.4914 26.9719 25.4914 27.0085V28.8022C25.4914 28.8713 25.459 28.9079 25.3859 28.9445C25.3859 28.9445 25.317 28.9811 25.2115 28.9811C25.1749 28.9445 25.1425 28.9811 25.1425 28.9811C25.106 29.0177 25.106 29.0503 25.106 29.0503C25.106 29.0869 25.1425 29.1194 25.1425 29.156C25.179 29.156 25.2115 29.1926 25.248 29.156H26.4408C26.6883 29.156 26.8628 29.1194 27.0007 28.9811C27.1062 28.8754 27.1752 28.7005 27.1752 28.4524C27.1752 28.31 27.1386 28.1717 27.0372 28.066C26.9642 27.9602 26.8587 27.8911 26.7532 27.8545ZM25.7348 26.9068H26.3637C26.5057 26.9068 26.5747 26.9434 26.6437 26.9759C26.7492 27.0451 26.7857 27.1508 26.7857 27.3257C26.7857 27.4681 26.7492 27.5738 26.6802 27.643C26.6112 27.7487 26.5057 27.7813 26.3637 27.7813H25.7348V26.9068ZM26.7897 28.8754C26.7208 28.9445 26.6153 28.9811 26.4408 28.9811H25.7389V27.9602H26.2663C26.5098 27.9968 26.6883 28.0294 26.7897 28.0985C26.8952 28.1677 26.9317 28.2734 26.9317 28.4524C26.9277 28.6273 26.8912 28.7696 26.7897 28.8754ZM30.1167 28.9445C29.9746 28.9811 29.9057 28.9445 29.8692 28.9445C29.8367 28.9079 29.8367 28.8754 29.8002 28.8022L29.0658 26.8336C29.0658 26.7644 29.0293 26.7278 29.0293 26.6912C28.9928 26.6912 28.9603 26.6546 28.8873 26.6546H28.1164C28.1164 26.6912 28.0799 26.7238 28.1164 26.7604C28.1164 26.797 28.1164 26.797 28.153 26.8295C28.153 26.8661 28.1895 26.8661 28.2584 26.8661H28.6074C28.6763 26.8661 28.6763 26.9353 28.6763 26.9719L28.011 28.8347C27.9744 28.9039 27.9744 28.9039 27.942 28.9405H27.731C27.6945 28.9405 27.6945 28.9771 27.662 28.9771C27.662 29.0137 27.662 29.0462 27.662 29.0462V29.152C27.6985 29.152 27.731 29.1886 27.7675 29.1886C27.873 29.152 28.011 29.152 28.1164 29.152C28.2584 29.152 28.3599 29.152 28.5384 29.1886C28.5749 29.1886 28.5749 29.152 28.6074 29.152C28.6074 29.1153 28.6439 29.0828 28.6439 29.0462C28.6074 29.0096 28.6074 29.0096 28.5749 28.9771C28.5749 28.9405 28.5384 28.9405 28.4694 28.9405H28.3274C28.2909 28.9039 28.2909 28.8713 28.2909 28.7981L28.4654 28.2694H29.3417L29.5162 28.8306C29.5162 28.8672 29.4797 28.8998 29.4472 28.9364C29.3782 28.9364 29.3417 28.973 29.2362 28.9364C29.1997 28.9364 29.1673 28.973 29.1307 28.973C29.1307 29.0096 29.1307 29.0421 29.1307 29.0421C29.1307 29.0787 29.1307 29.1113 29.1632 29.1479C29.1997 29.1479 29.2322 29.1845 29.2687 29.1845C29.4107 29.1479 29.5486 29.1479 29.6906 29.1479C29.8326 29.1479 29.9706 29.1479 30.1126 29.1845C30.1451 29.1845 30.1451 29.1479 30.1816 29.1479C30.1816 29.1113 30.2181 29.0787 30.2181 29.0421C30.1816 29.0055 30.1816 29.0055 30.1816 28.973C30.1532 28.9445 30.1167 28.9445 30.1167 28.9445ZM28.5424 28.1026L28.8914 27.0492L29.2403 28.1026H28.5424Z" fill="black" fill-opacity="0.9"/>
</svg>
