<svg width="100" height="100" viewBox="0 0 100 100" fill="none" xmlns="http://www.w3.org/2000/svg">
<path d="M75.8301 46.1111H24.1699C23.7098 46.1111 23.3333 45.8513 23.3333 45.5337V17.244C23.3333 16.9264 23.7098 16.6666 24.1699 16.6666H75.8301C76.2902 16.6666 76.6667 16.9264 76.6667 17.244V45.5337C76.6667 45.8513 76.2902 46.1111 75.8301 46.1111Z" stroke="black" stroke-width="2" stroke-miterlimit="10" stroke-linecap="round" stroke-linejoin="round"/>
<path d="M58.6969 43.2C58.5849 43.2 58.5049 43.184 58.4569 43.152C58.4089 43.136 58.3609 43.072 58.3129 42.96L56.5849 38.64H48.7609L47.0329 42.96C47.0009 43.072 46.9609 43.136 46.9129 43.152C46.8649 43.184 46.7849 43.2 46.6729 43.2H44.4649C44.1769 43.2 44.0809 43.088 44.1769 42.864L51.1849 25.368C51.2329 25.24 51.2649 25.168 51.2809 25.152C51.3129 25.12 51.4089 25.104 51.5689 25.104H53.8009C53.9449 25.104 54.0329 25.12 54.0649 25.152C54.0969 25.168 54.1369 25.24 54.1849 25.368L61.1929 42.864C61.2729 43.088 61.1769 43.2 60.9049 43.2H58.6969ZM49.7449 36.12H55.5769L52.6729 28.728L49.7449 36.12Z" fill="#565ADF"/>
<path fill-rule="evenodd" clip-rule="evenodd" d="M55.7407 36.9443C55.7407 37.2512 55.492 37.4999 55.1852 37.4999H42.2222C41.9154 37.4999 41.6667 37.2512 41.6667 36.9443C41.6667 36.6375 41.9154 36.3888 42.2222 36.3888H55.1852C55.492 36.3888 55.7407 36.6375 55.7407 36.9443Z" fill="#565ADF"/>
<path d="M39.2722 74.9798C39.2722 74.9798 32.2222 68.4094 32.2222 62.3095V54.9998C32.2222 53.0506 33.8019 51.471 35.7514 51.471C37.7008 51.471 39.2806 53.0506 39.2806 54.9998V35.7509C39.2806 33.6924 41.0535 32.0372 43.1542 32.2388C44.986 32.4153 46.3389 34.0621 46.3389 35.9021V46.1861C46.3389 44.1276 48.1119 42.4725 50.2126 42.6741C52.0444 42.8505 53.3972 44.4973 53.3972 46.3374V49.4797C53.3972 47.5304 54.977 45.9509 56.9264 45.9509C58.8758 45.9509 60.4555 47.5304 60.4555 49.4797V52.1011C60.4555 49.925 62.4302 48.2026 64.6906 48.6479C66.3627 48.9756 67.5055 50.5468 67.5055 52.2608C67.5055 57.1591 67.8836 60.7216 67.4551 65.2923C67.3542 66.3425 67.1694 67.3843 66.8921 68.401L65.1359 74.9882H39.2722V74.9798Z" fill="white" stroke="black" stroke-width="2" stroke-miterlimit="10" stroke-linecap="round" stroke-linejoin="round"/>
<rect x="39.9996" y="74.0015" width="25" height="9" fill="#565ADF"/>
<path d="M39.2722 55.0084V60.5622" stroke="black" stroke-width="2" stroke-miterlimit="10" stroke-linecap="round" stroke-linejoin="round"/>
<path d="M46.3222 46.194V55.0076" stroke="black" stroke-width="2" stroke-miterlimit="10" stroke-linecap="round" stroke-linejoin="round"/>
<path d="M53.3802 47.7988V55.0078" stroke="black" stroke-width="2" stroke-miterlimit="10" stroke-linecap="round" stroke-linejoin="round"/>
<path d="M60.4306 52.1099V55.0086" stroke="black" stroke-width="2" stroke-miterlimit="10" stroke-linecap="round" stroke-linejoin="round"/>
<path d="M65.1192 74.9797H39.2722V83.6674H65.1192V74.9797Z" stroke="black" stroke-width="2" stroke-miterlimit="10" stroke-linecap="round" stroke-linejoin="round"/>
</svg>
