<svg width="120" height="120" viewBox="0 0 120 120" fill="none" xmlns="http://www.w3.org/2000/svg">
<path d="M66.0004 71.4999H28.5004C26.9004 85.4999 31.8338 87.9999 34.5004 87.4999H70.0004C66.0004 86.2999 65.6671 76.3332 66.0004 71.4999Z" fill="#565ADF"/>
<path d="M66.3076 79.9325V71.3726H28.6665V79.9325C28.6665 86.4055 31.3587 87.5045 35.6442 87.5045H72.8718C68.9192 87.4944 66.3076 85.0645 66.3076 79.9325Z" stroke="black" stroke-width="2" stroke-miterlimit="10" stroke-linecap="round" stroke-linejoin="round"/>
<path d="M79.9403 70.9491V79.9324C79.9403 85.5786 76.4717 87.5044 72.8618 87.5044" stroke="black" stroke-width="2" stroke-miterlimit="10" stroke-linecap="round" stroke-linejoin="round"/>
<path d="M79.9401 70.9488V35.5797C79.9401 32.7163 79.5771 27.0096 85.3144 27.0096" stroke="black" stroke-width="2" stroke-miterlimit="10" stroke-linecap="round" stroke-linejoin="round"/>
<path d="M80.1217 43.1318H91.0319V35.57C91.0319 32.626 91.0118 27 85.3147 27H46.6451C42.0269 27 38.5986 29.9239 38.5986 35.57V71.3625" stroke="black" stroke-width="2" stroke-miterlimit="10" stroke-linecap="round" stroke-linejoin="round"/>
<path d="M57.7366 53.0029H45.7677" stroke="black" stroke-width="2" stroke-miterlimit="10" stroke-linecap="round" stroke-linejoin="round"/>
<path d="M73.6988 53.0029H61.7299" stroke="black" stroke-width="2" stroke-miterlimit="10" stroke-linecap="round" stroke-linejoin="round"/>
<path d="M57.7366 59.0212H45.7677" stroke="black" stroke-width="2" stroke-miterlimit="10" stroke-linecap="round" stroke-linejoin="round"/>
<path d="M73.6988 59.0212H61.7299" stroke="black" stroke-width="2" stroke-miterlimit="10" stroke-linecap="round" stroke-linejoin="round"/>
<path d="M57.7366 65.0511H45.7677" stroke="black" stroke-width="2" stroke-miterlimit="10" stroke-linecap="round" stroke-linejoin="round"/>
<path d="M73.6988 65.0511H61.7299" stroke="black" stroke-width="2" stroke-miterlimit="10" stroke-linecap="round" stroke-linejoin="round"/>
<path d="M49.4181 39.9457L56.4764 45.9951L67.5681 35.5698" stroke="#565ADF" stroke-width="2" stroke-miterlimit="10" stroke-linecap="round" stroke-linejoin="round"/>
</svg>
