<svg width="120" height="120" viewBox="0 0 120 120" fill="none" xmlns="http://www.w3.org/2000/svg">
<path d="M54.9671 84.6263C54.9671 87.4192 57.2258 89.6777 60.0189 89.6777C62.812 89.6777 65.0706 87.4192 65.0706 84.6263" stroke="black" stroke-width="2" stroke-miterlimit="10" stroke-linecap="round" stroke-linejoin="round"/>
<path d="M67.5 74.9994H52L51 75.4994V79.9994V83.9994L53 84.4994L68.5 83.9994L69 82.9994L69.5 80.4994L68.5 79.9994L69.5 78.4994V76.9994C69.5 75.3994 68.1667 74.9994 67.5 74.9994Z" fill="#565ADF"/>
<path d="M67.3596 74.5844C68.5293 74.5844 69.4771 73.6266 69.4771 72.4671V68.2325C69.4771 68.051 69.4166 67.8797 69.3662 67.7083C74.5591 64.5424 78.0378 58.8458 78.0378 52.3225C78.0378 42.3712 69.9712 34.3053 60.0189 34.3053C50.0667 34.3053 42 42.3712 42 52.3225C42 58.8458 45.4788 64.5424 50.6717 67.7083C50.6313 67.8797 50.5608 68.0409 50.5608 68.2325V72.4671C50.5608 73.6266 51.5187 74.5844 52.6782 74.5844" stroke="black" stroke-width="2" stroke-miterlimit="10" stroke-linecap="round" stroke-linejoin="round"/>
<path d="M69.4773 77.9518V76.7016C69.4773 75.532 68.5295 74.5842 67.3598 74.5842H52.6684C51.5088 74.5842 50.5508 75.532 50.5508 76.7016V77.9518C50.5508 78.6374 50.8937 79.2121 51.4079 79.6053C50.9038 79.9985 50.5508 80.5732 50.5508 81.2588V82.509C50.5508 83.6786 51.5088 84.6263 52.6684 84.6263H67.3598C68.5295 84.6263 69.4773 83.6786 69.4773 82.509V81.2588C69.4773 80.5732 69.1244 79.9985 68.6202 79.6053C69.1345 79.2121 69.4773 78.6374 69.4773 77.9518Z" stroke="black" stroke-width="2" stroke-miterlimit="10" stroke-linecap="round" stroke-linejoin="round"/>
<path d="M51.6095 79.605H64.1936" stroke="black" stroke-width="2" stroke-miterlimit="10" stroke-linecap="round" stroke-linejoin="round"/>
<path d="M60.0189 24.3334V29.3242" stroke="#565ADF" stroke-width="2" stroke-miterlimit="10" stroke-linecap="round" stroke-linejoin="round"/>
<path d="M73.3795 27.913L70.889 32.2383" stroke="#565ADF" stroke-width="2" stroke-miterlimit="10" stroke-linecap="round" stroke-linejoin="round"/>
<path d="M46.6485 27.913L49.1492 32.2383" stroke="#565ADF" stroke-width="2" stroke-miterlimit="10" stroke-linecap="round" stroke-linejoin="round"/>
</svg>
