<svg width="305" height="211" viewBox="0 0 305 211" fill="none" xmlns="http://www.w3.org/2000/svg">
<path fill-rule="evenodd" clip-rule="evenodd" d="M143.256 82.031C169.281 82.031 190.885 63.1043 195.051 38.2657H245.987C250.154 63.1043 271.758 82.031 297.782 82.031C326.789 82.031 350.304 58.5185 350.304 29.5143C350.304 0.510107 326.789 -23.0024 297.782 -23.0024C271.759 -23.0024 250.155 -4.07712 245.987 20.7601H195.051C190.883 -4.07712 169.28 -23.0024 143.256 -23.0024C114.249 -23.0024 90.7345 0.510107 90.7345 29.5143C90.7345 43.453 96.1653 56.1234 105.026 65.5253L74.4576 109.945C67.8608 106.959 60.5372 105.297 52.8253 105.297C23.8185 105.297 0.303833 128.81 0.303833 157.814C0.303833 186.818 23.8185 210.331 52.8253 210.331C81.832 210.331 105.347 186.818 105.347 157.814C105.347 142.819 99.0611 129.291 88.9808 119.722L118.997 76.1056C126.253 79.8909 134.505 82.031 143.256 82.031ZM297.782 57.8454C313.431 57.8454 326.116 45.1611 326.116 29.5143C326.116 13.8675 313.431 1.1832 297.782 1.1832C282.134 1.1832 269.449 13.8675 269.449 29.5143C269.449 45.1611 282.134 57.8454 297.782 57.8454ZM81.1589 157.814C81.1589 173.461 68.4735 186.145 52.8253 186.145C37.177 186.145 24.4916 173.461 24.4916 157.814C24.4916 142.167 37.177 129.483 52.8253 129.483C68.4735 129.483 81.1589 142.167 81.1589 157.814Z" fill="#F6F6F6"/>
</svg>
