<svg width="12" height="12" viewBox="0 0 12 12" fill="none" xmlns="http://www.w3.org/2000/svg">
<path d="M5.54645 0.964333C5.72641 0.580926 6.27174 0.580926 6.4517 0.964333L7.73968 3.70845C7.81054 3.85941 7.952 3.96511 8.11686 3.99028L11.038 4.43617C11.4403 4.49759 11.6046 4.98829 11.3204 5.27961L9.17571 7.47792C9.06491 7.59148 9.01459 7.7509 9.04011 7.9075L9.54142 10.9836C9.60855 11.3956 9.17117 11.7036 8.80592 11.5016L6.24114 10.0829C6.09052 9.99962 5.90764 9.99963 5.75703 10.083L3.19422 11.5012C2.82896 11.7034 2.39148 11.3954 2.45863 10.9833L2.95988 7.9075C2.9854 7.7509 2.93508 7.59148 2.82428 7.47792L0.67954 5.27955C0.39534 4.98825 0.559638 4.49756 0.961948 4.43612L3.88131 3.99029C4.04616 3.96512 4.1876 3.85942 4.25846 3.70846L5.54645 0.964333Z" fill="#FDC706"/>
</svg>
