<svg width="70" height="70" viewBox="0 0 70 70" fill="none" xmlns="http://www.w3.org/2000/svg">
<path d="M33.0573 35.3472L30.1104 38.2163L31.646 39.7944L34.593 36.9252L33.0573 35.3472Z" fill="white"/>
<path d="M50.2413 37.0106C45.3245 41.7964 37.4621 41.6906 32.6775 36.7726C27.8928 31.8546 27.9985 23.9903 32.9154 19.2008C37.8322 14.415 45.6946 14.5207 50.483 19.4387C55.2639 24.3567 55.1581 32.2248 50.2413 37.0106Z" fill="#223757"/>
<path d="M48.024 34.7332C44.3647 38.2952 38.5114 38.2158 34.9503 34.5557C31.3892 30.8955 31.4685 25.0407 35.124 21.4788C38.7833 17.9168 44.6366 17.9962 48.1978 21.6563C51.7589 25.3165 51.6833 31.1712 48.024 34.7332Z" fill="white"/>
<path d="M48.024 34.7331C51.6833 31.1711 51.7626 25.3164 48.1977 21.6562C48.1675 21.626 48.1373 21.5996 48.1071 21.5693L35.0371 34.6425C38.6096 38.2158 44.3949 38.2686 48.024 34.7331Z" fill="#E0E0E0"/>
<path d="M47.3487 25.4372C48.0322 27.1521 48.1493 28.8179 47.5413 30.5705C47.141 31.7188 48.9688 32.1947 49.3691 31.0502C50.0715 29.0294 49.9657 26.933 49.1765 24.9575C48.7309 23.8432 46.8993 24.3116 47.3487 25.4372Z" fill="#1A2A42"/>
<path d="M34.5858 36.9275L33.8004 36.1191L30.8926 39.0276L31.6403 39.7944L34.5858 36.9275Z" fill="#E0E0E0"/>
<path d="M34.9515 34.559C31.3904 30.8988 31.4697 25.0441 35.1252 21.4821C38.7543 17.9504 44.5397 17.9995 48.1083 21.5728L50.3553 19.3253C45.5593 14.5282 37.7838 14.4602 32.9085 19.2044C27.9917 23.9902 27.886 31.8583 32.6706 36.7763C32.7084 36.8178 32.7499 36.8556 32.7877 36.8934L35.0346 34.6459C35.012 34.6157 34.9817 34.5892 34.9515 34.559Z" fill="#223757"/>
<path d="M50.2418 37.0107C55.1587 32.2249 55.2644 24.3569 50.4798 19.4389C50.442 19.3973 50.4005 19.3595 50.3589 19.3218L48.112 21.5692C48.1422 21.5995 48.1724 21.6259 48.2026 21.6561C51.7638 25.3163 51.6844 31.171 48.0289 34.733C44.3998 38.2685 38.6144 38.2156 35.0457 34.6424L32.7988 36.8898C37.591 41.6907 45.3666 41.7587 50.2418 37.0107Z" fill="#1A2A42"/>
<path d="M35.1288 21.4821C31.4695 25.044 31.3902 30.8988 34.9551 34.559C34.9853 34.5892 35.0155 34.6156 35.0419 34.6459L48.1119 21.5727C44.5433 17.9994 38.7579 17.9466 35.1288 21.4821Z" fill="white"/>
<path d="M31.374 41.1317C31.0757 41.4226 30.5961 41.415 30.3053 41.1166L28.7457 39.5151C28.4549 39.2167 28.4624 38.737 28.7608 38.4461L30.1656 37.0787C30.4639 36.7879 30.9435 36.7954 31.2343 37.0938L32.7939 38.6954C33.0847 38.9938 33.0771 39.4735 32.7788 39.7644L31.374 41.1317Z" fill="#EF5F4B"/>
<path d="M32.7933 38.6954L32.0191 37.8984L29.5645 40.3537L30.3047 41.1167C30.5955 41.4151 31.075 41.4189 31.3734 41.1318L32.7782 39.7644C33.0765 39.4736 33.0803 38.9901 32.7933 38.6954Z" fill="#E0473C"/>
<path d="M19.7962 53.5628C19.3506 53.9972 18.6293 53.9897 18.195 53.5402L16.0047 51.2927C15.5704 50.847 15.578 50.1255 16.0274 49.6911L27.5037 38.518C27.9493 38.0836 28.6706 38.0911 29.1049 38.5406L31.2914 40.7919C31.7257 41.2376 31.7181 41.9591 31.2688 42.3934L19.7962 53.5628Z" fill="#223757"/>
<path d="M31.2931 40.7877L30.111 39.5752L17.1846 52.5048L18.1928 53.5398C18.6271 53.9855 19.3484 53.9968 19.794 53.5624L31.2704 42.3893C31.7198 41.9549 31.7311 41.2334 31.2931 40.7877Z" fill="#1A2A42"/>
<path d="M46.583 34.6461C47.1628 34.6461 47.6328 34.1759 47.6328 33.596C47.6328 33.016 47.1628 32.5459 46.583 32.5459C46.0032 32.5459 45.5332 33.016 45.5332 33.596C45.5332 34.1759 46.0032 34.6461 46.583 34.6461Z" fill="#1A2A42"/>
</svg>
