<svg width="70" height="70" viewBox="0 0 70 70" fill="none" xmlns="http://www.w3.org/2000/svg">
<path d="M36.7332 39.5104C37.137 37.8821 36.1116 36.1865 34.4883 35.7839L33.006 41.7609C34.6305 42.1588 36.3305 41.1341 36.7332 39.5104Z" fill="#E0473C"/>
<path d="M23.2499 48.7169C23.2046 48.7999 23.1639 48.884 23.1185 48.9669C23.2679 48.9445 23.4195 48.9325 23.5747 48.9264C23.4626 48.8589 23.3551 48.7926 23.2499 48.7169Z" fill="#EF5F4B"/>
<path d="M38.3767 52.7508C38.3753 52.6563 38.3787 52.5629 38.3773 52.4684C38.249 52.4861 38.123 52.4946 37.9923 52.5018C38.1267 52.5798 38.2552 52.6612 38.3767 52.7508Z" fill="#EF5F4B"/>
<path d="M30.8203 50.5549L30.7416 50.8722L36.8244 52.3807C37.2209 52.479 37.608 52.5156 37.988 52.5009C37.6624 52.3161 37.2996 52.1618 36.9031 52.0634L30.8203 50.5549Z" fill="#223757"/>
<path d="M24.7384 49.0464C24.3419 48.948 23.9537 48.9162 23.5749 48.9262C23.8993 49.1156 24.2633 49.2653 24.6598 49.3636L30.7425 50.8721L30.8212 50.5549L24.7384 49.0464Z" fill="#223757"/>
<path d="M38.1176 55.0537C36.9744 59.6636 32.6932 61.732 28.3177 60.6469C23.9422 59.5618 21.1225 55.7374 22.2669 51.1228C23.4101 46.513 27.8868 43.656 32.2623 44.7411C36.6378 45.8262 39.2608 50.4438 38.1176 55.0537Z" fill="#60CDCD"/>
<path d="M56.362 33.7198C53.659 44.6192 42.4552 51.2213 31.3392 48.4646C20.2232 45.7079 13.4025 34.6359 16.1055 23.7365C18.8085 12.8371 30.0122 6.23497 41.1282 8.99167C52.2443 11.7484 59.0649 22.8204 56.362 33.7198Z" fill="#E6F8FE"/>
<path d="M37.9185 32.0778C37.476 33.6025 36.184 34.0003 35.0039 33.7076C33.819 33.4137 32.8638 32.4537 33.1885 30.9048L35.7524 17.9106C36.0736 16.3558 37.6618 15.4025 39.4344 15.8421C41.207 16.2817 42.1657 17.8666 41.7232 19.3913L37.9185 32.0778ZM34.4854 35.7781C36.1134 36.1818 37.133 37.8808 36.7303 39.5045C36.3265 41.1329 34.6277 42.1529 33.0044 41.7503C31.3764 41.3466 30.3569 39.6475 30.7595 38.0238C31.1622 36.4001 32.8621 35.3755 34.4854 35.7781Z" fill="#60CDCD"/>
<path d="M41.2741 50.651C40.9085 52.1254 39.1406 52.9648 37.3447 52.5194L24.1342 49.2433C22.3383 48.7979 21.1674 47.2298 21.5331 45.7553C21.8987 44.2809 23.6666 43.4415 25.4626 43.8869L38.673 47.163C40.4689 47.6084 41.6398 49.1766 41.2741 50.651Z" fill="#223757"/>
<path d="M40.029 55.6715C39.6634 57.1459 37.8955 57.9853 36.0995 57.5399L22.8891 54.2638C21.0932 53.8185 19.9223 52.2503 20.288 50.7759C20.6536 49.3015 22.4215 48.4621 24.2174 48.9074L37.4279 52.1835C39.2238 52.6289 40.3947 54.1971 40.029 55.6715Z" fill="#223757"/>
<path d="M41.1279 8.9917L39.4293 15.8412C41.2019 16.2807 42.1607 17.8657 41.7182 19.3904L37.9134 32.0769C37.4709 33.6016 36.179 33.9993 34.9988 33.7066L34.485 35.7783C36.113 36.182 37.1326 37.8811 36.7299 39.5048C36.3261 41.1331 34.6273 42.1531 33.004 41.7506L31.3401 48.46C42.4561 51.2167 53.6598 44.6146 56.3628 33.7152C59.0646 22.8205 52.244 11.7484 41.1279 8.9917Z" fill="#C8F0FE"/>
<path d="M37.9177 32.0777L41.7224 19.3912C42.1649 17.8665 41.2062 16.2816 39.4336 15.842L35.0031 33.7075C36.1832 34.0002 37.4752 33.6024 37.9177 32.0777Z" fill="#359393"/>
<path d="M29.5628 55.6267L28.3178 60.6471C31.933 61.5437 35.4789 60.2834 37.2486 57.2207C36.7452 57.294 36.1996 57.2775 35.6492 57.141L29.5617 55.6314L29.5628 55.6267Z" fill="#359393"/>
<path d="M38.7995 52.8651C38.6746 52.7697 38.5334 52.6803 38.3945 52.6012C38.5344 52.5963 38.6661 52.5844 38.7989 52.5678C40.0237 52.401 41.0179 51.6867 41.2748 50.6509C41.6404 49.1765 40.3902 47.5887 38.4917 47.1178L36.136 46.5337L32.0684 45.5249L30.8233 50.5453L30.74 50.8813L29.495 55.9017L35.9183 57.4947C36.5014 57.6393 37.075 57.6626 37.6052 57.5812C38.809 57.3993 39.7763 56.6932 40.0297 55.6714C40.282 54.6542 39.7648 53.5849 38.7995 52.8651Z" fill="#1A2A42"/>
</svg>
