<svg width="268" height="314" viewBox="0 0 268 314" fill="none" xmlns="http://www.w3.org/2000/svg">
<path d="M127.118 14.9392C117.598 16.5059 114.768 29.0026 122.684 34.5922C124.106 35.596 125.09 37.1054 125.509 38.7943L126.951 44.608C127.347 46.2096 128.909 47.2383 130.538 46.9693L134.144 46.3765C135.773 46.1075 136.922 44.6354 136.785 42.9889C136.284 36.9884 135.666 34.8114 137.617 32.1337C143.321 24.3048 136.64 13.3699 127.118 14.9392Z" fill="#F7CC7F"/>
<path d="M128.089 40.3441C127.469 35.2029 126.6 29.7753 126.303 28.2359C120.846 28.5373 122.921 22.7834 125.439 25.1223C126.156 25.7899 126.495 26.6941 126.719 27.6829C128.533 27.5185 130.304 27.0029 131.92 26.1685C131.833 24.9006 131.708 23.9392 132.062 23.1271C132.598 21.9016 134.149 21.5678 134.782 22.761C135.019 23.2093 135.061 23.7822 134.889 24.258C134.523 25.2718 133.422 25.9418 132.461 26.4674C132.747 30.5549 133.146 34.6748 133.646 38.73L133.131 38.7947C132.638 34.8043 132.244 30.7517 131.957 26.7289C130.353 27.526 128.61 28.0242 126.824 28.1936C127.197 30.1614 128.022 35.452 128.605 40.2793L128.089 40.3441ZM123.71 27.0229C124.196 27.5459 125.008 27.7751 126.194 27.7203C125.989 26.846 125.685 26.0614 125.083 25.5034C123.73 24.243 122.898 26.1461 123.71 27.0229ZM132.535 23.3364C132.236 24.0189 132.351 24.8932 132.418 25.897C133.198 25.4536 134.105 24.8981 134.396 24.0861C134.603 23.5157 134.371 22.7112 133.791 22.5617C133.728 22.5443 132.745 22.8581 132.535 23.3364Z" fill="#FAE0B2"/>
<path d="M125.466 38.6501C125.478 38.6974 125.496 38.7447 125.508 38.7945L126.95 44.6082C127.346 46.2099 128.908 47.2386 130.537 46.9696L134.144 46.3767C135.773 46.1077 136.921 44.6356 136.784 42.9892C136.563 40.3189 136.316 38.4085 136.284 36.8716L125.466 38.6501Z" fill="#96D9C9"/>
<path d="M120.06 10.5979L117.213 5.40191C116.936 4.89875 117.12 4.26856 117.624 3.99207C118.127 3.71558 118.757 3.89991 119.033 4.40306L121.88 9.59903C122.157 10.1022 121.973 10.7324 121.469 11.0089C120.964 11.2878 120.336 11.0985 120.06 10.5979Z" fill="#FAE0B2"/>
<path d="M113.836 23.1692L107.629 22.6261C107.058 22.5763 106.635 22.0732 106.685 21.5003C106.734 20.9299 107.238 20.5064 107.811 20.5562L114.015 21.0992C114.586 21.1491 115.009 21.6522 114.959 22.2251C114.912 22.7955 114.409 23.219 113.836 23.1692Z" fill="#FAE0B2"/>
<path d="M107.683 42.1948C107.28 41.7863 107.285 41.1287 107.693 40.7252C109.22 39.2182 110.897 37.8482 112.68 36.6576C113.156 36.3388 113.801 36.4683 114.12 36.9441C114.439 37.4198 114.309 38.065 113.833 38.3838C112.159 39.5022 110.585 40.7875 109.153 42.2023C108.744 42.6058 108.087 42.6058 107.683 42.1948Z" fill="#FAE0B2"/>
<path d="M135.393 10.3164C134.837 10.1694 134.509 9.59901 134.658 9.04603C135.361 6.41567 135.791 3.70311 135.938 0.98308C135.971 0.410179 136.459 -0.0307057 137.032 0.00167559C137.605 0.0315661 138.043 0.522264 138.013 1.09516C137.859 3.95718 137.406 6.81421 136.666 9.58406C136.516 10.1395 135.943 10.4633 135.393 10.3164Z" fill="#FAE0B2"/>
<path d="M141.783 18.2945C141.619 17.744 141.928 17.1662 142.478 16.9993L148.93 15.0539C149.48 14.8895 150.058 15.1984 150.225 15.7488C150.389 16.2968 150.08 16.8772 149.53 17.0416L143.079 18.987C142.531 19.1539 141.95 18.845 141.783 18.2945Z" fill="#FAE0B2"/>
<path d="M152.383 35.4618C152.291 35.4618 152.196 35.4494 152.101 35.422C149.867 34.7943 147.692 33.9225 145.64 32.8314C145.134 32.5624 144.943 31.9347 145.212 31.4266C145.481 30.9209 146.111 30.7267 146.616 30.9957C148.537 32.0169 150.572 32.8314 152.664 33.4193C153.217 33.5737 153.539 34.1466 153.382 34.6996C153.252 35.1629 152.836 35.4618 152.383 35.4618Z" fill="#FAE0B2"/>
<path d="M219.335 313.266H62.7463C56.7657 313.266 51.916 308.237 51.916 302.035V295.357C51.916 289.152 56.7657 284.125 62.7463 284.125H219.335C212.171 292.246 212.049 304.658 219.046 312.93L219.335 313.266Z" fill="#565ADF"/>
<path d="M216.918 287.463H130.067C124.086 287.463 119.236 292.492 119.236 298.697C119.236 304.899 124.084 309.929 130.067 309.929H216.926C212.866 303.036 212.876 294.336 216.918 287.463Z" fill="#FAF7F2"/>
<path d="M164.325 263.882C164.552 263.456 164.206 262.961 163.68 262.961H80.8239C74.3302 262.961 69.0645 267.698 69.0645 273.544C69.0645 279.388 74.3302 284.128 80.8239 284.128H163.703C164.231 284.128 164.579 283.63 164.348 283.202C161.067 277.084 161.077 269.972 164.325 263.882Z" fill="#86B1F2"/>
<path d="M163.801 264.931H122.736C115.114 264.931 108.935 268.901 108.935 273.798C108.935 278.695 115.114 282.666 122.736 282.666H164.07C161.245 277.024 161.168 270.598 163.801 264.931Z" fill="#DAE9FF"/>
<path d="M153.195 269.135H147.847C146.696 269.135 145.765 269.521 145.765 269.997V270.074H153.195V269.135Z" fill="#497369"/>
<path d="M157.757 271.297C157.757 270.102 156.36 269.135 154.639 269.135H147.776C149.084 269.135 150.143 269.87 150.143 270.777L150.11 293.964L153.901 290.983L157.767 293.964L157.757 271.297Z" fill="#69C8B2"/>
<path d="M149.09 262.198H100.879C96.605 262.198 93.1377 258.086 93.1377 253.012C93.1377 247.938 96.6025 243.826 100.879 243.826H149.09C145.406 248.92 145.262 256.39 148.746 261.678L149.09 262.198Z" fill="#FAF7F2"/>
<path d="M93.1443 253.009C93.1443 247.936 96.6913 243.823 101.068 243.823H150.008C150.238 243.823 150.422 243.606 150.419 243.342C150.417 243.081 150.235 242.872 150.008 242.872H72.3705C67.5406 242.872 63.625 247.41 63.625 253.012C63.625 258.611 67.5406 263.152 72.3705 263.152H150.008C150.233 263.152 150.417 262.941 150.419 262.682C150.422 262.417 150.238 262.201 150.008 262.201H101.068C96.6913 262.198 93.1443 258.083 93.1443 253.009Z" fill="#466EB6"/>
<path d="M140.673 248.337H135.326C134.175 248.337 133.243 248.716 133.243 249.184V249.259H140.673V248.337Z" fill="#184655"/>
<path d="M145.236 250.459C145.236 249.288 143.838 248.337 142.117 248.337H135.255C136.563 248.337 137.621 249.057 137.621 249.946L137.589 272.685L141.38 269.761L145.246 272.685L145.236 250.459Z" fill="#3C8F7C"/>
<path d="M225.904 107.883L233.021 106.01L228.196 170.349L219.657 170.633L223.964 110.22C224.046 109.106 224.826 108.167 225.904 107.883Z" fill="#184655"/>
<path d="M228.835 172.183C228.675 172.198 228.513 172.195 228.346 172.175C226.934 172.009 225.885 170.604 226.01 169.034L230.748 108.536C230.87 106.969 232.115 105.834 233.53 106C234.945 106.167 235.991 107.572 235.866 109.141L231.129 169.64C231.019 171.025 230.035 172.073 228.835 172.183Z" fill="#B0B3FF"/>
<path d="M163.333 175.406C163.335 175.451 163.338 175.496 163.343 175.54C163.567 178.001 165.473 179.842 167.602 179.653L227.707 174.273C229.837 174.083 231.381 171.931 231.159 169.47C231.149 169.366 231.137 169.264 231.122 169.161L163.333 175.406Z" fill="#B0B3FF"/>
<path d="M205.186 240.388C201.251 242.57 189.22 238.744 189.22 238.398C189.048 241.686 175.749 273.868 175.749 273.868L175.759 283.769C175.759 283.769 203.161 285.074 202.768 282.653C202.374 280.232 200.899 281.806 195.434 277.233C194.949 276.827 187.274 275.046 189.352 270.503C193.534 261.354 202.416 246.1 205.186 240.388Z" fill="#FAD1C8"/>
<path d="M174.862 284.123L204.857 284.13C205.941 284.021 206.192 283.139 205.811 282.604C205.024 281.5 199.275 278.902 195.412 277.176C188.682 277.963 176.85 275.375 175.766 273.838C172.914 277.657 174.257 283.998 174.862 284.123Z" fill="#3C8F7C"/>
<path d="M168.279 217.283C167.873 216.065 194.104 204.933 195.277 206.206C197.355 208.455 181.084 250.685 181.084 250.685L199.776 256.397C199.776 256.397 219.207 207.608 218.398 198.683C217.586 189.759 207.851 179.618 186.759 186.109C165.666 192.601 168.279 217.283 168.279 217.283Z" fill="#4178DC"/>
<path d="M222.59 245.938C218.161 245.131 212.422 244.901 207.829 244.822C208.369 248.912 211 269.89 210.519 271.178C208.571 276.399 204.252 278.842 204.252 278.842C204.252 278.842 224.62 297.22 225.85 295.098C227.081 292.975 224.941 293.259 223.611 286.257C223.494 285.635 220.547 275.863 220.365 270.59C220.017 260.539 222.438 251.522 222.59 245.938Z" fill="#FAD1C8"/>
<path d="M216.056 177.314C213.214 175.797 205.838 175.745 197.726 176.27C181.911 177.294 166.303 180.408 151.261 185.389L141.195 188.725L141.228 178.405C141.228 178.405 109.205 173.047 108.092 180.983C106.413 192.934 108.495 217.2 119.166 222.616C152.307 239.439 198.749 195.816 198.916 201.523C199.143 209.187 205.604 237.71 207.256 250.197C211.851 250.277 219.745 250.274 223.167 249.487C223.832 225.024 224.146 181.631 216.056 177.314Z" fill="#A5C5FF"/>
<path d="M203.63 279.275L226.526 297.566C227.433 298.166 228.188 297.646 228.23 296.991C228.32 295.638 225.52 289.984 223.624 286.203C217.92 282.546 210.395 273.006 210.53 271.133C208.121 273.168 203.244 278.795 203.63 279.275Z" fill="#3C8F7C"/>
<path d="M151.804 77.5571C151.034 70.5253 150.225 63.4687 144.396 58.3151C139.678 54.1453 133.683 53.4379 127.752 55.6698C110.951 61.9916 119.607 76.9119 98.1855 91.9568C91.5274 96.6322 84.1917 99.8305 79.1801 106.125C72.1658 114.935 74.8136 125.534 81.2077 132.61C111.798 166.466 145.953 120.744 148.404 109.767C150.23 101.601 152.3 82.083 151.804 77.5571Z" fill="#2F2F2F"/>
<path d="M145.594 117.092C143.096 112.487 140.52 108.83 140.52 108.83C137.927 104.222 131.232 101.893 131.232 101.893C131.232 101.893 128.992 101.938 126.419 102.065C126.26 102.491 126.098 102.797 125.934 102.919C124.967 103.644 119.428 102.708 115.851 105.139C103.857 115.419 107.175 165.248 108.119 180.986L144.643 181.332C144.643 181.332 140.037 147.469 147.46 138.768C152.628 132.708 149.303 123.927 145.594 117.092Z" fill="#50BFA5"/>
<path d="M129.129 85.0347C129.129 85.0347 127.122 99.3722 125.719 102.857C124.317 106.342 133.429 113.792 141.011 116.054C148.593 118.315 138.694 108.357 139.008 104.633C139.322 100.909 140.699 83.2737 140.699 83.2737L129.129 85.0347Z" fill="#FAD1C8"/>
<path d="M140.32 88.3302C140.542 85.4133 140.703 83.2737 140.703 83.2737L129.131 85.0347C129.131 85.0347 128.839 86.7186 128.516 89.1023C133.208 91.8224 137.425 90.963 140.32 88.3302Z" fill="#F29581"/>
<path d="M132.76 58.8463C132.76 58.8463 128.199 59.875 125.382 64.1718C122.564 68.4685 120.634 81.1222 129.908 87.028C139.184 92.9339 146.397 84.5795 146.517 76.4319C146.636 68.2817 144.89 57.4091 132.76 58.8463Z" fill="#FAD1C8"/>
<path d="M148.641 73.8808C147.849 75.8461 146.28 77.0666 145.134 76.6058C143.988 76.145 143.702 74.1772 144.494 72.2119C145.286 70.2466 146.855 69.0261 148.001 69.4869C149.144 69.9477 149.431 71.9155 148.641 73.8808Z" fill="#FAD1C8"/>
<path d="M134.128 58.5791C134.128 58.5791 128.314 71.6213 123.205 72.787C118.096 73.9528 118.171 80.5137 118.171 80.5137C118.171 80.5137 118.286 65.3592 123.073 61.882C127.86 58.4047 134.128 58.5791 134.128 58.5791Z" fill="#2F2F2F"/>
<path d="M125.235 75.4973C125.907 77.6145 125.292 79.7019 123.86 80.1552C122.428 80.6086 120.721 79.261 120.049 77.1438C119.376 75.0265 119.992 72.9392 121.424 72.4858C122.856 72.03 124.562 73.3776 125.235 75.4973Z" fill="#FAD1C8"/>
<path d="M190.563 169.657C188.371 168.865 185.11 168.766 185.165 168.477C185.384 167.306 195.066 171.062 193.758 169.353C193.031 168.402 185.785 165.032 184.024 165.59C182.315 166.13 171.094 169.279 171.094 169.279L140.429 162.093C140.429 162.093 132.69 144.504 131.932 129.392C125.533 130.257 121.179 131.838 115.617 134.925C118.3 149.377 124.816 172.801 132.022 177.195C135.053 179.043 171.243 174.983 171.243 174.983C171.243 174.983 179.219 174.42 180.522 173.919C181.511 173.538 184.054 172.106 185.439 171.715C188.585 170.823 194.192 173.06 194.209 172.445C194.224 171.991 192.802 170.467 190.563 169.657Z" fill="#FAD1C8"/>
<path d="M132.121 113.244C131.827 108.594 130.066 104.105 125.117 102.658C122.051 101.761 118.611 102.618 116.16 104.621C113.246 107.002 112.431 110.82 112.443 114.435C112.473 122.642 113.034 131.153 114.533 139.234C120.093 136.148 126.584 134.292 132.983 133.428C132.983 133.383 132.512 119.389 132.121 113.244Z" fill="#96D9C9"/>
<path d="M49.1371 190.822L1.59626 181.969C0.642259 181.792 0.0120626 180.873 0.188915 179.919L6.1446 147.939C6.32145 146.985 7.24058 146.355 8.19458 146.532L55.7354 155.384C56.6894 155.561 57.3196 156.48 57.1427 157.434L51.1871 189.415C51.0102 190.369 50.0911 190.999 49.1371 190.822Z" fill="#F7CC7F"/>
<path d="M26.5067 154.261L12.0347 151.566C11.0807 151.389 10.4505 150.47 10.6274 149.516L11.5341 144.649C11.7109 143.695 12.6301 143.065 13.5841 143.241L28.056 145.937C29.01 146.113 29.6402 147.033 29.4634 147.987L28.5567 152.854C28.3798 153.808 27.4607 154.438 26.5067 154.261Z" fill="#F7CC7F"/>
<path d="M51.3014 189.599C51.0549 190.473 50.1806 191.016 49.2863 190.849L1.43665 181.94C0.547406 181.773 -0.0728184 180.961 0.00688954 180.057L2.51023 151.389C2.55257 150.896 2.80415 150.443 3.19771 150.141C3.59376 149.842 4.0969 149.723 4.58262 149.812L57.7428 159.711C58.2286 159.801 58.6545 160.092 58.916 160.513C59.1776 160.934 59.2498 161.442 59.1153 161.918L51.3014 189.599Z" fill="#FAE0B2"/>
<path d="M72.478 54.6959L21.3902 72.9191C19.7437 73.507 17.9328 72.6476 17.345 71.0011L7.91453 44.5655C7.32669 42.919 8.18603 41.1082 9.83249 40.5203L60.9203 22.2971C62.5668 21.7093 64.3777 22.5686 64.9655 24.2151L74.3959 50.6482C74.9838 52.2972 74.1269 54.108 72.478 54.6959Z" fill="#86B1F2"/>
<path d="M38.6179 47.9007C40.496 53.1664 37.7511 58.9602 32.4829 60.8383C27.2147 62.7164 21.4234 59.9715 19.5453 54.7033C17.6672 49.4376 20.4121 43.6438 25.6803 41.7657C30.946 39.8876 36.7398 42.635 38.6179 47.9007Z" fill="white"/>
<path d="M30.5337 46.4835C31.0866 48.0353 30.2771 49.744 28.7253 50.2995C27.1735 50.8525 25.4647 50.043 24.9092 48.4911C24.3563 46.9393 25.1658 45.2306 26.7176 44.6751C28.2719 44.1221 29.9807 44.9317 30.5337 46.4835Z" fill="#86B1F2"/>
<path d="M35.3975 54.8104L26.4104 58.0162L26.0517 57.0073C25.3966 55.1666 26.3556 53.144 28.1939 52.4864L30.5179 51.657C32.3586 50.9994 34.3812 51.9608 35.0388 53.7991L35.3975 54.8104Z" fill="#86B1F2"/>
<path d="M39.8775 42.3762C39.332 42.3762 38.8438 42.0324 38.662 41.5193C38.4229 40.8493 38.7741 40.1095 39.4441 39.8704L61.7773 31.9046C61.9168 31.8547 62.0637 31.8298 62.2107 31.8298C62.7562 31.8298 63.2444 32.1736 63.4263 32.6867C63.6654 33.3567 63.3142 34.0965 62.6441 34.3357L40.3109 42.3015C40.169 42.3488 40.0245 42.3762 39.8775 42.3762Z" fill="white"/>
<path d="M45.9059 47.9431C45.3604 47.9431 44.8721 47.5994 44.6903 47.0863C44.4512 46.4162 44.8024 45.6764 45.4724 45.4373L62.916 39.2151C63.0555 39.1653 63.2025 39.1404 63.3494 39.1404C63.8949 39.1404 64.3831 39.4841 64.565 39.9972C64.6795 40.3211 64.6621 40.6723 64.5152 40.9836C64.3682 41.295 64.1067 41.5316 63.7829 41.6462L46.3393 47.8684C46.1998 47.9157 46.0528 47.9431 45.9059 47.9431Z" fill="white"/>
<path d="M177.956 223.166H54.5982C50.7672 223.166 47.6611 226.272 47.6611 230.103V235.937C47.6611 239.768 50.7672 242.874 54.5982 242.874H177.956L177.891 242.807C172.616 237.314 172.643 228.626 177.956 223.166Z" fill="#8285E0"/>
<path d="M175.775 226.083H109.829C105.998 226.083 102.892 229.189 102.892 233.02C102.892 236.851 105.998 239.957 109.829 239.957H175.772C173.348 235.66 173.351 230.375 175.775 226.083Z" fill="#FAF7F2"/>
<path d="M216.5 75.2366L207.15 51.7776C206.679 50.5969 207.254 49.2593 208.435 48.7885L242.082 35.3777C243.262 34.9069 244.6 35.4823 245.071 36.663L254.421 60.122C254.892 61.3027 254.317 62.6403 253.136 63.1111L219.489 76.5219C218.309 76.9927 216.971 76.4173 216.5 75.2366Z" fill="#FAE0B2"/>
<path d="M248.243 61.6715L239.841 40.5913C239.706 40.2525 239.871 39.8689 240.21 39.7344C240.548 39.5999 240.932 39.7643 241.066 40.1031L249.468 61.1833C249.603 61.5221 249.438 61.9057 249.099 62.0402C248.761 62.1747 248.377 62.0103 248.243 61.6715Z" fill="#466EB6"/>
<path d="M244.24 58.8943L237.34 41.5852C237.205 41.2464 237.37 40.8628 237.709 40.7283C238.047 40.5938 238.431 40.7582 238.565 41.097L245.465 58.406C245.6 58.7448 245.435 59.1284 245.096 59.2629C244.758 59.3999 244.374 59.2355 244.24 58.8943Z" fill="#466EB6"/>
<path d="M243.244 63.664L234.842 42.5837C234.707 42.245 234.872 41.8614 235.21 41.7269C235.549 41.5924 235.933 41.7567 236.067 42.0955L244.469 63.1758C244.604 63.5145 244.439 63.8981 244.1 64.0326C243.762 64.1671 243.378 64.0027 243.244 63.664Z" fill="#466EB6"/>
<path d="M238.826 59.8507L232.34 43.5803C232.205 43.2416 232.37 42.8579 232.709 42.7234C233.047 42.5889 233.431 42.7533 233.565 43.0921L240.052 59.3625C240.186 59.7012 240.022 60.0848 239.683 60.2193C239.344 60.3538 238.961 60.1894 238.826 59.8507Z" fill="#466EB6"/>
<path d="M248.015 38.3416L247.846 37.9182C247.784 37.7612 247.614 37.6815 247.467 37.7413L244.274 39.0141C244.127 39.0714 244.057 39.2458 244.119 39.4027L244.289 39.8262C244.351 39.9831 244.521 40.0628 244.667 40.003L247.861 38.7302C248.008 38.6729 248.077 38.4985 248.015 38.3416Z" fill="#355389"/>
<path d="M248.74 40.1578L248.57 39.7343C248.508 39.5774 248.339 39.4977 248.192 39.5575L244.999 40.8303C244.852 40.8876 244.782 41.0619 244.844 41.2189L245.013 41.6423C245.076 41.7993 245.245 41.879 245.392 41.8192L248.585 40.5463C248.732 40.4891 248.802 40.3147 248.74 40.1578Z" fill="#355389"/>
<path d="M249.463 41.9737L249.293 41.5503C249.231 41.3933 249.061 41.3136 248.915 41.3734L245.721 42.6463C245.574 42.7035 245.504 42.8779 245.567 43.0348L245.736 43.4582C245.798 43.6152 245.968 43.6949 246.115 43.6351L249.308 42.3623C249.457 42.305 249.525 42.1306 249.463 41.9737Z" fill="#355389"/>
<path d="M250.187 43.7894L250.018 43.3659C249.955 43.209 249.786 43.1293 249.639 43.1891L246.446 44.4619C246.299 44.5217 246.229 44.6936 246.291 44.8505L246.461 45.2764C246.523 45.4333 246.692 45.513 246.839 45.4533L250.033 44.1804C250.18 44.1206 250.249 43.9463 250.187 43.7894Z" fill="#355389"/>
<path d="M250.909 45.6053L250.739 45.1818C250.677 45.0249 250.508 44.9452 250.361 45.005L247.168 46.2778C247.021 46.3376 246.951 46.5119 247.013 46.6664L247.182 47.0898C247.245 47.2468 247.414 47.3265 247.561 47.2667L250.754 45.9939C250.904 45.9366 250.971 45.7622 250.909 45.6053Z" fill="#355389"/>
<path d="M251.633 47.421L251.464 46.9975C251.402 46.8406 251.232 46.7609 251.085 46.8207L247.892 48.0935C247.745 48.1533 247.675 48.3252 247.738 48.4821L247.907 48.9055C247.969 49.0624 248.139 49.1422 248.286 49.0824L251.479 47.8096C251.626 47.7523 251.696 47.5779 251.633 47.421Z" fill="#355389"/>
<path d="M252.357 49.2369L252.188 48.8134C252.125 48.6565 251.956 48.5768 251.809 48.6366L248.616 49.9094C248.469 49.9692 248.399 50.1411 248.461 50.298L248.631 50.7214C248.693 50.8784 248.862 50.9581 249.009 50.8983L252.203 49.6254C252.352 49.5682 252.419 49.3938 252.357 49.2369Z" fill="#355389"/>
<path d="M253.082 51.053L252.912 50.6296C252.85 50.4727 252.681 50.393 252.534 50.4527L249.34 51.7256C249.193 51.7854 249.124 51.9572 249.186 52.1141L249.355 52.5376C249.418 52.6945 249.587 52.7742 249.734 52.7144L252.927 51.4416C253.074 51.3843 253.144 51.21 253.082 51.053Z" fill="#355389"/>
<path d="M253.805 52.8685L253.636 52.445C253.574 52.2881 253.404 52.2084 253.257 52.2682L250.064 53.541C249.917 53.6008 249.847 53.7727 249.91 53.9296L250.079 54.3531C250.141 54.51 250.311 54.5897 250.458 54.5299L253.651 53.2571C253.8 53.1998 253.868 53.0254 253.805 52.8685Z" fill="#355389"/>
<path d="M254.53 54.6846L254.36 54.2612C254.298 54.1042 254.129 54.0246 253.982 54.0843L250.789 55.3572C250.642 55.4169 250.572 55.5888 250.634 55.7458L250.803 56.1692C250.866 56.3261 251.035 56.4058 251.182 56.3461L254.375 55.0732C254.522 55.0159 254.592 54.8416 254.53 54.6846Z" fill="#355389"/>
<path d="M255.252 56.5004L255.082 56.0744C255.02 55.9175 254.851 55.8378 254.704 55.8976L251.51 57.1704C251.363 57.2302 251.294 57.4021 251.356 57.559L251.525 57.9824C251.588 58.1393 251.757 58.219 251.904 58.1593L255.097 56.8864C255.247 56.8316 255.314 56.6573 255.252 56.5004Z" fill="#355389"/>
<path d="M255.976 58.3162L255.807 57.8928C255.744 57.7358 255.575 57.6561 255.428 57.7159L252.235 58.9888C252.088 59.046 252.018 59.2204 252.08 59.3773L252.25 59.8008C252.312 59.9577 252.481 60.0374 252.628 59.9776L255.822 58.7048C255.969 58.645 256.038 58.4731 255.976 58.3162Z" fill="#355389"/>
<path d="M264.798 56.4478L251.445 75.4631C251.415 75.5055 251.392 75.5528 251.375 75.6026L250.015 79.7798C249.856 80.2655 250.419 80.6665 250.827 80.3602L254.401 77.6651C254.446 77.6327 254.484 77.5928 254.516 77.548L267.904 58.4828C268.076 58.2387 268.009 57.9025 267.757 57.7406L265.511 56.3058C265.272 56.1564 264.96 56.2186 264.798 56.4478Z" fill="#B75742"/>
<path d="M254.499 77.5679L254.467 77.6152L251.017 80.2157L250.075 79.5855L251.365 75.625C252.377 76.178 253.587 76.7459 254.499 77.5679Z" fill="#F7CC7F"/>
</svg>
