<svg width="39" height="40" viewBox="0 0 39 40" fill="none" xmlns="http://www.w3.org/2000/svg">
<path d="M18.0102 8.85022C18.1498 10.9508 18.2225 13.0505 18.2716 15.1511C18.3029 16.2009 18.3097 17.2516 18.3274 18.3015L18.3461 21.4519L18.3283 24.6024C18.3097 25.6522 18.3037 26.7029 18.2724 27.7528C18.2234 29.8534 18.1498 31.9531 18.0102 34.0537C17.8697 31.9531 17.797 29.8534 17.7479 27.7528C17.7166 26.7029 17.7107 25.6522 17.6921 24.6024L17.6743 21.4519L17.6929 18.3015C17.7115 17.2516 17.7183 16.2009 17.7488 15.1511C17.7978 13.0505 17.8706 10.9499 18.0102 8.85022Z" fill="#4D4A44"/>
<path d="M10.0506 19.594C11.2502 18.3047 12.5514 17.1102 13.9084 15.9808C15.273 14.8607 16.7028 13.8109 18.234 12.9099C18.9988 12.4582 19.789 12.0436 20.6139 11.6959C21.4379 11.3482 22.2924 11.0547 23.1841 10.8787C23.4091 10.844 23.6316 10.7967 23.8583 10.7721L24.2001 10.7408L24.371 10.7256C24.3812 10.7239 24.4049 10.7231 24.4302 10.7239C24.4548 10.7247 24.4785 10.7239 24.503 10.7273C24.5512 10.7324 24.5994 10.7417 24.6468 10.7561C24.8355 10.8136 24.9937 10.9464 25.0851 11.1164C25.179 11.2848 25.2018 11.4997 25.1426 11.6858L25.1324 11.7196L25.124 11.7408L25.1079 11.7839L25.0749 11.8694C25.0521 11.926 25.0267 11.9785 25.003 12.0335C24.9548 12.1418 24.8998 12.2433 24.8465 12.3465C24.4049 13.151 23.8795 13.8676 23.3423 14.5757C22.2534 15.9774 21.0893 17.3048 19.9024 18.6093C18.707 19.9019 17.5124 21.1954 16.2899 22.4619C13.8525 25.0024 11.367 27.498 8.77393 29.8803C11.169 27.3 13.5437 24.708 15.9058 22.104C17.0809 20.7961 18.2645 19.4976 19.4295 18.1821C20.5953 16.8725 21.7484 15.5485 22.8093 14.1654C23.3389 13.4767 23.8592 12.7712 24.2686 12.0343C24.3169 11.9421 24.3668 11.8499 24.4082 11.7577C24.4285 11.712 24.4522 11.6655 24.47 11.6198L24.4971 11.5521L24.5106 11.5183L24.5174 11.5014C24.5182 11.498 24.5182 11.4971 24.5182 11.4954C24.536 11.454 24.5038 11.3897 24.4556 11.377C24.4497 11.3745 24.4438 11.3736 24.4379 11.3728C24.4353 11.3711 24.4311 11.3736 24.4277 11.3728C24.426 11.3719 24.4218 11.3719 24.4049 11.3736L24.2475 11.3872L23.9319 11.4142C23.7221 11.4362 23.5123 11.4751 23.3025 11.5039C22.4641 11.6536 21.6401 11.9184 20.8389 12.2399C20.0377 12.5648 19.256 12.9463 18.4929 13.3659C16.9693 14.2102 15.5133 15.189 14.1114 16.2405C12.7079 17.2887 11.3534 18.4113 10.0506 19.594Z" fill="#4D4A44"/>
<path d="M26.9266 9.72369C27.1601 9.26108 27.0792 8.74971 26.7459 8.58149C26.4126 8.41328 25.9531 8.65193 25.7196 9.11453C25.4862 9.57714 25.5671 10.0885 25.9004 10.2567C26.2337 10.4249 26.6931 10.1863 26.9266 9.72369Z" fill="#4D4A44"/>
<path d="M1.15525 10.3308L0.99197 10.5753C0.932749 10.5601 0.882835 10.5389 0.842226 10.5119C0.812616 10.4924 0.796541 10.4704 0.793157 10.4467C0.789773 10.423 0.799079 10.3943 0.821076 10.3604L1.38367 9.51698C1.73477 8.98994 2.03595 8.67862 2.28722 8.58302C2.53764 8.48743 2.81005 8.53734 3.10362 8.73361C3.40903 8.93664 3.57316 9.20397 3.596 9.5339C3.61969 9.86384 3.46148 10.2826 3.12308 10.7902L3.05117 10.8976C3.48602 11.1836 3.77958 11.3705 3.93102 11.4602L4.14591 11.1379C4.19921 11.1489 4.24574 11.1675 4.28465 11.1937C4.31934 11.2174 4.33964 11.2402 4.34387 11.2639C4.34895 11.2876 4.33964 11.3164 4.31596 11.3519L3.64084 12.3637C3.58077 12.3502 3.53001 12.3299 3.4894 12.3028C3.45979 12.2833 3.44372 12.2613 3.43949 12.2377C3.4361 12.214 3.44541 12.1852 3.46825 12.1514L3.596 11.9593C3.40818 11.8181 2.91073 11.478 2.10363 10.9399C1.67555 10.6531 1.35829 10.4501 1.15525 10.3308ZM2.90058 10.5508C3.107 10.2411 3.20683 9.99581 3.20091 9.81308C3.19499 9.63035 3.0867 9.46876 2.87604 9.32833C2.67384 9.19297 2.47842 9.14729 2.28891 9.18959C2.10025 9.23189 1.91751 9.3867 1.73985 9.65234C1.68062 9.74117 1.63409 9.82577 1.6011 9.90698C1.71447 9.99919 1.99534 10.1946 2.44373 10.4932L2.78721 10.7225L2.90058 10.5508Z" fill="#4D4A44"/>
<path d="M6.34315 8.89062C6.08935 9.15541 5.833 9.28231 5.57328 9.27216C5.31355 9.26201 5.04283 9.12158 4.75941 8.85002C4.4337 8.53785 4.2535 8.21976 4.21712 7.89575C4.18159 7.57174 4.29918 7.26803 4.5716 6.98379C4.8254 6.71899 5.08259 6.5921 5.34147 6.60225C5.6012 6.6124 5.87277 6.75368 6.15703 7.02608C6.4819 7.3374 6.66125 7.65465 6.69763 7.97781C6.73401 8.30267 6.61641 8.60722 6.34315 8.89062ZM6.16464 8.58607C6.29831 8.44733 6.3423 8.2959 6.29662 8.13347C6.25093 7.97104 6.1198 7.78493 5.90153 7.57512C5.65026 7.33402 5.43369 7.18767 5.2501 7.13437C5.06652 7.08107 4.89985 7.13268 4.75011 7.28918C4.61728 7.42792 4.57244 7.57935 4.61813 7.74178C4.66297 7.90421 4.79579 8.09117 5.01491 8.30182C5.26448 8.54123 5.48106 8.68759 5.66465 8.74088C5.84908 8.79418 6.01574 8.74258 6.16464 8.58607Z" fill="#4D4A44"/>
<path d="M7.13001 6.12281C6.68755 5.56108 6.40329 5.20577 6.27808 5.05688C6.15202 4.90798 6.06404 4.81577 6.01328 4.78024C5.96252 4.74471 5.91683 4.73287 5.87368 4.74471C5.83138 4.75655 5.78485 4.78278 5.73325 4.82339C5.68333 4.79632 5.64272 4.76248 5.61142 4.72271C5.57927 4.68126 5.57589 4.64235 5.60127 4.60512C5.62665 4.5679 5.73155 4.47653 5.91598 4.33103C6.02089 4.24812 6.09618 4.19736 6.14102 4.17875C6.18586 4.15929 6.22224 4.16098 6.24847 4.18467C6.27469 4.20751 6.31446 4.25235 6.36691 4.31834L7.67907 5.98492C7.93118 6.30216 8.13507 6.55003 8.28905 6.72684L8.50986 6.55257C8.553 6.57456 8.59023 6.60587 8.62153 6.64478C8.64945 6.68031 8.66214 6.71077 8.65791 6.73615C8.65368 6.76068 8.63084 6.78944 8.59023 6.82159L7.79751 7.44508C7.74675 7.41632 7.70699 7.38332 7.67738 7.3461C7.65454 7.31649 7.64439 7.28942 7.64777 7.26404C7.65115 7.23866 7.66977 7.21243 7.70276 7.18621L7.84997 7.07031C7.7163 6.87743 7.47603 6.56188 7.13001 6.12281Z" fill="#4D4A44"/>
<path d="M9.09098 3.45129C9.36171 3.29225 9.60113 3.23811 9.80671 3.28971C10.0131 3.34047 10.2026 3.5139 10.3752 3.8083C10.4514 3.93773 10.481 4.04179 10.4641 4.12046C10.4471 4.19914 10.36 4.28374 10.2026 4.3768L9.23734 4.9436C9.37947 5.17963 9.53683 5.33783 9.70857 5.41904C9.88031 5.50026 10.0834 5.47234 10.3185 5.33445C10.5368 5.20586 10.7069 5.02989 10.8287 4.80655C10.9277 4.83278 10.9987 4.88015 11.0394 4.95037C11.0969 5.04766 11.0563 5.16356 10.9184 5.29722C10.7805 5.43089 10.6104 5.55778 10.4082 5.67622C10.0351 5.89533 9.72126 5.97316 9.46577 5.91056C9.21027 5.84796 8.97339 5.62969 8.75342 5.25492C8.53685 4.88608 8.45817 4.54176 8.51485 4.22114C8.57238 3.89882 8.76442 3.64249 9.09098 3.45129ZM9.17982 3.79307C9.0343 3.87851 8.95393 3.99526 8.93955 4.14415C8.92517 4.29304 8.97931 4.48001 9.10198 4.70588L9.32702 4.57391C9.5656 4.43348 9.72634 4.33365 9.80671 4.27274C9.88793 4.21268 9.92854 4.16699 9.93023 4.13738C9.93107 4.10778 9.91415 4.06294 9.87947 4.00287C9.79487 3.85821 9.6925 3.76685 9.57152 3.72793C9.44969 3.68902 9.31941 3.71101 9.17982 3.79307Z" fill="#4D4A44"/>
<path d="M14.8825 0.216174L15.9967 0.0452863C16.4578 -0.025776 16.8081 -0.0130863 17.0483 0.0825094C17.2886 0.178105 17.429 0.355761 17.4688 0.616323C17.5297 1.01563 17.3351 1.34048 16.8851 1.59005C17.4849 1.58835 17.8191 1.81085 17.8876 2.25668C17.9324 2.55023 17.8504 2.80487 17.6405 3.01891C17.4307 3.23294 17.0289 3.38606 16.4341 3.47658L15.3275 3.64916C15.2971 3.59587 15.2776 3.54426 15.27 3.4935C15.2649 3.45966 15.27 3.43428 15.2852 3.41567C15.3005 3.39706 15.3275 3.38522 15.3682 3.37845L15.5534 3.34969C15.5289 3.1145 15.4578 2.60861 15.3394 1.83453C15.2328 1.13829 15.155 0.674696 15.1084 0.444589L14.8428 0.485196C14.8123 0.431899 14.7937 0.38114 14.7861 0.332074C14.7802 0.297388 14.7853 0.270317 14.8005 0.251705C14.8149 0.234786 14.8428 0.222942 14.8825 0.216174ZM15.8682 1.57566C15.9671 1.57397 16.0754 1.56467 16.1939 1.54606C16.468 1.50376 16.6575 1.42508 16.7624 1.31003C16.8681 1.19497 16.9062 1.04523 16.8783 0.861657C16.8487 0.667928 16.7666 0.535109 16.6338 0.462355C16.5001 0.3896 16.3072 0.372681 16.0526 0.411596C15.9324 0.430207 15.8191 0.455587 15.7133 0.489426C15.7404 0.703459 15.7912 1.06554 15.8682 1.57566ZM15.9231 1.93605L16.0145 2.53247C16.0602 2.82602 16.1084 3.0003 16.16 3.05359C16.2116 3.10689 16.3715 3.11366 16.6389 3.0722C16.8994 3.03244 17.0788 2.958 17.1778 2.84971C17.2768 2.74143 17.3106 2.58915 17.281 2.39204C17.248 2.17546 17.1499 2.0198 16.9891 1.92505C16.8275 1.83115 16.6 1.80662 16.3064 1.85145C16.1643 1.87345 16.0374 1.90137 15.9231 1.93605Z" fill="#4D4A44"/>
<path d="M19.9071 3.29293C19.5408 3.28194 19.2743 3.17619 19.1076 2.97654C18.941 2.77689 18.8648 2.48164 18.8767 2.08995C18.8911 1.63904 19.0061 1.29219 19.2227 1.04855C19.4393 0.804905 19.7438 0.689852 20.1372 0.701696C20.5036 0.712693 20.7701 0.818441 20.9367 1.01809C21.1025 1.21774 21.1795 1.51384 21.1677 1.90722C21.1533 2.35643 21.0382 2.70244 20.8217 2.94608C20.6051 3.18888 20.3005 3.30478 19.9071 3.29293ZM20.0137 2.95623C20.2066 2.96215 20.3479 2.89363 20.4384 2.75151C20.5289 2.60854 20.5789 2.38689 20.589 2.08403C20.5992 1.73633 20.5636 1.47661 20.4799 1.30488C20.3961 1.13315 20.2464 1.04432 20.0306 1.03755C19.8378 1.03163 19.6965 1.10015 19.6059 1.24228C19.5154 1.38525 19.4655 1.60774 19.4554 1.91229C19.4452 2.2583 19.4807 2.51717 19.5645 2.6889C19.6482 2.86064 19.7971 2.94947 20.0137 2.95623Z" fill="#4D4A44"/>
<path d="M23.6902 3.52816C23.521 3.58569 23.367 3.62038 23.2283 3.63053C23.0895 3.64153 22.9508 3.63222 22.812 3.60261C22.5311 3.54339 22.3323 3.41396 22.2164 3.21346C22.1005 3.01296 22.0861 2.70503 22.1733 2.28796C22.2697 1.82859 22.4432 1.4995 22.6953 1.3007C22.9474 1.10274 23.2739 1.04521 23.6758 1.12896C23.7722 1.14927 23.8509 1.17042 23.9135 1.1941C23.9761 1.21779 24.0345 1.24233 24.0895 1.2694C24.1149 1.14673 24.1394 1.0156 24.1631 0.874324C24.1868 0.733045 24.1953 0.632374 24.1902 0.570617C24.1851 0.50886 24.164 0.465715 24.1267 0.441182C24.0895 0.415803 24.0396 0.397191 23.977 0.383655C23.966 0.327821 23.966 0.27537 23.9761 0.225457C23.9871 0.173852 24.0142 0.145935 24.0582 0.141705C24.1022 0.136629 24.2401 0.158625 24.4719 0.207691C24.6022 0.234763 24.6902 0.260142 24.7333 0.282138C24.7773 0.304133 24.7985 0.332897 24.7985 0.368428C24.7976 0.403959 24.7892 0.462332 24.7722 0.545238L24.4 2.32095C24.268 2.95205 24.2054 3.32344 24.2122 3.43341C24.2189 3.54339 24.2545 3.59838 24.3188 3.59838C24.334 3.64153 24.3374 3.68129 24.3298 3.71766C24.3205 3.76419 24.2562 3.79634 24.1377 3.81411C24.0193 3.83272 23.9254 3.83441 23.8552 3.82003C23.8137 3.81157 23.7824 3.78957 23.7604 3.75489C23.7393 3.72189 23.7156 3.64576 23.6902 3.52816ZM23.5227 1.44536C23.3247 1.40391 23.1665 1.44282 23.0489 1.56211C22.9313 1.68139 22.8374 1.91065 22.7663 2.24989C22.7037 2.54767 22.697 2.78962 22.746 2.97658C22.7951 3.16355 22.9195 3.2786 23.1191 3.32005C23.2249 3.34205 23.3264 3.3412 23.4228 3.31751C23.5193 3.29383 23.5912 3.25068 23.6377 3.18893C23.6843 3.12717 23.7359 2.96136 23.7926 2.69149L24.0041 1.6797C23.9508 1.63401 23.8848 1.58918 23.8061 1.54519C23.7266 1.50204 23.6318 1.4682 23.5227 1.44536Z" fill="#4D4A44"/>
<path d="M27.9169 2.87346C27.7494 3.07396 27.4042 3.49779 26.8814 4.14582C26.3586 4.79384 26.0168 5.16268 25.8543 5.25236C25.6919 5.34203 25.5345 5.37841 25.3823 5.36064C25.23 5.34372 25.0658 5.29973 24.8899 5.22952C24.719 5.16099 24.6132 5.10431 24.5718 5.05863C24.5312 5.01294 24.5235 4.95626 24.5506 4.88943C24.5836 4.80653 24.6411 4.74139 24.7215 4.6957C24.9922 4.87336 25.2004 4.98249 25.3459 5.02394C25.4914 5.0654 25.7198 4.89705 26.0311 4.51889C25.9025 4.46221 25.8349 4.42753 25.8273 4.41568C25.8196 4.40299 25.8425 4.10605 25.8975 3.52402C25.9525 2.94199 25.9838 2.58498 25.9914 2.4547C25.999 2.32357 26.0007 2.23221 25.9956 2.17807C25.9905 2.12392 25.9728 2.08501 25.9423 2.06132C25.9119 2.03763 25.8696 2.01395 25.8146 1.99195C25.8146 1.93189 25.8239 1.88028 25.8416 1.83629C25.8628 1.78299 25.9025 1.76184 25.9601 1.77284C26.0176 1.78384 26.1276 1.82275 26.2909 1.88789C26.4161 1.93781 26.4981 1.97926 26.5362 2.01225C26.5743 2.04525 26.5937 2.08416 26.5954 2.13154C26.5963 2.17807 26.5785 2.29989 26.5404 2.49615C26.5024 2.69242 26.4558 3.02489 26.4 3.49441C26.3433 3.96393 26.3222 4.20165 26.3366 4.20757C26.3509 4.21349 26.5201 3.99777 26.8442 3.5604C27.1682 3.12303 27.3704 2.83285 27.4499 2.68819L27.323 2.63743C27.3222 2.58414 27.3315 2.53422 27.3501 2.48685C27.3687 2.43947 27.3915 2.41071 27.4169 2.39887C27.4423 2.38702 27.4753 2.38956 27.5167 2.40563L28.18 2.67127C28.1826 2.72372 28.1741 2.77448 28.1538 2.82439C28.1343 2.87262 28.1106 2.90222 28.0836 2.91068C28.0565 2.91999 28.0176 2.91407 27.9677 2.89376L27.9169 2.87346Z" fill="#4D4A44"/>
<path d="M33.2902 4.80823L34.8807 6.28362C34.9517 6.34876 34.9907 6.40375 34.9974 6.44774C35.005 6.49173 34.9814 6.54333 34.9264 6.60255C34.8561 6.67784 34.7605 6.73453 34.6387 6.7709C34.4932 6.45874 34.2157 6.11188 33.8054 5.73204L33.6438 5.5823C33.5051 5.71427 33.2259 6.00698 32.8054 6.46043L33.7233 7.31148C33.6946 7.37493 33.6557 7.4333 33.6066 7.4866C33.5744 7.52129 33.5465 7.53905 33.5237 7.53905C33.5 7.53905 33.4704 7.52298 33.4348 7.48914L32.5838 6.69984C32.1142 7.20912 31.8164 7.53821 31.6921 7.6871L31.9915 7.96458C31.9721 8.01534 31.9459 8.05848 31.9137 8.09317C31.8849 8.12447 31.8587 8.1397 31.835 8.14054C31.8113 8.14139 31.7834 8.12785 31.753 8.09909L30.8799 7.28949C30.9027 7.23196 30.9306 7.18628 30.9645 7.1499C30.989 7.12368 31.0127 7.11099 31.0364 7.11099C31.0601 7.11099 31.0872 7.12537 31.1168 7.15244L31.2547 7.28018C31.423 7.11606 31.8367 6.67869 32.4966 5.96807C32.8494 5.58822 33.1015 5.30736 33.2521 5.12716L33.055 4.94443C33.0778 4.88691 33.1057 4.84122 33.1396 4.80485C33.1633 4.77862 33.1878 4.76593 33.2115 4.76593C33.2335 4.76678 33.2606 4.78031 33.2902 4.80823Z" fill="#4D4A44"/>
<path d="M33.8592 10.0066L34.0284 10.2156C34.0081 10.2604 33.9785 10.2985 33.9387 10.3307C33.9032 10.3594 33.8727 10.3721 33.8482 10.3679C33.8236 10.3645 33.794 10.3417 33.7602 10.2994L33.1333 9.52613C33.1629 9.47622 33.1959 9.43646 33.2323 9.40685C33.261 9.38316 33.2881 9.37301 33.3127 9.37555C33.338 9.37808 33.3634 9.3967 33.3913 9.43054L33.5098 9.57604C33.6993 9.4373 33.9176 9.26895 34.1629 9.07015C34.4624 8.82735 34.6604 8.66323 34.7568 8.57779C34.8532 8.4915 34.9142 8.42467 34.9378 8.37729C34.9624 8.32992 34.9658 8.28592 34.9505 8.24786C34.9345 8.20979 34.9082 8.16749 34.871 8.12181C34.8845 8.08204 34.9099 8.04736 34.9463 8.01775C35.0004 7.9746 35.0537 7.97291 35.107 8.01521C35.1603 8.05666 35.2466 8.15141 35.3659 8.29777C35.4497 8.40098 35.5021 8.47542 35.5216 8.52026C35.5411 8.5651 35.5402 8.60063 35.5174 8.6277C35.4945 8.65477 35.4505 8.69453 35.3854 8.74783L34.4895 9.47368C34.2441 9.67249 34.0335 9.85014 33.8592 10.0066ZM35.7153 8.03974C35.646 7.9543 35.613 7.87732 35.6155 7.80795C35.618 7.73858 35.6527 7.67682 35.7196 7.62268C35.7932 7.56515 35.8718 7.54485 35.9564 7.56092C36.041 7.57699 36.1214 7.63198 36.1967 7.72504C36.2712 7.81725 36.3058 7.89762 36.2999 7.96784C36.294 8.03721 36.2602 8.09812 36.1967 8.14888C36.1256 8.2064 36.0487 8.2284 35.9649 8.21571C35.8811 8.20302 35.7999 8.1438 35.7153 8.03974Z" fill="#4D4A44"/>
<path d="M36.4925 9.83655L36.5839 9.98291L37.303 9.7748C37.3216 9.84671 37.3318 9.91185 37.3326 9.97022C37.3334 10.0286 37.3225 10.0785 37.2996 10.1208C37.2768 10.1631 37.1617 10.2485 36.9544 10.3788L36.8665 10.4338L37.3089 11.1402C37.2725 11.1867 37.2277 11.2273 37.1744 11.2603C37.1329 11.2866 37.1008 11.2959 37.0771 11.2883C37.0534 11.2806 37.0272 11.2536 36.9976 11.2062L36.6135 10.592L35.5974 11.2282C35.3555 11.3796 35.21 11.5014 35.1609 11.5937C35.1118 11.6859 35.1135 11.7781 35.166 11.8703C35.2184 11.9625 35.3157 12.0539 35.4604 12.1444C35.4333 12.2053 35.391 12.2535 35.3352 12.2882C35.259 12.3356 35.182 12.3254 35.1042 12.2578C35.0255 12.1901 34.9299 12.0657 34.8174 11.8855C34.6947 11.6893 34.6457 11.5217 34.6694 11.3822C34.6939 11.2426 34.8149 11.1038 35.034 10.9668L35.5382 10.6504C35.8132 10.4778 36.0746 10.3035 36.3225 10.1267L36.1905 9.91608C36.2311 9.86616 36.2759 9.8264 36.325 9.79595C36.3605 9.7731 36.3918 9.76464 36.4181 9.77057C36.4443 9.77818 36.4688 9.80018 36.4925 9.83655Z" fill="#4D4A44"/>
<path d="M3.02788 30.6944C1.04736 27.588 0 23.9892 0 20.2872C0 18.6519 0.203889 17.0285 0.605745 15.46L0.750413 15.4972C0.351095 17.0538 0.148898 18.6654 0.148898 20.288C0.148898 23.9613 1.1878 27.5322 3.15309 30.6149L3.02788 30.6944Z" fill="#4D4A44"/>
<path d="M35.6535 30.8247L35.5283 30.7435C35.6358 30.5777 35.7415 30.4102 35.8439 30.241C35.9674 30.0371 36.0892 29.8282 36.2051 29.6192C37.7829 26.7818 38.6171 23.5544 38.6171 20.2872C38.6171 18.333 38.3252 16.4058 37.7499 14.5591L37.8929 14.5151C38.4733 16.3771 38.7669 18.3194 38.7669 20.288C38.7669 23.5806 37.9259 26.8325 36.3363 29.6928C36.2195 29.9035 36.0968 30.1141 35.9725 30.3188C35.8684 30.4889 35.7618 30.6581 35.6535 30.8247Z" fill="#4D4A44"/>
<path d="M6.24108 33.4218C5.9932 33.4801 5.76477 33.5021 5.55496 33.4869C5.34515 33.4717 5.19964 33.4226 5.11757 33.3397C5.00505 33.2255 5.04143 33.0783 5.22502 32.8964C5.47798 32.6469 5.77831 32.514 6.12771 32.4971C6.47712 32.4802 6.76307 32.5859 6.98726 32.8127C7.07271 32.899 7.13447 32.9836 7.17254 33.0656C7.15393 33.0758 7.14208 33.0825 7.13785 33.0851L7.05748 33.135C7.00164 33.1697 6.96949 33.1908 6.96188 33.1976L6.33245 33.6612L6.24192 33.728C6.15225 33.7948 6.09387 33.8422 6.06765 33.8676C6.03211 33.9031 6.0245 33.931 6.0448 33.9514C6.11333 34.0216 6.26138 34.0156 6.48896 33.9353C6.49742 33.9708 6.49573 33.9953 6.48219 34.008C6.45343 34.0368 6.35952 34.0588 6.20047 34.0749C5.98474 34.0952 5.83584 34.0647 5.75378 33.981C5.69371 33.9201 5.70471 33.8498 5.78592 33.7695C5.81046 33.7449 5.84853 33.7136 5.89844 33.6756L6.01012 33.5893L6.13617 33.4971L6.24108 33.4218ZM6.80621 33.0055C6.77322 32.888 6.71907 32.7907 6.64293 32.7128C6.52788 32.5961 6.36037 32.5682 6.1404 32.6299C5.92044 32.6908 5.70471 32.8254 5.4949 33.0326C5.38661 33.1392 5.36461 33.2247 5.42806 33.2889C5.50166 33.3625 5.64549 33.3964 5.86291 33.3896C6.15479 33.3812 6.41789 33.2906 6.65224 33.1181L6.80621 33.0055Z" fill="#4D4A44"/>
<path d="M8.76441 36.095L8.33887 36.1576C8.51991 35.8303 8.70265 35.4411 8.88455 34.991C9.03852 34.6078 9.1282 34.3515 9.15358 34.2229C9.17896 34.0943 9.15527 34.0038 9.08336 33.9513C8.95984 33.8608 8.80164 33.8904 8.60959 34.0393C8.57998 34.0063 8.57744 33.975 8.60113 33.9463C8.64682 33.8896 8.74411 33.832 8.89301 33.7728C9.07236 33.7018 9.22633 33.7128 9.35493 33.8067C9.46068 33.8837 9.50806 33.9919 9.49621 34.1307C9.48437 34.2694 9.40823 34.5156 9.26694 34.8692C9.10705 35.266 8.95561 35.6137 8.81263 35.914C9.64849 35.6374 10.1493 35.3853 10.3152 35.1577C10.3803 35.0689 10.3913 34.9784 10.349 34.8853L10.7246 34.8075C10.7805 34.9293 10.7678 35.0452 10.6874 35.156C10.585 35.2956 10.2881 35.4631 9.79739 35.6585L9.4573 35.788L9.20772 35.8861C9.19334 35.892 9.14173 35.914 9.05121 35.9538L8.90231 36.0206C8.88201 36.0299 8.83548 36.0544 8.76441 36.095Z" fill="#4D4A44"/>
<path d="M10.8281 37.0544C10.8459 37.0866 10.8501 37.1102 10.8417 37.1255C10.8205 37.1619 10.7342 37.2075 10.5836 37.2634C10.3806 37.3395 10.2283 37.3471 10.1276 37.2888C10.054 37.2456 10.0456 37.1754 10.1031 37.0773C10.1276 37.0358 10.2173 36.9182 10.3721 36.7228L10.6725 36.3472L10.7486 36.2516L10.8095 36.1754C10.8349 36.1433 10.8552 36.1154 10.8696 36.0908C10.8992 36.0401 10.9001 36.0071 10.8721 35.991C10.7935 35.9445 10.6589 35.9817 10.4677 36.101C10.4584 36.0731 10.4593 36.0502 10.4694 36.0333C10.5058 35.9716 10.6107 35.9225 10.785 35.8853C10.9593 35.848 11.0803 35.8489 11.1479 35.8887C11.2232 35.9335 11.2308 36.0079 11.1691 36.1128C11.1572 36.1331 11.1293 36.1721 11.0845 36.2296L11.0117 36.3226C11.0058 36.3303 10.9762 36.3675 10.9237 36.4352L10.6082 36.8311L10.5363 36.9191C10.4669 37.007 10.4229 37.0671 10.4043 37.0993C10.3789 37.1424 10.3789 37.1712 10.4034 37.1864C10.4864 37.2338 10.6285 37.1906 10.8281 37.0544ZM11.2308 35.6746L11.5413 35.4361C11.6818 35.4555 11.8121 35.4462 11.9322 35.4073C11.9339 35.4267 11.9305 35.4445 11.9212 35.4597C11.8425 35.5951 11.6124 35.667 11.2308 35.6746Z" fill="#4D4A44"/>
<path d="M13.0297 36.9332C13.0153 36.9493 13.006 36.9595 13.0035 36.9628L12.9451 37.0381C12.902 37.0923 12.8783 37.1227 12.874 37.1287L12.5297 37.6743C12.4722 37.7657 12.3783 37.9298 12.248 38.1667C12.0847 38.4636 11.9468 38.6743 11.8317 38.7986C11.7175 38.9238 11.5779 39.0169 11.413 39.0778C11.0348 39.2191 10.704 39.2216 10.4214 39.0837C10.2852 39.0169 10.1939 38.9154 10.149 38.7792C10.1042 38.643 10.1152 38.5051 10.1829 38.3672C10.3208 38.0846 10.6296 37.8909 11.1092 37.7851C11.0636 37.6912 11.0771 37.5711 11.1482 37.4256C11.303 37.1083 11.5424 36.8833 11.8664 36.7505C12.1896 36.6185 12.4942 36.6219 12.7784 36.7606C12.8977 36.8182 12.9823 36.8757 13.0297 36.9332ZM12.2844 37.5948C11.7894 37.8892 11.4274 37.9806 11.1972 37.8689C11.1879 37.8638 11.1719 37.8553 11.1482 37.841C10.7835 37.967 10.5543 38.1261 10.4604 38.3181C10.3969 38.4492 10.3893 38.5812 10.4392 38.7157C10.4891 38.8502 10.583 38.9509 10.7209 39.0177C10.9333 39.1209 11.1422 39.1074 11.347 38.9763C11.5035 38.8748 11.7311 38.5609 12.0289 38.0355C12.1414 37.8359 12.2268 37.6895 12.2844 37.5948ZM12.6625 36.9975C12.6126 36.907 12.5314 36.8342 12.4163 36.7776C12.2725 36.7074 12.1067 36.7378 11.9189 36.8698C11.7311 37.0018 11.5729 37.1997 11.4443 37.4637C11.3774 37.5999 11.385 37.6887 11.4654 37.7276C11.5585 37.7733 11.7057 37.7564 11.9087 37.6785C12.1905 37.5703 12.4062 37.3977 12.5568 37.16L12.6625 36.9975Z" fill="#4D4A44"/>
<path d="M13.1858 38.7684C12.9396 38.6761 12.877 38.4672 12.9989 38.1406C13.097 37.8784 13.2882 37.661 13.5716 37.4892C13.855 37.3175 14.1004 37.271 14.3076 37.3479C14.5572 37.4419 14.6215 37.6508 14.4988 37.9774C14.3999 38.2413 14.2095 38.4587 13.9252 38.6296C13.6427 38.8005 13.3956 38.847 13.1858 38.7684ZM13.4532 38.6584C13.5792 38.7058 13.7104 38.6745 13.8483 38.5662C13.9853 38.4579 14.0928 38.2988 14.1714 38.0899C14.2992 37.7481 14.2569 37.5383 14.0445 37.4588C13.9202 37.4122 13.789 37.4435 13.6511 37.5527C13.5141 37.661 13.4058 37.82 13.3288 38.0281C13.2002 38.3691 13.2417 38.5797 13.4532 38.6584Z" fill="#4D4A44"/>
<path d="M15.3974 38.4514C15.7747 38.0427 16.0843 37.8702 16.3271 37.9353C16.3906 37.9522 16.4498 37.9835 16.5048 38.0301L16.1968 38.2272C16.1664 38.1967 16.1224 38.1747 16.0665 38.1595C15.949 38.1282 15.8001 38.1908 15.619 38.3464C15.438 38.5021 15.3094 38.6798 15.2315 38.8794L15.0759 39.2804L14.8018 39.2982L14.8204 39.2491L14.8618 39.1425L14.9041 39.0359L15.2078 38.2534L15.2417 38.1679C15.2671 38.1037 15.2857 38.0504 15.2967 38.0081C15.3153 37.9395 15.3051 37.8998 15.2662 37.8896C15.1757 37.8651 15.0598 37.9378 14.9194 38.1079C14.8965 38.0791 14.8889 38.0529 14.8965 38.0309C14.9177 37.9632 15.0056 37.8879 15.1579 37.8076C15.3111 37.7272 15.4227 37.6959 15.4946 37.7145C15.5911 37.7399 15.6224 37.8169 15.5885 37.9429C15.5809 37.9734 15.5666 38.014 15.5471 38.0647L15.5039 38.1798L15.4507 38.3177L15.3974 38.4514Z" fill="#4D4A44"/>
<path d="M17.6733 39.5466L17.9847 39.3884C18.0101 39.6786 18.1716 39.8351 18.4686 39.8571C18.6133 39.8681 18.7342 39.8376 18.8324 39.7657C18.9305 39.6938 18.9838 39.5965 18.9931 39.473C19.0058 39.3038 18.9161 39.1287 18.7241 38.9468L18.5253 38.7599C18.3654 38.6067 18.2596 38.4883 18.208 38.4029C18.1573 38.3174 18.1353 38.2244 18.1429 38.1228C18.1573 37.9317 18.2452 37.7794 18.4077 37.666C18.5693 37.5527 18.7672 37.5044 18.9999 37.5222C19.1852 37.5357 19.3569 37.5933 19.516 37.6939L19.3975 37.919L19.3442 38.0188C19.3138 38.0772 19.2816 38.1051 19.2461 38.1025C19.2308 38.1017 19.2156 38.0941 19.2004 38.0814C19.2249 38.0222 19.2385 37.974 19.241 37.9376C19.2469 37.8631 19.2105 37.7971 19.1319 37.7405C19.0532 37.6838 18.9534 37.6508 18.8324 37.6423C18.5574 37.622 18.4111 37.7252 18.3941 37.9528C18.3882 38.034 18.4128 38.1152 18.4686 38.1948C18.5244 38.2751 18.6429 38.4003 18.8248 38.5729L18.9838 38.7252C19.186 38.9164 19.2808 39.1076 19.2664 39.3004C19.2503 39.5128 19.1479 39.6828 18.9584 39.8106C18.7689 39.9383 18.5405 39.9916 18.2723 39.9722C17.9458 39.9485 17.7461 39.8063 17.6733 39.5466Z" fill="#4D4A44"/>
<path d="M20.4196 38.5227L20.3604 39.3002C20.3502 39.4398 20.346 39.5421 20.3477 39.609C20.3519 39.7409 20.3993 39.8052 20.4889 39.8027C20.5854 39.7993 20.6827 39.7164 20.7817 39.554C20.7994 39.576 20.8087 39.5954 20.8096 39.6124C20.8113 39.6775 20.7563 39.7579 20.6446 39.8535C20.5329 39.9482 20.4348 39.9973 20.3519 39.9998C20.1861 40.0049 20.0998 39.9017 20.0922 39.6893C20.0896 39.6115 20.0956 39.4846 20.1099 39.3087L20.1683 38.5312L19.8003 38.543L19.9974 38.3332L20.1835 38.3273L20.2098 38.0075L20.4653 37.9128L20.4356 38.3189L21.1784 38.2943L20.9796 38.5041L20.4196 38.5227Z" fill="#4D4A44"/>
<path d="M22.6998 39.0339C22.5966 39.2555 22.4722 39.4484 22.3267 39.6134C22.1812 39.7783 22.0568 39.868 21.9519 39.8824C21.8369 39.8985 21.7692 39.8308 21.7472 39.6785C21.7396 39.6218 21.7336 39.5279 21.7303 39.3959L21.7117 38.819C21.7117 38.8105 21.71 38.7767 21.7057 38.7166L21.6998 38.6024C21.6981 38.5686 21.6964 38.5381 21.6922 38.5111C21.6829 38.4442 21.6584 38.4138 21.6203 38.4188C21.5323 38.4315 21.4519 38.5432 21.3783 38.7547C21.3538 38.7403 21.3403 38.7234 21.3377 38.7039C21.3276 38.632 21.3775 38.5271 21.4883 38.3901C21.5991 38.253 21.6922 38.1786 21.7675 38.1676C21.8631 38.154 21.9206 38.2133 21.9401 38.3452C21.9443 38.3765 21.9468 38.4129 21.9485 38.4561L21.9519 38.5923L21.9578 38.7403L21.9748 39.2445C21.9773 39.3308 21.9849 39.4171 21.9976 39.5034C22.0086 39.5838 22.0441 39.6193 22.1025 39.6108C22.2328 39.5922 22.3648 39.4636 22.4984 39.2251C22.6321 38.9865 22.6989 38.7598 22.6989 38.5449L22.7006 38.1253L22.968 37.9899C22.9544 38.1287 22.9477 38.2513 22.946 38.3596L22.9451 39.099C22.946 39.1438 22.946 39.1819 22.9468 39.2124L22.9485 39.3097C22.9502 39.3697 22.9528 39.412 22.9561 39.4366C22.9629 39.4865 22.9807 39.5093 23.0086 39.5051C23.1067 39.4907 23.1913 39.368 23.2624 39.1379C23.2962 39.1523 23.3148 39.1684 23.3174 39.187C23.3233 39.2276 23.2844 39.3164 23.2015 39.4535C23.0898 39.6396 22.9764 39.7403 22.8605 39.7572C22.7759 39.7699 22.7252 39.7183 22.7091 39.6049C22.704 39.5694 22.7015 39.5203 22.7006 39.4594V39.3181C22.7006 39.242 22.7006 39.1895 22.6998 39.1625V39.0339Z" fill="#4D4A44"/>
<path d="M24.598 37.6093L24.5752 37.4596C24.5185 37.0873 24.5616 36.754 24.7038 36.4596C24.8459 36.1652 25.0515 35.9817 25.3197 35.9089C25.384 35.892 25.4407 35.8827 25.4906 35.881L25.3155 36.1915C25.2579 36.1881 25.1928 36.1948 25.12 36.2151C24.9508 36.2608 24.84 36.3539 24.7884 36.4943C24.7368 36.6347 24.7334 36.8522 24.7782 37.1466L25.0007 38.5991L25.0177 38.7091C25.0329 38.8072 25.0464 38.8774 25.0574 38.9181C25.0726 38.973 25.0946 38.9967 25.1234 38.9891C25.2173 38.9637 25.2825 38.8335 25.3205 38.5966C25.3561 38.6059 25.3764 38.6203 25.3806 38.638C25.3916 38.6786 25.3671 38.77 25.3078 38.9138C25.2241 39.1109 25.1259 39.2243 25.0143 39.2539C24.9271 39.2776 24.8679 39.2294 24.8358 39.1092C24.8239 39.0653 24.807 38.9756 24.7858 38.8411L24.763 38.6871L24.7419 38.5585C24.7105 38.748 24.6302 38.9434 24.4999 39.1439C24.3696 39.3444 24.2486 39.4595 24.1369 39.4891C23.9779 39.5322 23.8654 39.429 23.7977 39.1795C23.7097 38.8538 23.741 38.5306 23.8916 38.2125C24.0422 37.8944 24.2554 37.6973 24.5312 37.6229C24.5447 37.6203 24.5667 37.6152 24.598 37.6093ZM24.6369 37.8597C24.5278 37.8335 24.4339 37.831 24.3552 37.8521C24.1877 37.897 24.0752 38.0289 24.0177 38.2472C23.9601 38.4655 23.9703 38.7209 24.049 39.0128C24.0887 39.1592 24.1513 39.2209 24.2368 39.1981C24.3408 39.1702 24.4424 39.061 24.5405 38.8698C24.6691 38.6236 24.7114 38.3529 24.6666 38.0568L24.6369 37.8597Z" fill="#4D4A44"/>
<path d="M26.5937 38.1262C26.6292 38.1329 26.6504 38.1448 26.6563 38.1609C26.6707 38.2006 26.6521 38.2962 26.5988 38.4468C26.5286 38.6515 26.4389 38.7742 26.3289 38.8148C26.2485 38.8444 26.1893 38.8063 26.1495 38.6997C26.1326 38.6549 26.0988 38.5111 26.0463 38.2674L25.9457 37.7971L25.9203 37.6778L25.9 37.5822C25.8915 37.5424 25.8822 37.5086 25.8729 37.4824C25.8526 37.4274 25.8272 37.4062 25.7968 37.4172C25.7113 37.4485 25.6538 37.5763 25.625 37.7996C25.5979 37.7886 25.5802 37.7742 25.5734 37.7556C25.5489 37.6888 25.5776 37.5763 25.6597 37.4181C25.7418 37.259 25.8196 37.1668 25.8924 37.1398C25.9744 37.1093 26.037 37.1507 26.0785 37.265C26.0861 37.287 26.0988 37.3335 26.1149 37.4045L26.1402 37.5196C26.1428 37.5289 26.1529 37.5754 26.1715 37.6592L26.2765 38.1541L26.2993 38.2658C26.323 38.3749 26.3416 38.4468 26.3543 38.4823C26.3721 38.5297 26.394 38.5483 26.4211 38.5382C26.5159 38.5043 26.5726 38.3673 26.5937 38.1262ZM25.7832 36.9401L25.7959 36.5484C25.9 36.4528 25.9753 36.3462 26.0218 36.2278C26.0387 36.2396 26.0497 36.2532 26.0556 36.2692C26.1098 36.4164 26.0193 36.6398 25.7832 36.9401Z" fill="#4D4A44"/>
<path d="M27.6278 38.2851C27.3892 38.3959 27.1963 38.2927 27.05 37.9772C26.9324 37.7225 26.9121 37.4341 26.989 37.1117C27.0669 36.7894 27.2056 36.5821 27.4053 36.4891C27.6472 36.3774 27.841 36.4789 27.9873 36.7953C28.1058 37.0508 28.1261 37.3393 28.0491 37.6616C27.9713 37.9822 27.8308 38.1904 27.6278 38.2851ZM27.7378 38.0178C27.8596 37.9611 27.9307 37.846 27.9493 37.6726C27.9687 37.4983 27.9315 37.3105 27.8376 37.1075C27.6845 36.7767 27.5043 36.6591 27.2987 36.7547C27.1777 36.8106 27.1075 36.9256 27.0889 37.0999C27.0703 37.2742 27.1075 37.462 27.2006 37.6642C27.3537 37.9941 27.533 38.1125 27.7378 38.0178Z" fill="#4D4A44"/>
<path d="M29.2191 34.0578C29.2097 34.172 29.1793 34.2777 29.126 34.3759C29.0727 34.474 29.0008 34.5628 28.9094 34.6432C28.818 34.7235 28.7157 34.7946 28.604 34.8572L28.8874 35.336L29.6751 34.8699L30.8772 36.9019L31.5126 36.5263L29.659 33.3928L29.1531 33.6923C29.2064 33.8217 29.2275 33.9444 29.2191 34.0578Z" fill="#4D4A44"/>
<path d="M32.3366 33.1323L32.2148 33.9622L32.9441 33.5308C32.9644 33.8108 32.829 34.0917 32.5718 34.2448C32.2097 34.4588 31.7402 34.3387 31.5262 33.9766C31.3121 33.6145 31.4323 33.145 31.7944 32.931C31.961 32.832 32.1573 32.8007 32.346 32.8421L32.4872 32.1975C32.1345 32.1197 31.769 32.1789 31.4576 32.3625C30.7825 32.7618 30.5583 33.6365 30.9576 34.3116C31.3197 34.9233 32.0702 35.1644 32.7106 34.908L33.1048 35.5747L33.3409 33.9884L33.3349 33.9918L33.4796 33.002C33.4788 32.9995 33.4771 32.997 33.4762 32.9944L33.5625 32.4039L32.3366 33.1323Z" fill="#4D4A44"/>
</svg>
