<svg width="101" height="40" viewBox="0 0 101 40" fill="none" xmlns="http://www.w3.org/2000/svg">
<path d="M63.6648 25.3594H55.5861V23.9732H62.106C62.5266 23.9732 62.8916 23.8371 63.2009 23.5586C63.5102 23.2802 63.6648 22.9336 63.6648 22.5128V18.9609C63.6648 18.5401 63.5102 18.1812 63.2009 17.8779C62.8916 17.5747 62.5266 17.4262 62.106 17.4262H54.2499C53.7612 17.4262 53.3839 17.5623 53.1179 17.8284C52.8519 18.0945 52.7158 18.4101 52.7158 18.7628C52.7158 19.1341 52.8519 19.4497 53.1179 19.7158C53.3839 19.9881 53.7612 20.118 54.2499 20.118H60.8688V21.3557H54.3489C53.9283 21.3557 53.5633 21.5042 53.254 21.8074C52.9447 22.1106 52.79 22.4695 52.79 22.8903V26.5166C52.79 26.9373 52.9447 27.2963 53.254 27.5995C53.5633 27.9027 53.9283 28.0512 54.3489 28.0512H61.2214C61.2214 28.0512 63.6648 28.1193 63.6648 25.3594Z" fill="#77797C"/>
<path d="M80.7204 4.69769C80.4421 4.41922 80.1204 4.28308 79.7492 4.28308C79.3657 4.28308 79.0317 4.41922 78.7533 4.69769C78.475 4.97615 78.3389 5.366 78.3389 5.86724V16.9749C78.3389 16.9749 81.1349 16.9811 81.1349 13.72V5.86724C81.1349 5.366 80.9988 4.97615 80.7204 4.69769Z" fill="#77797C"/>
<path d="M99.7922 4.69769C99.5138 4.41922 99.1922 4.28308 98.821 4.28308C98.4375 4.28308 98.1035 4.41922 97.8251 4.69769C97.5467 4.97615 97.4106 5.366 97.4106 5.86724V16.9749C97.4106 16.9749 100.207 16.9811 100.207 13.72V5.86724C100.207 5.366 100.064 4.97615 99.7922 4.69769Z" fill="#77797C"/>
<path d="M62.2819 4.28246C61.8984 4.28246 61.5644 4.4186 61.286 4.69706C61.0076 4.97553 60.8715 5.36538 60.8715 5.86662V7.65498H56.7208C56.0527 6.86909 55.2177 6.33073 54.2279 6.04607V5.61291C54.2279 5.11167 54.0918 4.72182 53.8135 4.44335C53.5351 4.16489 53.2134 4.02875 52.8423 4.02875C52.4526 4.02875 52.1247 4.16489 51.8464 4.44335C51.568 4.72182 51.4319 5.11167 51.4319 5.61291V6.01513C50.3432 6.33692 49.4462 6.94954 48.7534 7.853C48.0606 8.75647 47.708 9.78989 47.708 10.9471C47.708 12.3394 48.2091 13.5337 49.2174 14.5362C50.2257 15.5325 51.4257 16.0337 52.8175 16.0337C54.364 16.0337 55.6445 15.4458 56.6713 14.2701H60.8777V16.9681C60.8777 16.9681 63.6737 16.9743 63.6737 13.7132V5.86662C63.6737 5.36538 63.5315 4.97553 63.2593 4.69706C62.9747 4.4186 62.6531 4.28246 62.2819 4.28246ZM54.5187 12.655C54.0547 13.1191 53.4918 13.3481 52.8175 13.3481C52.1433 13.3481 51.5804 13.1191 51.1164 12.655C50.6587 12.1909 50.4236 11.6278 50.4236 10.9533C50.4236 10.2664 50.6463 9.69706 51.1041 9.23914C51.5556 8.78741 52.1247 8.55845 52.8175 8.55845C53.5042 8.55845 54.0733 8.78741 54.531 9.23914C54.9826 9.69088 55.2115 10.2602 55.2115 10.9533C55.2053 11.6278 54.9764 12.1909 54.5187 12.655ZM57.8776 11.5844C57.9085 11.3802 57.9271 11.176 57.9271 10.9533C57.9271 10.749 57.9209 10.551 57.9023 10.3468H60.8715V11.5783H57.8776V11.5844Z" fill="#77797C"/>
<path d="M75.8456 13.7748H69.0226V12.1907H74.0331C74.4538 12.1907 74.8187 12.0422 75.128 11.7389C75.4373 11.4357 75.592 11.0768 75.592 10.656V6.88127C75.592 6.46048 75.4373 6.10157 75.128 5.79835C74.8187 5.49513 74.4538 5.34662 74.0331 5.34662H67.7421C67.2534 5.34662 66.8761 5.48276 66.6101 5.74885C66.3441 6.01494 66.208 6.33053 66.208 6.67706C66.208 7.04835 66.3441 7.36395 66.6101 7.63622C66.8761 7.90231 67.2534 8.03845 67.7421 8.03845H72.8021V9.49885H67.7916C67.3709 9.49885 67.006 9.65355 66.6967 9.95058C66.3874 10.2538 66.2328 10.6127 66.2328 11.0335V14.9382C66.2328 15.359 66.3874 15.7179 66.6967 16.0211C67.006 16.3243 67.3709 16.4729 67.7916 16.4729H75.8456V13.7748V13.7748Z" fill="#77797C"/>
<path d="M79.5765 18.4354H72.073C71.6524 18.4354 71.2874 18.5839 70.9781 18.8872C70.6688 19.1904 70.5142 19.5493 70.5142 19.9701V26.5171C70.5142 26.9379 70.6688 27.2968 70.9781 27.6C71.2874 27.9032 71.6524 28.0518 72.073 28.0518H81.1353V19.9701C81.1353 19.5493 80.9807 19.1904 80.6652 18.8872C80.3559 18.5839 79.9971 18.4354 79.5765 18.4354ZM78.3393 25.3599H73.304V21.1273H78.3393V25.3599Z" fill="#77797C"/>
<path d="M89.7206 15.9662H85.6379C85.2173 15.9662 84.8523 15.8177 84.543 15.5145C84.2337 15.2113 84.0791 14.8524 84.0791 14.4316V6.8759C84.0791 6.37467 84.2152 5.97863 84.4936 5.70635C84.7719 5.42788 85.0998 5.29174 85.4895 5.29174C85.8606 5.29174 86.1823 5.42788 86.4607 5.70635C86.739 5.98481 86.8751 6.37467 86.8751 6.8759V13.2744H91.9352C91.9352 16.0591 89.7206 15.9662 89.7206 15.9662ZM98.8262 27.7979C98.4241 27.7979 98.053 27.6309 97.7189 27.2967L93.9951 23.3672L91.4279 27.0925C91.1063 27.5628 90.7165 27.7979 90.2464 27.7979C89.8753 27.7979 89.5536 27.6618 89.2752 27.3957C88.9969 27.1296 88.8608 26.8016 88.8608 26.4118C88.8608 26.0962 88.9659 25.7806 89.1886 25.4836L94.2239 18.2311C94.5456 17.7794 94.9353 17.5504 95.4054 17.5504C95.7766 17.5504 96.1044 17.6804 96.389 17.9403C96.6735 18.2002 96.8158 18.5281 96.8158 18.9118C96.8158 19.215 96.7045 19.5182 96.488 19.8214L95.6096 21.0838L99.7108 25.366C100.032 25.7002 100.187 26.0714 100.187 26.4737C100.187 26.845 100.051 27.1606 99.785 27.4205C99.519 27.668 99.1974 27.7979 98.8262 27.7979ZM90.6485 11.6841C90.1598 11.6841 89.7825 11.5479 89.5165 11.2818C89.2505 11.0158 89.1144 10.694 89.1144 10.3227C89.1144 9.96996 89.2505 9.66056 89.5165 9.38828C89.7825 9.12219 90.1598 8.98605 90.6485 8.98605H93.6177V5.84249C93.6177 5.35363 93.76 4.96377 94.0445 4.66056C94.2982 4.40684 94.6136 4.28308 94.9972 4.28308C95.3683 4.28308 95.6776 4.41303 95.9312 4.66056C96.2158 4.96377 96.3581 5.35981 96.3581 5.84249V16.9749H93.6177V11.6841H90.6485Z" fill="#77797C"/>
<path d="M56.6191 31.8694L55.1963 33.8186V35.9659H54.3983V33.8124L52.9818 31.8694C52.9199 31.7765 52.8828 31.6837 52.8828 31.5785C52.8828 31.4733 52.9199 31.3867 53.0003 31.3124C53.0746 31.2382 53.1674 31.201 53.2725 31.201C53.4086 31.201 53.5323 31.2691 53.6313 31.4114L54.8004 33.0204L55.9696 31.4114C56.0685 31.2753 56.1922 31.201 56.3283 31.201C56.4335 31.201 56.5201 31.2382 56.6005 31.3124C56.6747 31.3867 56.718 31.4733 56.718 31.5785C56.718 31.6837 56.6871 31.7827 56.6191 31.8694Z" fill="#77797C"/>
<path d="M61.6693 34.1403C61.6693 34.2517 61.626 34.3569 61.5394 34.4435C61.4528 34.5302 61.3415 34.5735 61.2116 34.5735H59.096C59.164 34.7591 59.2754 34.9076 59.43 35.0252C59.5847 35.1366 59.7641 35.1985 59.962 35.1985C60.2095 35.1985 60.4321 35.1118 60.6301 34.9448C60.7167 34.8705 60.8095 34.8272 60.9023 34.8272C61.0012 34.8272 61.0879 34.8643 61.1559 34.9324C61.2239 35.0066 61.2611 35.0871 61.2611 35.1861C61.2611 35.316 61.1992 35.4336 61.0755 35.545C60.7476 35.8297 60.3827 35.9782 59.962 35.9782C59.4919 35.9782 59.0836 35.8049 58.7496 35.4584C58.4156 35.1118 58.2485 34.6972 58.2485 34.2146C58.2485 33.7257 58.4156 33.3111 58.7496 32.9646C59.0836 32.618 59.4919 32.4448 59.962 32.4448C60.4321 32.4448 60.8342 32.618 61.1683 32.9522C61.5023 33.2925 61.6693 33.6886 61.6693 34.1403ZM60.8219 33.8061C60.7538 33.6267 60.6425 33.4906 60.4878 33.3792C60.3332 33.274 60.16 33.2183 59.9682 33.2183C59.7764 33.2183 59.6032 33.274 59.4486 33.3792C59.2939 33.4844 59.1826 33.6267 59.1146 33.8061H60.8219Z" fill="#77797C"/>
<path d="M66.8085 34.2082C66.8085 34.6909 66.6415 35.1055 66.3012 35.452C65.961 35.7986 65.5589 35.9656 65.0888 35.9656C64.6187 35.9656 64.2166 35.7924 63.8764 35.452C63.5362 35.1055 63.3691 34.6971 63.3691 34.2082C63.3691 33.7194 63.5362 33.3048 63.8702 32.9582C64.2042 32.6117 64.6125 32.4384 65.0826 32.4384C65.5589 32.4384 65.961 32.6117 66.295 32.9582C66.6415 33.3048 66.8085 33.7255 66.8085 34.2082ZM66.0291 34.2082C66.0291 33.9236 65.9363 33.6884 65.7569 33.5028C65.5775 33.3109 65.3548 33.2181 65.095 33.2181C64.829 33.2181 64.6125 33.3109 64.4331 33.5028C64.2537 33.6946 64.1671 33.9298 64.1671 34.2082C64.1671 34.4929 64.2599 34.728 64.4393 34.9137C64.6187 35.1055 64.8414 35.1983 65.1012 35.1983C65.361 35.1983 65.5775 35.1055 65.7631 34.9137C65.9363 34.728 66.0291 34.4929 66.0291 34.2082Z" fill="#77797C"/>
<path d="M71.7957 34.5114C71.7957 34.9137 71.6473 35.254 71.3565 35.5387C71.0596 35.8233 70.7132 35.9656 70.2987 35.9656C69.8905 35.9656 69.5317 35.8233 69.241 35.5387C68.944 35.254 68.8018 34.9137 68.8018 34.5114V32.4384H69.5997V34.5114C69.5997 34.7095 69.6616 34.8703 69.7977 35.0003C69.9276 35.1302 70.0946 35.1921 70.3049 35.1921C70.5091 35.1921 70.6761 35.1241 70.8122 35.0003C70.9421 34.8703 71.0101 34.7095 71.0101 34.5114V32.4384H71.8081V34.5114H71.7957Z" fill="#77797C"/>
<path d="M74.9362 35.9657H74.1382V31.7949C74.1382 31.6526 74.1815 31.5412 74.2557 31.4608C74.3361 31.3803 74.4289 31.3432 74.5403 31.3432C74.6454 31.3432 74.7382 31.3803 74.8186 31.4608C74.899 31.5412 74.9362 31.6526 74.9362 31.7949V35.9657V35.9657Z" fill="#77797C"/>
<path d="M78.2581 31.7021C78.2581 31.832 78.2087 31.9496 78.1159 32.0486C78.0169 32.1476 77.9055 32.1909 77.7695 32.1909C77.6395 32.1909 77.522 32.1414 77.423 32.0486C77.3241 31.9558 77.2808 31.8382 77.2808 31.7021C77.2808 31.5659 77.3302 31.4545 77.423 31.3555C77.522 31.2627 77.6334 31.2132 77.7695 31.2132C77.8994 31.2132 78.0169 31.2627 78.1159 31.3555C78.2087 31.4483 78.2581 31.5659 78.2581 31.7021ZM78.1654 35.9657H77.3674V32.9459C77.3674 32.8035 77.4045 32.6922 77.4849 32.6117C77.5653 32.5313 77.6581 32.4941 77.7695 32.4941C77.8746 32.4941 77.9674 32.5313 78.0416 32.6117C78.122 32.6922 78.1592 32.8035 78.1592 32.9459V35.9657H78.1654Z" fill="#77797C"/>
<path d="M85.038 35.9665H84.24V33.6274C84.24 33.516 84.1843 33.4231 84.0854 33.3365C83.9802 33.2561 83.8565 33.2127 83.708 33.2127C83.5596 33.2127 83.4297 33.2499 83.3307 33.3365C83.2255 33.417 83.176 33.516 83.176 33.6274V35.9665H82.3781V33.6274C82.3781 33.516 82.3224 33.417 82.2234 33.3365C82.1183 33.2561 81.9945 33.2127 81.8461 33.2127C81.6976 33.2127 81.5739 33.2499 81.4687 33.3365C81.3636 33.417 81.3141 33.516 81.3141 33.6274V35.9665H80.5161V33.615C80.5161 33.287 80.646 33.0147 80.9058 32.7796C81.1656 32.5506 81.4749 32.433 81.8461 32.433C82.2049 32.433 82.5142 32.5444 82.7801 32.7734C83.0276 32.5506 83.3369 32.433 83.708 32.433C84.073 32.433 84.3885 32.5506 84.6483 32.7796C84.9081 33.0085 85.0318 33.287 85.0318 33.615V35.9665H85.038Z" fill="#77797C"/>
<path d="M90.6372 35.5449C90.6372 35.681 90.6001 35.78 90.5197 35.8605C90.4455 35.9347 90.3465 35.978 90.2414 35.978C90.0867 35.978 89.9568 35.9038 89.864 35.7553L88.132 32.9397V35.9657H87.334V31.6402C87.334 31.504 87.3711 31.3988 87.4515 31.3246C87.5257 31.2503 87.6185 31.2132 87.7299 31.2132C87.8845 31.2132 88.0144 31.2875 88.101 31.436L89.8331 34.2516V31.2256H90.6311V35.5449H90.6372Z" fill="#77797C"/>
<path d="M96.0542 34.1403C96.0542 34.2517 96.0109 34.3569 95.9243 34.4435C95.8377 34.5302 95.7264 34.5735 95.5965 34.5735H93.4809C93.549 34.7591 93.6603 34.9076 93.815 35.0252C93.9696 35.1366 94.149 35.1985 94.3469 35.1985C94.5944 35.1985 94.8171 35.1118 95.015 34.9448C95.1016 34.8705 95.1944 34.8272 95.2872 34.8272C95.3862 34.8272 95.4728 34.8643 95.547 34.9324C95.615 35.0066 95.6522 35.0871 95.6522 35.1861C95.6522 35.316 95.5903 35.4336 95.4666 35.545C95.1449 35.8297 94.7738 35.9782 94.3531 35.9782C93.883 35.9782 93.4747 35.8049 93.1407 35.4584C92.8067 35.1118 92.6396 34.6972 92.6396 34.2146C92.6396 33.7257 92.8067 33.3111 93.1407 32.9646C93.4747 32.618 93.8768 32.4448 94.3531 32.4448C94.8233 32.4448 95.2253 32.618 95.5594 32.9522C95.8872 33.2925 96.0542 33.6886 96.0542 34.1403ZM95.2006 33.8061C95.1326 33.6267 95.0212 33.4906 94.8666 33.3792C94.7119 33.274 94.5387 33.2183 94.3469 33.2183C94.1552 33.2183 93.982 33.274 93.8273 33.3792C93.6727 33.4844 93.5552 33.6267 93.4933 33.8061H95.2006Z" fill="#77797C"/>
<path d="M100.058 33.2812H99.2783V35.973H98.4803V33.2812H98.0473C97.9112 33.2812 97.7998 33.2441 97.7256 33.1636C97.6514 33.0894 97.6143 32.9966 97.6143 32.8914C97.6143 32.7923 97.6514 32.6995 97.7256 32.6253C97.7998 32.551 97.9112 32.5077 98.0473 32.5077H98.4803V32.0126C98.4803 31.8703 98.5174 31.7589 98.5978 31.6785C98.6782 31.598 98.771 31.5609 98.8824 31.5609C98.9875 31.5609 99.0803 31.598 99.1607 31.6785C99.2411 31.7589 99.2783 31.8703 99.2783 32.0126V32.5077H100.058V33.2812Z" fill="#77797C"/>
<path d="M19.9927 0C8.95095 0 0 8.95421 0 20C0 31.0458 8.95095 40 19.9927 40C31.0345 40 39.9917 31.0458 39.9917 20C39.9917 8.95421 31.0407 0 19.9927 0ZM27.2549 14.5111C29.5994 14.9505 30.2736 17.0111 30.3046 18.0384C30.3912 21.1696 26.7972 22.8651 24.6507 20.7054C22.4176 18.4653 23.9084 14.3936 26.9333 14.4802C27.0323 14.4864 27.156 14.5049 27.2549 14.5111ZM24.4651 6.39233C24.496 6.37995 24.5332 6.36139 24.5579 6.34901C25.325 6.12005 26.0796 6.64604 26.3642 6.94926C27.2488 7.88366 26.7353 8.95421 25.5538 8.63242C24.329 8.29827 23.6177 6.83168 24.4651 6.39233ZM19.3308 7.11015C19.4051 7.07921 19.5164 7.04208 19.5907 7.01114C21.5825 6.47896 22.8815 7.83416 23.2836 8.62005C24.5208 11.0272 22.3557 13.6881 19.8752 12.8094C17.2957 11.8998 16.9431 8.16832 19.3308 7.11015ZM4.20021 20.5507C3.87854 22.5309 2.81457 23.3354 2.01041 22.2153C0.717561 20.4208 1.38563 16.0087 2.90736 16.2376C3.15479 16.2747 3.30944 16.4171 3.46409 16.5718C4.37341 17.6733 4.35485 19.5916 4.20021 20.5507ZM9.91595 35.5879C8.94477 35.3775 7.3117 33.651 7.81275 33.354C7.97977 33.2611 8.28907 33.3973 8.42516 33.453C9.42727 33.9666 9.96544 34.8267 10.0273 34.9257C10.318 35.4022 10.2809 35.6621 9.91595 35.5879ZM7.23747 31.7389C4.91158 29.9443 4.27444 26.5346 6.2168 26.2871C6.71786 26.2252 7.18798 26.4295 7.47253 26.5532C9.37778 27.6052 10.0768 29.4926 10.1943 30.4455C10.4356 32.4381 8.96951 33.0755 7.23747 31.7389ZM11.7408 21.5532C11.7408 21.5532 11.7346 21.5532 11.7284 21.5532C11.8336 24.8762 9.2355 26.776 7.02096 24.9938C5.65389 23.8923 4.63322 20.9777 6.07452 18.7314C6.07452 18.7314 6.06834 18.7314 6.06834 18.7252C7.57769 16.3304 6.9158 15.0743 5.34459 15.4022C5.35078 15.3898 5.36315 15.3775 5.37552 15.3713C3.27851 15.7983 3.09294 12.9889 4.49094 10.6559C5.80853 8.45297 8.25814 7.1844 8.70352 8.96658C9.13034 10.6559 9.43345 11.8812 10.4851 10.2351C10.7696 9.78341 11.1902 8.83044 11.1964 8.82426C12.1305 7.17203 13.3677 6.42945 13.8811 6.23143C15.1739 5.74257 15.0378 5.1052 14.976 4.93193C14.778 4.65965 14.7286 4.30074 14.8832 3.91708C15.1987 3.14356 16.2132 2.58663 17.1596 2.66089C18.106 2.74134 18.6133 3.42822 18.304 4.19554C18.0937 4.70297 17.5802 5.11139 16.9864 5.31559C16.2998 5.5198 16.0833 5.97153 16.0833 5.97153C15.7307 7.06683 16.4359 8.125 16.1946 9.21411C15.9286 10.4455 14.9141 11.3366 14.6605 12.5743C14.6605 12.5866 14.4749 13.521 15.2544 13.7995C15.9039 14.0285 16.7513 13.7438 17.0235 13.651C17.9947 13.323 18.9906 13.5272 19.9865 14.2512C20.7536 14.8144 21.8361 16.4233 21.4835 18.3601C20.9144 21.4728 16.974 22.9146 14.8337 19.9691C13.943 18.75 11.747 18.0507 11.7408 21.5532ZM14.277 28.1002C12.5264 25.8849 14.178 22.8032 16.8812 23.2549C16.974 23.2735 17.0977 23.3045 17.1843 23.323C19.3247 24.0223 19.6958 25.9282 19.5968 26.8379C19.2999 29.4616 15.9719 30.2475 14.277 28.1002ZM19.4979 32.4691C18.8422 31.4418 19.7886 30.0619 21.434 30.2785C22.6774 30.5569 22.8506 31.4418 22.7578 31.9245C22.4795 33.3416 20.2897 33.7129 19.4979 32.4691ZM20.5495 38.3663C21.298 38.3787 20.3639 38.3663 20.3639 38.3663C20.4257 38.3663 20.4876 38.3663 20.5495 38.3663C20.4876 38.3663 20.4196 38.3663 20.3268 38.3601C20.3144 38.3601 20.3082 38.3601 20.2958 38.3601C19.2071 38.3292 20.1226 37.7661 20.1226 37.7661C24.694 34.9319 27.0323 31.776 28.2323 29.4926C28.4859 29.0099 27.8426 28.9233 27.8426 28.9233C26.0054 28.62 24.3167 27.729 23.2341 27.0483C23.2341 27.0483 21.9289 26.2871 23.4568 26.0829C31.7892 24.9443 33.5027 15.3032 33.8553 11.2191C33.8553 11.2191 34.1769 9.20792 35.6492 11.6398C37.3627 14.4678 39.5958 19.7092 37.2266 26.4418C33.3728 37.3824 24.0135 38.3849 20.5495 38.3663Z" fill="url(#paint0_linear)"/>
<defs>
<linearGradient id="paint0_linear" x1="6.49764" y1="9" x2="30.998" y2="34.4911" gradientUnits="userSpaceOnUse">
<stop stop-color="#98C848"/>
<stop offset="0.505208" stop-color="#109E8C"/>
<stop offset="1" stop-color="#147496"/>
</linearGradient>
</defs>
</svg>
