<svg width="186" height="40" viewBox="0 0 186 40" fill="none" xmlns="http://www.w3.org/2000/svg">
<path fill-rule="evenodd" clip-rule="evenodd" d="M20 40C31.0457 40 40 31.0457 40 20C40 8.9543 31.0457 0 20 0C8.9543 0 0 8.9543 0 20C0 31.0457 8.9543 40 20 40ZM20.5407 12.9729C22.929 12.9729 24.8651 11.0369 24.8651 8.64861C24.8651 6.26035 22.929 4.32429 20.5407 4.32429C18.1525 4.32429 16.2164 6.26035 16.2164 8.64861C16.2164 9.30357 16.362 9.92451 16.6226 10.4808L10.8104 16.2931L10.8912 16.3738C10.5217 16.2711 10.1323 16.2162 9.73001 16.2162C7.34175 16.2162 5.40569 18.1522 5.40569 20.5405C5.40569 22.9287 7.34175 24.8648 9.73001 24.8648C10.3288 24.8648 10.8992 24.7431 11.4177 24.5231L16.5582 29.6635C16.3381 30.1821 16.2164 30.7525 16.2164 31.3514C16.2164 33.7396 18.1525 35.6757 20.5407 35.6757C22.929 35.6757 24.8651 33.7396 24.8651 31.3514C24.8651 30.8084 24.765 30.2888 24.5823 29.8101L29.8103 24.5821C30.289 24.7648 30.8085 24.8648 31.3514 24.8648C33.7397 24.8648 35.6758 22.9287 35.6758 20.5405C35.6758 18.1522 33.7397 16.2162 31.3514 16.2162C28.9632 16.2162 27.0271 18.1522 27.0271 20.5405C27.0271 21.1954 27.1727 21.8162 27.4332 22.3725L22.3726 27.4331C21.8164 27.1726 21.1956 27.027 20.5407 27.027C19.9411 27.027 19.3701 27.1491 18.851 27.3696L13.7117 22.2304C13.9323 21.7112 14.0543 21.1401 14.0543 20.5405C14.0543 19.7101 13.8203 18.9343 13.4145 18.2756L18.9998 12.6903C19.4785 12.8729 19.9979 12.9729 20.5407 12.9729Z" fill="#F73F26"/>
<path d="M56.123 19.6869C56.123 18.7989 55.961 17.9709 55.637 17.2029C55.313 16.4349 54.851 15.7689 54.251 15.2049C53.663 14.6409 52.955 14.2029 52.127 13.8909C51.311 13.5669 50.411 13.4049 49.427 13.4049H45.053V26.0049H49.427C50.411 26.0049 51.311 25.8429 52.127 25.5189C52.955 25.1949 53.663 24.7509 54.251 24.1869C54.851 23.6229 55.313 22.9569 55.637 22.1889C55.961 21.4089 56.123 20.5749 56.123 19.6869ZM54.647 19.7229C54.647 20.4309 54.521 21.0849 54.269 21.6849C54.029 22.2849 53.681 22.8129 53.225 23.2689C52.781 23.7129 52.235 24.0609 51.587 24.3129C50.939 24.5649 50.219 24.6909 49.427 24.6909H46.475V14.7189H49.427C50.219 14.7189 50.939 14.8509 51.587 15.1149C52.235 15.3669 52.781 15.7209 53.225 16.1769C53.681 16.6209 54.029 17.1489 54.269 17.7609C54.521 18.3729 54.647 19.0269 54.647 19.7229ZM68.9431 25.4289L66.7471 23.1789C67.0951 22.7229 67.4131 22.2309 67.7011 21.7029C68.0011 21.1749 68.2891 20.6109 68.5651 20.0109L67.3951 19.4709C67.1671 19.9989 66.9271 20.4969 66.6751 20.9649C66.4231 21.4329 66.1591 21.8709 65.8831 22.2789L63.0031 19.3449C63.9271 19.0209 64.6531 18.6009 65.1811 18.0849C65.7091 17.5569 65.9731 16.8789 65.9731 16.0509C65.9731 15.6549 65.8951 15.2829 65.7391 14.9349C65.5831 14.5869 65.3671 14.2869 65.0911 14.0349C64.8271 13.7709 64.5091 13.5669 64.1371 13.4229C63.7651 13.2669 63.3571 13.1889 62.9131 13.1889C62.4091 13.1889 61.9531 13.2669 61.5451 13.4229C61.1371 13.5789 60.7891 13.7949 60.5011 14.0709C60.2131 14.3349 59.9851 14.6529 59.8171 15.0249C59.6611 15.3849 59.5831 15.7749 59.5831 16.1949C59.5831 16.6989 59.6851 17.1669 59.8891 17.5989C60.0931 18.0189 60.4111 18.4809 60.8431 18.9849C59.8711 19.3689 59.1211 19.8609 58.5931 20.4609C58.0651 21.0609 57.8011 21.7869 57.8011 22.6389C57.8011 23.1669 57.8971 23.6529 58.0891 24.0969C58.2931 24.5289 58.5691 24.9009 58.9171 25.2129C59.2771 25.5249 59.6971 25.7649 60.1771 25.9329C60.6691 26.1009 61.1971 26.1849 61.7611 26.1849C62.5891 26.1849 63.3391 26.0169 64.0111 25.6809C64.6831 25.3329 65.3071 24.8469 65.8831 24.2229L67.8631 26.2569L68.9431 25.4289ZM64.6411 16.1229C64.6411 16.6869 64.4371 17.1609 64.0291 17.5449C63.6211 17.9289 63.0151 18.2589 62.2111 18.5349C61.9711 18.2829 61.7671 18.0549 61.5991 17.8509C61.4431 17.6349 61.3171 17.4369 61.2211 17.2569C61.1251 17.0769 61.0531 16.9029 61.0051 16.7349C60.9691 16.5669 60.9511 16.3869 60.9511 16.1949C60.9511 15.6669 61.1251 15.2289 61.4731 14.8809C61.8211 14.5329 62.2831 14.3589 62.8591 14.3589C63.3751 14.3589 63.8011 14.5269 64.1371 14.8629C64.4731 15.1869 64.6411 15.6069 64.6411 16.1229ZM65.0191 23.3409C64.5631 23.8449 64.0711 24.2469 63.5431 24.5469C63.0271 24.8349 62.4691 24.9789 61.8691 24.9789C61.4851 24.9789 61.1311 24.9189 60.8071 24.7989C60.4831 24.6789 60.2011 24.5109 59.9611 24.2949C59.7331 24.0789 59.5531 23.8269 59.4211 23.5389C59.3011 23.2509 59.2411 22.9329 59.2411 22.5849C59.2411 22.0449 59.4331 21.5349 59.8171 21.0549C60.2011 20.5749 60.8131 20.1789 61.6531 19.8669L65.0191 23.3409ZM82.0163 19.6869C82.0163 18.7989 81.8543 17.9709 81.5303 17.2029C81.2063 16.4349 80.7443 15.7689 80.1443 15.2049C79.5563 14.6409 78.8483 14.2029 78.0203 13.8909C77.2043 13.5669 76.3043 13.4049 75.3203 13.4049H70.9463V26.0049H75.3203C76.3043 26.0049 77.2043 25.8429 78.0203 25.5189C78.8483 25.1949 79.5563 24.7509 80.1443 24.1869C80.7443 23.6229 81.2063 22.9569 81.5303 22.1889C81.8543 21.4089 82.0163 20.5749 82.0163 19.6869ZM80.5403 19.7229C80.5403 20.4309 80.4143 21.0849 80.1623 21.6849C79.9223 22.2849 79.5743 22.8129 79.1183 23.2689C78.6743 23.7129 78.1283 24.0609 77.4803 24.3129C76.8323 24.5649 76.1123 24.6909 75.3203 24.6909H72.3683V14.7189H75.3203C76.1123 14.7189 76.8323 14.8509 77.4803 15.1149C78.1283 15.3669 78.6743 15.7209 79.1183 16.1769C79.5743 16.6209 79.9223 17.1489 80.1623 17.7609C80.4143 18.3729 80.5403 19.0269 80.5403 19.7229Z" fill="#F63F26"/>
<path d="M95.4663 24.0069L94.5303 23.0889C93.9303 23.6649 93.3183 24.1149 92.6943 24.4389C92.0703 24.7509 91.3263 24.9069 90.4623 24.9069C89.7663 24.9069 89.1183 24.7749 88.5183 24.5109C87.9303 24.2349 87.4143 23.8629 86.9703 23.3949C86.5383 22.9269 86.1963 22.3749 85.9443 21.7389C85.7043 21.1029 85.5843 20.4189 85.5843 19.6869C85.5843 18.9549 85.7043 18.2769 85.9443 17.6529C86.1963 17.0169 86.5383 16.4649 86.9703 15.9969C87.4143 15.5289 87.9303 15.1629 88.5183 14.8989C89.1183 14.6349 89.7663 14.5029 90.4623 14.5029C91.3263 14.5029 92.0643 14.6649 92.6763 14.9889C93.3003 15.3129 93.8823 15.7269 94.4223 16.2309L95.3943 15.1869C95.0823 14.8869 94.7583 14.6169 94.4223 14.3769C94.0863 14.1249 93.7203 13.9149 93.3243 13.7469C92.9283 13.5669 92.4963 13.4289 92.0283 13.3329C91.5723 13.2369 91.0563 13.1889 90.4803 13.1889C89.5563 13.1889 88.7043 13.3629 87.9243 13.7109C87.1443 14.0469 86.4723 14.5149 85.9083 15.1149C85.3443 15.7029 84.9003 16.3929 84.5763 17.1849C84.2643 17.9769 84.1083 18.8229 84.1083 19.7229C84.1083 20.6349 84.2643 21.4869 84.5763 22.2789C84.9003 23.0709 85.3443 23.7609 85.9083 24.3489C86.4723 24.9249 87.1383 25.3809 87.9063 25.7169C88.6743 26.0529 89.5143 26.2209 90.4263 26.2209C91.0023 26.2209 91.5243 26.1669 91.9923 26.0589C92.4603 25.9509 92.8983 25.8009 93.3063 25.6089C93.7143 25.4169 94.0923 25.1889 94.4403 24.9249C94.8003 24.6489 95.1423 24.3429 95.4663 24.0069ZM97.5954 26.0049H106.109V24.6909H99.0174V13.4049H97.5954V26.0049ZM119.953 19.6869C119.953 18.8109 119.797 17.9829 119.485 17.2029C119.185 16.4109 118.753 15.7209 118.189 15.1329C117.625 14.5329 116.947 14.0589 116.155 13.7109C115.375 13.3629 114.505 13.1889 113.545 13.1889C112.585 13.1889 111.709 13.3689 110.917 13.7289C110.125 14.0769 109.447 14.5509 108.883 15.1509C108.319 15.7509 107.881 16.4469 107.569 17.2389C107.257 18.0189 107.101 18.8469 107.101 19.7229C107.101 20.5989 107.251 21.4329 107.551 22.2249C107.863 23.0049 108.301 23.6949 108.865 24.2949C109.429 24.8829 110.101 25.3509 110.881 25.6989C111.673 26.0469 112.549 26.2209 113.509 26.2209C114.469 26.2209 115.345 26.0469 116.137 25.6989C116.929 25.3389 117.607 24.8589 118.171 24.2589C118.735 23.6589 119.173 22.9689 119.485 22.1889C119.797 21.3969 119.953 20.5629 119.953 19.6869ZM118.477 19.7229C118.477 20.4429 118.351 21.1209 118.099 21.7569C117.859 22.3809 117.523 22.9269 117.091 23.3949C116.659 23.8629 116.137 24.2349 115.525 24.5109C114.925 24.7749 114.265 24.9069 113.545 24.9069C112.825 24.9069 112.159 24.7689 111.547 24.4929C110.947 24.2169 110.425 23.8449 109.981 23.3769C109.537 22.9089 109.189 22.3569 108.937 21.7209C108.697 21.0849 108.577 20.4069 108.577 19.6869C108.577 18.9669 108.697 18.2949 108.937 17.6709C109.189 17.0349 109.531 16.4829 109.963 16.0149C110.395 15.5469 110.911 15.1809 111.511 14.9169C112.123 14.6409 112.789 14.5029 113.509 14.5029C114.229 14.5029 114.889 14.6409 115.489 14.9169C116.101 15.1929 116.629 15.5649 117.073 16.0329C117.517 16.5009 117.859 17.0529 118.099 17.6889C118.351 18.3249 118.477 19.0029 118.477 19.7229ZM132.888 13.4049H131.466V20.7309C131.466 22.1109 131.124 23.1489 130.44 23.8449C129.756 24.5409 128.832 24.8889 127.668 24.8889C126.456 24.8889 125.508 24.5229 124.824 23.7909C124.152 23.0589 123.816 22.0089 123.816 20.6409V13.4049H122.394V20.7309C122.394 21.6189 122.52 22.4049 122.772 23.0889C123.024 23.7729 123.378 24.3489 123.834 24.8169C124.302 25.2729 124.854 25.6209 125.49 25.8609C126.138 26.0889 126.852 26.2029 127.632 26.2029C128.424 26.2029 129.138 26.0889 129.774 25.8609C130.422 25.6209 130.974 25.2669 131.43 24.7989C131.898 24.3309 132.258 23.7489 132.51 23.0529C132.762 22.3569 132.888 21.5469 132.888 20.6229V13.4049ZM146.96 19.6869C146.96 18.7989 146.798 17.9709 146.474 17.2029C146.15 16.4349 145.688 15.7689 145.088 15.2049C144.5 14.6409 143.792 14.2029 142.964 13.8909C142.148 13.5669 141.248 13.4049 140.264 13.4049H135.89V26.0049H140.264C141.248 26.0049 142.148 25.8429 142.964 25.5189C143.792 25.1949 144.5 24.7509 145.088 24.1869C145.688 23.6229 146.15 22.9569 146.474 22.1889C146.798 21.4089 146.96 20.5749 146.96 19.6869ZM145.484 19.7229C145.484 20.4309 145.358 21.0849 145.106 21.6849C144.866 22.2849 144.518 22.8129 144.062 23.2689C143.618 23.7129 143.072 24.0609 142.424 24.3129C141.776 24.5649 141.056 24.6909 140.264 24.6909H137.312V14.7189H140.264C141.056 14.7189 141.776 14.8509 142.424 15.1149C143.072 15.3669 143.618 15.7209 144.062 16.1769C144.518 16.6209 144.866 17.1489 145.106 17.7609C145.358 18.3729 145.484 19.0269 145.484 19.7229Z" fill="#666666"/>
</svg>
