<svg width="136" height="40" viewBox="0 0 136 40" fill="none" xmlns="http://www.w3.org/2000/svg">
<path fill-rule="evenodd" clip-rule="evenodd" d="M98.5297 18.1793H102.654V0H98.5297V18.1793ZM19.5091 0.754447C18.6408 0.507801 17.5119 0.377224 16.137 0.246646C15.3844 0.116069 14.7621 0.116069 13.8793 0.116069C13.1267 0 12.1281 0 11.1295 0H0V18.1793H11.1295C12.1281 18.1793 13.1267 18.1793 13.8793 18.0632C14.7621 18.0632 15.3844 18.0632 16.137 17.9326C17.5119 17.9326 18.6408 17.686 19.5091 17.5554C22.3892 16.801 24.6324 15.7999 26.1376 14.4215C26.6297 13.9137 27.1362 13.2899 27.5125 12.7966C28.019 11.7955 28.2651 10.5478 28.2651 8.90828C28.1493 6.90609 27.5125 5.15055 26.1376 3.8883C24.6324 2.37941 22.505 1.37832 19.5091 0.754447ZM16.6291 16.4237C16.4988 16.5543 16.2528 16.5543 16.137 16.5543C15.5147 16.6704 14.7621 16.801 13.8793 16.9315C12.3741 17.0621 10.5071 17.0621 8.37966 17.0621H4.1247V1.13167H8.37966C10.5071 1.13167 12.3886 1.13167 13.8793 1.26225C14.7621 1.39283 15.5002 1.50889 16.137 1.63947C16.2672 1.63947 16.5133 1.77005 16.6291 1.77005C19.7552 2.64057 21.8826 4.01888 23.0115 6.15165C23.518 7.03667 23.7641 8.03776 23.7641 9.2855C23.6338 12.7821 21.2603 15.176 16.6291 16.4237ZM68.528 9.27099H79.7877V8.2699H68.528V1.13167H81.4086V0H64.4033V18.1793H81.6546V17.0476H68.528V9.27099ZM133.047 0V15.0454L120.789 6.77552L111.164 0.261155L110.918 0H108.038V18.1793H110.542V3.26443L111.164 3.64166L120.789 10.156L132.671 18.1793H135.551V0H133.047ZM48.0202 0H45.1402L32.0135 18.1793H34.5173L38.642 12.4194H52.7673L55.5171 16.3077L56.892 18.1793H61.2627L55.5171 10.2866L48.0202 0ZM39.2643 11.4038L45.6467 2.50999L45.777 2.64057L52.1594 11.4183H39.2643V11.4038ZM89.9041 15.176C90.0198 17.0621 89.3975 18.3099 88.2831 19.1804C87.5305 19.6882 86.2859 20.0654 84.5347 20.4426H84.0426L86.0399 20.9504H86.5319C88.6594 20.7038 90.4106 20.196 91.6552 19.4415C92.7841 18.8177 93.5367 18.0632 93.913 17.0621C94.0432 16.5543 94.159 15.6838 94.159 14.3055V0H89.9041V15.176V15.176Z" fill="black" fill-opacity="0.9"/>
<path fill-rule="evenodd" clip-rule="evenodd" d="M27.8908 31.5851C28.2671 31.4545 28.5131 31.2078 28.6434 30.9612C28.8894 30.7146 28.8894 30.2067 28.8894 29.6989C28.8894 28.9445 28.7592 28.3206 28.2671 27.9434C27.8908 27.5662 27.2685 27.4356 26.3857 27.4356H22.1307C22.1307 27.5662 22.0004 27.6823 22.0004 27.8128C22.0004 27.9434 22.0004 27.9434 22.1307 28.0595C22.1307 28.1901 22.261 28.1901 22.3767 28.1901H23.1293C23.2596 28.3206 23.3753 28.4367 23.3753 28.5673V34.9656C23.3753 35.2122 23.2451 35.3428 22.9991 35.4734C22.9991 35.4734 22.753 35.604 22.3767 35.604C22.2465 35.4734 22.1307 35.604 22.1307 35.604C22.0004 35.7345 22.0004 35.8506 22.0004 35.8506C22.0004 35.9812 22.1307 36.0972 22.1307 36.2278C22.261 36.2278 22.3767 36.3584 22.507 36.2278H26.7619C27.6303 36.2278 28.2671 36.0972 28.7592 35.604C29.2657 35.2267 29.3815 34.6029 29.3815 33.7178C29.3815 33.21 29.2512 32.7167 28.8894 32.3395C28.6434 31.9623 28.2671 31.7156 27.8908 31.5851ZM24.2582 28.2046H26.5159C27.0225 28.2046 27.2685 28.3351 27.5145 28.4512C27.8908 28.6979 28.0211 29.0751 28.0211 29.6989C28.0211 30.2067 27.8908 30.584 27.6448 30.8306C27.3987 31.2078 27.0225 31.3239 26.5159 31.3239H24.2582V28.2046ZM28.0066 35.2267C27.7606 35.4734 27.3843 35.604 26.7475 35.604H24.2437V31.9623H26.1252C26.9935 32.0929 27.6303 32.2089 28.0066 32.4556C28.3829 32.7022 28.4987 33.0795 28.4987 33.7178C28.5131 34.3417 28.3829 34.8495 28.0066 35.2267ZM38.1374 33.9645C38.1374 33.8339 38.1374 33.7178 38.0072 33.7178C37.8769 33.5873 37.7612 33.5873 37.6309 33.5873C37.5006 33.5873 37.3849 33.5873 37.2546 33.7178C37.1244 33.7178 37.1244 33.8484 37.1244 33.9645V34.2111C37.1244 34.5883 37.2546 34.835 37.2546 35.0816C37.2546 35.3283 37.1244 35.4589 37.0086 35.4589H33.2602V31.9478H34.8811C35.0114 31.9478 35.0114 32.0784 35.0114 32.1944C35.0114 32.325 35.1416 32.4411 35.1416 32.5717C35.0114 32.7022 35.0114 32.8183 35.1416 32.9489C35.1416 33.0795 35.1416 33.0795 35.1416 33.1955C35.1416 33.1955 35.1416 33.3261 35.2719 33.3261C35.4021 33.4567 35.5179 33.4567 35.6481 33.4567C35.7784 33.4567 35.8942 33.4567 35.8942 33.3261C36.0244 33.1955 36.0244 33.0795 36.0244 32.9489V30.3228C36.1547 30.1922 36.0244 30.1922 35.8942 30.0762C35.8942 30.0762 35.7639 29.9456 35.6481 29.9456C35.4021 29.9456 35.2719 29.9456 35.2719 30.0762C35.1416 30.0762 35.0258 30.2067 35.0258 30.2067V30.4534C35.0258 30.7 35.1561 30.8306 35.1561 30.9612C35.0258 31.2078 35.0258 31.3384 34.91 31.3384H33.2891V28.2046H36.9217C37.052 28.2046 37.052 28.3351 37.1678 28.5818C37.1678 28.8284 37.1678 29.0896 37.0375 29.4668C37.0375 29.5974 37.0375 29.7135 37.0375 29.7135C37.0375 29.844 37.0375 29.9601 37.0375 29.9601C37.0375 30.0907 37.1678 30.2067 37.2836 30.2067C37.2836 30.3373 37.4138 30.3373 37.6598 30.3373C37.7901 30.3373 37.9059 30.2067 37.9059 30.2067C38.0361 30.0762 38.1519 29.9601 38.1519 29.8295C38.0217 29.5829 38.0217 29.2057 38.0217 28.9445C38.0217 28.5673 38.0217 28.1901 38.1519 27.8128V27.4356C38.0217 27.4356 37.7756 27.305 37.2836 27.4356H34.1575C32.9128 27.4356 32.03 27.4356 31.5379 27.305C31.4077 27.305 31.2919 27.305 31.2919 27.4356C31.1616 27.5662 31.1616 27.6823 31.1616 27.6823V28.0595C31.2919 28.0595 31.4077 28.1901 31.5379 28.1901C31.784 28.1901 32.0445 28.1901 32.0445 28.1901C32.2905 28.3206 32.2905 28.4367 32.2905 28.5673V34.9656C32.2905 35.2122 32.2905 35.3428 32.1602 35.4734H31.5379C31.4077 35.4734 31.2919 35.4734 31.2919 35.604C31.1616 35.604 31.1616 35.7345 31.1616 35.8506C31.1616 35.9812 31.1616 36.0972 31.2919 36.2278C31.4221 36.2278 31.5379 36.3584 31.6682 36.3584C32.2905 36.2278 33.1733 36.2278 34.418 36.2278H37.9204C38.0506 36.2278 38.1664 36.0972 38.2966 35.8506C38.2966 35.72 38.2966 35.4734 38.1664 35.0962V33.9645H38.1374ZM20.3795 35.4734C20.0032 35.604 19.7572 35.4734 19.6269 35.4734C19.4967 35.3428 19.3809 35.2267 19.3809 34.9656L16.7614 27.9434C16.7614 27.6968 16.6311 27.5662 16.6311 27.4356C16.5008 27.4356 16.2548 27.305 16.139 27.305C16.0088 27.305 16.0088 27.305 16.0088 27.305H13.3892C13.259 27.4356 13.259 27.5517 13.259 27.6823C13.259 27.8128 13.3892 27.8128 13.3892 27.9289C13.5195 28.0595 13.6353 28.0595 13.7655 28.0595H15.1404C15.2707 28.0595 15.3865 28.3061 15.2707 28.4367L13.8958 32.325L13.0274 35.0816C12.8972 35.3283 12.7814 35.3283 12.6511 35.4589H11.9999C11.8696 35.4589 11.7538 35.5894 11.7538 35.5894C11.7538 35.72 11.6236 35.8361 11.6236 35.8361C11.6236 35.9667 11.7538 36.0827 11.7538 36.2133C11.8841 36.2133 11.8841 36.3439 11.9999 36.3439C12.5064 36.2133 12.8682 36.2133 13.3748 36.2133H13.8668C14.2431 36.2133 14.4891 36.3439 14.7497 36.3439C14.8799 36.3439 14.9957 36.2133 15.1259 36.2133V35.8361C15.1259 35.7055 15.1259 35.7055 14.9957 35.5894C14.8654 35.4589 14.7497 35.4589 14.6194 35.4589H14.1273C13.9971 35.3283 13.8813 35.2122 13.9971 34.9511L14.6194 33.0649H17.6152L18.2376 35.0671C18.3533 35.1977 18.2376 35.3138 17.9915 35.4444C17.8613 35.4444 17.6152 35.5749 17.3692 35.4444C17.2534 35.4444 17.1232 35.5749 16.9929 35.5749C16.9929 35.7055 16.8627 35.8216 16.8627 35.8216C16.8627 35.9522 16.9929 36.0682 17.1087 36.1988C17.1087 36.1988 17.2389 36.3294 17.485 36.3294C17.8613 36.1988 18.3533 36.1988 18.9901 36.1988C19.3664 36.1988 19.8585 36.1988 20.365 36.3294C20.4953 36.3294 20.6111 36.1988 20.7413 36.1988V35.8216C20.7413 35.691 20.7413 35.691 20.6111 35.5749C20.64 35.4734 20.5098 35.4734 20.3795 35.4734ZM14.7641 32.4701L16.139 28.7124L17.3837 32.4701H14.7641ZM10.0026 32.5862C9.87237 32.4556 9.75659 32.4556 9.51056 32.3395C9.38031 32.3395 9.26452 32.4701 9.13427 32.4701C9.00402 32.6007 9.00402 32.7167 9.00402 32.8473V34.8495C8.87376 35.3573 8.75798 35.4734 8.38169 35.4734H7.38308C6.38447 35.604 5.76215 35.4734 5.50164 35.4734C5.12535 35.4734 4.87931 35.3428 4.87931 35.0962V28.3351C4.87931 28.3351 5.00957 28.2046 5.38586 28.2046H6.38447C6.51472 28.2046 6.51472 28.2046 6.6305 28.074C6.76076 27.9434 6.76076 27.8273 6.76076 27.8273C6.76076 27.6968 6.76076 27.5807 6.6305 27.4501C6.38447 27.4501 6.25421 27.3195 5.87793 27.4501H2.75184C2.75184 27.5807 2.62158 27.6968 2.62158 27.8273C2.62158 27.9579 2.62158 27.9579 2.75184 28.074C2.75184 28.2046 2.75184 28.2046 2.88209 28.2046H3.75045C3.8807 28.2046 3.99648 28.3351 3.99648 28.3351V35.0962C3.99648 35.3428 3.86623 35.4734 3.75045 35.4734H2.99787C2.86762 35.4734 2.75184 35.4734 2.75184 35.604C2.62158 35.7345 2.62158 35.7345 2.62158 35.8506C2.62158 35.9812 2.62158 36.0972 2.75184 36.2278C2.88209 36.2278 2.99787 36.3584 3.12812 36.2278H9.13427C9.51056 36.3584 9.64081 36.3584 9.75659 36.2278C9.88685 36.0972 10.0026 35.9812 10.0026 35.8506C9.87237 35.6039 9.87237 35.0962 10.0026 34.6029C10.0026 33.979 10.0026 33.4712 10.1329 32.8473C10.1329 32.7167 10.1329 32.5862 10.0026 32.5862ZM111.166 27.2035C109.922 27.2035 109.039 27.5807 108.547 28.3351C107.925 29.0896 107.548 30.2213 107.548 31.8462C107.548 33.4712 107.925 34.6029 108.547 35.3573C109.053 36.1118 109.922 36.489 111.166 36.489C112.426 36.489 113.424 36.1118 113.916 35.3573C114.539 34.6029 114.915 33.4712 114.915 31.8462C114.915 30.2213 114.539 29.0896 113.916 28.3351C113.424 27.5807 112.411 27.2035 111.166 27.2035ZM113.294 34.7189C112.787 35.4734 112.165 35.72 111.166 35.72C110.298 35.72 109.545 35.4734 109.169 34.7189C108.663 34.0951 108.547 33.2245 108.547 31.8462C108.547 30.584 108.677 29.5829 109.169 28.959C109.545 28.2046 110.298 27.9579 111.166 27.9579C112.165 27.9579 112.787 28.2046 113.294 28.959C113.8 29.5829 113.916 30.584 113.916 31.8462C113.916 33.2245 113.786 34.0951 113.294 34.7189ZM105.044 33.3406H104.538C104.408 33.4712 104.292 33.5873 104.162 33.8484C104.031 34.4723 103.655 34.9801 103.163 35.3573C102.656 35.604 102.164 35.7345 101.658 35.7345C100.659 35.7345 99.9067 35.3573 99.4001 34.6029C99.0238 33.979 98.7778 32.9779 98.7778 31.7156C98.7778 30.584 99.0238 29.7135 99.4001 29.0896C99.9067 28.3351 100.659 27.9579 101.774 27.9579C102.28 27.9579 102.772 28.0885 103.149 28.3351C103.525 28.5818 103.771 29.0896 103.901 29.5829C103.901 29.7135 104.031 29.8295 104.031 29.9601V30.4534L104.162 30.7C104.162 30.8306 104.292 30.9467 104.408 31.0773H104.784C104.914 30.9467 105.03 30.9467 105.03 30.8306C105.16 30.7 105.16 30.584 105.03 30.4534C105.03 30.0762 104.9 29.6989 104.784 29.4523V28.074C104.784 27.9434 104.914 27.6968 104.914 27.4501C105.044 27.3195 104.914 27.2035 104.914 27.0729C104.784 26.9423 104.668 26.9423 104.538 26.9423H104.031C103.901 27.0729 103.901 27.0729 103.901 27.189V27.5662C103.901 27.6968 103.901 27.8128 103.901 27.8128C103.525 27.6823 103.279 27.5662 102.772 27.4356C102.396 27.305 102.02 27.305 101.643 27.305C100.384 27.305 99.5159 27.6823 98.8936 28.4367C98.141 29.1911 97.895 30.3228 97.895 31.8172C97.895 33.3261 98.141 34.4433 98.7633 35.1977C99.3857 35.9522 100.384 36.3294 101.643 36.3294C102.512 36.3294 103.149 36.1988 103.641 35.9522C104.393 35.5749 104.885 34.9511 105.262 34.066C105.377 33.9355 105.377 33.6888 105.262 33.5727C105.291 33.4712 105.16 33.3406 105.044 33.3406ZM120.791 27.4501H116.912C116.782 27.3195 116.666 27.4501 116.536 27.4501C116.536 27.5807 116.536 27.6968 116.405 27.8273C116.405 27.9579 116.536 28.074 116.536 28.074C116.652 28.2046 116.652 28.2046 116.782 28.2046H117.534C117.65 28.2046 117.65 28.3351 117.65 28.4512V35.2267C117.65 35.4734 117.65 35.4734 117.534 35.4734C117.404 35.604 117.158 35.604 116.782 35.4734C116.652 35.4734 116.652 35.4734 116.536 35.604C116.536 35.7345 116.536 35.7345 116.536 35.8506V36.2278C116.652 36.2278 116.782 36.3584 116.912 36.2278H120.53C120.66 36.2278 120.776 36.2278 120.776 36.2278C121.775 36.2278 122.397 35.9812 122.904 35.3428C123.526 34.7189 123.902 33.4567 123.902 31.7011C123.902 30.3228 123.656 29.1911 123.15 28.5673C122.672 27.8273 121.92 27.4501 120.791 27.4501ZM122.296 34.7189C122.05 35.0962 121.427 35.4734 120.791 35.4734H118.663V28.2046H120.791C121.543 28.2046 122.035 28.4512 122.412 28.959C122.788 29.4668 123.034 30.4679 123.034 31.7156C123.048 33.094 122.802 34.0951 122.296 34.7189ZM94.7834 35.604C94.5373 35.4734 94.5373 35.4734 94.5373 35.3573C94.4071 34.7334 94.2913 34.3562 94.161 33.8484C93.7847 33.094 93.4085 32.7167 92.7861 32.3395C93.2927 32.2089 93.669 31.9623 93.915 31.7156C94.161 31.3384 94.4215 30.7146 94.4215 29.9601C94.4215 29.2057 94.2913 28.5818 93.915 28.2046C93.5387 27.6968 92.7861 27.4501 91.6573 27.4501H89.66C89.1535 27.4501 88.6614 27.4501 88.1549 27.3195C88.0246 27.3195 87.9089 27.4501 87.9089 27.4501C87.7786 27.5807 87.7786 27.6968 87.7786 27.8273C87.7786 27.9579 87.7786 27.9579 87.7786 28.074C87.9089 28.2046 88.0246 28.2046 88.1549 28.2046H88.6614C88.7917 28.2046 88.9075 28.3351 88.9075 28.4512V35.3428C88.9075 35.3428 88.7772 35.4734 88.5312 35.4734H88.0246C87.8944 35.4734 87.7786 35.4734 87.6483 35.604C87.6483 35.604 87.6483 35.7345 87.6483 35.8506C87.6483 35.9812 87.6483 36.0972 87.7786 36.2278C87.7786 36.2278 87.9089 36.3584 88.0246 36.3584C88.5312 36.2278 88.893 36.2278 89.2693 36.2278C89.6456 36.2278 90.1376 36.2278 90.6442 36.3584C90.7744 36.3584 90.8902 36.3584 91.0205 36.2278C91.1507 36.0972 91.1507 35.9812 91.1507 35.8506C91.1507 35.72 91.1507 35.72 91.0205 35.604C90.9047 35.4734 90.7744 35.4734 90.6442 35.4734H90.0219C89.9061 35.4734 89.7758 35.4734 89.7758 35.3428V32.5862H91.773C92.5256 32.8328 92.9019 33.3406 93.1479 33.9645C93.394 34.4723 93.5242 35.0962 93.5242 35.9667C93.5242 36.0972 93.5242 36.0972 93.6545 36.2133C93.6545 36.2133 93.7847 36.3439 93.9005 36.3439C94.0308 36.2133 94.2768 36.2133 94.5228 36.2133H95.4057C95.5215 36.3439 95.6517 36.2133 95.782 36.2133V35.8361C95.782 35.7055 95.782 35.5894 95.782 35.5894C95.6517 35.4589 95.5359 35.4589 95.4057 35.4589C95.1596 35.4734 94.9136 35.604 94.7834 35.604ZM91.7875 31.8462H89.7903V28.2046H91.7875C92.4098 28.2046 92.9164 28.3351 93.1624 28.5818C93.2927 28.8284 93.4085 29.3362 93.4085 29.9601C93.4085 30.584 93.2782 31.0918 92.9019 31.469C92.6559 31.7156 92.2796 31.8462 91.7875 31.8462ZM132.542 33.7178C132.542 33.5873 132.412 33.5873 132.166 33.5873C132.036 33.5873 131.92 33.5873 131.79 33.7178C131.79 33.7178 131.66 33.8484 131.66 33.9645L131.79 34.2111V35.0816C131.79 35.3283 131.79 35.4589 131.66 35.4589H127.795V31.9478H129.547C129.677 31.9478 129.677 32.0784 129.677 32.1944V32.9489C129.677 33.0795 129.677 33.0795 129.677 33.1955C129.677 33.1955 129.807 33.3261 129.923 33.3261C129.923 33.4567 130.053 33.4567 130.169 33.4567C130.299 33.4567 130.415 33.4567 130.545 33.3261C130.676 33.1955 130.676 33.0795 130.676 32.9489C130.545 32.5717 130.545 32.0784 130.545 31.5706C130.545 31.1933 130.676 30.8161 130.676 30.3228C130.676 30.1922 130.676 30.1922 130.545 30.0762C130.415 30.0762 130.299 29.9456 130.169 29.9456C130.039 29.9456 129.923 29.9456 129.793 30.0762C129.662 30.0762 129.662 30.2067 129.662 30.2067V30.9612C129.662 31.2078 129.662 31.3384 129.532 31.3384H127.795V28.2046H131.428C131.558 28.2046 131.674 28.3351 131.674 28.5818V29.4668C131.674 29.5974 131.674 29.7135 131.674 29.7135C131.674 29.844 131.674 29.9601 131.674 29.9601C131.674 30.0907 131.674 30.2067 131.804 30.2067C131.935 30.3373 132.05 30.3373 132.181 30.3373C132.311 30.3373 132.427 30.2067 132.557 30.2067C132.687 30.0762 132.687 29.9601 132.687 29.8295V28.9445C132.687 28.5673 132.687 28.1901 132.817 27.8128C132.817 27.6823 132.817 27.5662 132.687 27.4356C132.557 27.4356 132.311 27.305 131.935 27.4356H128.678C127.434 27.4356 126.551 27.4356 126.175 27.305C126.044 27.305 125.928 27.305 125.798 27.4356C125.798 27.5662 125.668 27.6823 125.668 27.6823C125.668 27.8128 125.668 27.9289 125.798 28.0595C125.798 28.0595 125.914 28.1901 126.044 28.1901H126.667C126.797 28.3206 126.913 28.4367 126.913 28.5673V34.9656C126.913 35.2122 126.782 35.3428 126.667 35.4734H126.044C125.914 35.4734 125.914 35.4734 125.798 35.604C125.798 35.604 125.668 35.7345 125.668 35.8506C125.668 35.9812 125.798 36.0972 125.914 36.2278C125.914 36.2278 126.044 36.3584 126.29 36.3584C126.782 36.2278 127.665 36.2278 128.91 36.2278H132.412C132.658 36.2278 132.789 36.0972 132.789 35.8506V35.0962C132.789 34.8495 132.789 34.6029 132.658 34.4723C132.658 34.3417 132.658 34.0951 132.789 33.9645C132.803 33.8484 132.673 33.7178 132.542 33.7178ZM67.6472 38.6072C67.4011 38.4767 67.0248 38.3606 66.6485 38.3606C65.1434 38.3606 63.8987 38.23 63.1462 37.9834C62.3936 37.6061 61.7713 37.0983 61.395 36.3584C62.2633 34.6029 63.0159 33.6018 63.5225 33.094C64.1448 32.5862 65.0276 32.4701 66.2723 32.4701C66.6485 32.4701 67.0248 32.3395 67.2709 32.2234C67.5169 32.0929 67.6472 31.9768 67.6472 31.7156C67.6472 31.5851 67.5169 31.469 67.2709 31.3384C67.0248 31.2078 66.6485 31.0918 66.142 31.0918C64.3908 31.0918 63.0159 31.3384 62.1475 31.9768C61.2647 32.4701 60.5266 33.4857 59.774 34.864C57.6466 32.354 56.2717 30.7291 55.7796 29.9746C55.6638 29.844 55.6638 29.728 55.5336 29.5974C55.027 28.7124 54.781 27.7113 54.781 26.8408C54.781 26.0863 55.027 25.4624 55.4033 25.2158C55.5336 25.2158 55.5336 25.2158 55.5336 25.0852C55.9098 24.8386 56.5322 24.708 57.415 24.708H59.7885C60.1648 24.8386 60.4108 24.708 60.6569 24.5774C60.7871 24.4468 60.9029 24.3308 60.9029 24.2002C60.9029 23.9535 60.7727 23.823 60.6569 23.6924C60.5411 23.5618 60.1648 23.4457 59.9043 23.4457H57.4005C56.6479 23.4457 56.1414 23.5763 55.5191 23.5763C54.8968 23.7069 54.26 23.9535 53.7679 24.2002C52.7693 24.708 52.2627 25.4624 52.2627 26.4635C52.2627 27.334 52.393 27.9724 52.5088 28.5963C52.7548 29.1041 53.1311 29.728 53.8837 30.5985C52.639 31.1063 51.7562 31.7302 51.0036 32.4846C50.1353 33.3696 49.7445 34.4868 49.7445 35.6185C49.7445 37.1274 50.251 38.2445 51.2497 38.999C52.2483 39.6228 53.5074 40.0001 55.3744 40.0001H55.5046C56.6335 40.0001 57.6321 39.8695 58.3847 39.6228C59.253 39.2456 60.0056 38.7378 60.5121 38.1139C61.1345 38.7378 61.887 39.115 62.7554 39.3762C63.6238 39.5068 64.8829 39.6228 66.6341 39.6228C67.0104 39.6228 67.3866 39.6228 67.6327 39.4923C67.8787 39.3617 68.009 39.2456 68.009 38.9845C68.0234 38.8539 67.9077 38.7378 67.6472 38.6072ZM57.4005 38.3606C57.0242 38.6072 56.4019 38.7378 55.6493 38.7378H55.5191C54.3902 38.7378 53.6376 38.4912 53.1456 38.1139C52.393 37.6061 52.147 36.8517 52.147 35.604C52.147 34.7189 52.393 33.8484 52.8995 33.2245C53.3916 32.4701 54.0284 32.0929 54.781 31.8462L55.5336 32.7167L58.9057 36.7356C58.5294 37.4756 58.0228 38.1139 57.4005 38.3606ZM47.646 32.5862C47.5157 32.4556 47.3999 32.4556 47.1394 32.3395C47.0092 32.3395 46.8934 32.4701 46.7631 32.4701C46.6329 32.6007 46.6329 32.7167 46.6329 32.8473V34.8495C46.5026 35.3573 46.3868 35.4734 46.0106 35.4734H45.0119C44.0133 35.604 43.391 35.4734 43.1305 35.4734C42.7542 35.4734 42.5082 35.3428 42.5082 35.0962V28.3351C42.5082 28.3351 42.6384 28.2046 43.0147 28.2046H44.0133C44.1436 28.2046 44.1436 28.2046 44.2594 28.074C44.3896 27.9434 44.3896 27.8273 44.3896 27.8273C44.3896 27.6968 44.3896 27.5807 44.2594 27.4501C44.0133 27.4501 43.8831 27.3195 43.5068 27.4501H40.3807C40.3807 27.5807 40.2649 27.6968 40.2649 27.8273C40.2649 27.9579 40.2649 27.9579 40.2649 28.074C40.3807 28.2046 40.3807 28.2046 40.511 28.2046H41.3793C41.5096 28.2046 41.6253 28.3351 41.6253 28.3351V35.0962C41.6253 35.3428 41.4951 35.4734 41.3793 35.4734H40.6267C40.4965 35.4734 40.3807 35.4734 40.3807 35.604C40.2649 35.7345 40.2649 35.7345 40.2649 35.8506C40.2649 35.9812 40.2649 36.0972 40.3807 36.2278C40.511 36.2278 40.6267 36.3584 40.757 36.2278H46.7631C47.1394 36.3584 47.2697 36.3584 47.3855 36.2278C47.5157 36.0972 47.6315 35.9812 47.6315 35.8506C47.5012 35.6039 47.5012 35.0962 47.6315 34.6029C47.6315 33.979 47.6315 33.4712 47.7473 32.8473C47.7618 32.7167 47.7617 32.5862 47.646 32.5862ZM74.0296 31.5851C74.4059 31.4545 74.6519 31.2078 74.7822 30.9612C74.9124 30.7146 75.0282 30.2067 75.0282 29.6989C75.0282 28.9445 74.8979 28.3206 74.4059 27.9434C74.0296 27.5662 73.4073 27.4356 72.4087 27.4356H68.284C68.284 27.5662 68.1537 27.6823 68.1537 27.8128C68.1537 27.9434 68.1537 27.9434 68.284 28.0595C68.284 28.1901 68.4142 28.1901 68.53 28.1901H69.2826C69.4128 28.3206 69.5286 28.4367 69.5286 28.5673V34.9656C69.5286 35.2122 69.4128 35.3428 69.1523 35.4734C69.1523 35.4734 68.9063 35.604 68.53 35.604C68.3997 35.4734 68.284 35.604 68.284 35.604C68.1537 35.7345 68.1537 35.8506 68.1537 35.8506C68.1537 35.9812 68.284 36.0972 68.284 36.2278C68.4142 36.2278 68.53 36.3584 68.6602 36.2278H72.9152C73.798 36.2278 74.4203 36.0972 74.9124 35.604C75.2887 35.2267 75.5347 34.6029 75.5347 33.7178C75.5347 33.21 75.4045 32.7167 75.0427 32.3395C74.7822 31.9623 74.4059 31.7156 74.0296 31.5851ZM70.397 28.2046H72.6402C73.1468 28.2046 73.3928 28.3351 73.6388 28.4512C74.0151 28.6979 74.1454 29.0751 74.1454 29.6989C74.1454 30.2067 74.0151 30.584 73.7691 30.8306C73.523 31.2078 73.1468 31.3239 72.6402 31.3239H70.397V28.2046ZM74.1598 35.2267C73.9138 35.4734 73.5375 35.604 72.9152 35.604H70.4114V31.9623H72.2929C73.1612 32.0929 73.798 32.2089 74.1598 32.4556C74.5361 32.7022 74.6664 33.0795 74.6664 33.7178C74.6519 34.3417 74.5217 34.8495 74.1598 35.2267ZM86.0274 35.4734C85.5209 35.604 85.2748 35.4734 85.1446 35.4734C85.0288 35.3428 85.0288 35.2267 84.8985 34.9656L82.279 27.9434C82.279 27.6968 82.1487 27.5662 82.1487 27.4356C82.0185 27.4356 81.9027 27.305 81.6422 27.305H78.8924C78.8924 27.4356 78.7621 27.5517 78.8924 27.6823C78.8924 27.8128 78.8924 27.8128 79.0226 27.9289C79.0226 28.0595 79.1529 28.0595 79.3989 28.0595H80.6436C80.8896 28.0595 80.8896 28.3061 80.8896 28.4367L78.5161 35.0816C78.3859 35.3283 78.3859 35.3283 78.2701 35.4589H77.5175C77.3872 35.4589 77.3872 35.5894 77.2715 35.5894C77.2715 35.72 77.2715 35.8361 77.2715 35.8361V36.2133C77.4017 36.2133 77.5175 36.3439 77.6478 36.3439C78.024 36.2133 78.5161 36.2133 78.8924 36.2133C79.3989 36.2133 79.7608 36.2133 80.3976 36.3439C80.5278 36.3439 80.5278 36.2133 80.6436 36.2133C80.6436 36.0827 80.7738 35.9667 80.7738 35.8361C80.6436 35.7055 80.6436 35.7055 80.5278 35.5894C80.5278 35.4589 80.3976 35.4589 80.1515 35.4589H79.645C79.5147 35.3283 79.5147 35.2122 79.5147 34.9511L80.137 33.0649H83.2631L83.8855 35.0671C83.8855 35.1977 83.7552 35.3138 83.6394 35.4444C83.3934 35.4444 83.2631 35.5749 82.8868 35.4444C82.7566 35.4444 82.6408 35.5749 82.5106 35.5749C82.5106 35.7055 82.5106 35.8216 82.5106 35.8216C82.5106 35.9522 82.5106 36.0682 82.6263 36.1988C82.7566 36.1988 82.8724 36.3294 83.0026 36.3294C83.5092 36.1988 84.0012 36.1988 84.5078 36.1988C85.0143 36.1988 85.5064 36.1988 86.0129 36.3294C86.1287 36.3294 86.1287 36.1988 86.259 36.1988C86.259 36.0682 86.3892 35.9522 86.3892 35.8216C86.259 35.691 86.259 35.691 86.259 35.5749C86.1577 35.4734 86.0274 35.4734 86.0274 35.4734ZM80.412 32.4701L81.6567 28.7124L82.9013 32.4701H80.412Z" fill="black" fill-opacity="0.9"/>
</svg>
