<svg width="68" height="40" viewBox="0 0 68 40" fill="none" xmlns="http://www.w3.org/2000/svg">
<path d="M4.34339 38.2921C4.3589 38.2921 4.37957 38.2895 4.40541 38.2869C4.43125 38.2843 4.4545 38.2792 4.48034 38.274C4.50618 38.2688 4.52944 38.2611 4.55011 38.2533C4.57336 38.2456 4.59146 38.2352 4.60438 38.2249C4.64314 38.2223 4.68964 38.2249 4.74391 38.2301C4.79817 38.2352 4.8421 38.243 4.87311 38.2482C4.90928 38.2559 4.94029 38.2663 4.96871 38.2843C4.99714 38.3024 5.00748 38.3283 5.00489 38.367C4.99972 38.4058 4.97905 38.4316 4.94029 38.4471C4.90153 38.4626 4.85502 38.4678 4.79818 38.4626C4.76975 38.46 4.73357 38.4575 4.68965 38.4549C4.64572 38.4523 4.60179 38.4523 4.55528 38.4497C4.50877 38.4497 4.46226 38.4471 4.41574 38.4471C4.36923 38.4471 4.33048 38.4446 4.29688 38.4446C4.22453 38.4446 4.14184 38.4446 4.04882 38.4446C3.95579 38.4446 3.85761 38.4445 3.75425 38.4471C3.65089 38.4471 3.54753 38.4497 3.44417 38.4523C3.34081 38.4549 3.24262 38.4575 3.1496 38.4601C3.05657 38.4626 2.97388 38.4652 2.90153 38.4678C2.82918 38.4704 2.77233 38.4756 2.73357 38.4807C2.67672 38.4859 2.62246 38.4962 2.57078 38.5117C2.5191 38.5272 2.48293 38.5427 2.45967 38.5531C2.43383 38.5453 2.40541 38.535 2.3744 38.5221C2.3434 38.5091 2.31239 38.4936 2.2788 38.4781C2.24521 38.4626 2.21678 38.4471 2.19094 38.429C2.1651 38.411 2.14442 38.398 2.13409 38.3825C2.10825 38.3541 2.10308 38.3283 2.11858 38.3128C2.13409 38.2973 2.15735 38.2869 2.18061 38.2921C2.19353 38.2947 2.21419 38.2973 2.24262 38.2998C2.26846 38.3024 2.29946 38.305 2.32789 38.3076C2.35889 38.3102 2.38732 38.3128 2.41575 38.3154C2.44417 38.3179 2.46484 38.3179 2.47776 38.3179C2.80593 38.3231 3.12117 38.3231 3.4235 38.3205C3.72841 38.3205 4.03332 38.3102 4.34339 38.2921ZM2.82401 39.0027C2.80593 38.9743 2.78267 38.951 2.75166 38.9355C2.72065 38.92 2.68965 38.9071 2.65606 38.8942C2.61213 38.8812 2.58628 38.858 2.58628 38.827C2.5837 38.796 2.60954 38.7805 2.66122 38.7779C2.70773 38.7753 2.76975 38.7779 2.84727 38.7856C2.92479 38.7934 3.00231 38.7986 3.085 38.8063C3.22712 38.8115 3.37181 38.8089 3.51652 38.8037C3.6638 38.796 3.79301 38.7908 3.90929 38.7856C3.97389 38.7805 4.04365 38.7779 4.116 38.7727C4.18835 38.7701 4.24003 38.7675 4.27104 38.765C4.30722 38.7624 4.33047 38.7675 4.34339 38.7805C4.35631 38.7934 4.36148 38.8063 4.3589 38.8218C4.35631 38.8373 4.35373 38.858 4.34598 38.8864C4.34081 38.9122 4.33564 38.9407 4.33047 38.9639C4.32013 39.044 4.30463 39.1345 4.28396 39.2352C4.26587 39.3386 4.2452 39.442 4.22453 39.5453C4.30722 39.5427 4.34856 39.5712 4.34598 39.6332C4.3434 39.6538 4.33306 39.6719 4.31755 39.6849C4.29946 39.7004 4.27104 39.7055 4.22711 39.7055C4.03848 39.7055 3.84985 39.7081 3.66381 39.7133C3.47776 39.7184 3.28655 39.7236 3.09275 39.734C3.09017 39.7546 3.07983 39.7753 3.05916 39.796C3.03848 39.8166 3.01523 39.8296 2.99197 39.8321C2.96871 39.8347 2.94805 39.8244 2.92996 39.8011C2.91445 39.7779 2.90412 39.7495 2.89895 39.7133L2.82401 39.0027ZM2.80334 37.4601C2.80334 37.3774 2.82143 37.3024 2.85761 37.2327C2.89378 37.1629 2.94546 37.106 3.01265 37.0569C3.07983 37.0079 3.15735 36.9691 3.24779 36.9433C3.33823 36.9174 3.43642 36.9019 3.54495 36.9019C3.65347 36.9019 3.75166 36.9148 3.84469 36.9433C3.93513 36.9691 4.01523 37.0079 4.08241 37.0569C4.14959 37.106 4.20127 37.1655 4.23745 37.2327C4.27363 37.2998 4.2943 37.3748 4.2943 37.4601C4.2943 37.5402 4.27621 37.6151 4.23745 37.6849C4.20127 37.7546 4.14959 37.8115 4.08241 37.8606C4.01523 37.9097 3.93771 37.9458 3.84469 37.9743C3.75425 38.0001 3.65347 38.0156 3.54495 38.0156C3.43642 38.0156 3.33823 38.0027 3.24779 37.9743C3.15735 37.9484 3.07983 37.9097 3.01265 37.8606C2.94546 37.8115 2.89378 37.7546 2.85761 37.6849C2.82143 37.6151 2.80334 37.5402 2.80334 37.4601ZM3.04107 37.4626C3.04107 37.5247 3.05398 37.5815 3.07982 37.6332C3.10566 37.6849 3.14184 37.7262 3.18577 37.7624C3.2297 37.7986 3.28396 37.8244 3.34597 37.8425C3.40799 37.8606 3.47518 37.8683 3.55011 37.8683C3.62505 37.8683 3.69223 37.8606 3.75425 37.8425C3.81626 37.8244 3.87053 37.7986 3.91704 37.7624C3.96355 37.7262 3.99972 37.6849 4.02556 37.6332C4.0514 37.5815 4.06432 37.5247 4.06432 37.4626C4.06432 37.4006 4.0514 37.3438 4.02556 37.2921C3.99972 37.2404 3.96355 37.1991 3.91704 37.1629C3.87053 37.1267 3.81626 37.1009 3.75425 37.0828C3.69223 37.0647 3.62505 37.0569 3.55011 37.0569C3.47518 37.0569 3.40799 37.0673 3.34597 37.0828C3.28396 37.1009 3.2297 37.1267 3.18577 37.1629C3.14184 37.1991 3.10566 37.243 3.07982 37.2921C3.05398 37.3412 3.04107 37.4006 3.04107 37.4626ZM3.08241 38.9484C3.07983 38.9743 3.07982 38.9898 3.07982 39.0001C3.07982 39.0104 3.07982 39.0182 3.07982 39.0259L3.09791 39.597C3.14701 39.597 3.21161 39.597 3.29171 39.5944C3.37182 39.5944 3.45709 39.5918 3.54495 39.5867C3.6328 39.5841 3.72323 39.5789 3.81367 39.5737C3.90411 39.5686 3.98422 39.5634 4.05657 39.5531L4.07466 38.9252C4.00231 38.9226 3.9222 38.9226 3.83176 38.9226C3.74391 38.9226 3.65347 38.9252 3.56304 38.9252C3.4726 38.9252 3.38474 38.9278 3.30205 38.9329C3.21936 38.9381 3.14184 38.9433 3.08241 38.9484Z" fill="black"/>
<path d="M6.81091 37.7364C6.81091 37.8346 6.79282 37.9224 6.75406 38.0026C6.71531 38.0827 6.66363 38.1498 6.59903 38.2067C6.53443 38.2635 6.45691 38.3075 6.37164 38.3385C6.28379 38.3695 6.19334 38.385 6.09515 38.385C5.99696 38.385 5.90652 38.3695 5.81867 38.3385C5.73081 38.3075 5.65587 38.2635 5.59127 38.2041C5.52668 38.1447 5.475 38.0775 5.43624 38C5.39748 37.9225 5.37939 37.832 5.37939 37.7364C5.37939 37.6408 5.39748 37.5504 5.43624 37.4728C5.475 37.3953 5.52668 37.3256 5.59127 37.2687C5.65587 37.2119 5.73339 37.1679 5.81867 37.1369C5.90652 37.1059 5.99696 37.0904 6.09515 37.0904C6.19076 37.0904 6.28379 37.1059 6.37164 37.1369C6.4595 37.1679 6.53443 37.2119 6.59903 37.2687C6.66363 37.3256 6.71531 37.3927 6.75406 37.4728C6.79024 37.5529 6.81091 37.6408 6.81091 37.7364ZM6.57319 37.7416C6.57319 37.6718 6.56027 37.6072 6.53701 37.5478C6.51117 37.4883 6.47758 37.4392 6.43624 37.3979C6.39231 37.3566 6.34322 37.323 6.28379 37.3023C6.22436 37.279 6.16234 37.2687 6.09515 37.2687C6.02797 37.2687 5.96337 37.279 5.90652 37.3023C5.84709 37.3256 5.79799 37.3566 5.75407 37.3979C5.71014 37.4392 5.67655 37.4909 5.6533 37.5478C5.62746 37.6072 5.61712 37.6718 5.61712 37.7416C5.61712 37.8113 5.63004 37.8759 5.6533 37.9328C5.67914 37.9896 5.71272 38.0387 5.75407 38.0827C5.79799 38.124 5.84709 38.1576 5.90652 38.1808C5.96595 38.2041 6.02797 38.217 6.09515 38.217C6.16234 38.217 6.22694 38.2041 6.28379 38.1808C6.34322 38.1576 6.39231 38.124 6.43624 38.0827C6.48017 38.0413 6.51376 37.9896 6.53701 37.9328C6.56027 37.8708 6.57319 37.8088 6.57319 37.7416ZM7.06673 38.7622C7.10808 38.7597 7.14683 38.7545 7.18559 38.7442C7.22435 38.7338 7.25019 38.7235 7.26053 38.7157C7.29154 38.7131 7.32771 38.7131 7.36647 38.7157C7.40523 38.7183 7.43624 38.7209 7.46208 38.7261C7.50342 38.7338 7.52409 38.7467 7.52409 38.7648C7.52409 38.7829 7.52409 38.8036 7.52151 38.8217C7.51634 38.8604 7.51118 38.8966 7.50342 38.9328C7.49567 38.969 7.4905 39.0051 7.48791 39.0413C7.48275 39.1163 7.48016 39.1886 7.48016 39.2635C7.48016 39.3359 7.47758 39.4108 7.47241 39.4858C7.47241 39.5116 7.46983 39.5478 7.46466 39.5943C7.45949 39.6408 7.45174 39.6873 7.4414 39.7338C7.43107 39.7803 7.41815 39.8217 7.40006 39.8553C7.38197 39.8889 7.35872 39.9069 7.33288 39.9069C7.30446 39.9069 7.28378 39.8759 7.27086 39.8139C7.25794 39.7519 7.25278 39.646 7.25278 39.4987V38.8863C7.21402 38.8863 7.15975 38.8863 7.09257 38.8889C7.0228 38.8889 6.95045 38.8914 6.87551 38.8966C6.79799 38.8992 6.72565 38.9044 6.65329 38.9069C6.58094 38.9095 6.52409 38.9147 6.48016 38.9199C6.38714 38.9276 6.30187 38.956 6.22435 39.0051C6.19334 38.9974 6.15975 38.987 6.12616 38.9741C6.09257 38.9612 6.05898 38.9457 6.03055 38.9302C6.00213 38.9147 5.9737 38.8992 5.94786 38.8837C5.92203 38.8682 5.90653 38.8579 5.89619 38.8475C5.88069 38.8346 5.87293 38.8191 5.87293 38.8036C5.87293 38.7726 5.90136 38.7622 5.9582 38.7726C6.01247 38.7803 6.06414 38.7855 6.11582 38.7881C6.1675 38.7907 6.21918 38.7907 6.26828 38.7907C6.3122 38.7907 6.36647 38.7907 6.43365 38.7881C6.50084 38.7855 6.57319 38.7855 6.65071 38.7829C6.72823 38.7803 6.80316 38.7778 6.8781 38.7752C6.95045 38.77 7.01247 38.7674 7.06673 38.7622ZM7.51118 37.0181V37.6511C7.52926 37.6486 7.54735 37.6485 7.56285 37.6485C7.57836 37.6485 7.59128 37.6485 7.59903 37.6485C7.64813 37.6434 7.69205 37.633 7.73339 37.6175C7.77474 37.602 7.80058 37.584 7.81608 37.5633C7.84709 37.5633 7.88843 37.5659 7.93494 37.5684C7.98404 37.571 8.02797 37.5762 8.06414 37.5814C8.12874 37.5917 8.16234 37.6253 8.16234 37.6796C8.16234 37.739 8.12358 37.7674 8.04348 37.7674C7.96337 37.77 7.87293 37.7726 7.77733 37.7726C7.68172 37.7726 7.59128 37.7752 7.50859 37.7777V38.0516C7.50859 38.0878 7.50859 38.1369 7.506 38.1963C7.506 38.2584 7.50084 38.3178 7.4905 38.3746C7.48275 38.4341 7.46724 38.4832 7.44916 38.5271C7.43107 38.571 7.40264 38.5917 7.36647 38.5917C7.31479 38.5917 7.28895 38.4961 7.28895 38.3049V37.0852C7.28895 37.0439 7.26828 37.0077 7.22694 36.9741C7.18559 36.9405 7.12358 36.9069 7.0383 36.8759C7.02022 36.8682 7.00471 36.8579 6.99179 36.8501C6.97887 36.8423 6.9737 36.832 6.9737 36.8217C6.9737 36.8113 6.98146 36.7984 6.99955 36.7855C7.01763 36.7726 7.04089 36.7648 7.07448 36.7648C7.08999 36.7648 7.11841 36.7674 7.16234 36.7726C7.20627 36.7778 7.25019 36.7829 7.29929 36.7907C7.34838 36.7984 7.39231 36.8062 7.43624 36.8165C7.48017 36.8243 7.506 36.8346 7.52151 36.8398L7.51118 37.0181Z" fill="black"/>
<path d="M8.37207 38.0956C8.37207 38.0026 8.38757 37.9173 8.42117 37.8346C8.45476 37.7519 8.50127 37.6821 8.5607 37.6227C8.62272 37.5607 8.69507 37.5142 8.77776 37.478C8.86044 37.4418 8.95605 37.4263 9.05941 37.4263C9.14985 37.4263 9.23254 37.4393 9.31006 37.4677C9.38758 37.4961 9.45476 37.5323 9.51419 37.5814C9.57362 37.6305 9.62013 37.6899 9.65889 37.7545C9.69765 37.8191 9.72349 37.8914 9.73641 37.969C9.79326 37.9715 9.85269 37.9715 9.91471 37.9715C9.97672 37.9715 10.0413 37.969 10.1059 37.9664V37.2971C10.1059 37.2661 10.0982 37.2377 10.0852 37.2144C10.0697 37.1912 10.0517 37.1705 10.0284 37.1524C10.0051 37.1343 9.97672 37.1214 9.9483 37.1085C9.91729 37.0956 9.88628 37.0852 9.85527 37.0723C9.81393 37.0568 9.79326 37.0387 9.79326 37.0181C9.79326 37.0051 9.80101 36.9922 9.81651 36.9767C9.83202 36.9638 9.85527 36.956 9.88628 36.956C9.90178 36.956 9.93021 36.9586 9.97414 36.9638C10.0181 36.969 10.062 36.9767 10.1137 36.9819C10.1628 36.9896 10.2093 36.9974 10.2532 37.0051C10.2971 37.0129 10.323 37.0232 10.3385 37.0284L10.3256 37.2067V38.7752C10.3256 38.8036 10.3256 38.8449 10.3256 38.894C10.3256 38.9431 10.3256 38.9974 10.323 39.0568C10.3204 39.1163 10.3178 39.1757 10.3101 39.2351C10.3049 39.2945 10.2971 39.3488 10.2842 39.3979C10.2739 39.447 10.2584 39.4858 10.2429 39.5168C10.2274 39.5478 10.2067 39.5633 10.1809 39.5633C10.1318 39.5633 10.1059 39.4237 10.1059 39.1447V38.0956C10.0878 38.0982 10.0723 38.1007 10.0568 38.1033C10.0413 38.1059 10.0284 38.1085 10.0181 38.1111C9.99222 38.1188 9.97155 38.124 9.95346 38.1292C9.93538 38.1343 9.9147 38.1473 9.88886 38.1653C9.86561 38.1602 9.84493 38.155 9.82168 38.1473C9.79842 38.1395 9.77517 38.1318 9.75191 38.124C9.74675 38.2144 9.72866 38.2971 9.69248 38.3746C9.6563 38.4522 9.60979 38.5168 9.54778 38.5736C9.48576 38.6305 9.416 38.6744 9.33331 38.708C9.25062 38.7416 9.16019 38.7571 9.062 38.7571C8.95864 38.7571 8.86302 38.739 8.78034 38.7054C8.69765 38.6718 8.62271 38.6253 8.56328 38.5659C8.50127 38.5064 8.45476 38.4367 8.42375 38.354C8.39016 38.2739 8.37207 38.1886 8.37207 38.0956ZM8.62013 38.0827C8.62013 38.1602 8.63047 38.2274 8.65372 38.2894C8.67698 38.3514 8.70799 38.4031 8.74933 38.447C8.79067 38.4909 8.83719 38.5245 8.89145 38.5478C8.94572 38.571 9.00515 38.5839 9.06716 38.5839C9.12918 38.5839 9.18861 38.571 9.24546 38.5478C9.29972 38.5245 9.34881 38.4909 9.39016 38.447C9.4315 38.4031 9.46251 38.3514 9.48576 38.2894C9.50902 38.2274 9.51936 38.1602 9.51936 38.0827C9.51936 38.0077 9.50902 37.9405 9.48576 37.8785C9.46251 37.8165 9.4315 37.7648 9.39016 37.7183C9.34881 37.6744 9.3023 37.6408 9.24546 37.6175C9.19119 37.5943 9.13176 37.5814 9.06716 37.5814C9.00256 37.5814 8.94572 37.5943 8.89145 37.6175C8.83719 37.6408 8.79067 37.6744 8.74933 37.7183C8.70799 37.7622 8.67698 37.8165 8.65372 37.8785C8.63047 37.9405 8.62013 38.0077 8.62013 38.0827ZM10.8914 37.0181V38.9845C10.8914 39.0129 10.8914 39.0542 10.8914 39.1033C10.8914 39.1524 10.8914 39.2067 10.8889 39.2661C10.8863 39.3256 10.8811 39.385 10.8759 39.4444C10.8682 39.5038 10.8604 39.5581 10.8501 39.6072C10.8398 39.6563 10.8268 39.6951 10.8088 39.7261C10.7907 39.7571 10.77 39.7726 10.7467 39.7726C10.6977 39.7726 10.6718 39.633 10.6718 39.354V37.0852C10.6718 37.0439 10.6511 37.0077 10.6098 36.9741C10.5685 36.9405 10.5064 36.9069 10.4212 36.8759C10.4031 36.8682 10.3876 36.8579 10.3747 36.8501C10.3617 36.8423 10.3566 36.832 10.3566 36.8217C10.3566 36.8113 10.3643 36.7984 10.3824 36.7855C10.4005 36.7726 10.4238 36.7648 10.4573 36.7648C10.4728 36.7648 10.5013 36.7674 10.5452 36.7726C10.5891 36.7778 10.6331 36.7829 10.6821 36.7907C10.7312 36.7984 10.7752 36.8062 10.8191 36.8165C10.863 36.8243 10.8889 36.8346 10.9044 36.8398L10.8914 37.0181Z" fill="black"/>
<path d="M13.2761 37.5374V38.5659C13.2761 38.5917 13.2761 38.6279 13.2735 38.6744C13.2735 38.7183 13.2683 38.7648 13.2606 38.8088C13.2528 38.8527 13.2399 38.894 13.2218 38.925C13.2037 38.956 13.1779 38.9741 13.1469 38.9741C13.1081 38.9741 13.0849 38.9302 13.0797 38.8423L12.7076 38.8656C12.6973 38.9095 12.6843 38.9483 12.6663 38.9793C12.6482 39.0103 12.6223 39.0258 12.5913 39.0258C12.5448 39.0258 12.5216 38.9535 12.5216 38.8088V37.6434C12.5216 37.6046 12.5112 37.5762 12.488 37.5529C12.4647 37.5323 12.4156 37.5064 12.3381 37.478C12.2993 37.4599 12.2812 37.4444 12.2812 37.4263C12.2812 37.416 12.289 37.4031 12.3045 37.3901C12.32 37.3772 12.3433 37.3721 12.3743 37.3721C12.3872 37.3721 12.4105 37.3721 12.444 37.3746C12.4776 37.3772 12.5138 37.3798 12.55 37.385C12.5862 37.3902 12.6223 37.3927 12.6585 37.3979C12.6947 37.4031 12.7179 37.4082 12.7334 37.416L12.7205 37.5839V37.9095L13.0719 37.8889V37.5943C13.0719 37.5555 13.059 37.5219 13.0358 37.4935C13.0099 37.4651 12.9608 37.4341 12.8833 37.4057C12.8652 37.3953 12.8497 37.3876 12.8394 37.3824C12.8291 37.3746 12.8213 37.3669 12.8213 37.3566C12.8213 37.3462 12.8291 37.3333 12.8446 37.323C12.8601 37.3126 12.8833 37.3049 12.9143 37.3049C12.9272 37.3049 12.9531 37.3075 12.9867 37.31C13.0203 37.3126 13.059 37.3178 13.0978 37.3256C13.1365 37.3333 13.1753 37.3385 13.2089 37.3488C13.2451 37.3566 13.2683 37.3643 13.2812 37.3695L13.2761 37.5374ZM12.7231 38.6666C12.7231 38.6847 12.7231 38.7054 12.7205 38.7286L13.0745 38.7106V38.031L12.7231 38.0491V38.6201C12.7231 38.633 12.7231 38.6485 12.7231 38.6666ZM14.2141 37.3591V38.5142C14.2141 38.54 14.2141 38.5762 14.2115 38.6227C14.2115 38.6666 14.2063 38.7131 14.1986 38.7571C14.1908 38.801 14.1779 38.8423 14.1598 38.8734C14.1417 38.9044 14.1159 38.9224 14.0849 38.9224C14.0461 38.9224 14.0229 38.8785 14.0177 38.7932L13.6456 38.8139C13.6378 38.8579 13.6223 38.894 13.6042 38.925C13.5862 38.956 13.5603 38.9715 13.5293 38.9715C13.4828 38.9715 13.4595 38.8992 13.4595 38.7545V37.4677C13.4595 37.4289 13.4492 37.3979 13.4311 37.3772C13.413 37.354 13.3639 37.3281 13.2864 37.2997C13.2477 37.2816 13.2296 37.2661 13.2296 37.248C13.2296 37.2377 13.2373 37.2248 13.2528 37.2119C13.2683 37.1989 13.2916 37.1938 13.3226 37.1938C13.3355 37.1938 13.3588 37.1938 13.3924 37.1964C13.4259 37.1989 13.4595 37.2015 13.4957 37.2067C13.5319 37.2119 13.5655 37.217 13.6017 37.2222C13.6353 37.2274 13.6611 37.2351 13.6766 37.2403L13.6637 37.4082V37.8217L14.0151 37.8036V37.4186C14.0151 37.3798 14.0022 37.3462 13.9738 37.3152C13.9479 37.2842 13.8936 37.2558 13.8187 37.2248C13.8006 37.2144 13.7851 37.2067 13.7748 37.2015C13.7645 37.1938 13.7567 37.186 13.7567 37.1757C13.7567 37.1653 13.7645 37.1524 13.78 37.1421C13.7955 37.1318 13.8187 37.124 13.8497 37.124C13.8626 37.124 13.8885 37.1266 13.9247 37.1318C13.9608 37.1369 13.9996 37.1421 14.0384 37.1498C14.0771 37.1576 14.1159 37.1628 14.152 37.1705C14.1882 37.1783 14.2141 37.186 14.227 37.1938L14.2141 37.3591ZM13.6637 38.6124C13.6637 38.6305 13.6637 38.6537 13.6611 38.677L14.0151 38.664V37.9431L13.6637 37.9612V38.5633C13.6637 38.5762 13.6637 38.5917 13.6637 38.6124ZM14.7257 37.0181V38.0232C14.7386 38.0232 14.7515 38.0232 14.7619 38.0206C14.7722 38.0206 14.7825 38.0181 14.7877 38.0181C14.8368 38.0129 14.8807 38.0026 14.9169 37.987C14.9531 37.9715 14.9789 37.9535 14.9944 37.9328C15.0254 37.9328 15.0668 37.9354 15.1133 37.938C15.1598 37.9405 15.2063 37.9457 15.2425 37.9509C15.3071 37.9612 15.3407 37.9948 15.3407 38.0491C15.3407 38.1085 15.3019 38.1369 15.2218 38.1369C15.1443 38.1395 15.0616 38.1421 14.9738 38.1421C14.8859 38.1421 14.8006 38.1447 14.7205 38.1473V38.9845C14.7205 39.0129 14.7205 39.0542 14.7205 39.1033C14.7205 39.1524 14.7205 39.2067 14.7179 39.2661C14.7154 39.3256 14.7102 39.385 14.705 39.4444C14.6973 39.5038 14.6895 39.5581 14.6792 39.6072C14.6688 39.6563 14.6559 39.6951 14.6378 39.7261C14.6197 39.7571 14.5991 39.7726 14.5758 39.7726C14.5267 39.7726 14.5009 39.633 14.5009 39.354V37.0852C14.5009 37.0439 14.4802 37.0077 14.4389 36.9741C14.3975 36.9405 14.3355 36.9069 14.2502 36.8759C14.2322 36.8682 14.2167 36.8579 14.2037 36.8501C14.1908 36.8423 14.1856 36.832 14.1856 36.8217C14.1856 36.8113 14.1934 36.7984 14.2115 36.7855C14.2296 36.7726 14.2528 36.7648 14.2864 36.7648C14.3019 36.7648 14.3303 36.7674 14.3743 36.7726C14.4182 36.7778 14.4621 36.7829 14.5112 36.7907C14.5603 36.7984 14.6042 36.8062 14.6482 36.8165C14.6921 36.8243 14.7179 36.8346 14.7334 36.8398L14.7257 37.0181Z" fill="black"/>
<path d="M16.7358 37.2429C16.772 37.2403 16.803 37.2325 16.8314 37.2222C16.8573 37.2119 16.8779 37.2015 16.8883 37.1964C16.909 37.1964 16.9348 37.1964 16.9632 37.1989C16.9942 37.2015 17.0252 37.2041 17.0562 37.2093C17.0821 37.2144 17.1002 37.2222 17.1105 37.2325C17.1183 37.2429 17.1234 37.2584 17.1234 37.2765C17.1234 37.2868 17.1183 37.3023 17.1105 37.3178C17.1002 37.3333 17.0898 37.3514 17.0769 37.3721C17.0666 37.385 17.0537 37.4057 17.0433 37.4289C16.9968 37.5245 16.9425 37.6227 16.8831 37.7235C16.8237 37.8243 16.7539 37.9276 16.6712 38.0336C16.7022 38.0671 16.7384 38.1007 16.7798 38.1369C16.8211 38.1731 16.8676 38.2119 16.9245 38.2558C16.9451 38.2739 16.9658 38.2868 16.9865 38.2971C17.0071 38.3049 17.0278 38.3126 17.0459 38.3178C17.064 38.323 17.0821 38.3307 17.0976 38.3462C17.1131 38.3617 17.1312 38.3824 17.1519 38.4082C17.1829 38.4522 17.2113 38.4961 17.2345 38.54C17.2578 38.584 17.2759 38.6175 17.2914 38.6408C17.2991 38.6563 17.3095 38.677 17.3224 38.7054C17.3327 38.7312 17.3405 38.7571 17.3405 38.7752C17.3405 38.8191 17.3172 38.8398 17.2707 38.8398C17.2526 38.8398 17.232 38.8294 17.2087 38.8062C17.1854 38.7829 17.1544 38.7545 17.1157 38.7157L16.5808 38.1473C16.4723 38.2765 16.3431 38.4031 16.1958 38.5297C16.0459 38.6563 15.8702 38.7855 15.6609 38.9147C15.648 38.9224 15.6325 38.9276 15.6195 38.9224C15.604 38.9199 15.5937 38.9121 15.5834 38.9018C15.573 38.8914 15.5679 38.8811 15.5679 38.8656C15.5679 38.8527 15.5756 38.8398 15.5911 38.8243C15.8444 38.6253 16.0743 38.4057 16.281 38.1653C16.4878 37.925 16.6531 37.6563 16.7772 37.3643C16.7384 37.3643 16.6971 37.3643 16.6531 37.3669C16.6092 37.3669 16.5627 37.3695 16.5136 37.3721C16.4645 37.3746 16.418 37.3772 16.3715 37.3798C16.325 37.3824 16.281 37.3876 16.2423 37.3927C16.1984 37.3979 16.1544 37.4057 16.1157 37.416C16.0769 37.4263 16.0382 37.4444 16.002 37.4677C15.9761 37.4599 15.9451 37.4522 15.9141 37.4392C15.8831 37.4263 15.8521 37.4134 15.8237 37.4005C15.7953 37.3876 15.7694 37.3746 15.7462 37.3591C15.7229 37.3462 15.7074 37.3333 15.6996 37.3256C15.6867 37.3126 15.679 37.2971 15.679 37.2816C15.679 37.2506 15.7048 37.2403 15.7565 37.2506C15.8082 37.2609 15.8573 37.2635 15.9064 37.2661C15.9555 37.2687 15.9994 37.2687 16.0459 37.2687C16.0873 37.2687 16.1338 37.2687 16.1906 37.2661C16.2475 37.2661 16.3069 37.2635 16.3689 37.2584C16.4309 37.2532 16.4955 37.2532 16.5627 37.2506C16.6299 37.248 16.6816 37.248 16.7358 37.2429ZM17.9632 37.0181V38.9845C17.9632 39.0129 17.9632 39.0542 17.9632 39.1033C17.9632 39.1524 17.9632 39.2067 17.9606 39.2661C17.958 39.3256 17.9529 39.385 17.9477 39.4444C17.94 39.5038 17.9322 39.5581 17.9219 39.6072C17.9115 39.6563 17.8986 39.6951 17.8805 39.7261C17.8624 39.7571 17.8418 39.7726 17.8185 39.7726C17.7694 39.7726 17.7436 39.633 17.7436 39.354V37.0852C17.7436 37.0439 17.7229 37.0077 17.6816 36.9741C17.6402 36.9405 17.5782 36.9069 17.4929 36.8759C17.4748 36.8682 17.4593 36.8579 17.4464 36.8501C17.4335 36.8423 17.4283 36.832 17.4283 36.8217C17.4283 36.8113 17.4361 36.7984 17.4542 36.7855C17.4723 36.7726 17.4955 36.7648 17.5291 36.7648C17.5446 36.7648 17.573 36.7674 17.617 36.7726C17.6609 36.7778 17.7048 36.7829 17.7539 36.7907C17.803 36.7984 17.8469 36.8062 17.8909 36.8165C17.9348 36.8243 17.9606 36.8346 17.9761 36.8398L17.9632 37.0181Z" fill="black"/>
<path d="M18.9143 37.5762C18.9143 37.5219 18.829 37.4728 18.6585 37.4315C18.6146 37.4212 18.5913 37.4031 18.5913 37.3798C18.5913 37.3617 18.5991 37.3462 18.6146 37.3281C18.6301 37.3126 18.6533 37.3023 18.6843 37.3023C18.7257 37.2997 18.767 37.2997 18.8135 37.3023C18.8575 37.3049 18.9014 37.3075 18.9427 37.3126C18.9841 37.3178 19.0203 37.323 19.0538 37.3307C19.0874 37.3385 19.1133 37.3436 19.1314 37.3514C19.1701 37.3488 19.2115 37.3462 19.258 37.3462C19.3045 37.3462 19.351 37.3436 19.4001 37.3411C19.4492 37.3385 19.4957 37.3359 19.5396 37.3359C19.5836 37.3359 19.6275 37.3333 19.6637 37.3307C19.7102 37.3281 19.7541 37.3204 19.7929 37.31C19.8316 37.2971 19.8626 37.279 19.8885 37.2532C19.9324 37.2532 19.9815 37.2558 20.0306 37.2584C20.0797 37.2609 20.1262 37.2687 20.1727 37.2765C20.2399 37.2868 20.2735 37.3204 20.2735 37.3721C20.2735 37.4315 20.2321 37.4599 20.152 37.4599C19.997 37.4625 19.829 37.4651 19.6482 37.4677C19.4673 37.4703 19.2993 37.4728 19.1443 37.478V38.6434C19.1443 38.6692 19.1546 38.6899 19.1727 38.7054C19.1908 38.7183 19.2347 38.7235 19.3019 38.7183C19.3846 38.7157 19.4828 38.708 19.5939 38.6951C19.705 38.6821 19.8213 38.6641 19.9427 38.646C20.0642 38.6279 20.1882 38.6046 20.3148 38.5788C20.4414 38.5529 20.5629 38.5271 20.6766 38.4987V37.0852C20.6766 37.0439 20.6559 37.0077 20.6146 36.9741C20.5732 36.9405 20.5112 36.9069 20.4259 36.8759C20.4079 36.8682 20.3923 36.8579 20.3794 36.8501C20.3665 36.8423 20.3613 36.832 20.3613 36.8217C20.3613 36.8113 20.3691 36.7984 20.3872 36.7855C20.4053 36.7726 20.4285 36.7648 20.4621 36.7648C20.4776 36.7648 20.506 36.7674 20.55 36.7726C20.5939 36.7778 20.6378 36.7829 20.6869 36.7907C20.736 36.7984 20.7799 36.8062 20.8239 36.8165C20.8678 36.8243 20.8936 36.8346 20.9091 36.8398L20.8962 37.0232V38.0103C20.9143 38.0077 20.9324 38.0077 20.9479 38.0077C20.9634 38.0077 20.9763 38.0077 20.9841 38.0077C21.0332 38.0026 21.0771 37.9922 21.1184 37.9767C21.1598 37.9612 21.1856 37.9431 21.2011 37.9224C21.2321 37.9224 21.2735 37.925 21.32 37.9276C21.3665 37.9302 21.413 37.9354 21.4492 37.9405C21.5138 37.9509 21.5474 37.9845 21.5474 38.0387C21.5474 38.0982 21.5086 38.1266 21.4285 38.1266C21.3484 38.1292 21.258 38.1318 21.1624 38.1318C21.0668 38.1318 20.9763 38.1343 20.8936 38.1369V38.9922C20.8936 39.0206 20.8936 39.062 20.8936 39.1111C20.8936 39.1602 20.8936 39.2144 20.8911 39.2739C20.8885 39.3333 20.8833 39.3927 20.8781 39.4522C20.8704 39.5116 20.8626 39.5659 20.8523 39.615C20.842 39.6641 20.829 39.7028 20.811 39.7338C20.7929 39.7648 20.7722 39.7803 20.7489 39.7803C20.6998 39.7803 20.674 39.6408 20.674 39.3617V38.6356C20.5758 38.6641 20.4621 38.6976 20.3355 38.7312C20.2089 38.7648 20.0771 38.7958 19.9427 38.8268C19.8084 38.8578 19.674 38.8837 19.5422 38.9069C19.4104 38.9302 19.2916 38.9431 19.1856 38.9509C19.0771 38.9586 19.0048 38.9328 18.9686 38.8734C18.9324 38.8139 18.9117 38.739 18.9117 38.6434V37.5762H18.9143Z" fill="black"/>
<path d="M22.1027 39.3902C22.1027 39.4497 22.095 39.5065 22.0769 39.5608C22.0588 39.615 22.0355 39.6667 22.0071 39.7158C21.9787 39.7623 21.9425 39.8062 21.9038 39.845C21.865 39.8838 21.8236 39.9148 21.7849 39.9406C21.7513 39.9613 21.7281 39.9613 21.7151 39.9406C21.6996 39.9199 21.7048 39.8993 21.7332 39.8786C21.7565 39.8605 21.7797 39.8373 21.803 39.8114C21.8262 39.7856 21.8495 39.7572 21.8702 39.7236C21.8908 39.69 21.9089 39.6564 21.9218 39.6176C21.9374 39.5814 21.9451 39.5427 21.9477 39.5013C21.8702 39.5091 21.8133 39.4988 21.7746 39.4652C21.7358 39.4316 21.7151 39.3851 21.7151 39.323C21.7151 39.2662 21.7332 39.2223 21.772 39.1887C21.8107 39.1551 21.8547 39.1396 21.9063 39.1396C21.9735 39.1396 22.0252 39.1628 22.0614 39.2094C22.0976 39.2559 22.1027 39.3179 22.1027 39.3902Z" fill="black"/>
<path d="M25.7565 38.2921C25.772 38.2921 25.7927 38.2895 25.8185 38.2869C25.8443 38.2843 25.8676 38.2792 25.8934 38.274C25.9193 38.2688 25.9425 38.2611 25.9632 38.2533C25.9865 38.2456 26.0045 38.2352 26.0175 38.2249C26.0562 38.2223 26.1027 38.2249 26.157 38.2301C26.2113 38.2352 26.2552 38.243 26.2862 38.2482C26.3224 38.2559 26.3534 38.2663 26.3818 38.2843C26.4102 38.3024 26.4206 38.3283 26.418 38.367C26.4128 38.4058 26.3921 38.4316 26.3534 38.4471C26.3146 38.4626 26.2681 38.4678 26.2113 38.4626C26.1828 38.46 26.1467 38.4575 26.1027 38.4549C26.0588 38.4523 26.0149 38.4523 25.9684 38.4497C25.9218 38.4497 25.8753 38.4471 25.8288 38.4471C25.7823 38.4471 25.7436 38.4446 25.71 38.4446C25.6376 38.4446 25.5549 38.4446 25.4619 38.4446C25.3689 38.4446 25.2707 38.4445 25.1673 38.4471C25.064 38.4471 24.9606 38.4497 24.8573 38.4523C24.7539 38.4549 24.6557 38.4575 24.5627 38.4601C24.4697 38.4626 24.387 38.4652 24.3146 38.4678C24.2423 38.4704 24.1854 38.4756 24.1467 38.4807C24.0898 38.4859 24.0355 38.4962 23.9839 38.5117C23.9322 38.5272 23.896 38.5427 23.8728 38.5531C23.8469 38.5453 23.8185 38.535 23.7875 38.5221C23.7565 38.5091 23.7255 38.4936 23.6919 38.4781C23.6583 38.4626 23.6299 38.4471 23.604 38.429C23.5782 38.411 23.5575 38.398 23.5472 38.3825C23.5213 38.3541 23.5162 38.3283 23.5317 38.3128C23.5472 38.2973 23.5704 38.2869 23.5937 38.2921C23.6066 38.2947 23.6273 38.2973 23.6557 38.2998C23.6816 38.3024 23.7125 38.305 23.741 38.3076C23.772 38.3102 23.8004 38.3128 23.8288 38.3154C23.8573 38.3179 23.8779 38.3179 23.8908 38.3179C24.219 38.3231 24.5343 38.3231 24.8366 38.3205C25.1415 38.3205 25.449 38.3102 25.7565 38.2921ZM24.2397 39.0027C24.2216 38.9743 24.1983 38.951 24.1673 38.9355C24.1363 38.92 24.1053 38.9071 24.0717 38.8942C24.0278 38.8812 24.002 38.858 24.002 38.827C23.9994 38.796 24.0252 38.7805 24.0769 38.7779C24.1234 38.7753 24.1854 38.7779 24.2629 38.7856C24.3405 38.7934 24.418 38.7986 24.5007 38.8063C24.6428 38.8115 24.7875 38.8089 24.9322 38.8037C25.0795 38.796 25.2087 38.7908 25.325 38.7856C25.3896 38.7805 25.4593 38.7779 25.5317 38.7727C25.604 38.7701 25.6557 38.7675 25.6867 38.765C25.7229 38.7624 25.7461 38.7675 25.7591 38.7805C25.772 38.7934 25.7771 38.8063 25.7746 38.8218C25.772 38.8373 25.7694 38.858 25.7616 38.8864C25.7565 38.9122 25.7513 38.9407 25.7461 38.9639C25.7358 39.044 25.7203 39.1345 25.6996 39.2352C25.6815 39.3386 25.6609 39.442 25.6402 39.5453C25.7229 39.5427 25.7642 39.5712 25.7616 39.6332C25.7591 39.6538 25.7487 39.6719 25.7332 39.6849C25.7151 39.7004 25.6867 39.7055 25.6428 39.7055C25.4542 39.7055 25.2655 39.7081 25.0795 39.7133C24.8934 39.7184 24.7022 39.7236 24.5084 39.734C24.5058 39.7546 24.4955 39.7753 24.4748 39.796C24.4542 39.8166 24.4309 39.8296 24.4076 39.8321C24.3844 39.8347 24.3637 39.8244 24.3456 39.8011C24.3301 39.7779 24.3198 39.7495 24.3146 39.7133L24.2397 39.0027ZM24.219 37.4601C24.219 37.3774 24.2371 37.3024 24.2733 37.2327C24.3094 37.1629 24.3611 37.106 24.4283 37.0569C24.4955 37.0079 24.573 36.9691 24.6635 36.9433C24.7539 36.9174 24.8521 36.9019 24.9606 36.9019C25.0691 36.9019 25.1673 36.9148 25.2604 36.9433C25.3508 36.9691 25.4309 37.0079 25.4981 37.0569C25.5653 37.106 25.6169 37.1655 25.6531 37.2327C25.6893 37.2998 25.71 37.3748 25.71 37.4601C25.71 37.5402 25.6919 37.6151 25.6531 37.6849C25.6169 37.7546 25.5653 37.8115 25.4981 37.8606C25.4309 37.9097 25.3534 37.9458 25.2604 37.9743C25.1699 38.0001 25.0691 38.0156 24.9606 38.0156C24.8521 38.0156 24.7539 38.0027 24.6635 37.9743C24.573 37.9484 24.4955 37.9097 24.4283 37.8606C24.3611 37.8115 24.3094 37.7546 24.2733 37.6849C24.2371 37.6151 24.219 37.5402 24.219 37.4601ZM24.4542 37.4626C24.4542 37.5247 24.4671 37.5815 24.4929 37.6332C24.5188 37.6849 24.5549 37.7262 24.5989 37.7624C24.6428 37.7986 24.697 37.8244 24.7591 37.8425C24.8211 37.8606 24.8883 37.8683 24.9632 37.8683C25.0381 37.8683 25.1053 37.8606 25.1673 37.8425C25.2293 37.8244 25.2836 37.7986 25.3301 37.7624C25.3766 37.7262 25.4128 37.6849 25.4386 37.6332C25.4645 37.5815 25.4774 37.5247 25.4774 37.4626C25.4774 37.4006 25.4645 37.3438 25.4386 37.2921C25.4128 37.2404 25.3766 37.1991 25.3301 37.1629C25.2836 37.1267 25.2293 37.1009 25.1673 37.0828C25.1053 37.0647 25.0381 37.0569 24.9632 37.0569C24.8883 37.0569 24.8211 37.0673 24.7591 37.0828C24.697 37.1009 24.6428 37.1267 24.5989 37.1629C24.5549 37.1991 24.5188 37.243 24.4929 37.2921C24.4671 37.3412 24.4542 37.4006 24.4542 37.4626ZM24.4955 38.9484C24.4929 38.9743 24.4929 38.9898 24.4929 39.0001C24.4929 39.0104 24.4929 39.0182 24.4929 39.0259L24.511 39.597C24.5601 39.597 24.6247 39.597 24.7048 39.5944C24.7849 39.5944 24.8702 39.5918 24.958 39.5867C25.0459 39.5841 25.1363 39.5789 25.2268 39.5737C25.3172 39.5686 25.3973 39.5634 25.4697 39.5531L25.4877 38.9252C25.4154 38.9226 25.3353 38.9226 25.2448 38.9226C25.157 38.9226 25.0666 38.9252 24.9761 38.9252C24.8857 38.9252 24.7978 38.9278 24.7151 38.9329C24.6324 38.9381 24.5575 38.9433 24.4955 38.9484Z" fill="black"/>
<path d="M28.2245 37.7364C28.2245 37.8346 28.2064 37.9224 28.1676 38.0026C28.1289 38.0827 28.0772 38.1498 28.0126 38.2067C27.948 38.2635 27.8705 38.3075 27.7852 38.3385C27.6974 38.3695 27.6069 38.385 27.5087 38.385C27.4105 38.385 27.3201 38.3695 27.2322 38.3385C27.1444 38.3075 27.0695 38.2635 27.0049 38.2041C26.9403 38.1447 26.8886 38.0775 26.8498 38C26.8111 37.9225 26.793 37.832 26.793 37.7364C26.793 37.6408 26.8111 37.5504 26.8498 37.4728C26.8886 37.3953 26.9403 37.3256 27.0049 37.2687C27.0695 37.2119 27.147 37.1679 27.2322 37.1369C27.3201 37.1059 27.4105 37.0904 27.5087 37.0904C27.6043 37.0904 27.6974 37.1059 27.7852 37.1369C27.8731 37.1679 27.948 37.2119 28.0126 37.2687C28.0772 37.3256 28.1289 37.3927 28.1676 37.4728C28.2064 37.5529 28.2245 37.6408 28.2245 37.7364ZM27.9894 37.7416C27.9894 37.6718 27.9764 37.6072 27.9532 37.5478C27.9273 37.4883 27.8938 37.4392 27.8524 37.3979C27.8085 37.3566 27.7594 37.323 27.6999 37.3023C27.6405 37.279 27.5785 37.2687 27.5113 37.2687C27.4441 37.2687 27.3795 37.279 27.3227 37.3023C27.2633 37.3256 27.2142 37.3566 27.1702 37.3979C27.1263 37.4392 27.0927 37.4909 27.0695 37.5478C27.0436 37.6072 27.0333 37.6718 27.0333 37.7416C27.0333 37.8113 27.0462 37.8759 27.0695 37.9328C27.0953 37.9896 27.1289 38.0387 27.1702 38.0827C27.2142 38.124 27.2633 38.1576 27.3227 38.1808C27.3821 38.2041 27.4441 38.217 27.5113 38.217C27.5785 38.217 27.6431 38.2041 27.6999 38.1808C27.7594 38.1576 27.8085 38.124 27.8524 38.0827C27.8963 38.0413 27.9299 37.9896 27.9532 37.9328C27.9764 37.8708 27.9894 37.8088 27.9894 37.7416ZM28.4829 38.7622C28.5242 38.7597 28.563 38.7545 28.6018 38.7442C28.6405 38.7338 28.6664 38.7235 28.6767 38.7157C28.7077 38.7131 28.7439 38.7131 28.7826 38.7157C28.8214 38.7183 28.8524 38.7209 28.8782 38.7261C28.9196 38.7338 28.9403 38.7467 28.9403 38.7648C28.9403 38.7829 28.9403 38.8036 28.9377 38.8217C28.9325 38.8604 28.9273 38.8966 28.9196 38.9328C28.9118 38.969 28.9067 39.0051 28.9041 39.0413C28.8989 39.1163 28.8963 39.1886 28.8963 39.2635C28.8963 39.3359 28.8938 39.4108 28.8886 39.4858C28.8886 39.5116 28.886 39.5478 28.8808 39.5943C28.8757 39.6408 28.8679 39.6873 28.8576 39.7338C28.8472 39.7803 28.8343 39.8217 28.8162 39.8553C28.7981 39.8889 28.7749 39.9069 28.749 39.9069C28.7206 39.9069 28.6999 39.8759 28.687 39.8139C28.6741 39.7519 28.6689 39.646 28.6689 39.4987V38.8863C28.6302 38.8863 28.5759 38.8863 28.5087 38.8889C28.439 38.8889 28.3666 38.8914 28.2917 38.8966C28.2142 38.8992 28.1418 38.9044 28.0695 38.9069C27.9971 38.9095 27.9403 38.9147 27.8963 38.9199C27.8033 38.9276 27.718 38.956 27.6405 39.0051C27.6095 38.9974 27.5759 38.987 27.5423 38.9741C27.5087 38.9612 27.4751 38.9457 27.4467 38.9302C27.4183 38.9147 27.3899 38.8992 27.364 38.8837C27.3382 38.8682 27.3227 38.8579 27.3124 38.8475C27.2968 38.8346 27.2891 38.8191 27.2891 38.8036C27.2891 38.7726 27.3175 38.7622 27.3744 38.7726C27.4286 38.7803 27.4803 38.7855 27.532 38.7881C27.5837 38.7907 27.6353 38.7907 27.6844 38.7907C27.7284 38.7907 27.7826 38.7907 27.8498 38.7881C27.917 38.7855 27.9893 38.7855 28.0669 38.7829C28.1444 38.7803 28.2193 38.7778 28.2943 38.7752C28.364 38.77 28.4286 38.7674 28.4829 38.7622ZM28.9248 37.0181V37.6511C28.9428 37.6486 28.9609 37.6485 28.9764 37.6485C28.9919 37.6485 29.0049 37.6485 29.0126 37.6485C29.0617 37.6434 29.1056 37.633 29.147 37.6175C29.1883 37.602 29.2142 37.584 29.2297 37.5633C29.2607 37.5633 29.302 37.5659 29.3485 37.5684C29.3976 37.571 29.4416 37.5762 29.4777 37.5814C29.5423 37.5917 29.5759 37.6253 29.5759 37.6796C29.5759 37.739 29.5372 37.7674 29.457 37.7674C29.3769 37.77 29.2865 37.7726 29.1909 37.7726C29.0953 37.7726 29.0049 37.7752 28.9222 37.7777V38.0516C28.9222 38.0878 28.9222 38.1369 28.9196 38.1963C28.9196 38.2584 28.9144 38.3178 28.9041 38.3746C28.8963 38.4341 28.8808 38.4832 28.8627 38.5271C28.8446 38.571 28.8162 38.5917 28.78 38.5917C28.7284 38.5917 28.7025 38.4961 28.7025 38.3049V37.0852C28.7025 37.0439 28.6819 37.0077 28.6405 36.9741C28.5992 36.9405 28.5372 36.9069 28.4519 36.8759C28.4338 36.8682 28.4183 36.8579 28.4054 36.8501C28.3925 36.8423 28.3873 36.832 28.3873 36.8217C28.3873 36.8113 28.395 36.7984 28.4131 36.7855C28.4312 36.7726 28.4545 36.7648 28.4881 36.7648C28.5036 36.7648 28.532 36.7674 28.5759 36.7726C28.6198 36.7778 28.6638 36.7829 28.7129 36.7907C28.762 36.7984 28.8059 36.8062 28.8498 36.8165C28.8937 36.8243 28.9196 36.8346 28.9351 36.8398L28.9248 37.0181Z" fill="black"/>
<path d="M32.1908 37.6796C32.1908 37.7778 32.1727 37.8631 32.134 37.9406C32.0952 38.0181 32.0435 38.0853 31.9789 38.1395C31.9143 38.1938 31.8368 38.2377 31.7515 38.2662C31.6637 38.2946 31.5732 38.3101 31.475 38.3101C31.3768 38.3101 31.2864 38.2946 31.1986 38.2662C31.1107 38.2377 31.0358 38.1938 30.9712 38.1395C30.9066 38.0853 30.8549 38.0181 30.8161 37.9406C30.7774 37.8631 30.7593 37.7752 30.7593 37.6796C30.7593 37.5814 30.7774 37.4961 30.8161 37.4186C30.8549 37.3411 30.9066 37.2739 30.9712 37.2197C31.0358 37.1654 31.1133 37.1241 31.1986 37.0956C31.2838 37.0672 31.3768 37.0517 31.475 37.0517C31.5732 37.0517 31.6637 37.0672 31.7515 37.0956C31.8394 37.1241 31.9143 37.1654 31.9789 37.2197C32.0435 37.2739 32.0952 37.3385 32.134 37.4186C32.1727 37.4961 32.1908 37.584 32.1908 37.6796ZM31.9531 37.6822C31.9531 37.6124 31.9402 37.5504 31.9169 37.4936C31.8911 37.4367 31.8575 37.3902 31.8161 37.3489C31.7722 37.3101 31.7231 37.2791 31.6637 37.2584C31.6042 37.2377 31.5422 37.2274 31.475 37.2274C31.4078 37.2274 31.3433 37.2377 31.2864 37.2584C31.227 37.2791 31.1779 37.3101 31.134 37.3489C31.09 37.3876 31.0564 37.4341 31.0332 37.4936C31.0073 37.5504 30.997 37.615 30.997 37.6848C30.997 37.7545 31.0099 37.8166 31.0332 37.8734C31.059 37.9302 31.0926 37.9768 31.134 38.0181C31.1779 38.0569 31.227 38.0879 31.2864 38.1085C31.3458 38.1292 31.4078 38.1395 31.475 38.1395C31.5422 38.1395 31.6068 38.1292 31.6637 38.1085C31.7231 38.0879 31.7722 38.0569 31.8161 38.0155C31.86 37.9742 31.8936 37.9277 31.9169 37.8708C31.9427 37.814 31.9531 37.752 31.9531 37.6822ZM31.5862 39.7907C31.5345 39.7855 31.475 39.77 31.4104 39.739C31.3458 39.708 31.2916 39.677 31.2477 39.6434C31.2347 39.6331 31.2244 39.6176 31.2166 39.6021C31.2089 39.5866 31.2063 39.5737 31.2063 39.5607C31.2063 39.5271 31.2373 39.5142 31.2967 39.5246C31.3536 39.5349 31.413 39.5452 31.475 39.5504C31.537 39.5556 31.6042 39.5582 31.674 39.5582C31.736 39.5582 31.8032 39.5582 31.873 39.5556C31.9427 39.5556 32.0125 39.553 32.0797 39.5478C32.1495 39.5452 32.2141 39.5401 32.2787 39.5375C32.3407 39.5349 32.4001 39.5297 32.4544 39.5246C32.4802 39.4393 32.4983 39.3566 32.5112 39.2739C32.5241 39.1912 32.537 39.1163 32.5448 39.0439C32.5396 39.0233 32.519 39.0026 32.4828 38.9819C32.4466 38.9613 32.413 38.9432 32.3769 38.9302C32.3303 38.9096 32.3122 38.8889 32.3226 38.8656C32.3329 38.8424 32.3613 38.8321 32.4079 38.8346C32.4389 38.8346 32.4776 38.8398 32.519 38.8476C32.5629 38.8553 32.6042 38.8656 32.643 38.8786C32.6843 38.8889 32.7205 38.9018 32.7541 38.9147C32.7877 38.9277 32.811 38.938 32.8239 38.9458C32.7929 39.0362 32.7593 39.1318 32.7257 39.23C32.6921 39.3282 32.6533 39.4238 32.6068 39.5116C32.6921 39.4987 32.7619 39.4755 32.8135 39.4445C32.8523 39.447 32.8962 39.4522 32.9479 39.46C32.9996 39.4677 33.0435 39.4755 33.0823 39.4806C33.1572 39.4987 33.1934 39.5349 33.1934 39.5866C33.1934 39.6563 33.1572 39.6925 33.0823 39.6925C33.0642 39.6925 33.0306 39.6899 32.9789 39.6848C32.9272 39.6796 32.8781 39.677 32.8316 39.6719C32.7929 39.6667 32.7438 39.6641 32.6818 39.6641C32.6197 39.6641 32.5577 39.6641 32.488 39.6641C32.3898 39.6641 32.2761 39.6693 32.152 39.677C32.028 39.6848 31.9117 39.6951 31.8058 39.708C31.767 39.7132 31.7283 39.7209 31.6921 39.7339C31.6585 39.7468 31.6223 39.7649 31.5862 39.7907ZM31.6301 38.8553C31.581 38.8476 31.5267 38.8321 31.4699 38.8062C31.413 38.7804 31.3613 38.752 31.32 38.7209C31.2838 38.6925 31.2657 38.6667 31.2657 38.6434C31.2657 38.615 31.2942 38.6021 31.3536 38.6098C31.3975 38.6176 31.4544 38.6202 31.519 38.6228C31.5836 38.6253 31.6507 38.6253 31.7179 38.6253C31.8575 38.6253 31.9944 38.6228 32.1262 38.6176C32.258 38.6124 32.3768 38.6047 32.4776 38.5969C32.5474 38.5892 32.6042 38.5814 32.6456 38.5737C32.6895 38.5659 32.7257 38.5478 32.7593 38.522C32.7954 38.5246 32.8368 38.5297 32.8859 38.5375C32.935 38.5452 32.9789 38.553 33.0151 38.5633C33.0874 38.5814 33.1236 38.615 33.1236 38.6615C33.1236 38.7313 33.0874 38.7675 33.0151 38.7675C32.997 38.7675 32.9634 38.7649 32.9143 38.7597C32.8652 38.7545 32.8187 38.752 32.7748 38.7468C32.7386 38.7416 32.6921 38.739 32.6327 38.739C32.5732 38.739 32.5112 38.739 32.4466 38.739C32.351 38.739 32.2528 38.7442 32.1495 38.752C32.0461 38.7597 31.9453 38.77 31.8446 38.7804C31.8058 38.7855 31.7696 38.7933 31.7309 38.8036C31.6998 38.814 31.6637 38.8321 31.6301 38.8553ZM31.8833 39.4858C31.8626 39.5013 31.842 39.5065 31.8213 39.5013C31.8006 39.4961 31.7877 39.4806 31.7825 39.46C31.7722 39.3773 31.7593 39.2972 31.7438 39.2197C31.7283 39.1421 31.7076 39.0698 31.6792 38.9974C31.6663 38.9638 31.6714 38.9432 31.6973 38.9354C31.7231 38.9277 31.7464 38.9354 31.7722 38.9587C31.7903 38.9742 31.8109 38.9949 31.8342 39.0181C31.8575 39.0414 31.8807 39.0672 31.904 39.0956C31.9272 39.124 31.9479 39.1525 31.9686 39.1861C31.9892 39.2171 32.0048 39.2481 32.0203 39.2765C32.0099 39.3153 31.9892 39.3566 31.9608 39.4005C31.9272 39.4419 31.904 39.4729 31.8833 39.4858ZM32.9815 37.0181V37.6718C32.9996 37.6693 33.0177 37.6693 33.0332 37.6693C33.0487 37.6693 33.0616 37.6693 33.0694 37.6693C33.1185 37.6641 33.1624 37.6538 33.2037 37.6383C33.2451 37.6228 33.2709 37.6047 33.2864 37.584C33.3174 37.584 33.3588 37.5866 33.4053 37.5892C33.4544 37.5918 33.4983 37.5969 33.5345 37.6021C33.5991 37.6124 33.6327 37.646 33.6327 37.7003C33.6327 37.7597 33.5939 37.7881 33.5138 37.7881C33.4337 37.7907 33.3433 37.7933 33.2476 37.7933C33.152 37.7933 33.0616 37.7959 32.9789 37.7985V37.907C32.9789 37.9432 32.9789 37.9897 32.9763 38.0491C32.9763 38.1085 32.9712 38.1654 32.9608 38.2197C32.9531 38.2739 32.9376 38.323 32.9195 38.3644C32.9014 38.4057 32.873 38.4264 32.8368 38.4264C32.7851 38.4264 32.7593 38.3308 32.7593 38.1395V37.0879C32.7593 37.0465 32.7386 37.0103 32.6973 36.9768C32.6559 36.9432 32.5939 36.9096 32.5086 36.8786C32.4905 36.8708 32.475 36.8605 32.4621 36.8527C32.4492 36.845 32.444 36.8346 32.444 36.8243C32.444 36.814 32.4518 36.8011 32.4699 36.7881C32.488 36.7752 32.5112 36.7675 32.5448 36.7675C32.5603 36.7675 32.5887 36.77 32.6327 36.7752C32.6766 36.7804 32.7205 36.7855 32.7696 36.7933C32.8187 36.801 32.8626 36.8088 32.9066 36.8191C32.9505 36.8269 32.9763 36.8372 32.9918 36.8424L32.9815 37.0181Z" fill="black"/>
<path d="M33.8447 38.0956C33.8447 38.0026 33.8602 37.9173 33.8938 37.8346C33.9274 37.7545 33.9739 37.6821 34.0334 37.6227C34.0954 37.5607 34.1677 37.5142 34.2504 37.478C34.3331 37.4418 34.4287 37.4263 34.5321 37.4263C34.6225 37.4263 34.7052 37.4393 34.7827 37.4677C34.8602 37.4935 34.9274 37.5323 34.9843 37.5814C35.0437 37.6305 35.0928 37.6899 35.129 37.7545C35.1677 37.8217 35.1936 37.8914 35.2065 37.969C35.2633 37.9715 35.3228 37.9715 35.3848 37.9715C35.4468 37.9715 35.5114 37.969 35.576 37.9664V37.2971C35.576 37.2661 35.5682 37.2377 35.5553 37.2144C35.5398 37.1912 35.5217 37.1705 35.4985 37.1524C35.4752 37.1343 35.4468 37.1214 35.4184 37.1085C35.3874 37.0956 35.3563 37.0852 35.3253 37.0723C35.284 37.0568 35.2633 37.0387 35.2633 37.0181C35.2633 37.0051 35.2711 36.9922 35.2866 36.9767C35.3021 36.9638 35.3253 36.956 35.3563 36.956C35.3719 36.956 35.4003 36.9586 35.4442 36.9638C35.4881 36.969 35.5321 36.9767 35.5837 36.9819C35.6328 36.9896 35.6793 36.9974 35.7233 37.0051C35.7672 37.0129 35.7956 37.0232 35.8085 37.0284L35.7956 37.2067V38.7752C35.7956 38.8036 35.7956 38.8449 35.7956 38.894C35.7956 38.9431 35.7956 38.9974 35.793 39.0568C35.7905 39.1163 35.7879 39.1757 35.7801 39.2351C35.775 39.2945 35.7672 39.3488 35.7543 39.3979C35.7439 39.447 35.7284 39.4858 35.7129 39.5168C35.6974 39.5478 35.6768 39.5633 35.6509 39.5633C35.6018 39.5633 35.576 39.4237 35.576 39.1447V38.0956C35.5579 38.0982 35.5424 38.1007 35.5269 38.1033C35.5114 38.1059 35.4985 38.1085 35.4881 38.1111C35.4623 38.1188 35.4416 38.124 35.4235 38.1292C35.4054 38.1343 35.3848 38.1473 35.3589 38.1653C35.3357 38.1602 35.315 38.155 35.2917 38.1473C35.2685 38.1395 35.2452 38.1318 35.2194 38.124C35.2142 38.2144 35.1961 38.2971 35.16 38.3746C35.1238 38.4522 35.0773 38.5168 35.0153 38.5736C34.9532 38.6305 34.8835 38.6744 34.8008 38.708C34.7181 38.7416 34.6277 38.7571 34.5295 38.7571C34.4261 38.7571 34.3305 38.739 34.2478 38.7054C34.1651 38.6718 34.0902 38.6253 34.0308 38.5659C33.9687 38.5064 33.9222 38.4367 33.8912 38.354C33.8602 38.2739 33.8447 38.1886 33.8447 38.0956ZM34.0902 38.0827C34.0902 38.1602 34.1005 38.2274 34.1238 38.2894C34.147 38.3514 34.1781 38.4031 34.2194 38.447C34.2608 38.4909 34.3073 38.5245 34.3615 38.5478C34.4158 38.571 34.4752 38.5839 34.5372 38.5839C34.5992 38.5839 34.6587 38.571 34.7155 38.5478C34.7698 38.5245 34.8189 38.4909 34.8602 38.447C34.9016 38.4031 34.9326 38.3514 34.9558 38.2894C34.9791 38.2274 34.9894 38.1602 34.9894 38.0827C34.9894 38.0077 34.9791 37.9405 34.9558 37.8785C34.9326 37.8165 34.9016 37.7648 34.8602 37.7183C34.8189 37.6744 34.7724 37.6408 34.7155 37.6175C34.6613 37.5943 34.6018 37.5814 34.5372 37.5814C34.4726 37.5814 34.4158 37.5943 34.3615 37.6175C34.3073 37.6408 34.2608 37.6744 34.2194 37.7183C34.1781 37.7622 34.147 37.8165 34.1238 37.8785C34.1005 37.9405 34.0902 38.0077 34.0902 38.0827ZM36.3615 37.0181V38.9845C36.3615 39.0129 36.3615 39.0542 36.3615 39.1033C36.3615 39.1524 36.3615 39.2067 36.3589 39.2661C36.3563 39.3256 36.3512 39.385 36.346 39.4444C36.3383 39.5038 36.3305 39.5581 36.3202 39.6072C36.3098 39.6563 36.2969 39.6951 36.2788 39.7261C36.2607 39.7571 36.2401 39.7726 36.2168 39.7726C36.1677 39.7726 36.1419 39.633 36.1419 39.354V37.0852C36.1419 37.0439 36.1212 37.0077 36.0799 36.9741C36.0385 36.9405 35.9765 36.9069 35.8912 36.8759C35.8731 36.8682 35.8576 36.8579 35.8447 36.8501C35.8318 36.8423 35.8266 36.832 35.8266 36.8217C35.8266 36.8113 35.8344 36.7984 35.8525 36.7855C35.8706 36.7726 35.8938 36.7648 35.9274 36.7648C35.9429 36.7648 35.9713 36.7674 36.0153 36.7726C36.0592 36.7778 36.1031 36.7829 36.1522 36.7907C36.2013 36.7984 36.2452 36.8062 36.2892 36.8165C36.3331 36.8243 36.3589 36.8346 36.3744 36.8398L36.3615 37.0181Z" fill="black"/>
<path d="M39.3849 37.4238V38.478C39.3849 38.5065 39.3849 38.5478 39.3823 38.5969C39.3823 38.646 39.3771 38.6951 39.3668 38.7442C39.3565 38.7933 39.3435 38.8346 39.3254 38.8708C39.3074 38.907 39.2789 38.9251 39.2428 38.9251C39.1988 38.9251 39.173 38.8734 39.1652 38.7726L38.3332 38.7959C38.3229 38.845 38.3099 38.8889 38.2918 38.9251C38.2738 38.9613 38.2453 38.9819 38.2092 38.9819C38.1575 38.9819 38.1316 38.9018 38.1316 38.7442V37.5969C38.1316 37.5556 38.111 37.522 38.0696 37.4961C38.0283 37.4703 37.9663 37.4419 37.881 37.4109C37.8629 37.4031 37.8474 37.3928 37.8345 37.385C37.8216 37.3773 37.8164 37.3669 37.8164 37.3566C37.8164 37.3463 37.8242 37.3334 37.8422 37.3204C37.8603 37.3075 37.8836 37.2998 37.9172 37.2998C37.9327 37.2998 37.9611 37.2998 38.0024 37.3023C38.0438 37.3049 38.0877 37.3075 38.1368 37.3153C38.1833 37.3204 38.2298 37.3256 38.2712 37.3333C38.3151 37.3385 38.3435 37.3463 38.3616 37.3514L38.3487 37.5349V37.8734L39.1626 37.8553V37.4858C39.1626 37.4445 39.142 37.4083 39.1006 37.3747C39.0593 37.3411 38.9973 37.3075 38.912 37.2765C38.8939 37.2662 38.8784 37.2584 38.8655 37.2507C38.8526 37.2429 38.8474 37.2326 38.8474 37.2222C38.8474 37.2119 38.8552 37.199 38.8732 37.1861C38.8913 37.1731 38.9146 37.1654 38.9482 37.1654C38.9637 37.1654 38.9921 37.168 39.036 37.1731C39.08 37.1783 39.1239 37.1835 39.173 37.1912C39.2221 37.199 39.266 37.2067 39.3099 37.2171C39.3539 37.2274 39.3823 37.2352 39.3952 37.2403L39.3849 37.4238ZM38.3513 38.5814C38.3513 38.5995 38.3513 38.6202 38.3487 38.6434L39.1678 38.6253V38.0026L38.3539 38.0207V38.5349C38.3513 38.5478 38.3513 38.5633 38.3513 38.5814ZM40.1497 37.0181V38.0259C40.1678 38.0233 40.1833 38.0233 40.2014 38.0233C40.2169 38.0233 40.2298 38.0233 40.2376 38.0233C40.2867 38.0181 40.3306 38.0078 40.372 37.9923C40.4107 37.9768 40.4391 37.9587 40.4546 37.938C40.4856 37.938 40.527 37.9406 40.5735 37.9432C40.62 37.9458 40.6665 37.9509 40.7027 37.9561C40.7673 37.9664 40.8009 38 40.8009 38.0543C40.8009 38.1137 40.7621 38.1421 40.682 38.1421C40.6019 38.1447 40.5115 38.1473 40.4159 38.1473C40.3203 38.1473 40.2298 38.1499 40.1471 38.1525V38.9871C40.1471 39.0155 40.1471 39.0569 40.1471 39.106C40.1471 39.1551 40.1472 39.2093 40.1446 39.2688C40.142 39.3282 40.1368 39.3876 40.1316 39.447C40.1239 39.5065 40.1161 39.5607 40.1058 39.6098C40.0955 39.6589 40.0826 39.6977 40.0645 39.7287C40.0464 39.7597 40.0257 39.7752 40.0024 39.7752C39.9533 39.7752 39.9275 39.6357 39.9275 39.3566V37.0879C39.9275 37.0465 39.9068 37.0103 39.8655 36.9768C39.8242 36.9432 39.7621 36.9096 39.6769 36.8786C39.6588 36.8708 39.6433 36.8605 39.6303 36.8527C39.6174 36.845 39.6123 36.8346 39.6123 36.8243C39.6123 36.814 39.62 36.8011 39.6381 36.7881C39.6562 36.7752 39.6794 36.7675 39.713 36.7675C39.7285 36.7675 39.757 36.77 39.8009 36.7752C39.8448 36.7804 39.8887 36.7855 39.9378 36.7933C39.9869 36.801 40.0309 36.8088 40.0748 36.8191C40.1187 36.8269 40.1472 36.8372 40.1601 36.8424L40.1497 37.0181Z" fill="black"/>
<path d="M41.4205 39.2765C41.3895 39.2739 41.3559 39.2687 41.3197 39.2584C41.2836 39.248 41.2474 39.2351 41.2112 39.2222C41.175 39.2093 41.1415 39.1912 41.1079 39.1757C41.0743 39.1576 41.0458 39.1421 41.0226 39.124C41.0071 39.1137 40.9942 39.1007 40.9864 39.0852C40.9787 39.0697 40.9761 39.0568 40.9761 39.0465C40.9761 39.0129 41.0122 39.0026 41.0846 39.0129C41.1492 39.0232 41.219 39.0336 41.2939 39.0387C41.3688 39.0439 41.4464 39.0465 41.5265 39.0465C41.6634 39.0465 41.7978 39.0465 41.927 39.0439C42.0562 39.0413 42.1828 39.0413 42.3042 39.0387V38.5142H41.8572C41.6789 38.5142 41.5911 38.4263 41.5911 38.248V37.9535C41.5601 37.8992 41.498 37.8604 41.405 37.8398C41.3611 37.832 41.3404 37.8139 41.3404 37.7881C41.3404 37.7726 41.3482 37.7597 41.3663 37.7467C41.3843 37.7364 41.4102 37.7287 41.4464 37.7287C41.5084 37.7287 41.5626 37.7312 41.6092 37.7338C41.6582 37.7364 41.6996 37.7442 41.7358 37.7519C41.7461 37.7545 41.7564 37.7571 41.7668 37.7648C41.7771 37.7726 41.79 37.7752 41.803 37.7803C41.8753 37.7778 41.9606 37.7752 42.0588 37.7726C42.157 37.77 42.2552 37.7674 42.3585 37.7674C42.4619 37.7674 42.5601 37.7648 42.6557 37.7622C42.7539 37.7597 42.8365 37.7571 42.9089 37.7545C42.9218 37.7545 42.9347 37.7467 42.9451 37.7338V37.2532C42.9011 37.2532 42.8365 37.2532 42.7487 37.2558C42.6608 37.2558 42.5678 37.2584 42.4722 37.261C42.3766 37.2635 42.281 37.2661 42.1931 37.2687C42.1053 37.2713 42.0381 37.2765 41.9967 37.2816C41.9451 37.2868 41.896 37.2945 41.852 37.31C41.8081 37.3256 41.7668 37.3436 41.7254 37.3695C41.6944 37.3617 41.6608 37.3488 41.6272 37.3333C41.5937 37.3178 41.5626 37.3023 41.5316 37.2868C41.5006 37.2713 41.4748 37.2558 41.4515 37.2403C41.4283 37.2248 41.4102 37.2119 41.3999 37.2015C41.3869 37.1886 41.3792 37.1731 41.3792 37.155C41.3792 37.124 41.4076 37.1137 41.467 37.124C41.5265 37.1318 41.5833 37.1369 41.635 37.1395C41.6867 37.1421 41.7409 37.1421 41.7952 37.1421C41.8391 37.1421 41.9063 37.1421 41.9916 37.1421C42.0768 37.1421 42.1673 37.1421 42.2655 37.1395C42.3637 37.1369 42.4567 37.1343 42.5523 37.1343C42.6453 37.1343 42.7254 37.1292 42.7874 37.1266C42.8314 37.124 42.8675 37.1188 42.8986 37.1059C42.9296 37.0956 42.9502 37.0852 42.9606 37.0801C42.989 37.0801 43.0252 37.0827 43.0639 37.0852C43.1027 37.0878 43.1363 37.093 43.1595 37.0982C43.1983 37.1059 43.219 37.1214 43.2216 37.1395C43.2241 37.1576 43.2215 37.1757 43.219 37.1964C43.2138 37.2274 43.2086 37.2584 43.2009 37.2842C43.1931 37.31 43.1854 37.3462 43.175 37.3902C43.1673 37.4496 43.1621 37.5064 43.1544 37.5607C43.1466 37.615 43.1389 37.6718 43.1337 37.7312C43.1776 37.739 43.2035 37.7467 43.2164 37.7571C43.2293 37.7674 43.2345 37.7829 43.2345 37.801C43.2345 37.8553 43.1983 37.8811 43.1234 37.8811L41.8262 37.9069V38.292C41.8262 38.3514 41.8572 38.3798 41.9166 38.3798L42.7409 38.3772C42.8055 38.3772 42.8598 38.3669 42.9037 38.3488C42.9477 38.3307 42.9787 38.31 42.9993 38.292C43.0588 38.2971 43.1079 38.3023 43.1492 38.3049C43.1906 38.31 43.2319 38.3152 43.2681 38.3255C43.3275 38.3385 43.3559 38.3721 43.3559 38.4237C43.3559 38.4806 43.3146 38.509 43.2345 38.509L42.5316 38.5116V39.0284C42.6247 39.0258 42.7125 39.0232 42.8004 39.0206C42.8882 39.0181 42.9735 39.0129 43.0588 39.0077C43.144 39.0026 43.2138 38.9948 43.2655 38.9819C43.3172 38.969 43.3637 38.9509 43.405 38.925C43.4489 38.9276 43.5006 38.9328 43.5575 38.938C43.6143 38.9457 43.6686 38.9535 43.7203 38.9638C43.8055 38.9819 43.8495 39.0181 43.8495 39.0697C43.8495 39.1395 43.8055 39.1757 43.7203 39.1757C43.697 39.1757 43.6608 39.1731 43.6117 39.1705C43.5601 39.1679 43.5006 39.1628 43.4283 39.155C43.3998 39.1524 43.3482 39.1498 43.2784 39.1498C43.2086 39.1498 43.1234 39.1473 43.0252 39.1473C42.8055 39.1524 42.5833 39.1576 42.3637 39.1653C42.144 39.1731 41.9192 39.1808 41.6944 39.1912C41.6505 39.1964 41.604 39.2041 41.5575 39.217C41.511 39.2299 41.4619 39.2506 41.4205 39.2765Z" fill="black"/>
<path d="M44.2299 38.9276C44.2144 38.9406 44.1963 38.9483 44.1782 38.9483C44.1601 38.9483 44.1446 38.9457 44.1343 38.9406C44.124 38.9328 44.1162 38.9225 44.1162 38.907C44.1162 38.8915 44.124 38.8734 44.1446 38.8527C44.2377 38.7649 44.3281 38.6641 44.4185 38.5504C44.509 38.4367 44.5917 38.3178 44.6666 38.1964C44.7415 38.0749 44.8087 37.9509 44.8656 37.8269C44.9224 37.7028 44.9663 37.584 44.9922 37.4729C44.9948 37.4625 44.9973 37.4522 44.9999 37.4393C45.0025 37.4263 45.0025 37.416 45.0025 37.4134C45.0025 37.3953 44.9844 37.3695 44.9508 37.3385C44.9172 37.3075 44.863 37.2791 44.7906 37.2584C44.7519 37.2455 44.7338 37.2248 44.7338 37.2015C44.7338 37.1886 44.7415 37.1757 44.757 37.1654C44.7725 37.155 44.7932 37.1499 44.8216 37.1499C44.8501 37.1499 44.8888 37.155 44.9379 37.1654C44.9896 37.1757 45.0387 37.1886 45.0904 37.2015C45.142 37.2145 45.1886 37.2326 45.2299 37.2481C45.2712 37.2636 45.2997 37.2765 45.3126 37.2894C45.3126 37.2997 45.31 37.3152 45.3048 37.3359C45.2997 37.3566 45.2945 37.3773 45.2893 37.4005C45.248 37.5659 45.1782 37.7364 45.0774 37.9173C45.0981 37.938 45.124 37.9638 45.1524 37.9948C45.1834 38.0258 45.2144 38.0594 45.248 38.0904C45.2816 38.124 45.31 38.1524 45.3384 38.1809C45.3669 38.2067 45.3875 38.2274 45.4056 38.2429C45.4237 38.2558 45.4418 38.2687 45.4625 38.2842C45.4831 38.2971 45.5012 38.3075 45.5193 38.3152C45.5451 38.3256 45.5632 38.3333 45.5761 38.3411C45.5891 38.3488 45.602 38.3618 45.6123 38.3773C45.664 38.4522 45.7054 38.5168 45.7338 38.5736C45.7622 38.6305 45.7829 38.6951 45.7906 38.7674C45.7984 38.8114 45.7777 38.8372 45.7286 38.8424C45.695 38.845 45.6433 38.8036 45.5761 38.7209L45.0051 38.0439C44.8992 38.217 44.7777 38.3824 44.6433 38.5375C44.5116 38.6873 44.372 38.8191 44.2299 38.9276ZM46.5451 36.9845V38.9509C46.5451 38.9793 46.5451 39.0207 46.5451 39.0698C46.5451 39.1189 46.5451 39.1731 46.5426 39.2326C46.54 39.292 46.5348 39.3514 46.5296 39.4108C46.5245 39.4703 46.5141 39.5245 46.5038 39.5736C46.4935 39.6227 46.4805 39.6615 46.4625 39.6925C46.4444 39.7235 46.4237 39.739 46.4004 39.739C46.3513 39.739 46.3255 39.5995 46.3255 39.3204V38.0129C46.31 38.0129 46.2867 38.0129 46.2583 38.0155C46.2299 38.0181 46.1989 38.0207 46.1679 38.0233C46.1369 38.0258 46.1085 38.0284 46.0826 38.031C46.0568 38.0336 46.0361 38.0336 46.0232 38.0336C45.9973 38.0387 45.9767 38.0439 45.9586 38.0517C45.9405 38.0594 45.9198 38.0723 45.894 38.0904C45.8811 38.0904 45.8604 38.0853 45.832 38.0775C45.8035 38.0672 45.7777 38.0594 45.7493 38.0465C45.7209 38.0362 45.695 38.0232 45.6692 38.0103C45.6433 37.9974 45.6252 37.9845 45.6123 37.9742C45.5891 37.9561 45.5813 37.938 45.5865 37.9173C45.5917 37.8992 45.6097 37.8889 45.6433 37.8889C45.6847 37.8915 45.7312 37.8915 45.788 37.8915C45.8449 37.8915 45.9017 37.8915 45.9612 37.8889C46.0232 37.8889 46.0826 37.8863 46.1446 37.8837C46.2066 37.8811 46.2661 37.8785 46.3229 37.876V37.0517C46.3229 37.0103 46.3023 36.9742 46.2609 36.9406C46.2196 36.907 46.1576 36.8734 46.0723 36.8424C46.0542 36.8346 46.0387 36.8243 46.0258 36.8165C46.0128 36.8088 46.0077 36.7984 46.0077 36.7881C46.0077 36.7778 46.0154 36.7649 46.0335 36.7519C46.0516 36.739 46.0749 36.7313 46.1084 36.7313C46.124 36.7313 46.1524 36.7338 46.1963 36.739C46.2402 36.7442 46.2842 36.7494 46.3333 36.7571C46.3823 36.7649 46.4263 36.7726 46.4702 36.7829C46.5141 36.7907 46.54 36.801 46.5555 36.8062L46.5451 36.9845Z" fill="black"/>
<path d="M47.4958 37.5762C47.4958 37.5219 47.4106 37.4728 47.24 37.4315C47.1961 37.4212 47.1729 37.4031 47.1729 37.3798C47.1729 37.3617 47.1806 37.3462 47.1961 37.3281C47.2116 37.3126 47.2349 37.3023 47.2659 37.3023C47.3072 37.2997 47.3486 37.2997 47.3951 37.3023C47.4416 37.3049 47.4829 37.3075 47.5243 37.3126C47.5656 37.3178 47.6018 37.323 47.6354 37.3307C47.669 37.3385 47.6948 37.3436 47.7129 37.3514C47.7517 37.3488 47.793 37.3462 47.8395 37.3462C47.886 37.3462 47.9325 37.3436 47.9816 37.3411C48.0307 37.3385 48.0773 37.3359 48.1212 37.3359C48.1651 37.3359 48.2064 37.3333 48.2452 37.3307C48.2917 37.3281 48.3356 37.3204 48.3744 37.31C48.4132 37.2971 48.4442 37.279 48.47 37.2532C48.5139 37.2532 48.563 37.2558 48.6121 37.2584C48.6612 37.2609 48.7103 37.2687 48.7543 37.2765C48.8214 37.2868 48.855 37.3204 48.855 37.3721C48.855 37.4315 48.8137 37.4599 48.7336 37.4599C48.5785 37.4625 48.4106 37.4651 48.2297 37.4677C48.0488 37.4703 47.8809 37.4728 47.7258 37.478V38.6434C47.7258 38.6692 47.7362 38.6899 47.7542 38.7054C47.7723 38.7183 47.8163 38.7235 47.8834 38.7183C47.9661 38.7157 48.0643 38.708 48.1754 38.6951C48.2865 38.6821 48.4028 38.6641 48.5243 38.646C48.6457 38.6279 48.7698 38.6046 48.8964 38.5788C49.023 38.5529 49.1444 38.5271 49.2581 38.4987V37.0852C49.2581 37.0439 49.2375 37.0077 49.1961 36.9741C49.1548 36.9405 49.0928 36.9069 49.0075 36.8759C48.9894 36.8682 48.9739 36.8579 48.961 36.8501C48.9481 36.8423 48.9429 36.832 48.9429 36.8217C48.9429 36.8113 48.9506 36.7984 48.9687 36.7855C48.9868 36.7726 49.0101 36.7648 49.0437 36.7648C49.0592 36.7648 49.0876 36.7674 49.1315 36.7726C49.1754 36.7778 49.2194 36.7829 49.2685 36.7907C49.3176 36.7984 49.3615 36.8062 49.4054 36.8165C49.4493 36.8243 49.4778 36.8346 49.4907 36.8398L49.4778 37.0232V38.0103C49.4959 38.0077 49.5114 38.0077 49.5295 38.0077C49.545 38.0077 49.5579 38.0077 49.5656 38.0077C49.6147 38.0026 49.6586 37.9922 49.7 37.9767C49.7413 37.9612 49.7672 37.9431 49.7827 37.9224C49.8137 37.9224 49.855 37.925 49.9015 37.9276C49.948 37.9302 49.9946 37.9354 50.0307 37.9405C50.0953 37.9509 50.1289 37.9845 50.1289 38.0387C50.1289 38.0982 50.0902 38.1266 50.0101 38.1266C49.93 38.1292 49.8395 38.1318 49.7439 38.1318C49.6483 38.1318 49.5579 38.1343 49.4752 38.1369V38.9922C49.4752 39.0206 49.4752 39.062 49.4752 39.1111C49.4752 39.1602 49.4752 39.2144 49.4726 39.2739C49.47 39.3333 49.4648 39.3927 49.4597 39.4522C49.4519 39.5116 49.4442 39.5659 49.4338 39.615C49.4235 39.6641 49.4106 39.7028 49.3925 39.7338C49.3744 39.7648 49.3537 39.7803 49.3305 39.7803C49.2814 39.7803 49.2555 39.6408 49.2555 39.3617V38.6356C49.1573 38.6641 49.0437 38.6976 48.9145 38.7312C48.7853 38.7648 48.6561 38.7958 48.5217 38.8268C48.3873 38.8578 48.253 38.8837 48.1212 38.9069C47.9894 38.9302 47.8705 38.9431 47.7646 38.9509C47.6561 38.9586 47.5837 38.9328 47.5475 38.8734C47.5114 38.8139 47.4907 38.739 47.4907 38.6434V37.5762H47.4958Z" fill="black"/>
<path d="M50.2324 39.4885C50.2324 39.4368 50.2505 39.3929 50.2841 39.3593C50.3203 39.3257 50.359 39.3076 50.4081 39.3076C50.4598 39.3076 50.5037 39.3257 50.5373 39.3593C50.5735 39.3955 50.589 39.4368 50.589 39.4885C50.589 39.535 50.5709 39.5763 50.5373 39.6125C50.5037 39.6487 50.4598 39.6642 50.4081 39.6642C50.3616 39.6642 50.3203 39.6461 50.2841 39.6125C50.2479 39.5763 50.2324 39.535 50.2324 39.4885Z" fill="black"/>
<path d="M54.7542 38.0517C54.7723 38.0517 54.7956 38.0491 54.8266 38.0465C54.855 38.0414 54.886 38.0362 54.9144 38.031C54.9429 38.0258 54.9713 38.0155 54.9971 38.0078C55.023 37.9974 55.0436 37.9871 55.0617 37.9742C55.1057 37.9716 55.1599 37.9742 55.2245 37.9793C55.2891 37.9871 55.3382 37.9923 55.3744 38C55.4157 38.0078 55.4545 38.0207 55.4881 38.0414C55.5217 38.062 55.5346 38.093 55.5294 38.1395C55.5243 38.1861 55.4984 38.2145 55.4545 38.2326C55.4106 38.2507 55.3537 38.2558 55.2891 38.2507C55.2555 38.2481 55.2116 38.2455 55.1625 38.2429C55.1134 38.2403 55.0591 38.2377 55.0049 38.2377C54.9506 38.2377 54.8964 38.2352 54.8421 38.2326C54.7878 38.2326 54.7413 38.23 54.7025 38.23C54.6173 38.23 54.5217 38.23 54.4106 38.23C54.302 38.23 54.1858 38.23 54.0669 38.2326C53.9455 38.2352 53.8266 38.2351 53.7051 38.2377C53.5837 38.2403 53.4674 38.2429 53.3615 38.2455C53.2529 38.2481 53.1573 38.2507 53.0721 38.2558C52.9868 38.261 52.9222 38.2636 52.8731 38.2687C52.8059 38.2739 52.7439 38.2868 52.6819 38.3075C52.6199 38.3282 52.5785 38.3437 52.5501 38.3566C52.5217 38.3488 52.4881 38.3359 52.4519 38.3204C52.4157 38.3049 52.377 38.2868 52.3408 38.2687C52.3046 38.2507 52.2684 38.23 52.2374 38.2119C52.2064 38.1912 52.1832 38.1731 52.1703 38.1576C52.1392 38.124 52.1315 38.0956 52.1522 38.0749C52.1728 38.0543 52.1961 38.0465 52.2245 38.0517C52.24 38.0543 52.2633 38.0569 52.2969 38.062C52.3279 38.0672 52.3615 38.0698 52.3976 38.0724C52.4338 38.0749 52.4674 38.0775 52.501 38.0801C52.5346 38.0827 52.5578 38.0853 52.5734 38.0853C52.7723 38.0904 52.9635 38.093 53.147 38.093C53.3305 38.093 53.5165 38.0904 53.7025 38.0879V37.6796C53.6199 37.6848 53.5449 37.6899 53.4777 37.6925C53.408 37.6977 53.3382 37.7028 53.2633 37.7106C53.1961 37.7158 53.1392 37.7261 53.0901 37.7442C53.0411 37.7623 53.0049 37.7778 52.9765 37.7933C52.948 37.7855 52.9144 37.7752 52.8757 37.7597C52.8369 37.7442 52.8007 37.7287 52.762 37.7132C52.7258 37.6951 52.6896 37.677 52.6586 37.6589C52.6276 37.6408 52.6044 37.6253 52.5914 37.6124C52.5578 37.5788 52.5501 37.5504 52.5708 37.5297C52.5914 37.5091 52.6173 37.5013 52.6457 37.5065C52.6612 37.5091 52.687 37.5116 52.7206 37.5142C52.7542 37.5168 52.7904 37.5194 52.8266 37.5246C52.8628 37.5297 52.8963 37.5323 52.9299 37.5349C52.9635 37.5375 52.9868 37.5401 53.0023 37.5401C53.1341 37.5426 53.2529 37.5452 53.3615 37.5452C53.47 37.5452 53.5656 37.5426 53.656 37.5401C53.7465 37.5375 53.8292 37.5349 53.9067 37.5323C53.9842 37.5297 54.0591 37.5246 54.1315 37.5194C54.1418 37.478 54.1522 37.4315 54.1625 37.385C54.1728 37.3385 54.1832 37.292 54.1935 37.2455C54.2038 37.199 54.2116 37.1602 54.2193 37.1215C54.2271 37.0827 54.2297 37.0517 54.2323 37.0233C54.2142 36.9638 54.1547 36.9199 54.0591 36.8889C54.0307 36.8786 54.01 36.8656 53.9997 36.8527C53.9894 36.8398 53.9868 36.8269 53.992 36.814C53.9971 36.801 54.0075 36.7907 54.0255 36.7804C54.0436 36.77 54.0643 36.7674 54.0901 36.7674C54.1289 36.7674 54.1754 36.7726 54.2271 36.7804C54.2788 36.7907 54.3279 36.801 54.377 36.8114C54.4235 36.8243 54.4674 36.8372 54.5062 36.8527C54.5449 36.8682 54.5708 36.8811 54.5837 36.8915C54.5449 36.9923 54.501 37.0982 54.4519 37.2093C54.4028 37.3204 54.3563 37.4212 54.315 37.5039C54.3589 37.4987 54.4106 37.491 54.47 37.4832C54.5268 37.4729 54.5708 37.4548 54.6018 37.4264C54.6405 37.4238 54.6896 37.4238 54.7516 37.4315C54.8137 37.4393 54.8602 37.4445 54.9015 37.4548C54.9403 37.4651 54.979 37.478 55.0126 37.4961C55.0462 37.5142 55.0617 37.5401 55.0566 37.5762C55.0514 37.6202 55.0281 37.6512 54.9842 37.6667C54.9429 37.6822 54.886 37.6848 54.8188 37.6796C54.7801 37.677 54.7336 37.6744 54.6819 37.6744C54.6302 37.6744 54.5785 37.6718 54.5243 37.6718C54.47 37.6718 54.4157 37.6718 54.364 37.6718C54.3098 37.6718 54.2659 37.6718 54.2245 37.6718H53.9661V38.0853C54.0979 38.0801 54.2297 38.0749 54.3615 38.0724C54.4932 38.0698 54.6199 38.0594 54.7542 38.0517ZM54.271 36.4961C54.3098 36.491 54.3615 36.4832 54.4209 36.4729C54.4829 36.4625 54.5294 36.4445 54.5682 36.4212C54.607 36.4186 54.6586 36.4212 54.7206 36.4289C54.7827 36.4367 54.8318 36.4445 54.8705 36.4496C54.9144 36.4574 54.9506 36.4729 54.979 36.4935C55.0075 36.5142 55.0178 36.5426 55.0126 36.5814C55.0049 36.6253 54.9816 36.6563 54.9403 36.6693C54.9015 36.6848 54.8447 36.6873 54.7749 36.6822C54.6871 36.6744 54.5914 36.6693 54.4907 36.6641C54.3873 36.6589 54.2943 36.6589 54.2142 36.6589C53.9997 36.6615 53.8163 36.6667 53.6638 36.6718C53.5113 36.6796 53.3925 36.6873 53.3072 36.6977C53.2374 36.7054 53.1728 36.7184 53.1108 36.7364C53.0488 36.7545 53.0049 36.77 52.979 36.783C52.9506 36.7752 52.917 36.7649 52.8808 36.7519C52.8447 36.739 52.8059 36.7235 52.7697 36.7054C52.7336 36.6873 52.6974 36.6693 52.6664 36.6512C52.6354 36.6331 52.6121 36.6176 52.5992 36.6021C52.5682 36.5685 52.5604 36.5401 52.5811 36.5194C52.6018 36.4987 52.625 36.491 52.6535 36.4961C52.669 36.4987 52.6948 36.5013 52.7258 36.5065C52.7568 36.5116 52.7956 36.5142 52.8317 36.5168C52.8705 36.5194 52.9067 36.522 52.9403 36.5246C52.9739 36.5271 52.9997 36.5297 53.0152 36.5297C53.2349 36.5349 53.4519 36.5349 53.6715 36.5297C53.8912 36.5246 54.0901 36.5091 54.271 36.4961ZM53.3201 39.7003C53.3951 39.7028 53.4752 39.7054 53.563 39.7054C53.6509 39.7054 53.7387 39.7028 53.8266 39.7003C53.9144 39.6977 53.9997 39.6951 54.085 39.6899C54.1677 39.6848 54.2426 39.6822 54.3098 39.677C54.3511 39.6718 54.3976 39.6615 54.4493 39.6486C54.501 39.6331 54.5423 39.6124 54.5708 39.584C54.6069 39.5788 54.6586 39.5788 54.7232 39.5814C54.7878 39.5866 54.8395 39.5892 54.8757 39.5943C54.9144 39.5995 54.9532 39.6098 54.9894 39.6279C55.0255 39.646 55.0436 39.6744 55.0436 39.7132C55.0436 39.8036 54.9765 39.845 54.8421 39.8398C54.7723 39.8372 54.6741 39.8372 54.5475 39.8372C54.4183 39.8372 54.2814 39.8398 54.1341 39.8424C53.9868 39.845 53.8369 39.8476 53.687 39.8501C53.5372 39.8527 53.408 39.8553 53.2994 39.8553C53.1883 39.8631 53.1031 39.8424 53.0436 39.7907C52.9842 39.739 52.9532 39.6589 52.9532 39.5478V39.3695C52.9351 39.3256 52.9041 39.292 52.8628 39.2713C52.8214 39.2507 52.7775 39.2351 52.731 39.2222C52.669 39.2067 52.6405 39.1809 52.6457 39.1499C52.6509 39.1189 52.6819 39.0982 52.7439 39.093C52.7723 39.0904 52.8085 39.0904 52.855 39.093C52.8989 39.0956 52.9454 39.0982 52.9945 39.1034C53.0436 39.1085 53.0927 39.1111 53.1392 39.1137C53.1858 39.1163 53.2271 39.1189 53.2633 39.1189C53.3537 39.1189 53.4571 39.1189 53.5733 39.1137C53.6922 39.1111 53.8059 39.1085 53.917 39.106C54.0281 39.1034 54.1341 39.1008 54.2271 39.0956C54.3227 39.0904 54.3925 39.0879 54.4416 39.0853C54.4441 39.0594 54.4467 39.0284 54.4493 38.9923C54.4519 38.9561 54.4545 38.9199 54.4545 38.8863C54.4545 38.8501 54.4571 38.8165 54.4571 38.7804C54.4571 38.7442 54.4597 38.7158 54.4597 38.6899C54.3873 38.6873 54.3098 38.6873 54.2193 38.6873C54.1289 38.6873 54.0411 38.6925 53.948 38.6951C53.855 38.7003 53.7646 38.7054 53.6767 38.7106C53.5889 38.7184 53.5088 38.7235 53.4364 38.7287C53.3615 38.7339 53.2943 38.7442 53.2348 38.7597C53.1754 38.7752 53.1315 38.7933 53.1031 38.814C53.0772 38.8062 53.0462 38.7959 53.01 38.7804C52.9739 38.7649 52.9403 38.7494 52.9041 38.7339C52.8679 38.7184 52.8395 38.6977 52.8085 38.6796C52.7801 38.6615 52.7568 38.646 52.7439 38.6331C52.7258 38.6176 52.7155 38.6021 52.7129 38.5866C52.7103 38.5711 52.7129 38.5607 52.7181 38.5504C52.7232 38.5401 52.7361 38.5349 52.7491 38.5297C52.7646 38.5246 52.7801 38.522 52.7956 38.5246C52.8111 38.5271 52.8343 38.5297 52.8602 38.5323C52.8886 38.5349 52.917 38.5375 52.948 38.5401C52.979 38.5426 53.0075 38.5452 53.0359 38.5478C53.0643 38.5504 53.085 38.553 53.1005 38.553C53.1987 38.5581 53.3072 38.5607 53.4261 38.5582C53.5475 38.5556 53.6638 38.553 53.7801 38.5504C53.8963 38.5452 53.9997 38.5426 54.0953 38.5375C54.1909 38.5323 54.2633 38.5297 54.3175 38.5271C54.3951 38.522 54.47 38.5168 54.5475 38.5142C54.625 38.5091 54.6767 38.5065 54.7051 38.5013C54.7516 38.4961 54.7826 38.5013 54.7982 38.5142C54.8137 38.5271 54.8188 38.5426 54.8188 38.5607C54.8188 38.5788 54.8137 38.6021 54.8059 38.6279C54.7956 38.6538 54.7852 38.6822 54.7723 38.7106C54.7672 38.7339 54.7594 38.7623 54.7516 38.7933C54.7413 38.8243 54.7336 38.8579 54.7206 38.8915C54.7103 38.9251 54.7 38.9561 54.687 38.9897C54.6741 39.0207 54.6664 39.0491 54.656 39.0724C54.6767 39.0698 54.7 39.0672 54.7232 39.0672C54.7465 39.0672 54.7671 39.0698 54.7852 39.0775C54.8033 39.0853 54.8162 39.093 54.8292 39.1085C54.8421 39.1215 54.8447 39.1395 54.8421 39.1628C54.8395 39.199 54.8214 39.2248 54.7878 39.2377C54.7542 39.2507 54.7129 39.2558 54.6638 39.2507C54.3641 39.2481 54.0953 39.2481 53.8524 39.2532C53.6095 39.2584 53.4028 39.2662 53.2271 39.2791C53.2245 39.292 53.2219 39.3075 53.2219 39.3282C53.2219 39.3488 53.2219 39.3592 53.2219 39.3618V39.6124C53.2374 39.6718 53.2659 39.7003 53.3201 39.7003ZM53.4002 37.447C53.3718 37.4703 53.3408 37.4806 53.3124 37.4729C53.2814 37.4651 53.2633 37.4445 53.2581 37.4083C53.2504 37.3204 53.2374 37.2403 53.2219 37.1628C53.2064 37.0853 53.1754 37.0052 53.1263 36.9173C53.1005 36.8708 53.1005 36.8398 53.1289 36.8243C53.1573 36.8088 53.1935 36.8165 53.2374 36.845C53.2995 36.8863 53.3615 36.938 53.4235 37C53.4881 37.062 53.532 37.1215 53.563 37.1783C53.5579 37.199 53.5475 37.2222 53.5346 37.2507C53.5217 37.2765 53.5062 37.3023 53.4907 37.3308C53.4752 37.3566 53.4571 37.3799 53.4416 37.4031C53.4261 37.4264 53.4106 37.4367 53.4002 37.447Z" fill="black"/>
<path d="M58.679 36.615V38.3618C58.679 38.4031 58.679 38.46 58.6764 38.5323C58.6764 38.6047 58.6687 38.6744 58.6583 38.7416C58.648 38.8114 58.6325 38.8708 58.6092 38.9199C58.586 38.969 58.555 38.9948 58.5111 38.9948C58.449 38.9948 58.4206 38.8837 58.4206 38.6589V38.0801C58.3457 38.1111 58.2604 38.1447 58.1596 38.1783C58.0589 38.2119 57.9529 38.2455 57.8392 38.2791C57.7255 38.3127 57.6118 38.3463 57.4956 38.3773C57.3793 38.4083 57.2656 38.4341 57.1545 38.4574C57.0459 38.4806 56.9426 38.4987 56.8521 38.5116C56.7591 38.5246 56.6816 38.5323 56.617 38.5323C56.4878 38.5323 56.4 38.4987 56.356 38.4315C56.3121 38.3644 56.2888 38.2739 56.2888 38.1602V37.7468C56.2604 37.7029 56.2217 37.6667 56.1726 37.6408C56.1235 37.615 56.077 37.5969 56.033 37.5866C56.0046 37.5788 55.9839 37.5685 55.9684 37.5556C55.9555 37.5427 55.9478 37.5297 55.9478 37.5168C55.9478 37.5039 55.9555 37.491 55.971 37.4806C55.9865 37.4703 56.0098 37.4626 56.0382 37.46C56.0614 37.4574 56.1002 37.4574 56.1519 37.46C56.2036 37.4626 56.2578 37.4651 56.3173 37.4703C56.3767 37.4755 56.4387 37.4781 56.5007 37.4806C56.5653 37.4832 56.6196 37.4858 56.6661 37.4858C56.6971 37.4858 56.7488 37.4858 56.8211 37.4832C56.8935 37.4832 56.9658 37.4806 57.0459 37.4781C57.126 37.4755 57.1958 37.4729 57.263 37.4677C57.3302 37.4626 57.3715 37.46 57.3896 37.4574C57.4077 37.4548 57.4232 37.4445 57.4335 37.429V36.8501C57.3896 36.8501 57.3328 36.8501 57.2682 36.8527C57.201 36.8527 57.1338 36.8579 57.0589 36.8605C56.9865 36.8657 56.9167 36.8682 56.847 36.8734C56.7772 36.8786 56.7204 36.8837 56.6764 36.8889C56.6222 36.8967 56.5705 36.907 56.5136 36.9199C56.4594 36.9328 56.4103 36.9535 56.3664 36.9793C56.2992 36.9613 56.2372 36.9328 56.1751 36.8992C56.1131 36.8631 56.0692 36.8346 56.0459 36.814C56.0253 36.7933 56.0149 36.7726 56.0149 36.7545C56.0149 36.7184 56.0459 36.7054 56.1054 36.7184C56.1674 36.7287 56.2242 36.7339 56.2785 36.7365C56.3328 36.7365 56.387 36.739 56.4413 36.739C56.4801 36.739 56.5317 36.739 56.5912 36.7365C56.6532 36.7339 56.7178 36.7339 56.7901 36.7313C56.8625 36.7287 56.9348 36.7261 57.0098 36.7209C57.0847 36.7158 57.1545 36.7132 57.2217 36.7106C57.2707 36.708 57.3147 36.7003 57.3534 36.6874C57.3896 36.6744 57.418 36.6615 57.4361 36.6486C57.4723 36.646 57.5162 36.646 57.5627 36.6486C57.6093 36.6512 57.648 36.6563 57.6764 36.6615C57.7255 36.6667 57.7565 36.6796 57.7669 36.6977C57.7772 36.7158 57.7772 36.7339 57.772 36.752C57.7643 36.7907 57.754 36.8321 57.7436 36.8708C57.7333 36.9096 57.723 36.9509 57.7152 36.9948C57.7023 37.0646 57.6894 37.1318 57.6764 37.2042C57.6635 37.2765 57.6532 37.3437 57.6377 37.416C57.6868 37.4264 57.7204 37.4393 57.7359 37.4574C57.7514 37.4755 57.7591 37.4936 57.7591 37.5142C57.7591 37.5788 57.71 37.6124 57.6118 37.6176C57.5498 37.6202 57.4749 37.6228 57.3819 37.6253C57.2888 37.6279 57.1932 37.6305 57.095 37.6357C56.9968 37.6408 56.8987 37.6434 56.8056 37.6486C56.7126 37.6538 56.6325 37.6589 56.5653 37.6641C56.5627 37.6925 56.5627 37.7132 56.5627 37.7209C56.5627 37.7287 56.5627 37.7365 56.5627 37.739V38.199C56.5627 38.23 56.5731 38.2532 56.5937 38.2687C56.6144 38.2843 56.6506 38.2894 56.7049 38.2868C56.7979 38.2843 56.909 38.2739 57.0434 38.2558C57.1777 38.2377 57.3199 38.2145 57.4723 38.1835C57.6248 38.1525 57.7824 38.1163 57.9452 38.0775C58.108 38.0388 58.263 37.9897 58.4103 37.938V36.6899C58.4103 36.6434 58.387 36.5995 58.3379 36.5582C58.2888 36.5194 58.2165 36.4806 58.1183 36.4445C58.0976 36.4341 58.0795 36.4238 58.064 36.4135C58.0485 36.4031 58.0434 36.3928 58.0434 36.3799C58.0434 36.3669 58.0537 36.3514 58.0718 36.3359C58.0925 36.3204 58.1209 36.3127 58.1622 36.3127C58.1803 36.3127 58.2139 36.3153 58.2656 36.3204C58.3173 36.3256 58.3689 36.3334 58.4258 36.3411C58.4826 36.3514 58.5369 36.3592 58.586 36.3695C58.6351 36.3799 58.6687 36.3902 58.6842 36.398L58.679 36.615ZM57.0072 39.0905C57.0072 39.0439 56.9839 39.0052 56.9348 38.9742C56.8883 38.9432 56.816 38.9122 56.7178 38.876C56.6687 38.8579 56.6428 38.8372 56.6428 38.8114C56.6428 38.7985 56.6532 38.783 56.6739 38.7675C56.6945 38.752 56.723 38.7442 56.7617 38.7442C56.7798 38.7442 56.816 38.7468 56.8651 38.7494C56.9142 38.7545 56.9684 38.7571 57.0253 38.7623C57.0821 38.7675 57.1364 38.7752 57.1855 38.783C57.2346 38.7907 57.2682 38.7985 57.2837 38.8062L57.2682 39.0207V39.4832C57.2682 39.5582 57.3018 39.5943 57.3715 39.5943L58.1958 39.5892C58.2449 39.5892 58.294 39.5814 58.3431 39.5633C58.3896 39.5452 58.4284 39.5246 58.4542 39.5013C58.5317 39.5013 58.6041 39.5039 58.679 39.5116C58.754 39.5194 58.8056 39.5271 58.8444 39.5375C58.8702 39.5478 58.8935 39.5607 58.909 39.5788C58.9245 39.5969 58.9348 39.6176 58.9348 39.6408C58.9348 39.7132 58.8883 39.7468 58.7927 39.7468L57.3018 39.752C57.0925 39.752 56.9943 39.6383 57.0098 39.416V39.0905H57.0072Z" fill="black"/>
<path d="M59.9585 38.5761C59.9223 38.5735 59.881 38.5658 59.8396 38.5555C59.7983 38.5425 59.7544 38.5296 59.713 38.5115C59.6717 38.4934 59.6303 38.4754 59.5916 38.4573C59.5528 38.4392 59.5192 38.4159 59.4908 38.3953C59.4727 38.3823 59.4572 38.3668 59.4494 38.3487C59.4391 38.3307 59.4365 38.3151 59.4365 38.3022C59.4365 38.2635 59.4779 38.2506 59.5631 38.2635C59.6407 38.2764 59.7208 38.2867 59.8086 38.2945C59.8965 38.3022 59.9869 38.3048 60.0825 38.3048C60.421 38.3048 60.7363 38.3022 61.0308 38.2945C61.3254 38.2867 61.6071 38.279 61.8732 38.2635C61.974 38.2583 62.0541 38.248 62.1161 38.2351C62.1755 38.2195 62.2298 38.1989 62.2789 38.1705C62.3306 38.173 62.3926 38.1782 62.4598 38.186C62.527 38.1937 62.5916 38.204 62.651 38.217C62.7518 38.2376 62.8009 38.279 62.8009 38.341C62.8009 38.4237 62.7518 38.465 62.651 38.465C62.6252 38.465 62.5812 38.4624 62.5218 38.4599C62.4624 38.4547 62.39 38.4495 62.3047 38.4418C62.2711 38.4392 62.2117 38.4366 62.1316 38.4366C62.0489 38.4366 61.9507 38.434 61.8345 38.434H61.8035V39.1601C61.8035 39.2066 61.8035 39.2738 61.8009 39.3565C61.7983 39.4392 61.7931 39.5219 61.7802 39.5994C61.7673 39.6795 61.7518 39.7467 61.7259 39.8061C61.7027 39.863 61.6691 39.894 61.6226 39.894C61.5606 39.894 61.5321 39.7441 61.5321 39.4469V38.4392C61.3926 38.4443 61.2531 38.4495 61.1161 38.4521C60.9792 38.4573 60.8396 38.4599 60.7001 38.465V39.111C60.7001 39.1575 60.7001 39.2247 60.6975 39.3074C60.6949 39.3901 60.6897 39.4728 60.6768 39.5503C60.6639 39.6278 60.6458 39.6976 60.6226 39.757C60.5993 39.8164 60.5657 39.8449 60.5192 39.8449C60.4572 39.8449 60.4288 39.695 60.4288 39.3978V38.4779C60.4004 38.4805 60.3719 38.4831 60.3487 38.4831C60.3228 38.4857 60.297 38.4857 60.2711 38.4857C60.2195 38.4909 60.1652 38.5012 60.1109 38.5167C60.0567 38.5245 60.0076 38.5477 59.9585 38.5761ZM62.0644 36.9146C62.0541 37.0206 62.0412 37.1343 62.0283 37.2557C62.0153 37.3772 61.9998 37.5089 61.9843 37.6485C62.0696 37.6614 62.1109 37.695 62.1109 37.7518C62.1109 37.8139 62.0619 37.8449 61.9637 37.85C61.8551 37.8474 61.7337 37.8475 61.6019 37.8475C61.4675 37.85 61.3332 37.85 61.1936 37.8526C61.0541 37.8552 60.9197 37.8552 60.7854 37.8578C60.651 37.8604 60.5321 37.863 60.4262 37.8655C60.4236 37.8888 60.4081 37.9198 60.3823 37.956C60.3564 37.9922 60.328 38.0102 60.2996 38.0102C60.2634 38.0102 60.235 37.9947 60.2117 37.9611C60.191 37.9276 60.1781 37.8888 60.173 37.8449L60.0903 36.8888C60.0722 36.8526 60.0438 36.8216 60.005 36.7984C59.9662 36.7751 59.9275 36.757 59.8887 36.7441C59.8629 36.7363 59.8422 36.726 59.8293 36.7105C59.8164 36.695 59.8086 36.6795 59.8086 36.664C59.8086 36.6485 59.8164 36.633 59.8293 36.6226C59.8422 36.6097 59.8629 36.6046 59.8939 36.6046C59.9223 36.6046 59.9585 36.6046 59.9998 36.6071C60.0412 36.6097 60.0877 36.6123 60.1342 36.6149C60.1807 36.6201 60.2298 36.6226 60.2763 36.6278C60.3228 36.633 60.3693 36.6382 60.4158 36.6433C60.4934 36.6459 60.5786 36.6485 60.6768 36.6485C60.775 36.6485 60.8732 36.6485 60.974 36.6433C61.0748 36.6382 61.1704 36.6381 61.266 36.633C61.359 36.6278 61.4417 36.6252 61.514 36.6201C61.5631 36.6149 61.6122 36.6071 61.6613 36.5968C61.7078 36.5865 61.7414 36.5736 61.7595 36.5606C61.7957 36.558 61.8422 36.558 61.8991 36.558C61.9533 36.5606 61.9973 36.5632 62.0257 36.5684C62.0748 36.5736 62.1058 36.5865 62.1161 36.6046C62.1264 36.6226 62.1264 36.6407 62.1213 36.6588C62.1135 36.6976 62.1032 36.7389 62.0929 36.7828C62.0774 36.8294 62.0696 36.8733 62.0644 36.9146ZM61.6898 37.6769C61.7078 37.6743 61.7208 37.6717 61.7259 37.6666C61.7311 37.6614 61.7363 37.6562 61.7414 37.6485L61.7492 36.788C61.6613 36.788 61.5554 36.788 61.4288 36.7906C61.3022 36.7932 61.1755 36.7932 61.0438 36.7958C60.912 36.7984 60.7905 36.8009 60.6768 36.8035C60.5631 36.8087 60.4753 36.8113 60.4107 36.8139C60.4081 36.8423 60.4055 36.863 60.4055 36.8759C60.4055 36.8888 60.4055 36.8965 60.4055 36.9043L60.4262 37.7131C60.483 37.7131 60.5657 37.7131 60.6742 37.7105C60.7802 37.7079 60.8965 37.7079 61.0179 37.7053C61.1394 37.7053 61.2608 37.7002 61.3797 37.695C61.5037 37.6898 61.6071 37.6847 61.6898 37.6769Z" fill="black"/>
<path d="M64.9555 36.9664C64.8935 37.0775 64.8315 37.1809 64.7643 37.2765C64.6971 37.3721 64.63 37.4651 64.5602 37.553C64.5938 37.5814 64.6377 37.615 64.6894 37.6538C64.7411 37.6925 64.7824 37.7209 64.8108 37.739C64.8289 37.7494 64.8496 37.7597 64.8754 37.77C64.8987 37.7804 64.9219 37.7881 64.9426 37.7933C64.9865 37.801 65.0227 37.8191 65.0486 37.845C65.0925 37.8941 65.1338 37.9458 65.1674 37.9948C65.201 38.0439 65.2294 38.0853 65.2501 38.1189C65.263 38.1421 65.2734 38.1654 65.2785 38.1835C65.2837 38.2016 65.2914 38.2222 65.2966 38.2377C65.3095 38.2817 65.2889 38.3127 65.232 38.3256C65.2036 38.3282 65.1467 38.292 65.0666 38.2145L64.4646 37.6641C64.2915 37.8631 64.108 38.0362 63.9168 38.1835C63.7256 38.3308 63.5266 38.4651 63.3199 38.584C63.2915 38.5995 63.2656 38.6073 63.2449 38.6047C63.2243 38.6021 63.2088 38.5943 63.201 38.5814C63.1933 38.5685 63.1933 38.5504 63.1984 38.5297C63.2062 38.5091 63.2217 38.491 63.2475 38.4755C63.5163 38.292 63.7747 38.0724 64.0201 37.8114C64.2656 37.5504 64.4723 37.2507 64.6429 36.9096C64.5989 36.9122 64.5473 36.9147 64.493 36.9147C64.4387 36.9173 64.3819 36.9173 64.325 36.9199C64.2682 36.9225 64.2113 36.9251 64.1545 36.9277C64.0977 36.9302 64.0486 36.9354 64.0046 36.9406C63.9504 36.9458 63.9013 36.9561 63.8547 36.969C63.8082 36.9819 63.7643 37.0026 63.723 37.0284C63.692 37.0207 63.6558 37.0104 63.6196 36.9948C63.5834 36.9793 63.5473 36.9638 63.5111 36.9483C63.4775 36.9328 63.4465 36.9147 63.4206 36.8992C63.3948 36.8812 63.3767 36.8682 63.3664 36.8579C63.3509 36.8424 63.3431 36.8243 63.3431 36.8062C63.3431 36.77 63.3741 36.7571 63.4336 36.77C63.4956 36.7804 63.5524 36.7856 63.6067 36.7881C63.661 36.7881 63.7152 36.7907 63.7695 36.7907C63.816 36.7907 63.8754 36.7907 63.9426 36.7881C64.0098 36.7856 64.0822 36.783 64.1571 36.7804C64.232 36.7752 64.307 36.7726 64.3845 36.77C64.462 36.7675 64.5318 36.7623 64.5938 36.7571C64.6351 36.7545 64.6739 36.7468 64.7049 36.7339C64.7359 36.7209 64.7592 36.7106 64.7721 36.7029C64.7953 36.7029 64.8263 36.7054 64.8651 36.708C64.9039 36.7106 64.94 36.7158 64.9788 36.7209C65.0253 36.7287 65.0511 36.7494 65.0511 36.7804C65.0511 36.8088 65.046 36.8321 65.0382 36.8501C65.0279 36.8682 65.0201 36.8837 65.0098 36.8992C65.002 36.9122 64.9917 36.9251 64.9814 36.9354C64.9685 36.9406 64.9607 36.9535 64.9555 36.9664ZM65.9581 38.9768C65.9555 39.0104 65.953 39.0517 65.953 39.0956C65.953 39.1396 65.9504 39.1861 65.9504 39.2352C65.9478 39.2817 65.9478 39.3308 65.9452 39.3747C65.9426 39.4186 65.9426 39.4651 65.94 39.5039C65.94 39.5323 65.9374 39.5762 65.9297 39.6305C65.9219 39.6848 65.9142 39.7416 65.9013 39.7959C65.8884 39.8501 65.8728 39.8967 65.8522 39.938C65.8315 39.9793 65.8057 40 65.7721 40C65.7385 40 65.7126 39.9638 65.6997 39.8915C65.6842 39.8191 65.6791 39.6951 65.6791 39.522V38.801C65.6351 38.801 65.5628 38.8011 65.462 38.8036C65.3638 38.8036 65.2579 38.8088 65.1442 38.8114C65.0331 38.8166 64.9245 38.8191 64.8237 38.8243C64.723 38.8295 64.6455 38.8321 64.5964 38.8372C64.4878 38.8476 64.3871 38.8812 64.294 38.9354C64.2579 38.9277 64.2191 38.9147 64.1803 38.8992C64.1416 38.8837 64.1028 38.8657 64.0666 38.8476C64.0305 38.8295 63.9995 38.8114 63.9684 38.7933C63.94 38.7752 63.9194 38.7623 63.909 38.752C63.8909 38.7365 63.8806 38.7184 63.8806 38.7003C63.8806 38.6641 63.9142 38.6512 63.9788 38.6641C64.0434 38.6744 64.1054 38.6796 64.1648 38.6822C64.2268 38.6848 64.2837 38.6848 64.3431 38.6848C64.3922 38.6848 64.4672 38.6848 64.5653 38.6822C64.6635 38.6822 64.7669 38.6796 64.878 38.677C64.9891 38.6744 65.0977 38.6719 65.2062 38.6667C65.3121 38.6615 65.3974 38.6589 65.462 38.6563C65.5085 38.6538 65.5576 38.646 65.6015 38.6331C65.6454 38.6202 65.6765 38.6073 65.692 38.5969C65.7281 38.5943 65.7695 38.5943 65.816 38.5969C65.8599 38.5995 65.8987 38.6047 65.9271 38.6098C65.9736 38.6176 65.9995 38.6331 65.9995 38.6563C65.9995 38.6796 65.9995 38.7003 65.9969 38.7209C65.9917 38.7649 65.984 38.8088 65.9762 38.8527C65.9684 38.8915 65.9607 38.9328 65.9581 38.9768ZM65.971 36.615V37.8321C65.971 37.8734 65.971 37.9302 65.9685 38.0026C65.9685 38.075 65.9607 38.1447 65.9504 38.2119C65.94 38.2817 65.9245 38.3411 65.9013 38.3902C65.878 38.4393 65.847 38.4651 65.8031 38.4651C65.7411 38.4651 65.7126 38.354 65.7126 38.1292V36.6899C65.7126 36.6434 65.6894 36.5995 65.6403 36.5582C65.5912 36.5194 65.5188 36.4806 65.4207 36.4445C65.4 36.4341 65.3819 36.4238 65.3664 36.4135C65.3509 36.4031 65.3457 36.3928 65.3457 36.3799C65.3457 36.3669 65.356 36.3514 65.3741 36.3359C65.3948 36.3204 65.4232 36.3127 65.4646 36.3127C65.4827 36.3127 65.5162 36.3153 65.5679 36.3204C65.6196 36.3256 65.6713 36.3334 65.7281 36.3411C65.785 36.3514 65.8393 36.3592 65.8884 36.3695C65.9375 36.3799 65.971 36.3902 65.9865 36.398L65.971 36.615Z" fill="black"/>
<path d="M4.56072 25.4058L5.20155 26.951C5.17054 26.9769 5.13436 26.9975 5.09818 27.0182C5.05942 27.0363 5.02583 27.0596 4.99483 27.0828C4.73643 26.6565 4.4832 26.3412 4.23256 26.1396C4.0491 25.9949 3.86046 25.8916 3.66149 25.8296C3.46253 25.7676 3.2584 25.7365 3.04393 25.7365H2.13953C2.04651 25.7365 1.94832 25.7417 1.85271 25.7495C1.75452 25.7598 1.67959 25.7727 1.62274 25.7908C1.47287 25.8606 1.39535 26.0182 1.39535 26.2611V28.38H2.78036C3.08785 28.38 3.29715 28.3154 3.41085 28.181C3.55555 28.0182 3.62791 27.7185 3.62791 27.2869H3.90181V29.9148H3.62791C3.62791 29.4239 3.55555 29.0983 3.41085 28.9355C3.29198 28.7986 3.0801 28.7288 2.78036 28.7288H1.39535V31.0544C1.39535 31.3128 1.44186 31.473 1.53746 31.535C1.63824 31.6177 1.9018 31.6564 2.32816 31.6564V31.9665H0.00257862V31.6642C0.34108 31.6642 0.560723 31.6229 0.661498 31.5427C0.749353 31.4678 0.793283 31.3076 0.793283 31.0621V26.2585C0.793283 26.0828 0.754523 25.9562 0.679588 25.8813C0.565893 25.7676 0.341085 25.7107 0 25.7107V25.4006H4.56072V25.4058Z" fill="black"/>
<path d="M12.4623 31.9717H10.116V31.6513C10.3977 31.6513 10.6044 31.6332 10.7336 31.5944C10.8628 31.5557 10.9429 31.5014 10.9739 31.4239C10.9791 31.4187 10.9842 31.398 10.9842 31.367C10.9842 31.336 10.9791 31.3024 10.9662 31.2688C10.9532 31.2352 10.9403 31.1991 10.9274 31.1603C10.9016 31.1112 10.8783 31.057 10.8576 31.0053C10.8344 30.951 10.8111 30.8967 10.7879 30.8399C10.7181 30.6332 10.6457 30.429 10.5708 30.2275C10.4959 30.0259 10.4235 29.827 10.3538 29.6254H7.77236C7.69743 29.8528 7.61991 30.0776 7.54239 30.305C7.46487 30.5324 7.38735 30.7598 7.31241 30.9923C7.2814 31.0544 7.26074 31.1138 7.2504 31.1655C7.24006 31.2197 7.23748 31.2688 7.23748 31.3102C7.23748 31.3851 7.25298 31.4394 7.28399 31.4704C7.34084 31.5892 7.59665 31.6487 8.0566 31.6487V31.9691H6.03076V31.6487C6.19355 31.6487 6.32792 31.628 6.43128 31.5867C6.53463 31.5453 6.63025 31.473 6.7181 31.3644C6.76203 31.3076 6.80337 31.2352 6.83955 31.1474C6.87831 31.0595 6.91707 30.9613 6.961 30.8554C6.99976 30.7495 7.06694 30.5582 7.16255 30.2818C7.26074 30.0053 7.37184 29.6849 7.49587 29.3205C7.62249 28.9562 7.75686 28.5737 7.90156 28.1706C8.04626 27.7675 8.18063 27.3851 8.30725 27.0208C8.43386 26.6564 8.54497 26.336 8.64058 26.0595C8.73877 25.783 8.80596 25.5918 8.84213 25.4859C8.92482 25.442 9.00492 25.4006 9.0876 25.3593C9.17029 25.3179 9.2504 25.2766 9.33309 25.2327C9.71035 26.212 10.0799 27.181 10.4442 28.1396C10.8085 29.0983 11.178 30.0647 11.5553 31.0466C11.638 31.2611 11.7336 31.4135 11.8473 31.5091C11.9791 31.6022 12.1832 31.6513 12.4597 31.6513V31.9717H12.4623ZM10.2297 29.2482C10.0282 28.7133 9.82662 28.181 9.62249 27.6461C9.41836 27.1112 9.2168 26.5789 9.01525 26.044C8.82662 26.5789 8.64058 27.1112 8.45453 27.6461C8.26849 28.181 8.08244 28.7133 7.89381 29.2482H10.2297Z" fill="black"/>
<path d="M18.651 30.3411L17.9998 31.9794H13.3745V31.6693C13.6949 31.6693 13.9275 31.6228 14.0722 31.5272C14.1781 31.4522 14.2324 31.3204 14.2324 31.1318V26.2429C14.2324 26.0362 14.1833 25.8941 14.0825 25.8192C13.9637 25.7365 13.7285 25.6977 13.3771 25.6977V25.3954H15.7595V25.6977C15.3461 25.6977 15.0877 25.7391 14.9869 25.8192C14.8861 25.9018 14.837 26.0414 14.837 26.2429V31.1422C14.837 31.3308 14.8784 31.4626 14.9585 31.5375C15.0515 31.6124 15.2091 31.6512 15.4288 31.6512H16.4753C16.9016 31.6512 17.2608 31.5349 17.5502 31.3024C17.8525 31.0879 18.1394 30.7287 18.4159 30.2197L18.651 30.3411Z" fill="black"/>
<path d="M25.0001 30.3411L24.349 31.9794H19.7236V31.6693C20.044 31.6693 20.2766 31.6228 20.4213 31.5272C20.5273 31.4522 20.5815 31.3204 20.5815 31.1318V26.2429C20.5815 26.0362 20.5324 25.8941 20.4316 25.8192C20.3128 25.7365 20.0776 25.6977 19.7262 25.6977V25.3954H22.1086V25.6977C21.6952 25.6977 21.4368 25.7391 21.336 25.8192C21.2353 25.9018 21.1862 26.0414 21.1862 26.2429V31.1422C21.1862 31.3308 21.2275 31.4626 21.3076 31.5375C21.4006 31.6124 21.5583 31.6512 21.7779 31.6512H22.8244C23.2508 31.6512 23.6099 31.5349 23.8994 31.3024C24.2017 31.0879 24.4885 30.7287 24.765 30.2197L25.0001 30.3411Z" fill="black"/>
<path d="M28.4576 31.9716H26.2354V31.6693C26.5428 31.6693 26.7573 31.6279 26.8762 31.5478C26.9821 31.4729 27.0364 31.3463 27.0364 31.1706V26.2636C27.0364 26.062 26.9821 25.9173 26.8762 25.8295C26.7496 25.7416 26.5377 25.6977 26.2354 25.6977V25.4057H28.4576V25.6977C28.3439 25.6977 28.2457 25.7054 28.1604 25.7209C28.0751 25.7365 28.0028 25.7545 27.9382 25.7726C27.8193 25.8166 27.7392 25.8786 27.703 25.9561C27.6643 26.0336 27.6462 26.137 27.6462 26.261V31.168C27.6462 31.3566 27.6927 31.4832 27.7883 31.5452C27.9149 31.6279 28.1372 31.6667 28.4576 31.6667V31.9716Z" fill="black"/>
<path d="M36.0128 25.6976C35.85 25.6976 35.7156 25.708 35.6123 25.7261C35.5089 25.7442 35.4288 25.7726 35.372 25.8062C35.3151 25.8398 35.2789 25.8811 35.2583 25.925C35.2402 25.969 35.2298 26.0181 35.2298 26.0749C35.2247 26.0801 35.2195 26.1163 35.2195 26.1783V32H34.9559C34.2583 31.0517 33.5709 30.1137 32.8939 29.1834C32.2169 28.2532 31.5348 27.3152 30.85 26.3669V31.1059C30.85 31.3204 30.8991 31.4677 30.9999 31.5478C31.1058 31.6305 31.3125 31.6692 31.6226 31.6692V31.9715H29.6924V31.6692C29.9818 31.6692 30.1885 31.6253 30.3151 31.5374C30.4211 31.4444 30.4753 31.2997 30.4753 31.1033V26.1964C30.4753 26.0387 30.4211 25.9225 30.31 25.8423C30.1988 25.7648 29.9947 25.7235 29.6924 25.7235V25.4031H30.8888C31.5554 26.2945 32.2143 27.1757 32.8707 28.0465C33.527 28.9173 34.1885 29.7958 34.8526 30.6899V26.1964C34.8526 26.0077 34.7957 25.8785 34.682 25.8088C34.5554 25.7338 34.359 25.6951 34.0877 25.6951V25.4031H36.0102V25.6976H36.0128Z" fill="black"/>
<path d="M44.3951 31.9717H42.1522V31.6693C42.5088 31.6693 42.7491 31.6202 42.868 31.5195C42.9687 31.4264 43.0178 31.2869 43.0178 31.106V26.0104C42.6225 27.0285 42.2349 28.0311 41.855 29.0208C41.4752 30.0104 41.0928 31.013 40.7103 32.0311H40.4184C40.0411 31.0337 39.6742 30.0414 39.3176 29.0595C38.9584 28.0776 38.5915 27.0828 38.2142 26.0776V31.1086C38.2142 31.3153 38.2685 31.4626 38.3744 31.5505C38.501 31.6332 38.7155 31.6719 39.023 31.6719V31.9743H37.0928V31.6719C37.4003 31.6719 37.6018 31.6358 37.7 31.5634C37.7982 31.491 37.8447 31.3774 37.8447 31.2197V26.2275C37.8447 26.0466 37.7956 25.9174 37.6948 25.8425C37.5941 25.7598 37.3977 25.721 37.1005 25.721V25.4109H38.6638C39.0023 26.3412 39.3434 27.2585 39.6871 28.1629C40.0282 29.0673 40.3693 29.9872 40.7103 30.9226C41.0488 29.9872 41.3899 29.0673 41.7336 28.1629C42.0747 27.2585 42.4158 26.3412 42.7568 25.4109H44.3951V25.721C44.0307 25.721 43.8085 25.7624 43.7258 25.8425C43.6561 25.9303 43.6225 26.0492 43.6225 26.2016V31.1086C43.6225 31.3024 43.6638 31.442 43.7439 31.5221C43.8628 31.6228 44.0798 31.6719 44.3951 31.6719V31.9717V31.9717Z" fill="black"/>
<path d="M51.8267 25.7158C51.4934 25.7158 51.2686 25.7571 51.1472 25.8372C51.0541 25.907 51.005 26.031 51.005 26.2145V29.9173C51.005 30.5272 50.8474 31.0259 50.5348 31.416C50.1317 31.8941 49.4831 32.1318 48.5839 32.1318C47.912 32.1318 47.3642 31.938 46.9456 31.5478C46.4986 31.1215 46.2764 30.5452 46.2764 29.8243V26.2248C46.2764 26.0362 46.2195 25.907 46.1058 25.8398C45.987 25.7571 45.7518 25.7184 45.4004 25.7184V25.4083H47.7544V25.7184C47.3952 25.7184 47.1575 25.7597 47.0386 25.8398C46.943 25.9096 46.8965 26.0388 46.8965 26.2248V29.8786C46.8965 30.4677 47.0697 30.9277 47.4133 31.2532C47.7518 31.5737 48.2169 31.7339 48.8087 31.7339C49.2531 31.7339 49.6278 31.6124 49.9301 31.3669C50.3823 31.0284 50.6071 30.5349 50.6071 29.8889V26.2145C50.6071 26.0388 50.5529 25.9122 50.4469 25.8372C50.328 25.7545 50.1007 25.7158 49.7673 25.7158V25.4057H51.8216V25.7158H51.8267Z" fill="black"/>
<path d="M57.6199 30.2844C57.6199 30.8632 57.4261 31.3102 57.0359 31.6307C56.6664 31.964 56.1625 32.1294 55.5294 32.1294C55.3149 32.1294 55.0824 32.1035 54.8317 32.0544C54.5811 32.0053 54.346 31.933 54.1263 31.8374C54.0204 31.8684 53.9144 31.9046 53.8111 31.9407C53.7077 31.9795 53.6121 32.0234 53.5242 32.0725C53.4106 31.7702 53.2969 31.4756 53.1806 31.1862C53.0643 30.8968 52.9506 30.6022 52.8369 30.2999C52.8808 30.2741 52.9222 30.2508 52.9584 30.2301C52.9971 30.2095 53.0359 30.1888 53.0798 30.1681C53.3873 30.6643 53.687 31.0183 53.9739 31.2327C54.0669 31.3077 54.1806 31.3774 54.3072 31.4394C54.4364 31.5015 54.5682 31.5583 54.7077 31.6048C54.8472 31.6513 54.9842 31.6875 55.1211 31.7133C55.2581 31.7392 55.3847 31.7521 55.4984 31.7521C55.7361 31.7521 55.9506 31.7211 56.1392 31.6591C56.3279 31.5971 56.4855 31.5092 56.6095 31.3955C56.8731 31.15 57.0049 30.827 57.0049 30.4265C57.0049 30.2767 56.9713 30.1268 56.9015 29.9795C56.8317 29.8322 56.7413 29.7108 56.6276 29.6177C56.377 29.4162 55.8834 29.1914 55.1496 28.9382C54.5656 28.7314 54.1031 28.4885 53.7646 28.2121C53.3124 27.8658 53.0876 27.4472 53.0876 26.9511C53.0876 26.442 53.2684 26.0338 53.6328 25.7263C53.9842 25.4188 54.4416 25.2637 55.0074 25.2637C55.2762 25.2637 55.5423 25.3025 55.7981 25.3774C55.8679 25.4033 55.9351 25.4265 55.9997 25.4524C56.0669 25.4782 56.1263 25.5015 56.1832 25.5273L56.749 25.3387C56.8627 25.6281 56.9765 25.9123 57.0876 26.1965C57.2013 26.4782 57.315 26.765 57.4261 27.0544C57.3563 27.0854 57.2865 27.1216 57.2193 27.1578C56.9558 26.7056 56.6534 26.3464 56.3149 26.0828C55.9067 25.7805 55.4674 25.6307 54.9971 25.6307C54.8343 25.6307 54.6819 25.6539 54.5449 25.7004C54.4054 25.7469 54.2813 25.809 54.1677 25.8839C54.01 25.9898 53.8886 26.1268 53.8007 26.2896C53.7129 26.4524 53.6689 26.6436 53.6689 26.8632C53.6689 27.2224 53.855 27.5195 54.2245 27.7573C54.4131 27.871 54.594 27.9666 54.7697 28.0441C54.9454 28.1216 55.1702 28.2069 55.4467 28.2947C55.8292 28.4214 56.1522 28.548 56.4157 28.6798C56.6793 28.8115 56.8886 28.9407 57.0462 29.0648C57.4312 29.3723 57.6199 29.7754 57.6199 30.2844Z" fill="black"/>
<path d="M61.2193 31.9716H58.9971V31.6693C59.3046 31.6693 59.519 31.6279 59.6379 31.5478C59.7439 31.4729 59.7981 31.3463 59.7981 31.1706V26.2636C59.7981 26.062 59.7439 25.9173 59.6379 25.8295C59.5113 25.7416 59.2994 25.6977 58.9971 25.6977V25.4057H61.2193V25.6977C61.1056 25.6977 61.0074 25.7054 60.9221 25.7209C60.8369 25.7365 60.7645 25.7545 60.6999 25.7726C60.5811 25.8166 60.5035 25.8786 60.4648 25.9561C60.426 26.0336 60.4079 26.137 60.4079 26.261V31.168C60.4079 31.3566 60.4544 31.4832 60.55 31.5452C60.6767 31.6279 60.8989 31.6667 61.2193 31.6667V31.9716Z" fill="black"/>
<path d="M67.6821 30.031C67.726 30.0491 67.7725 30.0724 67.8191 30.0956C67.8656 30.1215 67.9121 30.1421 67.956 30.1628C67.7183 30.7985 67.3875 31.2688 66.9663 31.5762C66.5193 31.9354 65.9999 32.1137 65.403 32.1137C64.9689 32.1137 64.5762 32.0284 64.2248 31.8605C63.8733 31.6899 63.5658 31.4419 63.3023 31.1163C62.8191 30.4703 62.5762 29.6693 62.5762 28.7132C62.5762 27.739 62.8165 26.9277 63.3023 26.2739C63.8113 25.6021 64.465 25.2662 65.2609 25.2662C65.7622 25.2662 66.1937 25.3592 66.5529 25.5478C66.6408 25.5091 66.7312 25.4729 66.8268 25.4393C66.9198 25.4057 67.0129 25.3721 67.1007 25.3411C67.2196 25.6305 67.3384 25.9147 67.4547 26.199C67.571 26.4806 67.6899 26.7675 67.8087 27.0569C67.7648 27.075 67.7234 27.0956 67.6873 27.1189C67.6485 27.1421 67.6098 27.1602 67.5658 27.1809C67.3074 26.7597 67.0258 26.4212 66.7183 26.1628C66.3849 25.8941 66.0335 25.7365 65.664 25.6925C65.602 25.6796 65.5374 25.6744 65.4754 25.6744C65.4134 25.6744 65.3462 25.6744 65.2764 25.6744C64.8552 25.6925 64.478 25.8682 64.1446 26.2016C64.031 26.3153 63.9276 26.4367 63.8346 26.5685C63.4444 27.1266 63.2506 27.8243 63.2506 28.6589C63.2506 29.4755 63.4573 30.1576 63.8733 30.7029C63.9302 30.7726 63.987 30.8372 64.0465 30.9018C64.1059 30.9638 64.1653 31.0207 64.2196 31.0724C64.4134 31.2662 64.6253 31.4083 64.8552 31.4961C65.0852 31.584 65.3307 31.6279 65.5943 31.6279C66.0025 31.6279 66.3927 31.4806 66.7622 31.1861C67.155 30.8605 67.4625 30.4755 67.6821 30.031Z" fill="black"/>
<path d="M34.2094 12.186C33.9949 12.186 33.8218 12.0129 33.8218 11.7984V3.08523C33.8218 2.87076 33.9949 2.69763 34.2094 2.69763C34.4238 2.69763 34.597 2.87076 34.597 3.08523V11.7984C34.597 12.0129 34.4238 12.186 34.2094 12.186Z" fill="black"/>
<path d="M31.9638 10.3902C31.7493 10.3902 31.5762 10.2171 31.5762 10.0026V2.18606C31.5762 1.97159 31.7493 1.79846 31.9638 1.79846C32.1782 1.79846 32.3514 1.97159 32.3514 2.18606V10.0026C32.3514 10.2171 32.1782 10.3902 31.9638 10.3902Z" fill="black"/>
<path d="M29.7187 8.59173C29.5042 8.59173 29.3311 8.4186 29.3311 8.20413V0.387597C29.3311 0.173127 29.5042 0 29.7187 0C29.9331 0 30.1062 0.173127 30.1062 0.387597V8.20413C30.1062 8.4186 29.9331 8.59173 29.7187 8.59173Z" fill="black"/>
<path d="M27.4755 17.5814C27.261 17.5814 27.0879 17.4083 27.0879 17.1938V0.387597C27.0879 0.173127 27.261 0 27.4755 0C27.69 0 27.8631 0.173127 27.8631 0.387597V17.1938C27.8631 17.4083 27.69 17.5814 27.4755 17.5814Z" fill="black"/>
<path d="M25.2299 16.6822C25.0154 16.6822 24.8423 16.5091 24.8423 16.2946V2.18606C24.8423 1.97159 25.0154 1.79846 25.2299 1.79846C25.4444 1.79846 25.6175 1.97159 25.6175 2.18606V16.2946C25.6175 16.5091 25.4444 16.6822 25.2299 16.6822Z" fill="black"/>
<path d="M22.9867 14.8811C22.7722 14.8811 22.5991 14.7079 22.5991 14.4935V3.98702C22.5991 3.77255 22.7722 3.59943 22.9867 3.59943C23.2012 3.59943 23.3743 3.77255 23.3743 3.98702V14.4935C23.3743 14.7079 23.2012 14.8811 22.9867 14.8811Z" fill="black"/>
<path d="M20.7416 12.6641C20.5271 12.6641 20.354 12.491 20.354 12.2765V7.58401C20.354 7.36954 20.5271 7.19641 20.7416 7.19641C20.9561 7.19641 21.1292 7.36954 21.1292 7.58401V12.2765C21.1292 12.491 20.9561 12.6641 20.7416 12.6641Z" fill="black"/>
<path d="M34.3383 12.186C34.1238 12.186 33.9507 12.0129 33.9507 11.7984V3.08523C33.9507 2.87076 34.1238 2.69763 34.3383 2.69763C34.5528 2.69763 34.7259 2.87076 34.7259 3.08523V11.7984C34.7259 12.0129 34.5528 12.186 34.3383 12.186Z" fill="black"/>
<path d="M36.5844 10.3902C36.3699 10.3902 36.1968 10.2171 36.1968 10.0026V2.18606C36.1968 1.97159 36.3699 1.79846 36.5844 1.79846C36.7988 1.79846 36.972 1.97159 36.972 2.18606V10.0026C36.972 10.2171 36.7963 10.3902 36.5844 10.3902Z" fill="black"/>
<path d="M38.8266 8.59173C38.6121 8.59173 38.439 8.4186 38.439 8.20413V0.387597C38.439 0.173127 38.6121 0 38.8266 0C39.041 0 39.2142 0.173127 39.2142 0.387597V8.20413C39.2142 8.4186 39.041 8.59173 38.8266 8.59173Z" fill="black"/>
<path d="M41.0722 17.5814C40.8577 17.5814 40.6846 17.4083 40.6846 17.1938V0.387597C40.6846 0.173127 40.8577 0 41.0722 0C41.2866 0 41.4598 0.173127 41.4598 0.387597V17.1938C41.4598 17.4083 41.2866 17.5814 41.0722 17.5814Z" fill="black"/>
<path d="M43.3178 16.6822C43.1033 16.6822 42.9302 16.5091 42.9302 16.2946V2.18606C42.9302 1.97159 43.1033 1.79846 43.3178 1.79846C43.5322 1.79846 43.7054 1.97159 43.7054 2.18606V16.2946C43.7054 16.5091 43.5322 16.6822 43.3178 16.6822Z" fill="black"/>
<path d="M45.5634 14.8811C45.3489 14.8811 45.1758 14.7079 45.1758 14.4935V3.98702C45.1758 3.77255 45.3489 3.59943 45.5634 3.59943C45.7778 3.59943 45.951 3.77255 45.951 3.98702V14.4935C45.951 14.7079 45.7753 14.8811 45.5634 14.8811Z" fill="black"/>
<path d="M47.8036 12.6641C47.5891 12.6641 47.416 12.491 47.416 12.2765V7.58401C47.416 7.36954 47.5891 7.19641 47.8036 7.19641C48.0181 7.19641 48.1912 7.36954 48.1912 7.58401V12.2765C48.1912 12.491 48.0181 12.6641 47.8036 12.6641Z" fill="black"/>
</svg>
