<svg width="52" height="52" viewBox="0 0 52 52" fill="none" xmlns="http://www.w3.org/2000/svg">
<path fill-rule="evenodd" clip-rule="evenodd" d="M26.113 51.999C40.41 51.999 52 40.3586 52 25.9995C52 11.6404 40.41 0 26.113 0C11.816 0 0.225973 11.6404 0.225973 25.9995C0.225973 30.2687 1.25047 34.2975 3.06601 37.8515L0 49.2565L10.2231 46.5263C14.6093 49.9562 20.1236 51.999 26.113 51.999Z" fill="#204466"/>
<path d="M16.6467 19.7029H18.9867V14.4769H16.6467V19.7029ZM14.9567 13.1249H20.6767V21.0549H14.9567V13.1249ZM25.7077 17.9219H23.9657V23.9669H22.2497V12.0069H23.9657V16.5049H25.7077V17.9219ZM32.6617 12.6829C32.6617 14.2775 32.1763 15.6079 31.2057 16.6739C30.2437 17.7312 28.8743 18.4895 27.0977 18.9489L26.4217 17.5969C27.7563 17.2675 28.7877 16.7909 29.5157 16.1669C30.2437 15.5429 30.6683 14.8365 30.7897 14.0479H26.9937V12.6829H32.6617ZM29.8927 22.4849H34.2867V20.4959H29.8927V22.4849ZM28.2157 19.1439H35.9767V23.8239H28.2157V19.1439ZM37.5627 15.9979H35.9767V18.6629H34.2607V11.9939H35.9767V14.5939H37.5627V15.9979ZM24.5377 26.9939V33.7799H22.8087V26.9939H24.5377ZM24.5377 34.3129V38.8239H16.5687V34.3129H24.5377ZM18.2587 35.6519V37.4849H22.8607V35.6519H18.2587ZM18.0247 27.5399C18.4927 27.5399 18.9217 27.6135 19.3117 27.7609C19.7103 27.8995 20.0527 28.0989 20.3387 28.3589C20.6333 28.6102 20.863 28.9135 21.0277 29.2689C21.1923 29.6155 21.2747 30.0012 21.2747 30.4259C21.2747 30.8419 21.1923 31.2275 21.0277 31.5829C20.863 31.9382 20.6333 32.2415 20.3387 32.4929C20.0527 32.7442 19.7103 32.9435 19.3117 33.0909C18.9217 33.2295 18.4927 33.2989 18.0247 33.2989C17.5567 33.2989 17.1233 33.2295 16.7247 33.0909C16.3347 32.9435 15.9923 32.7442 15.6977 32.4929C15.403 32.2415 15.1733 31.9382 15.0087 31.5829C14.844 31.2275 14.7617 30.8419 14.7617 30.4259C14.7617 30.0012 14.844 29.6155 15.0087 29.2689C15.1733 28.9135 15.403 28.6102 15.6977 28.3589C15.9923 28.0989 16.3347 27.8995 16.7247 27.7609C17.1233 27.6135 17.5567 27.5399 18.0247 27.5399ZM18.0247 28.9699C17.5653 28.9699 17.184 29.0999 16.8807 29.3599C16.586 29.6112 16.4387 29.9665 16.4387 30.4259C16.4387 30.8765 16.586 31.2319 16.8807 31.4919C17.184 31.7432 17.5653 31.8689 18.0247 31.8689C18.4753 31.8689 18.848 31.7432 19.1427 31.4919C19.446 31.2319 19.5977 30.8765 19.5977 30.4259C19.5977 29.9665 19.446 29.6112 19.1427 29.3599C18.848 29.0999 18.4753 28.9699 18.0247 28.9699ZM30.9457 30.6469H28.5927V32.2199H30.9457V30.6469ZM32.6357 33.5719H26.9027V27.7609H28.5927V29.3339H30.9457V27.7609H32.6357V33.5719ZM27.9817 34.7029H35.9767V38.9799H34.2607V36.0679H27.9817V34.7029ZM37.5627 31.3099H35.9767V34.1699H34.2607V26.9939H35.9767V29.9059H37.5627V31.3099Z" fill="#F3FFFF"/>
</svg>
